%TF.GenerationSoftware,KiCad,Pcbnew,7.0.8*%
%TF.CreationDate,2025-02-03T20:38:03+05:30*%
%TF.ProjectId,WemosD1Mini-8266,57656d6f-7344-4314-9d69-6e692d383236,rev?*%
%TF.SameCoordinates,Original*%
%TF.FileFunction,Soldermask,Bot*%
%TF.FilePolarity,Negative*%
%FSLAX46Y46*%
G04 Gerber Fmt 4.6, Leading zero omitted, Abs format (unit mm)*
G04 Created by KiCad (PCBNEW 7.0.8) date 2025-02-03 20:38:03*
%MOMM*%
%LPD*%
G01*
G04 APERTURE LIST*
G04 Aperture macros list*
%AMRoundRect*
0 Rectangle with rounded corners*
0 $1 Rounding radius*
0 $2 $3 $4 $5 $6 $7 $8 $9 X,Y pos of 4 corners*
0 Add a 4 corners polygon primitive as box body*
4,1,4,$2,$3,$4,$5,$6,$7,$8,$9,$2,$3,0*
0 Add four circle primitives for the rounded corners*
1,1,$1+$1,$2,$3*
1,1,$1+$1,$4,$5*
1,1,$1+$1,$6,$7*
1,1,$1+$1,$8,$9*
0 Add four rect primitives between the rounded corners*
20,1,$1+$1,$2,$3,$4,$5,0*
20,1,$1+$1,$4,$5,$6,$7,0*
20,1,$1+$1,$6,$7,$8,$9,0*
20,1,$1+$1,$8,$9,$2,$3,0*%
G04 Aperture macros list end*
%ADD10R,2.000000X2.000000*%
%ADD11O,2.000000X1.600000*%
%ADD12C,3.000000*%
%ADD13R,2.540000X2.540000*%
%ADD14C,2.540000*%
%ADD15C,2.000000*%
%ADD16RoundRect,0.250000X0.750000X-0.600000X0.750000X0.600000X-0.750000X0.600000X-0.750000X-0.600000X0*%
%ADD17O,2.000000X1.700000*%
%ADD18R,2.600000X2.600000*%
%ADD19C,2.600000*%
%ADD20RoundRect,0.250000X0.600000X0.750000X-0.600000X0.750000X-0.600000X-0.750000X0.600000X-0.750000X0*%
%ADD21O,1.700000X2.000000*%
%ADD22C,1.800000*%
%ADD23C,3.200000*%
%ADD24RoundRect,0.250000X0.600000X0.725000X-0.600000X0.725000X-0.600000X-0.725000X0.600000X-0.725000X0*%
%ADD25O,1.700000X1.950000*%
%ADD26RoundRect,0.250000X-0.350000X-0.450000X0.350000X-0.450000X0.350000X0.450000X-0.350000X0.450000X0*%
%ADD27RoundRect,0.237500X0.250000X0.237500X-0.250000X0.237500X-0.250000X-0.237500X0.250000X-0.237500X0*%
%ADD28RoundRect,0.162500X0.750000X0.162500X-0.750000X0.162500X-0.750000X-0.162500X0.750000X-0.162500X0*%
%ADD29R,3.100000X1.600000*%
%ADD30RoundRect,0.250000X-1.000000X-0.650000X1.000000X-0.650000X1.000000X0.650000X-1.000000X0.650000X0*%
%ADD31RoundRect,0.250000X0.650000X-0.412500X0.650000X0.412500X-0.650000X0.412500X-0.650000X-0.412500X0*%
%ADD32RoundRect,0.250000X-0.650000X0.412500X-0.650000X-0.412500X0.650000X-0.412500X0.650000X0.412500X0*%
G04 APERTURE END LIST*
D10*
%TO.C,U5*%
X184825000Y-143210000D03*
D11*
X184825000Y-140670000D03*
X184825000Y-138130000D03*
X184825000Y-135590000D03*
X184825000Y-133050000D03*
X184825000Y-130510000D03*
X184825000Y-127970000D03*
X184825000Y-125430000D03*
X161965000Y-125430000D03*
X161965000Y-127970000D03*
X161965000Y-130510000D03*
X161965000Y-133050000D03*
X161965000Y-135590000D03*
X161965000Y-138130000D03*
X161965000Y-140670000D03*
X161965000Y-143210000D03*
%TD*%
D12*
%TO.C,RL3*%
X122580000Y-114220000D03*
X122580000Y-121220000D03*
D13*
X122580000Y-102720000D03*
D14*
X127280000Y-102720000D03*
%TD*%
D10*
%TO.C,PS1*%
X122970000Y-136580000D03*
D15*
X122970000Y-142580000D03*
X156570000Y-130580000D03*
X156570000Y-148580000D03*
%TD*%
D16*
%TO.C,J5*%
X182555000Y-113370000D03*
D17*
X182555000Y-110870000D03*
%TD*%
D18*
%TO.C,J8*%
X193130000Y-144700000D03*
D19*
X193130000Y-139620000D03*
X193130000Y-134540000D03*
X193130000Y-129460000D03*
X193130000Y-124380000D03*
X193130000Y-119300000D03*
X193130000Y-114220000D03*
X193130000Y-109140000D03*
%TD*%
D20*
%TO.C,J3*%
X160330000Y-104245000D03*
D21*
X157830000Y-104245000D03*
%TD*%
D22*
%TO.C,RV1*%
X117780000Y-141620000D03*
X114080000Y-149120000D03*
%TD*%
D20*
%TO.C,J2*%
X151630000Y-104245000D03*
D21*
X149130000Y-104245000D03*
%TD*%
D12*
%TO.C,RL1*%
X138780000Y-114220000D03*
X138780000Y-121220000D03*
D13*
X138780000Y-102720000D03*
D14*
X143480000Y-102720000D03*
%TD*%
D12*
%TO.C,RL2*%
X130680000Y-114220000D03*
X130680000Y-121220000D03*
D13*
X130680000Y-102720000D03*
D14*
X135380000Y-102720000D03*
%TD*%
D20*
%TO.C,J7*%
X183580000Y-104145000D03*
D21*
X181080000Y-104145000D03*
%TD*%
D23*
%TO.C,H1*%
X170680000Y-137520000D03*
%TD*%
D12*
%TO.C,RL4*%
X114480000Y-114230000D03*
X114480000Y-121230000D03*
D13*
X114480000Y-102730000D03*
D14*
X119180000Y-102730000D03*
%TD*%
D20*
%TO.C,J6*%
X174430000Y-104095000D03*
D21*
X171930000Y-104095000D03*
%TD*%
D18*
%TO.C,J1*%
X105630000Y-102860000D03*
D19*
X105630000Y-107940000D03*
X105630000Y-113020000D03*
X105630000Y-118100000D03*
X105630000Y-123180000D03*
X105630000Y-128260000D03*
X105630000Y-133340000D03*
X105630000Y-138420000D03*
X105630000Y-143500000D03*
X105630000Y-148580000D03*
%TD*%
D24*
%TO.C,J4*%
X156130000Y-123270000D03*
D25*
X153630000Y-123270000D03*
X151130000Y-123270000D03*
X148630000Y-123270000D03*
%TD*%
D26*
%TO.C,R4*%
X110980000Y-133120000D03*
X112980000Y-133120000D03*
%TD*%
D27*
%TO.C,R3*%
X148392500Y-148870000D03*
X146567500Y-148870000D03*
%TD*%
D28*
%TO.C,U6*%
X155217500Y-110125000D03*
X155217500Y-111395000D03*
X155217500Y-112665000D03*
X155217500Y-113935000D03*
X155217500Y-115205000D03*
X155217500Y-116475000D03*
X155217500Y-117745000D03*
X155217500Y-119015000D03*
X149042500Y-119015000D03*
X149042500Y-117745000D03*
X149042500Y-116475000D03*
X149042500Y-115205000D03*
X149042500Y-113935000D03*
X149042500Y-112665000D03*
X149042500Y-111395000D03*
X149042500Y-110125000D03*
%TD*%
D27*
%TO.C,R9*%
X148392500Y-137020000D03*
X146567500Y-137020000D03*
%TD*%
%TO.C,R14*%
X148342500Y-131070000D03*
X146517500Y-131070000D03*
%TD*%
D26*
%TO.C,R8*%
X115530000Y-126320000D03*
X117530000Y-126320000D03*
%TD*%
%TO.C,R18*%
X160680000Y-115320000D03*
X162680000Y-115320000D03*
%TD*%
%TO.C,R15*%
X160680000Y-110670000D03*
X162680000Y-110670000D03*
%TD*%
D29*
%TO.C,U4*%
X132885000Y-131040000D03*
X132885000Y-128500000D03*
X141775000Y-128500000D03*
X141775000Y-131040000D03*
%TD*%
D26*
%TO.C,R5*%
X115580000Y-131370000D03*
X117580000Y-131370000D03*
%TD*%
D30*
%TO.C,D3*%
X122830000Y-126370000D03*
X126830000Y-126370000D03*
%TD*%
%TO.C,D1*%
X122930000Y-146570000D03*
X126930000Y-146570000D03*
%TD*%
%TO.C,D2*%
X122730000Y-131370000D03*
X126730000Y-131370000D03*
%TD*%
D29*
%TO.C,U3*%
X132885000Y-136890000D03*
X132885000Y-134350000D03*
X141775000Y-134350000D03*
X141775000Y-136890000D03*
%TD*%
D31*
%TO.C,C1*%
X181130000Y-123070000D03*
X181130000Y-119945000D03*
%TD*%
D29*
%TO.C,U2*%
X132885000Y-142840000D03*
X132885000Y-140300000D03*
X141775000Y-140300000D03*
X141775000Y-142840000D03*
%TD*%
%TO.C,U1*%
X132885000Y-148840000D03*
X132885000Y-146300000D03*
X141775000Y-146300000D03*
X141775000Y-148840000D03*
%TD*%
D32*
%TO.C,C2*%
X166180000Y-125420000D03*
X166180000Y-128545000D03*
%TD*%
D26*
%TO.C,R7*%
X111030000Y-128320000D03*
X113030000Y-128320000D03*
%TD*%
D27*
%TO.C,R6*%
X148392500Y-142820000D03*
X146567500Y-142820000D03*
%TD*%
D26*
%TO.C,R2*%
X114230000Y-145270000D03*
X116230000Y-145270000D03*
%TD*%
%TO.C,R16*%
X160680000Y-108420000D03*
X162680000Y-108420000D03*
%TD*%
%TO.C,R1*%
X110930000Y-138420000D03*
X112930000Y-138420000D03*
%TD*%
%TO.C,R17*%
X160680000Y-112920000D03*
X162680000Y-112920000D03*
%TD*%
M02*
