%TF.GenerationSoftware,KiCad,Pcbnew,7.0.8*%
%TF.CreationDate,2024-02-01T01:06:35+05:30*%
%TF.ProjectId,WemosD1Mini-8266,57656d6f-7344-4314-9d69-6e692d383236,rev?*%
%TF.SameCoordinates,Original*%
%TF.FileFunction,Legend,Top*%
%TF.FilePolarity,Positive*%
%FSLAX46Y46*%
G04 Gerber Fmt 4.6, Leading zero omitted, Abs format (unit mm)*
G04 Created by KiCad (PCBNEW 7.0.8) date 2024-02-01 01:06:35*
%MOMM*%
%LPD*%
G01*
G04 APERTURE LIST*
%ADD10C,0.187500*%
%ADD11C,0.150000*%
%ADD12C,0.300000*%
%ADD13C,0.120000*%
G04 APERTURE END LIST*
D10*
X114877640Y-59967869D02*
X114401450Y-59967869D01*
X114401450Y-59967869D02*
X114353831Y-60444059D01*
X114353831Y-60444059D02*
X114401450Y-60396440D01*
X114401450Y-60396440D02*
X114496688Y-60348821D01*
X114496688Y-60348821D02*
X114734783Y-60348821D01*
X114734783Y-60348821D02*
X114830021Y-60396440D01*
X114830021Y-60396440D02*
X114877640Y-60444059D01*
X114877640Y-60444059D02*
X114925259Y-60539297D01*
X114925259Y-60539297D02*
X114925259Y-60777392D01*
X114925259Y-60777392D02*
X114877640Y-60872630D01*
X114877640Y-60872630D02*
X114830021Y-60920250D01*
X114830021Y-60920250D02*
X114734783Y-60967869D01*
X114734783Y-60967869D02*
X114496688Y-60967869D01*
X114496688Y-60967869D02*
X114401450Y-60920250D01*
X114401450Y-60920250D02*
X114353831Y-60872630D01*
X115210974Y-59967869D02*
X115544307Y-60967869D01*
X115544307Y-60967869D02*
X115877640Y-59967869D01*
X114697869Y-68063787D02*
X114697869Y-67444740D01*
X114697869Y-67444740D02*
X115078821Y-67778073D01*
X115078821Y-67778073D02*
X115078821Y-67635216D01*
X115078821Y-67635216D02*
X115126440Y-67539978D01*
X115126440Y-67539978D02*
X115174059Y-67492359D01*
X115174059Y-67492359D02*
X115269297Y-67444740D01*
X115269297Y-67444740D02*
X115507392Y-67444740D01*
X115507392Y-67444740D02*
X115602630Y-67492359D01*
X115602630Y-67492359D02*
X115650250Y-67539978D01*
X115650250Y-67539978D02*
X115697869Y-67635216D01*
X115697869Y-67635216D02*
X115697869Y-67920930D01*
X115697869Y-67920930D02*
X115650250Y-68016168D01*
X115650250Y-68016168D02*
X115602630Y-68063787D01*
X114697869Y-67159025D02*
X115697869Y-66825692D01*
X115697869Y-66825692D02*
X114697869Y-66492359D01*
X114697869Y-66254263D02*
X114697869Y-65635216D01*
X114697869Y-65635216D02*
X115078821Y-65968549D01*
X115078821Y-65968549D02*
X115078821Y-65825692D01*
X115078821Y-65825692D02*
X115126440Y-65730454D01*
X115126440Y-65730454D02*
X115174059Y-65682835D01*
X115174059Y-65682835D02*
X115269297Y-65635216D01*
X115269297Y-65635216D02*
X115507392Y-65635216D01*
X115507392Y-65635216D02*
X115602630Y-65682835D01*
X115602630Y-65682835D02*
X115650250Y-65730454D01*
X115650250Y-65730454D02*
X115697869Y-65825692D01*
X115697869Y-65825692D02*
X115697869Y-66111406D01*
X115697869Y-66111406D02*
X115650250Y-66206644D01*
X115650250Y-66206644D02*
X115602630Y-66254263D01*
X114961450Y-65063083D02*
X115723355Y-65063083D01*
X115091450Y-68933083D02*
X115853355Y-68933083D01*
X115472402Y-68552130D02*
X115472402Y-69314035D01*
X115408549Y-61756916D02*
X114646645Y-61756916D01*
X115468549Y-59056916D02*
X114706645Y-59056916D01*
X115087597Y-59437869D02*
X115087597Y-58675964D01*
D11*
X68464875Y-93229819D02*
X68464875Y-92229819D01*
X68464875Y-92229819D02*
X69036303Y-93229819D01*
X69036303Y-93229819D02*
X69036303Y-92229819D01*
X69369637Y-92848866D02*
X69417256Y-92801247D01*
X69417256Y-92801247D02*
X69512494Y-92753628D01*
X69512494Y-92753628D02*
X69702970Y-92848866D01*
X69702970Y-92848866D02*
X69798208Y-92801247D01*
X69798208Y-92801247D02*
X69845827Y-92753628D01*
X68641065Y-62729819D02*
X68164875Y-62729819D01*
X68164875Y-62729819D02*
X68164875Y-61729819D01*
X69402970Y-62063152D02*
X69402970Y-62729819D01*
X69164875Y-61682200D02*
X68926780Y-62396485D01*
X68926780Y-62396485D02*
X69545827Y-62396485D01*
D12*
X120511653Y-46355828D02*
X120868796Y-47855828D01*
X120868796Y-47855828D02*
X121154510Y-46784400D01*
X121154510Y-46784400D02*
X121440225Y-47855828D01*
X121440225Y-47855828D02*
X121797368Y-46355828D01*
X122940225Y-47784400D02*
X122797368Y-47855828D01*
X122797368Y-47855828D02*
X122511654Y-47855828D01*
X122511654Y-47855828D02*
X122368796Y-47784400D01*
X122368796Y-47784400D02*
X122297368Y-47641542D01*
X122297368Y-47641542D02*
X122297368Y-47070114D01*
X122297368Y-47070114D02*
X122368796Y-46927257D01*
X122368796Y-46927257D02*
X122511654Y-46855828D01*
X122511654Y-46855828D02*
X122797368Y-46855828D01*
X122797368Y-46855828D02*
X122940225Y-46927257D01*
X122940225Y-46927257D02*
X123011654Y-47070114D01*
X123011654Y-47070114D02*
X123011654Y-47212971D01*
X123011654Y-47212971D02*
X122297368Y-47355828D01*
X123654510Y-47855828D02*
X123654510Y-46855828D01*
X123654510Y-46998685D02*
X123725939Y-46927257D01*
X123725939Y-46927257D02*
X123868796Y-46855828D01*
X123868796Y-46855828D02*
X124083082Y-46855828D01*
X124083082Y-46855828D02*
X124225939Y-46927257D01*
X124225939Y-46927257D02*
X124297368Y-47070114D01*
X124297368Y-47070114D02*
X124297368Y-47855828D01*
X124297368Y-47070114D02*
X124368796Y-46927257D01*
X124368796Y-46927257D02*
X124511653Y-46855828D01*
X124511653Y-46855828D02*
X124725939Y-46855828D01*
X124725939Y-46855828D02*
X124868796Y-46927257D01*
X124868796Y-46927257D02*
X124940225Y-47070114D01*
X124940225Y-47070114D02*
X124940225Y-47855828D01*
X125868796Y-47855828D02*
X125725939Y-47784400D01*
X125725939Y-47784400D02*
X125654510Y-47712971D01*
X125654510Y-47712971D02*
X125583082Y-47570114D01*
X125583082Y-47570114D02*
X125583082Y-47141542D01*
X125583082Y-47141542D02*
X125654510Y-46998685D01*
X125654510Y-46998685D02*
X125725939Y-46927257D01*
X125725939Y-46927257D02*
X125868796Y-46855828D01*
X125868796Y-46855828D02*
X126083082Y-46855828D01*
X126083082Y-46855828D02*
X126225939Y-46927257D01*
X126225939Y-46927257D02*
X126297368Y-46998685D01*
X126297368Y-46998685D02*
X126368796Y-47141542D01*
X126368796Y-47141542D02*
X126368796Y-47570114D01*
X126368796Y-47570114D02*
X126297368Y-47712971D01*
X126297368Y-47712971D02*
X126225939Y-47784400D01*
X126225939Y-47784400D02*
X126083082Y-47855828D01*
X126083082Y-47855828D02*
X125868796Y-47855828D01*
X126940225Y-47784400D02*
X127083082Y-47855828D01*
X127083082Y-47855828D02*
X127368796Y-47855828D01*
X127368796Y-47855828D02*
X127511653Y-47784400D01*
X127511653Y-47784400D02*
X127583082Y-47641542D01*
X127583082Y-47641542D02*
X127583082Y-47570114D01*
X127583082Y-47570114D02*
X127511653Y-47427257D01*
X127511653Y-47427257D02*
X127368796Y-47355828D01*
X127368796Y-47355828D02*
X127154511Y-47355828D01*
X127154511Y-47355828D02*
X127011653Y-47284400D01*
X127011653Y-47284400D02*
X126940225Y-47141542D01*
X126940225Y-47141542D02*
X126940225Y-47070114D01*
X126940225Y-47070114D02*
X127011653Y-46927257D01*
X127011653Y-46927257D02*
X127154511Y-46855828D01*
X127154511Y-46855828D02*
X127368796Y-46855828D01*
X127368796Y-46855828D02*
X127511653Y-46927257D01*
X128225939Y-47855828D02*
X128225939Y-46355828D01*
X128225939Y-46355828D02*
X128583082Y-46355828D01*
X128583082Y-46355828D02*
X128797368Y-46427257D01*
X128797368Y-46427257D02*
X128940225Y-46570114D01*
X128940225Y-46570114D02*
X129011654Y-46712971D01*
X129011654Y-46712971D02*
X129083082Y-46998685D01*
X129083082Y-46998685D02*
X129083082Y-47212971D01*
X129083082Y-47212971D02*
X129011654Y-47498685D01*
X129011654Y-47498685D02*
X128940225Y-47641542D01*
X128940225Y-47641542D02*
X128797368Y-47784400D01*
X128797368Y-47784400D02*
X128583082Y-47855828D01*
X128583082Y-47855828D02*
X128225939Y-47855828D01*
X130511654Y-47855828D02*
X129654511Y-47855828D01*
X130083082Y-47855828D02*
X130083082Y-46355828D01*
X130083082Y-46355828D02*
X129940225Y-46570114D01*
X129940225Y-46570114D02*
X129797368Y-46712971D01*
X129797368Y-46712971D02*
X129654511Y-46784400D01*
X122940224Y-50270828D02*
X122940224Y-48770828D01*
X122940224Y-48770828D02*
X123440224Y-49842257D01*
X123440224Y-49842257D02*
X123940224Y-48770828D01*
X123940224Y-48770828D02*
X123940224Y-50270828D01*
X124654510Y-50270828D02*
X124654510Y-49270828D01*
X124654510Y-48770828D02*
X124583082Y-48842257D01*
X124583082Y-48842257D02*
X124654510Y-48913685D01*
X124654510Y-48913685D02*
X124725939Y-48842257D01*
X124725939Y-48842257D02*
X124654510Y-48770828D01*
X124654510Y-48770828D02*
X124654510Y-48913685D01*
X125368796Y-49270828D02*
X125368796Y-50270828D01*
X125368796Y-49413685D02*
X125440225Y-49342257D01*
X125440225Y-49342257D02*
X125583082Y-49270828D01*
X125583082Y-49270828D02*
X125797368Y-49270828D01*
X125797368Y-49270828D02*
X125940225Y-49342257D01*
X125940225Y-49342257D02*
X126011654Y-49485114D01*
X126011654Y-49485114D02*
X126011654Y-50270828D01*
X126725939Y-50270828D02*
X126725939Y-49270828D01*
X126725939Y-48770828D02*
X126654511Y-48842257D01*
X126654511Y-48842257D02*
X126725939Y-48913685D01*
X126725939Y-48913685D02*
X126797368Y-48842257D01*
X126797368Y-48842257D02*
X126725939Y-48770828D01*
X126725939Y-48770828D02*
X126725939Y-48913685D01*
X122440225Y-51685828D02*
X122440225Y-52685828D01*
X122083082Y-51114400D02*
X121725939Y-52185828D01*
X121725939Y-52185828D02*
X122654510Y-52185828D01*
X124368795Y-52685828D02*
X124368795Y-51185828D01*
X124368795Y-51185828D02*
X125225938Y-52685828D01*
X125225938Y-52685828D02*
X125225938Y-51185828D01*
X126154510Y-52685828D02*
X126011653Y-52614400D01*
X126011653Y-52614400D02*
X125940224Y-52542971D01*
X125940224Y-52542971D02*
X125868796Y-52400114D01*
X125868796Y-52400114D02*
X125868796Y-51971542D01*
X125868796Y-51971542D02*
X125940224Y-51828685D01*
X125940224Y-51828685D02*
X126011653Y-51757257D01*
X126011653Y-51757257D02*
X126154510Y-51685828D01*
X126154510Y-51685828D02*
X126368796Y-51685828D01*
X126368796Y-51685828D02*
X126511653Y-51757257D01*
X126511653Y-51757257D02*
X126583082Y-51828685D01*
X126583082Y-51828685D02*
X126654510Y-51971542D01*
X126654510Y-51971542D02*
X126654510Y-52400114D01*
X126654510Y-52400114D02*
X126583082Y-52542971D01*
X126583082Y-52542971D02*
X126511653Y-52614400D01*
X126511653Y-52614400D02*
X126368796Y-52685828D01*
X126368796Y-52685828D02*
X126154510Y-52685828D01*
X127940225Y-52685828D02*
X127940225Y-51185828D01*
X127940225Y-52614400D02*
X127797367Y-52685828D01*
X127797367Y-52685828D02*
X127511653Y-52685828D01*
X127511653Y-52685828D02*
X127368796Y-52614400D01*
X127368796Y-52614400D02*
X127297367Y-52542971D01*
X127297367Y-52542971D02*
X127225939Y-52400114D01*
X127225939Y-52400114D02*
X127225939Y-51971542D01*
X127225939Y-51971542D02*
X127297367Y-51828685D01*
X127297367Y-51828685D02*
X127368796Y-51757257D01*
X127368796Y-51757257D02*
X127511653Y-51685828D01*
X127511653Y-51685828D02*
X127797367Y-51685828D01*
X127797367Y-51685828D02*
X127940225Y-51757257D01*
X129225939Y-52614400D02*
X129083082Y-52685828D01*
X129083082Y-52685828D02*
X128797368Y-52685828D01*
X128797368Y-52685828D02*
X128654510Y-52614400D01*
X128654510Y-52614400D02*
X128583082Y-52471542D01*
X128583082Y-52471542D02*
X128583082Y-51900114D01*
X128583082Y-51900114D02*
X128654510Y-51757257D01*
X128654510Y-51757257D02*
X128797368Y-51685828D01*
X128797368Y-51685828D02*
X129083082Y-51685828D01*
X129083082Y-51685828D02*
X129225939Y-51757257D01*
X129225939Y-51757257D02*
X129297368Y-51900114D01*
X129297368Y-51900114D02*
X129297368Y-52042971D01*
X129297368Y-52042971D02*
X128583082Y-52185828D01*
X122725939Y-53600828D02*
X123225939Y-55100828D01*
X123225939Y-55100828D02*
X123725939Y-53600828D01*
X125011653Y-55100828D02*
X124154510Y-55100828D01*
X124583081Y-55100828D02*
X124583081Y-53600828D01*
X124583081Y-53600828D02*
X124440224Y-53815114D01*
X124440224Y-53815114D02*
X124297367Y-53957971D01*
X124297367Y-53957971D02*
X124154510Y-54029400D01*
X125654509Y-54957971D02*
X125725938Y-55029400D01*
X125725938Y-55029400D02*
X125654509Y-55100828D01*
X125654509Y-55100828D02*
X125583081Y-55029400D01*
X125583081Y-55029400D02*
X125654509Y-54957971D01*
X125654509Y-54957971D02*
X125654509Y-55100828D01*
X126654510Y-53600828D02*
X126797367Y-53600828D01*
X126797367Y-53600828D02*
X126940224Y-53672257D01*
X126940224Y-53672257D02*
X127011653Y-53743685D01*
X127011653Y-53743685D02*
X127083081Y-53886542D01*
X127083081Y-53886542D02*
X127154510Y-54172257D01*
X127154510Y-54172257D02*
X127154510Y-54529400D01*
X127154510Y-54529400D02*
X127083081Y-54815114D01*
X127083081Y-54815114D02*
X127011653Y-54957971D01*
X127011653Y-54957971D02*
X126940224Y-55029400D01*
X126940224Y-55029400D02*
X126797367Y-55100828D01*
X126797367Y-55100828D02*
X126654510Y-55100828D01*
X126654510Y-55100828D02*
X126511653Y-55029400D01*
X126511653Y-55029400D02*
X126440224Y-54957971D01*
X126440224Y-54957971D02*
X126368795Y-54815114D01*
X126368795Y-54815114D02*
X126297367Y-54529400D01*
X126297367Y-54529400D02*
X126297367Y-54172257D01*
X126297367Y-54172257D02*
X126368795Y-53886542D01*
X126368795Y-53886542D02*
X126440224Y-53743685D01*
X126440224Y-53743685D02*
X126511653Y-53672257D01*
X126511653Y-53672257D02*
X126654510Y-53600828D01*
D11*
X68064875Y-67799819D02*
X68064875Y-66799819D01*
X68064875Y-66799819D02*
X68398208Y-67514104D01*
X68398208Y-67514104D02*
X68731541Y-66799819D01*
X68731541Y-66799819D02*
X68731541Y-67799819D01*
X69636303Y-67133152D02*
X69636303Y-67799819D01*
X69398208Y-66752200D02*
X69160113Y-67466485D01*
X69160113Y-67466485D02*
X69779160Y-67466485D01*
X68941065Y-47329819D02*
X68464875Y-47329819D01*
X68464875Y-47329819D02*
X68464875Y-46329819D01*
X69798208Y-47329819D02*
X69226780Y-47329819D01*
X69512494Y-47329819D02*
X69512494Y-46329819D01*
X69512494Y-46329819D02*
X69417256Y-46472676D01*
X69417256Y-46472676D02*
X69322018Y-46567914D01*
X69322018Y-46567914D02*
X69226780Y-46615533D01*
X68741065Y-52499819D02*
X68264875Y-52499819D01*
X68264875Y-52499819D02*
X68264875Y-51499819D01*
X69026780Y-51595057D02*
X69074399Y-51547438D01*
X69074399Y-51547438D02*
X69169637Y-51499819D01*
X69169637Y-51499819D02*
X69407732Y-51499819D01*
X69407732Y-51499819D02*
X69502970Y-51547438D01*
X69502970Y-51547438D02*
X69550589Y-51595057D01*
X69550589Y-51595057D02*
X69598208Y-51690295D01*
X69598208Y-51690295D02*
X69598208Y-51785533D01*
X69598208Y-51785533D02*
X69550589Y-51928390D01*
X69550589Y-51928390D02*
X68979161Y-52499819D01*
X68979161Y-52499819D02*
X69598208Y-52499819D01*
X67964875Y-72959819D02*
X67964875Y-71959819D01*
X67964875Y-71959819D02*
X68298208Y-72674104D01*
X68298208Y-72674104D02*
X68631541Y-71959819D01*
X68631541Y-71959819D02*
X68631541Y-72959819D01*
X69012494Y-71959819D02*
X69631541Y-71959819D01*
X69631541Y-71959819D02*
X69298208Y-72340771D01*
X69298208Y-72340771D02*
X69441065Y-72340771D01*
X69441065Y-72340771D02*
X69536303Y-72388390D01*
X69536303Y-72388390D02*
X69583922Y-72436009D01*
X69583922Y-72436009D02*
X69631541Y-72531247D01*
X69631541Y-72531247D02*
X69631541Y-72769342D01*
X69631541Y-72769342D02*
X69583922Y-72864580D01*
X69583922Y-72864580D02*
X69536303Y-72912200D01*
X69536303Y-72912200D02*
X69441065Y-72959819D01*
X69441065Y-72959819D02*
X69155351Y-72959819D01*
X69155351Y-72959819D02*
X69060113Y-72912200D01*
X69060113Y-72912200D02*
X69012494Y-72864580D01*
X68464875Y-88069819D02*
X68464875Y-87069819D01*
X68464875Y-87069819D02*
X68845827Y-87069819D01*
X68845827Y-87069819D02*
X68941065Y-87117438D01*
X68941065Y-87117438D02*
X68988684Y-87165057D01*
X68988684Y-87165057D02*
X69036303Y-87260295D01*
X69036303Y-87260295D02*
X69036303Y-87403152D01*
X69036303Y-87403152D02*
X68988684Y-87498390D01*
X68988684Y-87498390D02*
X68941065Y-87546009D01*
X68941065Y-87546009D02*
X68845827Y-87593628D01*
X68845827Y-87593628D02*
X68464875Y-87593628D01*
X69322018Y-87688866D02*
X69369637Y-87641247D01*
X69369637Y-87641247D02*
X69464875Y-87593628D01*
X69464875Y-87593628D02*
X69655351Y-87688866D01*
X69655351Y-87688866D02*
X69750589Y-87641247D01*
X69750589Y-87641247D02*
X69798208Y-87593628D01*
X67964875Y-77629819D02*
X67964875Y-76629819D01*
X67964875Y-76629819D02*
X68298208Y-77344104D01*
X68298208Y-77344104D02*
X68631541Y-76629819D01*
X68631541Y-76629819D02*
X68631541Y-77629819D01*
X69060113Y-76725057D02*
X69107732Y-76677438D01*
X69107732Y-76677438D02*
X69202970Y-76629819D01*
X69202970Y-76629819D02*
X69441065Y-76629819D01*
X69441065Y-76629819D02*
X69536303Y-76677438D01*
X69536303Y-76677438D02*
X69583922Y-76725057D01*
X69583922Y-76725057D02*
X69631541Y-76820295D01*
X69631541Y-76820295D02*
X69631541Y-76915533D01*
X69631541Y-76915533D02*
X69583922Y-77058390D01*
X69583922Y-77058390D02*
X69012494Y-77629819D01*
X69012494Y-77629819D02*
X69631541Y-77629819D01*
X68641065Y-57659819D02*
X68164875Y-57659819D01*
X68164875Y-57659819D02*
X68164875Y-56659819D01*
X68879161Y-56659819D02*
X69498208Y-56659819D01*
X69498208Y-56659819D02*
X69164875Y-57040771D01*
X69164875Y-57040771D02*
X69307732Y-57040771D01*
X69307732Y-57040771D02*
X69402970Y-57088390D01*
X69402970Y-57088390D02*
X69450589Y-57136009D01*
X69450589Y-57136009D02*
X69498208Y-57231247D01*
X69498208Y-57231247D02*
X69498208Y-57469342D01*
X69498208Y-57469342D02*
X69450589Y-57564580D01*
X69450589Y-57564580D02*
X69402970Y-57612200D01*
X69402970Y-57612200D02*
X69307732Y-57659819D01*
X69307732Y-57659819D02*
X69022018Y-57659819D01*
X69022018Y-57659819D02*
X68926780Y-57612200D01*
X68926780Y-57612200D02*
X68879161Y-57564580D01*
X68064875Y-83099819D02*
X68064875Y-82099819D01*
X68064875Y-82099819D02*
X68398208Y-82814104D01*
X68398208Y-82814104D02*
X68731541Y-82099819D01*
X68731541Y-82099819D02*
X68731541Y-83099819D01*
X69731541Y-83099819D02*
X69160113Y-83099819D01*
X69445827Y-83099819D02*
X69445827Y-82099819D01*
X69445827Y-82099819D02*
X69350589Y-82242676D01*
X69350589Y-82242676D02*
X69255351Y-82337914D01*
X69255351Y-82337914D02*
X69160113Y-82385533D01*
X132587142Y-53724819D02*
X132253809Y-53248628D01*
X132015714Y-53724819D02*
X132015714Y-52724819D01*
X132015714Y-52724819D02*
X132396666Y-52724819D01*
X132396666Y-52724819D02*
X132491904Y-52772438D01*
X132491904Y-52772438D02*
X132539523Y-52820057D01*
X132539523Y-52820057D02*
X132587142Y-52915295D01*
X132587142Y-52915295D02*
X132587142Y-53058152D01*
X132587142Y-53058152D02*
X132539523Y-53153390D01*
X132539523Y-53153390D02*
X132491904Y-53201009D01*
X132491904Y-53201009D02*
X132396666Y-53248628D01*
X132396666Y-53248628D02*
X132015714Y-53248628D01*
X133539523Y-53724819D02*
X132968095Y-53724819D01*
X133253809Y-53724819D02*
X133253809Y-52724819D01*
X133253809Y-52724819D02*
X133158571Y-52867676D01*
X133158571Y-52867676D02*
X133063333Y-52962914D01*
X133063333Y-52962914D02*
X132968095Y-53010533D01*
X134396666Y-53058152D02*
X134396666Y-53724819D01*
X134158571Y-52677200D02*
X133920476Y-53391485D01*
X133920476Y-53391485D02*
X134539523Y-53391485D01*
X93754819Y-61781428D02*
X93278628Y-62114761D01*
X93754819Y-62352856D02*
X92754819Y-62352856D01*
X92754819Y-62352856D02*
X92754819Y-61971904D01*
X92754819Y-61971904D02*
X92802438Y-61876666D01*
X92802438Y-61876666D02*
X92850057Y-61829047D01*
X92850057Y-61829047D02*
X92945295Y-61781428D01*
X92945295Y-61781428D02*
X93088152Y-61781428D01*
X93088152Y-61781428D02*
X93183390Y-61829047D01*
X93183390Y-61829047D02*
X93231009Y-61876666D01*
X93231009Y-61876666D02*
X93278628Y-61971904D01*
X93278628Y-61971904D02*
X93278628Y-62352856D01*
X93754819Y-60876666D02*
X93754819Y-61352856D01*
X93754819Y-61352856D02*
X92754819Y-61352856D01*
X92754819Y-60638570D02*
X92754819Y-60019523D01*
X92754819Y-60019523D02*
X93135771Y-60352856D01*
X93135771Y-60352856D02*
X93135771Y-60209999D01*
X93135771Y-60209999D02*
X93183390Y-60114761D01*
X93183390Y-60114761D02*
X93231009Y-60067142D01*
X93231009Y-60067142D02*
X93326247Y-60019523D01*
X93326247Y-60019523D02*
X93564342Y-60019523D01*
X93564342Y-60019523D02*
X93659580Y-60067142D01*
X93659580Y-60067142D02*
X93707200Y-60114761D01*
X93707200Y-60114761D02*
X93754819Y-60209999D01*
X93754819Y-60209999D02*
X93754819Y-60495713D01*
X93754819Y-60495713D02*
X93707200Y-60590951D01*
X93707200Y-60590951D02*
X93659580Y-60638570D01*
X132617142Y-56534819D02*
X132283809Y-56058628D01*
X132045714Y-56534819D02*
X132045714Y-55534819D01*
X132045714Y-55534819D02*
X132426666Y-55534819D01*
X132426666Y-55534819D02*
X132521904Y-55582438D01*
X132521904Y-55582438D02*
X132569523Y-55630057D01*
X132569523Y-55630057D02*
X132617142Y-55725295D01*
X132617142Y-55725295D02*
X132617142Y-55868152D01*
X132617142Y-55868152D02*
X132569523Y-55963390D01*
X132569523Y-55963390D02*
X132521904Y-56011009D01*
X132521904Y-56011009D02*
X132426666Y-56058628D01*
X132426666Y-56058628D02*
X132045714Y-56058628D01*
X133569523Y-56534819D02*
X132998095Y-56534819D01*
X133283809Y-56534819D02*
X133283809Y-55534819D01*
X133283809Y-55534819D02*
X133188571Y-55677676D01*
X133188571Y-55677676D02*
X133093333Y-55772914D01*
X133093333Y-55772914D02*
X132998095Y-55820533D01*
X133902857Y-55534819D02*
X134521904Y-55534819D01*
X134521904Y-55534819D02*
X134188571Y-55915771D01*
X134188571Y-55915771D02*
X134331428Y-55915771D01*
X134331428Y-55915771D02*
X134426666Y-55963390D01*
X134426666Y-55963390D02*
X134474285Y-56011009D01*
X134474285Y-56011009D02*
X134521904Y-56106247D01*
X134521904Y-56106247D02*
X134521904Y-56344342D01*
X134521904Y-56344342D02*
X134474285Y-56439580D01*
X134474285Y-56439580D02*
X134426666Y-56487200D01*
X134426666Y-56487200D02*
X134331428Y-56534819D01*
X134331428Y-56534819D02*
X134045714Y-56534819D01*
X134045714Y-56534819D02*
X133950476Y-56487200D01*
X133950476Y-56487200D02*
X133902857Y-56439580D01*
X132963095Y-80284819D02*
X132963095Y-81094342D01*
X132963095Y-81094342D02*
X133010714Y-81189580D01*
X133010714Y-81189580D02*
X133058333Y-81237200D01*
X133058333Y-81237200D02*
X133153571Y-81284819D01*
X133153571Y-81284819D02*
X133344047Y-81284819D01*
X133344047Y-81284819D02*
X133439285Y-81237200D01*
X133439285Y-81237200D02*
X133486904Y-81189580D01*
X133486904Y-81189580D02*
X133534523Y-81094342D01*
X133534523Y-81094342D02*
X133534523Y-80284819D01*
X134486904Y-80284819D02*
X134010714Y-80284819D01*
X134010714Y-80284819D02*
X133963095Y-80761009D01*
X133963095Y-80761009D02*
X134010714Y-80713390D01*
X134010714Y-80713390D02*
X134105952Y-80665771D01*
X134105952Y-80665771D02*
X134344047Y-80665771D01*
X134344047Y-80665771D02*
X134439285Y-80713390D01*
X134439285Y-80713390D02*
X134486904Y-80761009D01*
X134486904Y-80761009D02*
X134534523Y-80856247D01*
X134534523Y-80856247D02*
X134534523Y-81094342D01*
X134534523Y-81094342D02*
X134486904Y-81189580D01*
X134486904Y-81189580D02*
X134439285Y-81237200D01*
X134439285Y-81237200D02*
X134344047Y-81284819D01*
X134344047Y-81284819D02*
X134105952Y-81284819D01*
X134105952Y-81284819D02*
X134010714Y-81237200D01*
X134010714Y-81237200D02*
X133963095Y-81189580D01*
X132687142Y-48424819D02*
X132353809Y-47948628D01*
X132115714Y-48424819D02*
X132115714Y-47424819D01*
X132115714Y-47424819D02*
X132496666Y-47424819D01*
X132496666Y-47424819D02*
X132591904Y-47472438D01*
X132591904Y-47472438D02*
X132639523Y-47520057D01*
X132639523Y-47520057D02*
X132687142Y-47615295D01*
X132687142Y-47615295D02*
X132687142Y-47758152D01*
X132687142Y-47758152D02*
X132639523Y-47853390D01*
X132639523Y-47853390D02*
X132591904Y-47901009D01*
X132591904Y-47901009D02*
X132496666Y-47948628D01*
X132496666Y-47948628D02*
X132115714Y-47948628D01*
X133639523Y-48424819D02*
X133068095Y-48424819D01*
X133353809Y-48424819D02*
X133353809Y-47424819D01*
X133353809Y-47424819D02*
X133258571Y-47567676D01*
X133258571Y-47567676D02*
X133163333Y-47662914D01*
X133163333Y-47662914D02*
X133068095Y-47710533D01*
X134496666Y-47424819D02*
X134306190Y-47424819D01*
X134306190Y-47424819D02*
X134210952Y-47472438D01*
X134210952Y-47472438D02*
X134163333Y-47520057D01*
X134163333Y-47520057D02*
X134068095Y-47662914D01*
X134068095Y-47662914D02*
X134020476Y-47853390D01*
X134020476Y-47853390D02*
X134020476Y-48234342D01*
X134020476Y-48234342D02*
X134068095Y-48329580D01*
X134068095Y-48329580D02*
X134115714Y-48377200D01*
X134115714Y-48377200D02*
X134210952Y-48424819D01*
X134210952Y-48424819D02*
X134401428Y-48424819D01*
X134401428Y-48424819D02*
X134496666Y-48377200D01*
X134496666Y-48377200D02*
X134544285Y-48329580D01*
X134544285Y-48329580D02*
X134591904Y-48234342D01*
X134591904Y-48234342D02*
X134591904Y-47996247D01*
X134591904Y-47996247D02*
X134544285Y-47901009D01*
X134544285Y-47901009D02*
X134496666Y-47853390D01*
X134496666Y-47853390D02*
X134401428Y-47805771D01*
X134401428Y-47805771D02*
X134210952Y-47805771D01*
X134210952Y-47805771D02*
X134115714Y-47853390D01*
X134115714Y-47853390D02*
X134068095Y-47901009D01*
X134068095Y-47901009D02*
X134020476Y-47996247D01*
X89804819Y-84534285D02*
X88804819Y-84534285D01*
X88804819Y-84534285D02*
X88804819Y-84153333D01*
X88804819Y-84153333D02*
X88852438Y-84058095D01*
X88852438Y-84058095D02*
X88900057Y-84010476D01*
X88900057Y-84010476D02*
X88995295Y-83962857D01*
X88995295Y-83962857D02*
X89138152Y-83962857D01*
X89138152Y-83962857D02*
X89233390Y-84010476D01*
X89233390Y-84010476D02*
X89281009Y-84058095D01*
X89281009Y-84058095D02*
X89328628Y-84153333D01*
X89328628Y-84153333D02*
X89328628Y-84534285D01*
X89757200Y-83581904D02*
X89804819Y-83439047D01*
X89804819Y-83439047D02*
X89804819Y-83200952D01*
X89804819Y-83200952D02*
X89757200Y-83105714D01*
X89757200Y-83105714D02*
X89709580Y-83058095D01*
X89709580Y-83058095D02*
X89614342Y-83010476D01*
X89614342Y-83010476D02*
X89519104Y-83010476D01*
X89519104Y-83010476D02*
X89423866Y-83058095D01*
X89423866Y-83058095D02*
X89376247Y-83105714D01*
X89376247Y-83105714D02*
X89328628Y-83200952D01*
X89328628Y-83200952D02*
X89281009Y-83391428D01*
X89281009Y-83391428D02*
X89233390Y-83486666D01*
X89233390Y-83486666D02*
X89185771Y-83534285D01*
X89185771Y-83534285D02*
X89090533Y-83581904D01*
X89090533Y-83581904D02*
X88995295Y-83581904D01*
X88995295Y-83581904D02*
X88900057Y-83534285D01*
X88900057Y-83534285D02*
X88852438Y-83486666D01*
X88852438Y-83486666D02*
X88804819Y-83391428D01*
X88804819Y-83391428D02*
X88804819Y-83153333D01*
X88804819Y-83153333D02*
X88852438Y-83010476D01*
X89804819Y-82058095D02*
X89804819Y-82629523D01*
X89804819Y-82343809D02*
X88804819Y-82343809D01*
X88804819Y-82343809D02*
X88947676Y-82439047D01*
X88947676Y-82439047D02*
X89042914Y-82534285D01*
X89042914Y-82534285D02*
X89090533Y-82629523D01*
X144201905Y-50964819D02*
X144201905Y-49964819D01*
X144201905Y-49964819D02*
X144440000Y-49964819D01*
X144440000Y-49964819D02*
X144582857Y-50012438D01*
X144582857Y-50012438D02*
X144678095Y-50107676D01*
X144678095Y-50107676D02*
X144725714Y-50202914D01*
X144725714Y-50202914D02*
X144773333Y-50393390D01*
X144773333Y-50393390D02*
X144773333Y-50536247D01*
X144773333Y-50536247D02*
X144725714Y-50726723D01*
X144725714Y-50726723D02*
X144678095Y-50821961D01*
X144678095Y-50821961D02*
X144582857Y-50917200D01*
X144582857Y-50917200D02*
X144440000Y-50964819D01*
X144440000Y-50964819D02*
X144201905Y-50964819D01*
X145106667Y-49964819D02*
X145773333Y-49964819D01*
X145773333Y-49964819D02*
X145344762Y-50964819D01*
X84604819Y-61781428D02*
X84128628Y-62114761D01*
X84604819Y-62352856D02*
X83604819Y-62352856D01*
X83604819Y-62352856D02*
X83604819Y-61971904D01*
X83604819Y-61971904D02*
X83652438Y-61876666D01*
X83652438Y-61876666D02*
X83700057Y-61829047D01*
X83700057Y-61829047D02*
X83795295Y-61781428D01*
X83795295Y-61781428D02*
X83938152Y-61781428D01*
X83938152Y-61781428D02*
X84033390Y-61829047D01*
X84033390Y-61829047D02*
X84081009Y-61876666D01*
X84081009Y-61876666D02*
X84128628Y-61971904D01*
X84128628Y-61971904D02*
X84128628Y-62352856D01*
X84604819Y-60876666D02*
X84604819Y-61352856D01*
X84604819Y-61352856D02*
X83604819Y-61352856D01*
X83938152Y-60114761D02*
X84604819Y-60114761D01*
X83557200Y-60352856D02*
X84271485Y-60590951D01*
X84271485Y-60590951D02*
X84271485Y-59971904D01*
X76754819Y-47053333D02*
X77469104Y-47053333D01*
X77469104Y-47053333D02*
X77611961Y-47100952D01*
X77611961Y-47100952D02*
X77707200Y-47196190D01*
X77707200Y-47196190D02*
X77754819Y-47339047D01*
X77754819Y-47339047D02*
X77754819Y-47434285D01*
X76850057Y-46624761D02*
X76802438Y-46577142D01*
X76802438Y-46577142D02*
X76754819Y-46481904D01*
X76754819Y-46481904D02*
X76754819Y-46243809D01*
X76754819Y-46243809D02*
X76802438Y-46148571D01*
X76802438Y-46148571D02*
X76850057Y-46100952D01*
X76850057Y-46100952D02*
X76945295Y-46053333D01*
X76945295Y-46053333D02*
X77040533Y-46053333D01*
X77040533Y-46053333D02*
X77183390Y-46100952D01*
X77183390Y-46100952D02*
X77754819Y-46672380D01*
X77754819Y-46672380D02*
X77754819Y-46053333D01*
X144001905Y-56444819D02*
X144001905Y-55444819D01*
X144001905Y-55444819D02*
X144240000Y-55444819D01*
X144240000Y-55444819D02*
X144382857Y-55492438D01*
X144382857Y-55492438D02*
X144478095Y-55587676D01*
X144478095Y-55587676D02*
X144525714Y-55682914D01*
X144525714Y-55682914D02*
X144573333Y-55873390D01*
X144573333Y-55873390D02*
X144573333Y-56016247D01*
X144573333Y-56016247D02*
X144525714Y-56206723D01*
X144525714Y-56206723D02*
X144478095Y-56301961D01*
X144478095Y-56301961D02*
X144382857Y-56397200D01*
X144382857Y-56397200D02*
X144240000Y-56444819D01*
X144240000Y-56444819D02*
X144001905Y-56444819D01*
X145478095Y-55444819D02*
X145001905Y-55444819D01*
X145001905Y-55444819D02*
X144954286Y-55921009D01*
X144954286Y-55921009D02*
X145001905Y-55873390D01*
X145001905Y-55873390D02*
X145097143Y-55825771D01*
X145097143Y-55825771D02*
X145335238Y-55825771D01*
X145335238Y-55825771D02*
X145430476Y-55873390D01*
X145430476Y-55873390D02*
X145478095Y-55921009D01*
X145478095Y-55921009D02*
X145525714Y-56016247D01*
X145525714Y-56016247D02*
X145525714Y-56254342D01*
X145525714Y-56254342D02*
X145478095Y-56349580D01*
X145478095Y-56349580D02*
X145430476Y-56397200D01*
X145430476Y-56397200D02*
X145335238Y-56444819D01*
X145335238Y-56444819D02*
X145097143Y-56444819D01*
X145097143Y-56444819D02*
X145001905Y-56397200D01*
X145001905Y-56397200D02*
X144954286Y-56349580D01*
X144181905Y-48114819D02*
X144181905Y-47114819D01*
X144181905Y-47114819D02*
X144420000Y-47114819D01*
X144420000Y-47114819D02*
X144562857Y-47162438D01*
X144562857Y-47162438D02*
X144658095Y-47257676D01*
X144658095Y-47257676D02*
X144705714Y-47352914D01*
X144705714Y-47352914D02*
X144753333Y-47543390D01*
X144753333Y-47543390D02*
X144753333Y-47686247D01*
X144753333Y-47686247D02*
X144705714Y-47876723D01*
X144705714Y-47876723D02*
X144658095Y-47971961D01*
X144658095Y-47971961D02*
X144562857Y-48067200D01*
X144562857Y-48067200D02*
X144420000Y-48114819D01*
X144420000Y-48114819D02*
X144181905Y-48114819D01*
X145324762Y-47543390D02*
X145229524Y-47495771D01*
X145229524Y-47495771D02*
X145181905Y-47448152D01*
X145181905Y-47448152D02*
X145134286Y-47352914D01*
X145134286Y-47352914D02*
X145134286Y-47305295D01*
X145134286Y-47305295D02*
X145181905Y-47210057D01*
X145181905Y-47210057D02*
X145229524Y-47162438D01*
X145229524Y-47162438D02*
X145324762Y-47114819D01*
X145324762Y-47114819D02*
X145515238Y-47114819D01*
X145515238Y-47114819D02*
X145610476Y-47162438D01*
X145610476Y-47162438D02*
X145658095Y-47210057D01*
X145658095Y-47210057D02*
X145705714Y-47305295D01*
X145705714Y-47305295D02*
X145705714Y-47352914D01*
X145705714Y-47352914D02*
X145658095Y-47448152D01*
X145658095Y-47448152D02*
X145610476Y-47495771D01*
X145610476Y-47495771D02*
X145515238Y-47543390D01*
X145515238Y-47543390D02*
X145324762Y-47543390D01*
X145324762Y-47543390D02*
X145229524Y-47591009D01*
X145229524Y-47591009D02*
X145181905Y-47638628D01*
X145181905Y-47638628D02*
X145134286Y-47733866D01*
X145134286Y-47733866D02*
X145134286Y-47924342D01*
X145134286Y-47924342D02*
X145181905Y-48019580D01*
X145181905Y-48019580D02*
X145229524Y-48067200D01*
X145229524Y-48067200D02*
X145324762Y-48114819D01*
X145324762Y-48114819D02*
X145515238Y-48114819D01*
X145515238Y-48114819D02*
X145610476Y-48067200D01*
X145610476Y-48067200D02*
X145658095Y-48019580D01*
X145658095Y-48019580D02*
X145705714Y-47924342D01*
X145705714Y-47924342D02*
X145705714Y-47733866D01*
X145705714Y-47733866D02*
X145658095Y-47638628D01*
X145658095Y-47638628D02*
X145610476Y-47591009D01*
X145610476Y-47591009D02*
X145515238Y-47543390D01*
X102014819Y-61691428D02*
X101538628Y-62024761D01*
X102014819Y-62262856D02*
X101014819Y-62262856D01*
X101014819Y-62262856D02*
X101014819Y-61881904D01*
X101014819Y-61881904D02*
X101062438Y-61786666D01*
X101062438Y-61786666D02*
X101110057Y-61739047D01*
X101110057Y-61739047D02*
X101205295Y-61691428D01*
X101205295Y-61691428D02*
X101348152Y-61691428D01*
X101348152Y-61691428D02*
X101443390Y-61739047D01*
X101443390Y-61739047D02*
X101491009Y-61786666D01*
X101491009Y-61786666D02*
X101538628Y-61881904D01*
X101538628Y-61881904D02*
X101538628Y-62262856D01*
X102014819Y-60786666D02*
X102014819Y-61262856D01*
X102014819Y-61262856D02*
X101014819Y-61262856D01*
X101110057Y-60500951D02*
X101062438Y-60453332D01*
X101062438Y-60453332D02*
X101014819Y-60358094D01*
X101014819Y-60358094D02*
X101014819Y-60119999D01*
X101014819Y-60119999D02*
X101062438Y-60024761D01*
X101062438Y-60024761D02*
X101110057Y-59977142D01*
X101110057Y-59977142D02*
X101205295Y-59929523D01*
X101205295Y-59929523D02*
X101300533Y-59929523D01*
X101300533Y-59929523D02*
X101443390Y-59977142D01*
X101443390Y-59977142D02*
X102014819Y-60548570D01*
X102014819Y-60548570D02*
X102014819Y-59929523D01*
X144071905Y-53754819D02*
X144071905Y-52754819D01*
X144071905Y-52754819D02*
X144310000Y-52754819D01*
X144310000Y-52754819D02*
X144452857Y-52802438D01*
X144452857Y-52802438D02*
X144548095Y-52897676D01*
X144548095Y-52897676D02*
X144595714Y-52992914D01*
X144595714Y-52992914D02*
X144643333Y-53183390D01*
X144643333Y-53183390D02*
X144643333Y-53326247D01*
X144643333Y-53326247D02*
X144595714Y-53516723D01*
X144595714Y-53516723D02*
X144548095Y-53611961D01*
X144548095Y-53611961D02*
X144452857Y-53707200D01*
X144452857Y-53707200D02*
X144310000Y-53754819D01*
X144310000Y-53754819D02*
X144071905Y-53754819D01*
X145500476Y-52754819D02*
X145310000Y-52754819D01*
X145310000Y-52754819D02*
X145214762Y-52802438D01*
X145214762Y-52802438D02*
X145167143Y-52850057D01*
X145167143Y-52850057D02*
X145071905Y-52992914D01*
X145071905Y-52992914D02*
X145024286Y-53183390D01*
X145024286Y-53183390D02*
X145024286Y-53564342D01*
X145024286Y-53564342D02*
X145071905Y-53659580D01*
X145071905Y-53659580D02*
X145119524Y-53707200D01*
X145119524Y-53707200D02*
X145214762Y-53754819D01*
X145214762Y-53754819D02*
X145405238Y-53754819D01*
X145405238Y-53754819D02*
X145500476Y-53707200D01*
X145500476Y-53707200D02*
X145548095Y-53659580D01*
X145548095Y-53659580D02*
X145595714Y-53564342D01*
X145595714Y-53564342D02*
X145595714Y-53326247D01*
X145595714Y-53326247D02*
X145548095Y-53231009D01*
X145548095Y-53231009D02*
X145500476Y-53183390D01*
X145500476Y-53183390D02*
X145405238Y-53135771D01*
X145405238Y-53135771D02*
X145214762Y-53135771D01*
X145214762Y-53135771D02*
X145119524Y-53183390D01*
X145119524Y-53183390D02*
X145071905Y-53231009D01*
X145071905Y-53231009D02*
X145024286Y-53326247D01*
X110104819Y-61601428D02*
X109628628Y-61934761D01*
X110104819Y-62172856D02*
X109104819Y-62172856D01*
X109104819Y-62172856D02*
X109104819Y-61791904D01*
X109104819Y-61791904D02*
X109152438Y-61696666D01*
X109152438Y-61696666D02*
X109200057Y-61649047D01*
X109200057Y-61649047D02*
X109295295Y-61601428D01*
X109295295Y-61601428D02*
X109438152Y-61601428D01*
X109438152Y-61601428D02*
X109533390Y-61649047D01*
X109533390Y-61649047D02*
X109581009Y-61696666D01*
X109581009Y-61696666D02*
X109628628Y-61791904D01*
X109628628Y-61791904D02*
X109628628Y-62172856D01*
X110104819Y-60696666D02*
X110104819Y-61172856D01*
X110104819Y-61172856D02*
X109104819Y-61172856D01*
X110104819Y-59839523D02*
X110104819Y-60410951D01*
X110104819Y-60125237D02*
X109104819Y-60125237D01*
X109104819Y-60125237D02*
X109247676Y-60220475D01*
X109247676Y-60220475D02*
X109342914Y-60315713D01*
X109342914Y-60315713D02*
X109390533Y-60410951D01*
D13*
%TO.C,J3*%
X116490000Y-65590000D02*
X116490000Y-64260000D01*
X116490000Y-69460000D02*
X119150000Y-69460000D01*
X116490000Y-66860000D02*
X116490000Y-69460000D01*
X116490000Y-66860000D02*
X119150000Y-66860000D01*
X116490000Y-64260000D02*
X117820000Y-64260000D01*
X119150000Y-66860000D02*
X119150000Y-69460000D01*
%TO.C,J1*%
X119180000Y-61680000D02*
X119180000Y-63010000D01*
X119180000Y-57810000D02*
X116520000Y-57810000D01*
X119180000Y-60410000D02*
X119180000Y-57810000D01*
X119180000Y-60410000D02*
X116520000Y-60410000D01*
X119180000Y-63010000D02*
X117850000Y-63010000D01*
X116520000Y-60410000D02*
X116520000Y-57810000D01*
%TO.C,R14*%
X136502936Y-52465000D02*
X136957064Y-52465000D01*
X136502936Y-53935000D02*
X136957064Y-53935000D01*
%TO.C,RL3*%
X90760000Y-44500000D02*
X89110000Y-44500000D01*
X89110000Y-44500000D02*
X89110000Y-46750000D01*
X96810000Y-44700000D02*
X96810000Y-64900000D01*
X89310000Y-44700000D02*
X96810000Y-44700000D01*
X93445000Y-48880000D02*
X92175000Y-51420000D01*
X96080000Y-48910000D02*
X96080000Y-50180000D01*
X94810000Y-48910000D02*
X94810000Y-50180000D01*
X90970000Y-48910000D02*
X94810000Y-48910000D01*
X96080000Y-50180000D02*
X94810000Y-50180000D01*
X94810000Y-50180000D02*
X94810000Y-51450000D01*
X90970000Y-50180000D02*
X89700000Y-50180000D01*
X89700000Y-50180000D02*
X89700000Y-48910000D01*
X94810000Y-51450000D02*
X90970000Y-51450000D01*
X90970000Y-51450000D02*
X90970000Y-48910000D01*
X96810000Y-66200000D02*
X96810000Y-66850000D01*
X96810000Y-66850000D02*
X96110000Y-66850000D01*
X96385000Y-66850000D02*
X89235000Y-66850000D01*
X89235000Y-66850000D02*
X89310000Y-44700000D01*
%TO.C,R13*%
X136532936Y-55305000D02*
X136987064Y-55305000D01*
X136532936Y-56775000D02*
X136987064Y-56775000D01*
%TO.C,U5*%
X145940000Y-67530000D02*
X145940000Y-92960000D01*
X145940000Y-67530000D02*
X143400000Y-67530000D01*
X143400000Y-67530000D02*
X143400000Y-60630000D01*
X143400000Y-60630000D02*
X120080000Y-60630000D01*
X122200000Y-95090000D02*
X143810000Y-95090000D01*
X120080000Y-60630000D02*
X120080000Y-92960000D01*
X143810000Y-95090000D02*
G75*
G03*
X145940000Y-92960000I-2J2130002D01*
G01*
X120080000Y-92960000D02*
G75*
G03*
X122210000Y-95090000I2130000J0D01*
G01*
D11*
X146980000Y-87385000D02*
X146345000Y-86750000D01*
X146980000Y-86115000D01*
X146980000Y-87385000D01*
G36*
X146980000Y-87385000D02*
G01*
X146345000Y-86750000D01*
X146980000Y-86115000D01*
X146980000Y-87385000D01*
G37*
D13*
%TO.C,R16*%
X136472936Y-47135000D02*
X136927064Y-47135000D01*
X136472936Y-48605000D02*
X136927064Y-48605000D01*
%TO.C,PS1*%
X79400000Y-79160000D02*
X79400000Y-81170000D01*
X79780000Y-71300000D02*
X79780000Y-95020000D01*
X79790000Y-95020000D02*
X119000000Y-95020000D01*
X119000000Y-71300000D02*
X79790000Y-71300000D01*
X119000000Y-95020000D02*
X119000000Y-71300000D01*
%TO.C,R15*%
X136542936Y-49825000D02*
X136997064Y-49825000D01*
X136542936Y-51295000D02*
X136997064Y-51295000D01*
%TO.C,D7*%
X143530000Y-51500000D02*
X143530000Y-49580000D01*
X143530000Y-49580000D02*
X140670000Y-49580000D01*
X140670000Y-51500000D02*
X143530000Y-51500000D01*
%TO.C,RL4*%
X82280000Y-44500000D02*
X80630000Y-44500000D01*
X80630000Y-44500000D02*
X80630000Y-46750000D01*
X88330000Y-44700000D02*
X88330000Y-64900000D01*
X80830000Y-44700000D02*
X88330000Y-44700000D01*
X84965000Y-48880000D02*
X83695000Y-51420000D01*
X87600000Y-48910000D02*
X87600000Y-50180000D01*
X86330000Y-48910000D02*
X86330000Y-50180000D01*
X82490000Y-48910000D02*
X86330000Y-48910000D01*
X87600000Y-50180000D02*
X86330000Y-50180000D01*
X86330000Y-50180000D02*
X86330000Y-51450000D01*
X82490000Y-50180000D02*
X81220000Y-50180000D01*
X81220000Y-50180000D02*
X81220000Y-48910000D01*
X86330000Y-51450000D02*
X82490000Y-51450000D01*
X82490000Y-51450000D02*
X82490000Y-48910000D01*
X88330000Y-66200000D02*
X88330000Y-66850000D01*
X88330000Y-66850000D02*
X87630000Y-66850000D01*
X87905000Y-66850000D02*
X80755000Y-66850000D01*
X80755000Y-66850000D02*
X80830000Y-44700000D01*
%TO.C,J2*%
X67470000Y-43780000D02*
X66730000Y-43780000D01*
X66730000Y-43780000D02*
X66730000Y-44280000D01*
X78290000Y-44020000D02*
X66970000Y-44020000D01*
X78290000Y-44020000D02*
X78290000Y-94940000D01*
X76230000Y-44020000D02*
X76230000Y-94940000D01*
X70030000Y-44020000D02*
X70030000Y-94940000D01*
X67530000Y-44020000D02*
X67530000Y-94940000D01*
X66970000Y-44020000D02*
X66970000Y-94940000D01*
X71049000Y-45072000D02*
X70942000Y-44966000D01*
X70783000Y-45338000D02*
X70676000Y-45232000D01*
X73984000Y-48008000D02*
X73877000Y-47901000D01*
X73718000Y-48274000D02*
X73611000Y-48167000D01*
X71338000Y-50442000D02*
X70942000Y-50047000D01*
X71056000Y-50693000D02*
X70676000Y-50313000D01*
X73984000Y-53088000D02*
X73604000Y-52708000D01*
X73718000Y-53354000D02*
X73322000Y-52959000D01*
X71338000Y-55522000D02*
X70942000Y-55127000D01*
X71056000Y-55773000D02*
X70676000Y-55393000D01*
X73984000Y-58168000D02*
X73604000Y-57788000D01*
X73718000Y-58434000D02*
X73322000Y-58039000D01*
X71338000Y-60602000D02*
X70942000Y-60207000D01*
X71056000Y-60853000D02*
X70676000Y-60473000D01*
X73984000Y-63248000D02*
X73604000Y-62868000D01*
X73718000Y-63514000D02*
X73322000Y-63119000D01*
X71338000Y-65682000D02*
X70942000Y-65287000D01*
X71056000Y-65933000D02*
X70676000Y-65553000D01*
X73984000Y-68328000D02*
X73604000Y-67948000D01*
X73718000Y-68594000D02*
X73322000Y-68199000D01*
X71338000Y-70762000D02*
X70942000Y-70367000D01*
X71056000Y-71013000D02*
X70676000Y-70633000D01*
X73984000Y-73408000D02*
X73604000Y-73028000D01*
X73718000Y-73674000D02*
X73322000Y-73279000D01*
X71338000Y-75842000D02*
X70942000Y-75447000D01*
X71056000Y-76093000D02*
X70676000Y-75713000D01*
X73984000Y-78488000D02*
X73604000Y-78108000D01*
X73718000Y-78754000D02*
X73322000Y-78359000D01*
X71338000Y-80922000D02*
X70942000Y-80527000D01*
X71056000Y-81173000D02*
X70676000Y-80793000D01*
X73984000Y-83568000D02*
X73604000Y-83188000D01*
X73718000Y-83834000D02*
X73322000Y-83439000D01*
X71338000Y-86002000D02*
X70942000Y-85607000D01*
X71056000Y-86253000D02*
X70676000Y-85873000D01*
X73984000Y-88648000D02*
X73604000Y-88268000D01*
X73718000Y-88914000D02*
X73322000Y-88519000D01*
X71338000Y-91082000D02*
X70942000Y-90687000D01*
X71056000Y-91333000D02*
X70676000Y-90953000D01*
X73984000Y-93728000D02*
X73604000Y-93348000D01*
X73718000Y-93994000D02*
X73322000Y-93599000D01*
X78290000Y-94940000D02*
X66970000Y-94940000D01*
X74510000Y-46620000D02*
G75*
G03*
X74510000Y-46620000I-2180000J0D01*
G01*
X74510000Y-51700000D02*
G75*
G03*
X74510000Y-51700000I-2180000J0D01*
G01*
X74510000Y-56780000D02*
G75*
G03*
X74510000Y-56780000I-2180000J0D01*
G01*
X74510000Y-61860000D02*
G75*
G03*
X74510000Y-61860000I-2180000J0D01*
G01*
X74510000Y-66940000D02*
G75*
G03*
X74510000Y-66940000I-2180000J0D01*
G01*
X74510000Y-72020000D02*
G75*
G03*
X74510000Y-72020000I-2180000J0D01*
G01*
X74510000Y-77100000D02*
G75*
G03*
X74510000Y-77100000I-2180000J0D01*
G01*
X74510000Y-82180000D02*
G75*
G03*
X74510000Y-82180000I-2180000J0D01*
G01*
X74510000Y-87260000D02*
G75*
G03*
X74510000Y-87260000I-2180000J0D01*
G01*
X74510000Y-92340000D02*
G75*
G03*
X74510000Y-92340000I-2180000J0D01*
G01*
%TO.C,D5*%
X143470000Y-57000000D02*
X143470000Y-55080000D01*
X143470000Y-55080000D02*
X140610000Y-55080000D01*
X140610000Y-57000000D02*
X143470000Y-57000000D01*
%TO.C,D8*%
X143517500Y-48800000D02*
X143517500Y-46880000D01*
X143517500Y-46880000D02*
X140657500Y-46880000D01*
X140657500Y-48800000D02*
X143517500Y-48800000D01*
%TO.C,RL2*%
X99310000Y-44500000D02*
X97660000Y-44500000D01*
X97660000Y-44500000D02*
X97660000Y-46750000D01*
X105360000Y-44700000D02*
X105360000Y-64900000D01*
X97860000Y-44700000D02*
X105360000Y-44700000D01*
X101995000Y-48880000D02*
X100725000Y-51420000D01*
X104630000Y-48910000D02*
X104630000Y-50180000D01*
X103360000Y-48910000D02*
X103360000Y-50180000D01*
X99520000Y-48910000D02*
X103360000Y-48910000D01*
X104630000Y-50180000D02*
X103360000Y-50180000D01*
X103360000Y-50180000D02*
X103360000Y-51450000D01*
X99520000Y-50180000D02*
X98250000Y-50180000D01*
X98250000Y-50180000D02*
X98250000Y-48910000D01*
X103360000Y-51450000D02*
X99520000Y-51450000D01*
X99520000Y-51450000D02*
X99520000Y-48910000D01*
X105360000Y-66200000D02*
X105360000Y-66850000D01*
X105360000Y-66850000D02*
X104660000Y-66850000D01*
X104935000Y-66850000D02*
X97785000Y-66850000D01*
X97785000Y-66850000D02*
X97860000Y-44700000D01*
%TO.C,D6*%
X143485000Y-54160000D02*
X143485000Y-52240000D01*
X143485000Y-52240000D02*
X140625000Y-52240000D01*
X140625000Y-54160000D02*
X143485000Y-54160000D01*
%TO.C,RL1*%
X107790000Y-44500000D02*
X106140000Y-44500000D01*
X106140000Y-44500000D02*
X106140000Y-46750000D01*
X113840000Y-44700000D02*
X113840000Y-64900000D01*
X106340000Y-44700000D02*
X113840000Y-44700000D01*
X110475000Y-48880000D02*
X109205000Y-51420000D01*
X113110000Y-48910000D02*
X113110000Y-50180000D01*
X111840000Y-48910000D02*
X111840000Y-50180000D01*
X108000000Y-48910000D02*
X111840000Y-48910000D01*
X113110000Y-50180000D02*
X111840000Y-50180000D01*
X111840000Y-50180000D02*
X111840000Y-51450000D01*
X108000000Y-50180000D02*
X106730000Y-50180000D01*
X106730000Y-50180000D02*
X106730000Y-48910000D01*
X111840000Y-51450000D02*
X108000000Y-51450000D01*
X108000000Y-51450000D02*
X108000000Y-48910000D01*
X113840000Y-66200000D02*
X113840000Y-66850000D01*
X113840000Y-66850000D02*
X113140000Y-66850000D01*
X113415000Y-66850000D02*
X106265000Y-66850000D01*
X106265000Y-66850000D02*
X106340000Y-44700000D01*
%TD*%
M02*
