%TF.GenerationSoftware,KiCad,Pcbnew,7.0.8*%
%TF.CreationDate,2025-02-03T21:17:31+05:30*%
%TF.ProjectId,WemosD1Mini-8266,57656d6f-7344-4314-9d69-6e692d383236,rev?*%
%TF.SameCoordinates,Original*%
%TF.FileFunction,Copper,L2,Bot*%
%TF.FilePolarity,Positive*%
%FSLAX46Y46*%
G04 Gerber Fmt 4.6, Leading zero omitted, Abs format (unit mm)*
G04 Created by KiCad (PCBNEW 7.0.8) date 2025-02-03 21:17:31*
%MOMM*%
%LPD*%
G01*
G04 APERTURE LIST*
G04 Aperture macros list*
%AMRoundRect*
0 Rectangle with rounded corners*
0 $1 Rounding radius*
0 $2 $3 $4 $5 $6 $7 $8 $9 X,Y pos of 4 corners*
0 Add a 4 corners polygon primitive as box body*
4,1,4,$2,$3,$4,$5,$6,$7,$8,$9,$2,$3,0*
0 Add four circle primitives for the rounded corners*
1,1,$1+$1,$2,$3*
1,1,$1+$1,$4,$5*
1,1,$1+$1,$6,$7*
1,1,$1+$1,$8,$9*
0 Add four rect primitives between the rounded corners*
20,1,$1+$1,$2,$3,$4,$5,0*
20,1,$1+$1,$4,$5,$6,$7,0*
20,1,$1+$1,$6,$7,$8,$9,0*
20,1,$1+$1,$8,$9,$2,$3,0*%
G04 Aperture macros list end*
%TA.AperFunction,ComponentPad*%
%ADD10C,1.270000*%
%TD*%
%TA.AperFunction,ComponentPad*%
%ADD11R,2.000000X2.000000*%
%TD*%
%TA.AperFunction,ComponentPad*%
%ADD12O,2.000000X1.600000*%
%TD*%
%TA.AperFunction,ComponentPad*%
%ADD13C,3.000000*%
%TD*%
%TA.AperFunction,ComponentPad*%
%ADD14R,2.540000X2.540000*%
%TD*%
%TA.AperFunction,ComponentPad*%
%ADD15C,2.540000*%
%TD*%
%TA.AperFunction,ComponentPad*%
%ADD16C,2.000000*%
%TD*%
%TA.AperFunction,ComponentPad*%
%ADD17RoundRect,0.250000X0.750000X-0.600000X0.750000X0.600000X-0.750000X0.600000X-0.750000X-0.600000X0*%
%TD*%
%TA.AperFunction,ComponentPad*%
%ADD18O,2.000000X1.700000*%
%TD*%
%TA.AperFunction,ComponentPad*%
%ADD19R,2.600000X2.600000*%
%TD*%
%TA.AperFunction,ComponentPad*%
%ADD20C,2.600000*%
%TD*%
%TA.AperFunction,ComponentPad*%
%ADD21RoundRect,0.250000X0.600000X0.750000X-0.600000X0.750000X-0.600000X-0.750000X0.600000X-0.750000X0*%
%TD*%
%TA.AperFunction,ComponentPad*%
%ADD22O,1.700000X2.000000*%
%TD*%
%TA.AperFunction,ComponentPad*%
%ADD23C,1.800000*%
%TD*%
%TA.AperFunction,ComponentPad*%
%ADD24RoundRect,0.250000X0.600000X0.725000X-0.600000X0.725000X-0.600000X-0.725000X0.600000X-0.725000X0*%
%TD*%
%TA.AperFunction,ComponentPad*%
%ADD25O,1.700000X1.950000*%
%TD*%
%TA.AperFunction,SMDPad,CuDef*%
%ADD26RoundRect,0.250000X-0.350000X-0.450000X0.350000X-0.450000X0.350000X0.450000X-0.350000X0.450000X0*%
%TD*%
%TA.AperFunction,SMDPad,CuDef*%
%ADD27RoundRect,0.237500X0.250000X0.237500X-0.250000X0.237500X-0.250000X-0.237500X0.250000X-0.237500X0*%
%TD*%
%TA.AperFunction,SMDPad,CuDef*%
%ADD28RoundRect,0.162500X0.750000X0.162500X-0.750000X0.162500X-0.750000X-0.162500X0.750000X-0.162500X0*%
%TD*%
%TA.AperFunction,SMDPad,CuDef*%
%ADD29R,3.100000X1.600000*%
%TD*%
%TA.AperFunction,SMDPad,CuDef*%
%ADD30RoundRect,0.250000X-1.000000X-0.650000X1.000000X-0.650000X1.000000X0.650000X-1.000000X0.650000X0*%
%TD*%
%TA.AperFunction,SMDPad,CuDef*%
%ADD31RoundRect,0.250000X0.650000X-0.412500X0.650000X0.412500X-0.650000X0.412500X-0.650000X-0.412500X0*%
%TD*%
%TA.AperFunction,SMDPad,CuDef*%
%ADD32RoundRect,0.250000X0.350000X0.450000X-0.350000X0.450000X-0.350000X-0.450000X0.350000X-0.450000X0*%
%TD*%
%TA.AperFunction,SMDPad,CuDef*%
%ADD33RoundRect,0.250000X-0.650000X0.412500X-0.650000X-0.412500X0.650000X-0.412500X0.650000X0.412500X0*%
%TD*%
%TA.AperFunction,SMDPad,CuDef*%
%ADD34RoundRect,0.250000X-0.450000X0.350000X-0.450000X-0.350000X0.450000X-0.350000X0.450000X0.350000X0*%
%TD*%
%TA.AperFunction,ViaPad*%
%ADD35C,0.800000*%
%TD*%
%TA.AperFunction,Conductor*%
%ADD36C,0.400000*%
%TD*%
%TA.AperFunction,Conductor*%
%ADD37C,0.500000*%
%TD*%
%TA.AperFunction,Conductor*%
%ADD38C,1.000000*%
%TD*%
%TA.AperFunction,Conductor*%
%ADD39C,2.000000*%
%TD*%
G04 APERTURE END LIST*
D10*
%TO.P,F1,1*%
%TO.N,/AC{slash}L*%
X113950000Y-136200000D03*
%TO.P,F1,2*%
%TO.N,/AC{slash}L(P)*%
X119050000Y-137800000D03*
%TD*%
D11*
%TO.P,U5,1,~{RST}*%
%TO.N,unconnected-(U5-~{RST}-Pad1)*%
X185110000Y-143210000D03*
D12*
%TO.P,U5,2,A0*%
%TO.N,Net-(J6-Pin_4)*%
X185110000Y-140670000D03*
%TO.P,U5,3,D0*%
%TO.N,/Voltage Sensing/In1*%
X185110000Y-138130000D03*
%TO.P,U5,4,SCK/D5*%
%TO.N,/Relays/RL1*%
X185110000Y-135590000D03*
%TO.P,U5,5,MISO/D6*%
%TO.N,/Relays/RL2*%
X185110000Y-133050000D03*
%TO.P,U5,6,MOSI/D7*%
%TO.N,/Relays/RL3*%
X185110000Y-130510000D03*
%TO.P,U5,7,CS/D8*%
%TO.N,/Relays/RL4*%
X185110000Y-127970000D03*
%TO.P,U5,8,3V3*%
%TO.N,+3.3V*%
X185110000Y-125430000D03*
%TO.P,U5,9,5V*%
%TO.N,+5V*%
X162250000Y-125430000D03*
%TO.P,U5,10,GND*%
%TO.N,Earth*%
X162250000Y-127970000D03*
%TO.P,U5,11,D4*%
%TO.N,unconnected-(U5-D4-Pad11)*%
X162250000Y-130510000D03*
%TO.P,U5,12,D3*%
%TO.N,/Voltage Sensing/In4*%
X162250000Y-133050000D03*
%TO.P,U5,13,SDA/D2*%
%TO.N,/Voltage Sensing/In3*%
X162250000Y-135590000D03*
%TO.P,U5,14,SCL/D1*%
%TO.N,/Voltage Sensing/In2*%
X162250000Y-138130000D03*
%TO.P,U5,15,RX*%
%TO.N,unconnected-(U5-RX-Pad15)*%
X162250000Y-140670000D03*
%TO.P,U5,16,TX*%
%TO.N,unconnected-(U5-TX-Pad16)*%
X162250000Y-143210000D03*
%TD*%
D13*
%TO.P,RL3,13*%
%TO.N,/Load2*%
X122580000Y-114220000D03*
%TO.P,RL3,14*%
%TO.N,/AC{slash}L*%
X122580000Y-121220000D03*
D14*
%TO.P,RL3,A1*%
%TO.N,+5V*%
X122580000Y-102720000D03*
D15*
%TO.P,RL3,A2*%
%TO.N,Net-(U6-O5)*%
X127280000Y-102720000D03*
%TD*%
D11*
%TO.P,PS1,1,AC/L*%
%TO.N,/AC{slash}L(P)*%
X124000000Y-136500000D03*
D16*
%TO.P,PS1,2,AC/N*%
%TO.N,/AC{slash}N*%
X124000000Y-142500000D03*
%TO.P,PS1,3,-Vout*%
%TO.N,Earth*%
X157600000Y-130500000D03*
%TO.P,PS1,4,+Vout*%
%TO.N,+5V*%
X157600000Y-148500000D03*
%TD*%
D17*
%TO.P,J5,1,Pin_1*%
%TO.N,/Voltage Sensing/In1*%
X182555000Y-113370000D03*
D18*
%TO.P,J5,2,Pin_2*%
%TO.N,Earth*%
X182555000Y-110870000D03*
%TD*%
D19*
%TO.P,J8,1,Pin_1*%
%TO.N,Net-(J8-Pin_1)*%
X193130000Y-144700000D03*
D20*
%TO.P,J8,2,Pin_2*%
%TO.N,Net-(J8-Pin_2)*%
X193130000Y-139620000D03*
%TO.P,J8,3,Pin_3*%
%TO.N,Net-(J8-Pin_3)*%
X193130000Y-134540000D03*
%TO.P,J8,4,Pin_4*%
%TO.N,Net-(J8-Pin_4)*%
X193130000Y-129460000D03*
%TO.P,J8,5,Pin_5*%
%TO.N,Net-(J8-Pin_1)*%
X193130000Y-124380000D03*
%TO.P,J8,6,Pin_6*%
%TO.N,Net-(J8-Pin_2)*%
X193130000Y-119300000D03*
%TO.P,J8,7,Pin_7*%
%TO.N,Net-(J8-Pin_3)*%
X193130000Y-114220000D03*
%TO.P,J8,8,Pin_8*%
%TO.N,Net-(J8-Pin_4)*%
X193130000Y-109140000D03*
%TD*%
D21*
%TO.P,J3,1,Pin_1*%
%TO.N,+3.3V*%
X160330000Y-104245000D03*
D22*
%TO.P,J3,2,Pin_2*%
%TO.N,Earth*%
X157830000Y-104245000D03*
%TD*%
D23*
%TO.P,RV1,1*%
%TO.N,/AC{slash}L(P)*%
X117750000Y-141750000D03*
%TO.P,RV1,2*%
%TO.N,/AC{slash}N*%
X114050000Y-149250000D03*
%TD*%
D21*
%TO.P,J2,1,Pin_1*%
%TO.N,+5V*%
X151630000Y-104245000D03*
D22*
%TO.P,J2,2,Pin_2*%
%TO.N,Earth*%
X149130000Y-104245000D03*
%TD*%
D13*
%TO.P,RL1,13*%
%TO.N,/Load4*%
X138780000Y-114220000D03*
%TO.P,RL1,14*%
%TO.N,/AC{slash}L*%
X138780000Y-121220000D03*
D14*
%TO.P,RL1,A1*%
%TO.N,+5V*%
X138780000Y-102720000D03*
D15*
%TO.P,RL1,A2*%
%TO.N,Net-(U6-O1)*%
X143480000Y-102720000D03*
%TD*%
D13*
%TO.P,RL2,13*%
%TO.N,/Load3*%
X130680000Y-114220000D03*
%TO.P,RL2,14*%
%TO.N,/AC{slash}L*%
X130680000Y-121220000D03*
D14*
%TO.P,RL2,A1*%
%TO.N,+5V*%
X130680000Y-102720000D03*
D15*
%TO.P,RL2,A2*%
%TO.N,Net-(U6-O3)*%
X135380000Y-102720000D03*
%TD*%
D24*
%TO.P,J6,1,Pin_1*%
%TO.N,Net-(J6-Pin_1)*%
X178750000Y-104250000D03*
D25*
%TO.P,J6,2,Pin_2*%
%TO.N,Net-(J6-Pin_2)*%
X176250000Y-104250000D03*
%TO.P,J6,3,Pin_3*%
%TO.N,Net-(J6-Pin_3)*%
X173750000Y-104250000D03*
%TO.P,J6,4,Pin_4*%
%TO.N,Net-(J6-Pin_4)*%
X171250000Y-104250000D03*
%TD*%
D13*
%TO.P,RL4,13*%
%TO.N,/Load1*%
X114480000Y-114230000D03*
%TO.P,RL4,14*%
%TO.N,/AC{slash}L*%
X114480000Y-121230000D03*
D14*
%TO.P,RL4,A1*%
%TO.N,+5V*%
X114480000Y-102730000D03*
D15*
%TO.P,RL4,A2*%
%TO.N,Net-(U6-O7)*%
X119180000Y-102730000D03*
%TD*%
D19*
%TO.P,J1,1,Pin_1*%
%TO.N,/Load4*%
X105630000Y-102860000D03*
D20*
%TO.P,J1,2,Pin_2*%
%TO.N,/Load3*%
X105630000Y-107940000D03*
%TO.P,J1,3,Pin_3*%
%TO.N,/Load2*%
X105630000Y-113020000D03*
%TO.P,J1,4,Pin_4*%
%TO.N,/Load1*%
X105630000Y-118100000D03*
%TO.P,J1,5,Pin_5*%
%TO.N,/M4*%
X105630000Y-123180000D03*
%TO.P,J1,6,Pin_6*%
%TO.N,/M3*%
X105630000Y-128260000D03*
%TO.P,J1,7,Pin_7*%
%TO.N,/M2*%
X105630000Y-133340000D03*
%TO.P,J1,8,Pin_8*%
%TO.N,/M1*%
X105630000Y-138420000D03*
%TO.P,J1,9,Pin_9*%
%TO.N,/AC{slash}L*%
X105630000Y-143500000D03*
%TO.P,J1,10,Pin_10*%
%TO.N,/AC{slash}N*%
X105630000Y-148580000D03*
%TD*%
D24*
%TO.P,J4,1,Pin_1*%
%TO.N,/Voltage Sensing/In4*%
X156130000Y-123270000D03*
D25*
%TO.P,J4,2,Pin_2*%
%TO.N,/Voltage Sensing/In3*%
X153630000Y-123270000D03*
%TO.P,J4,3,Pin_3*%
%TO.N,/Voltage Sensing/In2*%
X151130000Y-123270000D03*
%TO.P,J4,4,Pin_4*%
%TO.N,Earth*%
X148630000Y-123270000D03*
%TD*%
D26*
%TO.P,R4,1*%
%TO.N,/M2*%
X110980000Y-133120000D03*
%TO.P,R4,2*%
%TO.N,Net-(R4-Pad2)*%
X112980000Y-133120000D03*
%TD*%
D27*
%TO.P,R3,1*%
%TO.N,+3.3V*%
X148392500Y-148870000D03*
%TO.P,R3,2*%
%TO.N,/Voltage Sensing/In1*%
X146567500Y-148870000D03*
%TD*%
D28*
%TO.P,U6,1,I1*%
%TO.N,/Relays/RL4*%
X155217500Y-110125000D03*
%TO.P,U6,2,I2*%
X155217500Y-111395000D03*
%TO.P,U6,3,I3*%
%TO.N,/Relays/RL3*%
X155217500Y-112665000D03*
%TO.P,U6,4,I4*%
X155217500Y-113935000D03*
%TO.P,U6,5,I5*%
%TO.N,/Relays/RL2*%
X155217500Y-115205000D03*
%TO.P,U6,6,I6*%
X155217500Y-116475000D03*
%TO.P,U6,7,I7*%
%TO.N,/Relays/RL1*%
X155217500Y-117745000D03*
%TO.P,U6,8,GND*%
%TO.N,Earth*%
X155217500Y-119015000D03*
%TO.P,U6,9,COM*%
%TO.N,+5V*%
X149042500Y-119015000D03*
%TO.P,U6,10,O7*%
%TO.N,Net-(U6-O7)*%
X149042500Y-117745000D03*
%TO.P,U6,11,O6*%
%TO.N,Net-(U6-O5)*%
X149042500Y-116475000D03*
%TO.P,U6,12,O5*%
X149042500Y-115205000D03*
%TO.P,U6,13,O4*%
%TO.N,Net-(U6-O3)*%
X149042500Y-113935000D03*
%TO.P,U6,14,O3*%
X149042500Y-112665000D03*
%TO.P,U6,15,O2*%
%TO.N,Net-(U6-O1)*%
X149042500Y-111395000D03*
%TO.P,U6,16,O1*%
X149042500Y-110125000D03*
%TD*%
D27*
%TO.P,R9,1*%
%TO.N,+3.3V*%
X148392500Y-137020000D03*
%TO.P,R9,2*%
%TO.N,/Voltage Sensing/In3*%
X146567500Y-137020000D03*
%TD*%
%TO.P,R14,1*%
%TO.N,+3.3V*%
X148342500Y-131070000D03*
%TO.P,R14,2*%
%TO.N,/Voltage Sensing/In4*%
X146517500Y-131070000D03*
%TD*%
D26*
%TO.P,R8,1*%
%TO.N,Net-(R7-Pad2)*%
X115530000Y-126320000D03*
%TO.P,R8,2*%
%TO.N,Net-(D3-K)*%
X117530000Y-126320000D03*
%TD*%
%TO.P,R15,1*%
%TO.N,/Relays/RL1*%
X160680000Y-115320000D03*
%TO.P,R15,2*%
%TO.N,Net-(D5-A)*%
X162680000Y-115320000D03*
%TD*%
%TO.P,R17,1*%
%TO.N,/Relays/RL3*%
X160680000Y-110670000D03*
%TO.P,R17,2*%
%TO.N,Net-(D7-A)*%
X162680000Y-110670000D03*
%TD*%
D29*
%TO.P,U4,1*%
%TO.N,Net-(D4-K)*%
X132885000Y-131040000D03*
%TO.P,U4,2*%
%TO.N,/AC{slash}N*%
X132885000Y-128500000D03*
%TO.P,U4,3*%
%TO.N,Earth*%
X141775000Y-128500000D03*
%TO.P,U4,4*%
%TO.N,/Voltage Sensing/In4*%
X141775000Y-131040000D03*
%TD*%
D26*
%TO.P,R5,1*%
%TO.N,Net-(R4-Pad2)*%
X115580000Y-131370000D03*
%TO.P,R5,2*%
%TO.N,Net-(D2-K)*%
X117580000Y-131370000D03*
%TD*%
D30*
%TO.P,D3,1,K*%
%TO.N,Net-(D3-K)*%
X122830000Y-126370000D03*
%TO.P,D3,2,A*%
%TO.N,/AC{slash}N*%
X126830000Y-126370000D03*
%TD*%
%TO.P,D1,1,K*%
%TO.N,Net-(D1-K)*%
X122930000Y-146570000D03*
%TO.P,D1,2,A*%
%TO.N,/AC{slash}N*%
X126930000Y-146570000D03*
%TD*%
%TO.P,D2,1,K*%
%TO.N,Net-(D2-K)*%
X122730000Y-131370000D03*
%TO.P,D2,2,A*%
%TO.N,/AC{slash}N*%
X126730000Y-131370000D03*
%TD*%
D29*
%TO.P,U3,1*%
%TO.N,Net-(D3-K)*%
X132885000Y-136890000D03*
%TO.P,U3,2*%
%TO.N,/AC{slash}N*%
X132885000Y-134350000D03*
%TO.P,U3,3*%
%TO.N,Earth*%
X141775000Y-134350000D03*
%TO.P,U3,4*%
%TO.N,/Voltage Sensing/In3*%
X141775000Y-136890000D03*
%TD*%
D31*
%TO.P,C1,1*%
%TO.N,+3.3V*%
X181130000Y-123070000D03*
%TO.P,C1,2*%
%TO.N,Earth*%
X181130000Y-119945000D03*
%TD*%
D29*
%TO.P,U2,1*%
%TO.N,Net-(D2-K)*%
X132885000Y-142840000D03*
%TO.P,U2,2*%
%TO.N,/AC{slash}N*%
X132885000Y-140300000D03*
%TO.P,U2,3*%
%TO.N,Earth*%
X141775000Y-140300000D03*
%TO.P,U2,4*%
%TO.N,/Voltage Sensing/In2*%
X141775000Y-142840000D03*
%TD*%
%TO.P,U1,1*%
%TO.N,Net-(D1-K)*%
X132885000Y-148840000D03*
%TO.P,U1,2*%
%TO.N,/AC{slash}N*%
X132885000Y-146300000D03*
%TO.P,U1,3*%
%TO.N,Earth*%
X141775000Y-146300000D03*
%TO.P,U1,4*%
%TO.N,/Voltage Sensing/In1*%
X141775000Y-148840000D03*
%TD*%
D32*
%TO.P,R19,1*%
%TO.N,Net-(J6-Pin_1)*%
X178250000Y-115500000D03*
%TO.P,R19,2*%
%TO.N,+3.3V*%
X176250000Y-115500000D03*
%TD*%
D33*
%TO.P,C2,1*%
%TO.N,+5V*%
X166180000Y-125420000D03*
%TO.P,C2,2*%
%TO.N,Earth*%
X166180000Y-128545000D03*
%TD*%
D26*
%TO.P,R7,1*%
%TO.N,/M3*%
X111030000Y-128320000D03*
%TO.P,R7,2*%
%TO.N,Net-(R7-Pad2)*%
X113030000Y-128320000D03*
%TD*%
D27*
%TO.P,R6,1*%
%TO.N,+3.3V*%
X148392500Y-142820000D03*
%TO.P,R6,2*%
%TO.N,/Voltage Sensing/In2*%
X146567500Y-142820000D03*
%TD*%
D26*
%TO.P,R2,1*%
%TO.N,Net-(R1-Pad2)*%
X114230000Y-145270000D03*
%TO.P,R2,2*%
%TO.N,Net-(D1-K)*%
X116230000Y-145270000D03*
%TD*%
%TO.P,R18,1*%
%TO.N,/Relays/RL4*%
X160680000Y-108420000D03*
%TO.P,R18,2*%
%TO.N,Net-(D8-A)*%
X162680000Y-108420000D03*
%TD*%
D34*
%TO.P,R1,1*%
%TO.N,/M1*%
X110500000Y-143250000D03*
%TO.P,R1,2*%
%TO.N,Net-(R1-Pad2)*%
X110500000Y-145250000D03*
%TD*%
D26*
%TO.P,R16,1*%
%TO.N,/Relays/RL2*%
X160680000Y-112920000D03*
%TO.P,R16,2*%
%TO.N,Net-(D6-A)*%
X162680000Y-112920000D03*
%TD*%
D35*
%TO.N,Earth*%
X154500000Y-126820000D03*
X152830000Y-119070000D03*
%TO.N,/Voltage Sensing/In2*%
X146680000Y-140770000D03*
%TO.N,/Voltage Sensing/In3*%
X153680000Y-133870000D03*
X146730000Y-133820000D03*
%TO.N,/AC{slash}N*%
X127530000Y-124820000D03*
%TO.N,Net-(D4-K)*%
X129630000Y-131070000D03*
%TO.N,+3.3V*%
X149980000Y-148820000D03*
X173430000Y-115820000D03*
%TO.N,/M4*%
X112750000Y-124170000D03*
%TO.N,Net-(D3-K)*%
X129130000Y-136820000D03*
X119930000Y-128320000D03*
%TO.N,/Relays/RL2*%
X157530000Y-115205000D03*
X165680000Y-119320000D03*
%TO.N,/Relays/RL3*%
X156680000Y-112665000D03*
X171430000Y-118220000D03*
%TO.N,Net-(D5-A)*%
X164130000Y-115170000D03*
%TO.N,Net-(D6-A)*%
X164330000Y-112920000D03*
%TO.N,Net-(D7-A)*%
X164380000Y-110670000D03*
%TO.N,Net-(D8-A)*%
X164330000Y-108370000D03*
%TD*%
D36*
%TO.N,/Voltage Sensing/In1*%
X148067500Y-150370000D02*
X146567500Y-148870000D01*
X141775000Y-148840000D02*
X146537500Y-148840000D01*
X183520000Y-138130000D02*
X181750000Y-139900000D01*
X181750000Y-143500000D02*
X174880000Y-150370000D01*
X146537500Y-148840000D02*
X146567500Y-148870000D01*
X181750000Y-139900000D02*
X181750000Y-143500000D01*
X184825000Y-138130000D02*
X183520000Y-138130000D01*
X174880000Y-150370000D02*
X148067500Y-150370000D01*
%TO.N,Earth*%
X141775000Y-134350000D02*
X139100000Y-134350000D01*
D37*
X181130000Y-119945000D02*
X183505000Y-119945000D01*
D36*
X138930000Y-134520000D02*
X138930000Y-130320000D01*
X141775000Y-140300000D02*
X138960000Y-140300000D01*
X138960000Y-140300000D02*
X138930000Y-140270000D01*
D37*
X184130000Y-110870000D02*
X182555000Y-110870000D01*
X157830000Y-104245000D02*
X157830000Y-102720000D01*
X184250000Y-110750000D02*
X184130000Y-110870000D01*
D36*
X139100000Y-134350000D02*
X138930000Y-134520000D01*
D37*
X183505000Y-119945000D02*
X185380000Y-118070000D01*
X159430000Y-101120000D02*
X182870000Y-101120000D01*
D36*
X138930000Y-145020000D02*
X138930000Y-140270000D01*
X138880000Y-130270000D02*
X140650000Y-128500000D01*
D37*
X185380000Y-112120000D02*
X184130000Y-110870000D01*
X155217500Y-119015000D02*
X152885000Y-119015000D01*
D36*
X141775000Y-146300000D02*
X140210000Y-146300000D01*
X140650000Y-128500000D02*
X141775000Y-128500000D01*
X138930000Y-140270000D02*
X138930000Y-134520000D01*
D37*
X152885000Y-119015000D02*
X152830000Y-119070000D01*
X184250000Y-102500000D02*
X184250000Y-110750000D01*
X182870000Y-101120000D02*
X184250000Y-102500000D01*
X154500000Y-126820000D02*
X145980000Y-126820000D01*
D36*
X140210000Y-146300000D02*
X138930000Y-145020000D01*
D37*
X185380000Y-118070000D02*
X185380000Y-112120000D01*
D36*
X141775000Y-128500000D02*
X143400000Y-128500000D01*
D37*
X145980000Y-126820000D02*
X145530000Y-126370000D01*
D36*
X143400000Y-128500000D02*
X145530000Y-126370000D01*
D37*
X157830000Y-102720000D02*
X159430000Y-101120000D01*
D36*
X138930000Y-130320000D02*
X138880000Y-130270000D01*
X145530000Y-126370000D02*
X148630000Y-123270000D01*
%TO.N,/Voltage Sensing/In2*%
X146567500Y-140882500D02*
X146680000Y-140770000D01*
X146567500Y-142820000D02*
X141795000Y-142820000D01*
X141795000Y-142820000D02*
X141775000Y-142840000D01*
X146567500Y-142820000D02*
X146567500Y-140882500D01*
%TO.N,/Voltage Sensing/In3*%
X146567500Y-137020000D02*
X146567500Y-133982500D01*
X146567500Y-133982500D02*
X146730000Y-133820000D01*
X146437500Y-136890000D02*
X146567500Y-137020000D01*
X155400000Y-135590000D02*
X161965000Y-135590000D01*
X153680000Y-133870000D02*
X155400000Y-135590000D01*
X141775000Y-136890000D02*
X146437500Y-136890000D01*
%TO.N,Net-(D1-K)*%
X116230000Y-145270000D02*
X117480000Y-145270000D01*
X122930000Y-147070000D02*
X124700000Y-148840000D01*
X122930000Y-146570000D02*
X122930000Y-147070000D01*
X124700000Y-148840000D02*
X132885000Y-148840000D01*
X118780000Y-146570000D02*
X122930000Y-146570000D01*
X117480000Y-145270000D02*
X118780000Y-146570000D01*
%TO.N,/AC{slash}N*%
X127530000Y-125670000D02*
X126830000Y-126370000D01*
D38*
X134850000Y-146300000D02*
X135830000Y-145320000D01*
X128960000Y-128500000D02*
X126830000Y-126370000D01*
X135830000Y-134570000D02*
X135830000Y-129220000D01*
X128960000Y-129140000D02*
X128960000Y-128500000D01*
X125890000Y-142580000D02*
X126930000Y-143620000D01*
X126730000Y-131370000D02*
X128960000Y-129140000D01*
D36*
X127530000Y-124820000D02*
X127530000Y-125670000D01*
D38*
X126930000Y-146570000D02*
X132615000Y-146570000D01*
X135830000Y-140570000D02*
X135830000Y-134570000D01*
X132615000Y-146570000D02*
X132885000Y-146300000D01*
X132885000Y-134350000D02*
X135610000Y-134350000D01*
X126930000Y-143620000D02*
X126930000Y-146570000D01*
X135560000Y-140300000D02*
X135830000Y-140570000D01*
X135310000Y-128500000D02*
X132885000Y-128500000D01*
X132885000Y-140300000D02*
X135560000Y-140300000D01*
X122970000Y-142580000D02*
X125890000Y-142580000D01*
X132885000Y-146300000D02*
X134850000Y-146300000D01*
X132885000Y-128500000D02*
X128960000Y-128500000D01*
X135610000Y-134350000D02*
X135830000Y-134570000D01*
X135830000Y-145320000D02*
X135830000Y-140570000D01*
X135930000Y-129120000D02*
X135310000Y-128500000D01*
X135830000Y-129220000D02*
X135930000Y-129120000D01*
D36*
%TO.N,Net-(D2-K)*%
X129150000Y-142840000D02*
X126730000Y-140420000D01*
X123130000Y-131370000D02*
X122730000Y-131370000D01*
X126730000Y-140420000D02*
X126730000Y-134970000D01*
X126730000Y-134970000D02*
X123130000Y-131370000D01*
X117580000Y-131370000D02*
X122730000Y-131370000D01*
X132885000Y-142840000D02*
X129150000Y-142840000D01*
D37*
%TO.N,+5V*%
X158680000Y-120620000D02*
X158980000Y-120920000D01*
X151680000Y-117770000D02*
X151630000Y-117720000D01*
X149042500Y-119015000D02*
X150435000Y-119015000D01*
X158980000Y-120920000D02*
X158980000Y-122445000D01*
X150030000Y-120002500D02*
X150030000Y-120620000D01*
X150030000Y-120620000D02*
X158680000Y-120620000D01*
X166180000Y-125420000D02*
X161975000Y-125420000D01*
X158980000Y-122445000D02*
X161965000Y-125430000D01*
X161975000Y-125420000D02*
X161965000Y-125430000D01*
X149042500Y-119015000D02*
X150030000Y-120002500D01*
X150435000Y-119015000D02*
X151680000Y-117770000D01*
X151630000Y-117720000D02*
X151630000Y-104245000D01*
D36*
%TO.N,Net-(D4-K)*%
X129630000Y-131070000D02*
X132855000Y-131070000D01*
X132855000Y-131070000D02*
X132885000Y-131040000D01*
%TO.N,+3.3V*%
X148392500Y-131120000D02*
X148342500Y-131070000D01*
D37*
X180680000Y-123070000D02*
X181130000Y-123070000D01*
X183490000Y-125430000D02*
X181130000Y-123070000D01*
D36*
X149930000Y-148870000D02*
X149980000Y-148820000D01*
X148392500Y-137020000D02*
X148392500Y-131120000D01*
X176250000Y-115500000D02*
X173750000Y-115500000D01*
D37*
X184825000Y-125430000D02*
X183490000Y-125430000D01*
X173430000Y-115820000D02*
X180680000Y-123070000D01*
D36*
X148392500Y-148870000D02*
X148392500Y-142820000D01*
X148392500Y-148870000D02*
X149930000Y-148870000D01*
X148392500Y-142820000D02*
X148392500Y-137020000D01*
X173750000Y-115500000D02*
X173430000Y-115820000D01*
D37*
%TO.N,Net-(U6-O5)*%
X139630000Y-106270000D02*
X129560000Y-106270000D01*
X147765000Y-115205000D02*
X146580000Y-114020000D01*
X149007500Y-115170000D02*
X149042500Y-115205000D01*
X149042500Y-116475000D02*
X149042500Y-115205000D01*
X129560000Y-106270000D02*
X127280000Y-103990000D01*
X146580000Y-113220000D02*
X139630000Y-106270000D01*
X146580000Y-114020000D02*
X146580000Y-113220000D01*
X127280000Y-103990000D02*
X127280000Y-102720000D01*
X149042500Y-115205000D02*
X147765000Y-115205000D01*
%TO.N,Net-(U6-O1)*%
X149042500Y-111395000D02*
X149042500Y-110125000D01*
X143480000Y-106220000D02*
X143480000Y-102720000D01*
X149042500Y-110125000D02*
X147285000Y-110125000D01*
X143430000Y-106270000D02*
X143480000Y-106220000D01*
X147285000Y-110125000D02*
X143430000Y-106270000D01*
%TO.N,Net-(U6-O3)*%
X137240760Y-104640000D02*
X140050000Y-104640000D01*
X140050000Y-104640000D02*
X148075000Y-112665000D01*
X135380000Y-102720000D02*
X135380000Y-102779240D01*
X148075000Y-112665000D02*
X149042500Y-112665000D01*
X149042500Y-113935000D02*
X149042500Y-112665000D01*
X135380000Y-102779240D02*
X137240760Y-104640000D01*
D36*
%TO.N,/M4*%
X106620000Y-124170000D02*
X105630000Y-123180000D01*
X112750000Y-124170000D02*
X106620000Y-124170000D01*
%TO.N,/M3*%
X110970000Y-128260000D02*
X111030000Y-128320000D01*
X105630000Y-128260000D02*
X110970000Y-128260000D01*
%TO.N,Net-(D3-K)*%
X122780000Y-126320000D02*
X122830000Y-126370000D01*
X117530000Y-126320000D02*
X119380000Y-126320000D01*
X129130000Y-136820000D02*
X132815000Y-136820000D01*
X119380000Y-126320000D02*
X122780000Y-126320000D01*
X119380000Y-126320000D02*
X119380000Y-127770000D01*
X132815000Y-136820000D02*
X132885000Y-136890000D01*
X119380000Y-127770000D02*
X119930000Y-128320000D01*
%TO.N,Net-(R1-Pad2)*%
X114230000Y-145270000D02*
X110520000Y-145270000D01*
X110520000Y-145270000D02*
X110500000Y-145250000D01*
%TO.N,Net-(R4-Pad2)*%
X113830000Y-133120000D02*
X115580000Y-131370000D01*
X112980000Y-133120000D02*
X113830000Y-133120000D01*
%TO.N,/M2*%
X110760000Y-133340000D02*
X110980000Y-133120000D01*
X105630000Y-133340000D02*
X110760000Y-133340000D01*
%TO.N,/M1*%
X105630000Y-138420000D02*
X108170000Y-138420000D01*
X110500000Y-140750000D02*
X110500000Y-143250000D01*
X108170000Y-138420000D02*
X110500000Y-140750000D01*
%TO.N,Net-(R7-Pad2)*%
X113530000Y-128320000D02*
X115530000Y-126320000D01*
X113030000Y-128320000D02*
X113530000Y-128320000D01*
%TO.N,/Voltage Sensing/In4*%
X156130000Y-126820000D02*
X156130000Y-123270000D01*
X154630000Y-128320000D02*
X156130000Y-126820000D01*
X141805000Y-131070000D02*
X141775000Y-131040000D01*
X149267500Y-128320000D02*
X154630000Y-128320000D01*
X146517500Y-131070000D02*
X141805000Y-131070000D01*
X146517500Y-131070000D02*
X149267500Y-128320000D01*
D37*
%TO.N,Net-(U6-O7)*%
X145280000Y-115570000D02*
X147455000Y-117745000D01*
X145280000Y-114020000D02*
X145280000Y-115570000D01*
X147455000Y-117745000D02*
X149042500Y-117745000D01*
X119180000Y-104000000D02*
X120850000Y-105670000D01*
X139580000Y-108320000D02*
X145280000Y-114020000D01*
X129830000Y-108320000D02*
X139580000Y-108320000D01*
X120850000Y-105670000D02*
X127180000Y-105670000D01*
X119180000Y-102730000D02*
X119180000Y-104000000D01*
X127180000Y-105670000D02*
X129830000Y-108320000D01*
%TO.N,/Relays/RL2*%
X169880000Y-119320000D02*
X183610000Y-133050000D01*
X158395000Y-115205000D02*
X157530000Y-115205000D01*
X155217500Y-116475000D02*
X155217500Y-115205000D01*
X183610000Y-133050000D02*
X184825000Y-133050000D01*
X165680000Y-119320000D02*
X169880000Y-119320000D01*
X158395000Y-115205000D02*
X160680000Y-112920000D01*
X157530000Y-115205000D02*
X155217500Y-115205000D01*
%TO.N,/Relays/RL1*%
X183750000Y-135590000D02*
X168880000Y-120720000D01*
X160680000Y-115320000D02*
X158255000Y-117745000D01*
X184825000Y-135590000D02*
X183750000Y-135590000D01*
X168880000Y-120720000D02*
X161230000Y-120720000D01*
X158255000Y-117745000D02*
X155217500Y-117745000D01*
X161230000Y-120720000D02*
X158255000Y-117745000D01*
%TO.N,/Relays/RL3*%
X183720000Y-130510000D02*
X184825000Y-130510000D01*
X158685000Y-112665000D02*
X156680000Y-112665000D01*
X155217500Y-113935000D02*
X155217500Y-112665000D01*
X160680000Y-110670000D02*
X158685000Y-112665000D01*
X156680000Y-112665000D02*
X155217500Y-112665000D01*
X171430000Y-118220000D02*
X183720000Y-130510000D01*
%TO.N,/Relays/RL4*%
X161330000Y-107070000D02*
X160680000Y-107720000D01*
X184825000Y-127970000D02*
X183330000Y-127970000D01*
X155217500Y-110125000D02*
X158975000Y-110125000D01*
X168130000Y-107370000D02*
X167830000Y-107070000D01*
X155217500Y-111395000D02*
X155217500Y-110125000D01*
X158975000Y-110125000D02*
X160680000Y-108420000D01*
X168130000Y-112770000D02*
X168130000Y-107370000D01*
X183330000Y-127970000D02*
X168130000Y-112770000D01*
X167830000Y-107070000D02*
X161330000Y-107070000D01*
X160680000Y-107720000D02*
X160680000Y-108420000D01*
%TO.N,Net-(D5-A)*%
X164130000Y-115170000D02*
X162830000Y-115170000D01*
X162830000Y-115170000D02*
X162680000Y-115320000D01*
%TO.N,Net-(D6-A)*%
X162680000Y-112920000D02*
X164330000Y-112920000D01*
%TO.N,Net-(D7-A)*%
X164380000Y-110670000D02*
X162680000Y-110670000D01*
%TO.N,Net-(D8-A)*%
X162680000Y-108420000D02*
X164280000Y-108420000D01*
X164280000Y-108420000D02*
X164330000Y-108370000D01*
D36*
%TO.N,Net-(J6-Pin_1)*%
X178250000Y-115500000D02*
X178250000Y-104500000D01*
X178250000Y-104500000D02*
X178750000Y-104000000D01*
D39*
%TO.N,Net-(J8-Pin_3)*%
X195830000Y-131840000D02*
X195830000Y-116920000D01*
X193130000Y-134540000D02*
X195830000Y-131840000D01*
X195830000Y-116920000D02*
X193130000Y-114220000D01*
%TO.N,Net-(J8-Pin_4)*%
X190430000Y-126760000D02*
X190430000Y-111840000D01*
X190430000Y-111840000D02*
X193130000Y-109140000D01*
X193130000Y-129460000D02*
X190430000Y-126760000D01*
%TD*%
%TA.AperFunction,Conductor*%
%TO.N,Earth*%
G36*
X142955203Y-112757016D02*
G01*
X142961681Y-112763048D01*
X144493181Y-114294548D01*
X144526666Y-114355871D01*
X144529500Y-114382229D01*
X144529500Y-115506294D01*
X144528191Y-115524263D01*
X144524710Y-115548025D01*
X144529264Y-115600064D01*
X144529500Y-115605470D01*
X144529500Y-115613709D01*
X144533306Y-115646274D01*
X144540000Y-115722791D01*
X144541461Y-115729867D01*
X144541403Y-115729878D01*
X144543034Y-115737237D01*
X144543092Y-115737224D01*
X144544757Y-115744250D01*
X144571025Y-115816424D01*
X144595185Y-115889331D01*
X144598236Y-115895874D01*
X144598182Y-115895898D01*
X144601470Y-115902688D01*
X144601521Y-115902663D01*
X144604761Y-115909113D01*
X144604762Y-115909114D01*
X144604763Y-115909117D01*
X144638418Y-115960288D01*
X144646965Y-115973283D01*
X144687287Y-116038655D01*
X144691766Y-116044319D01*
X144691719Y-116044356D01*
X144696482Y-116050202D01*
X144696528Y-116050164D01*
X144701173Y-116055700D01*
X144736824Y-116089334D01*
X144757018Y-116108386D01*
X145819244Y-117170612D01*
X146879267Y-118230634D01*
X146891048Y-118244266D01*
X146905390Y-118263530D01*
X146945420Y-118297119D01*
X146949392Y-118300759D01*
X146955223Y-118306590D01*
X146980939Y-118326923D01*
X147039786Y-118376302D01*
X147039788Y-118376303D01*
X147045823Y-118380272D01*
X147045789Y-118380322D01*
X147052144Y-118384370D01*
X147052177Y-118384318D01*
X147058319Y-118388107D01*
X147058323Y-118388110D01*
X147125639Y-118419500D01*
X147127914Y-118420561D01*
X147196558Y-118455036D01*
X147196561Y-118455037D01*
X147196567Y-118455040D01*
X147196572Y-118455041D01*
X147203355Y-118457510D01*
X147203334Y-118457567D01*
X147210451Y-118460040D01*
X147210470Y-118459984D01*
X147217330Y-118462257D01*
X147292532Y-118477784D01*
X147367279Y-118495500D01*
X147367288Y-118495500D01*
X147374452Y-118496338D01*
X147374445Y-118496397D01*
X147381946Y-118497163D01*
X147381952Y-118497104D01*
X147389140Y-118497733D01*
X147389143Y-118497732D01*
X147389144Y-118497733D01*
X147465898Y-118495500D01*
X147540781Y-118495500D01*
X147607820Y-118515185D01*
X147653575Y-118567989D01*
X147663519Y-118637147D01*
X147659166Y-118656390D01*
X147635570Y-118732111D01*
X147629500Y-118798911D01*
X147629500Y-118816852D01*
X147609815Y-118883891D01*
X147557011Y-118929646D01*
X147523151Y-118939589D01*
X147480541Y-118945716D01*
X147342498Y-118986250D01*
X147342492Y-118986253D01*
X147221462Y-119064035D01*
X147221451Y-119064043D01*
X147168659Y-119109787D01*
X147074433Y-119218528D01*
X147074430Y-119218532D01*
X147014664Y-119349398D01*
X146994978Y-119416439D01*
X146994976Y-119416444D01*
X146974500Y-119558865D01*
X146974500Y-121096622D01*
X146974501Y-121096647D01*
X146985777Y-121202807D01*
X146985779Y-121202821D01*
X146996721Y-121253753D01*
X147030057Y-121355204D01*
X147030059Y-121355209D01*
X147030061Y-121355212D01*
X147030062Y-121355214D01*
X147107225Y-121476640D01*
X147107231Y-121476648D01*
X147152710Y-121529677D01*
X147152716Y-121529685D01*
X147152720Y-121529688D01*
X147152715Y-121529683D01*
X147152721Y-121529688D01*
X147260970Y-121624457D01*
X147260972Y-121624459D01*
X147391537Y-121684892D01*
X147391542Y-121684894D01*
X147458471Y-121704918D01*
X147458490Y-121704922D01*
X147600788Y-121726122D01*
X147916278Y-121727732D01*
X147983216Y-121747758D01*
X148028701Y-121800795D01*
X148038291Y-121870003D01*
X148008942Y-121933410D01*
X147968051Y-121964111D01*
X147952427Y-121971396D01*
X147952420Y-121971400D01*
X147758926Y-122106886D01*
X147758920Y-122106891D01*
X147591891Y-122273920D01*
X147591886Y-122273926D01*
X147456400Y-122467420D01*
X147456399Y-122467422D01*
X147356570Y-122681507D01*
X147356566Y-122681516D01*
X147295432Y-122909673D01*
X147295430Y-122909683D01*
X147285779Y-123020000D01*
X148226031Y-123020000D01*
X148193481Y-123070649D01*
X148155000Y-123201705D01*
X148155000Y-123338295D01*
X148193481Y-123469351D01*
X148226031Y-123520000D01*
X147285779Y-123520000D01*
X147295430Y-123630316D01*
X147295432Y-123630326D01*
X147356566Y-123858483D01*
X147356570Y-123858492D01*
X147456399Y-124072577D01*
X147456400Y-124072579D01*
X147591886Y-124266073D01*
X147591891Y-124266079D01*
X147758917Y-124433105D01*
X147952421Y-124568600D01*
X148166507Y-124668429D01*
X148166516Y-124668433D01*
X148380000Y-124725634D01*
X148380000Y-123678018D01*
X148494801Y-123730446D01*
X148596025Y-123745000D01*
X148663975Y-123745000D01*
X148765199Y-123730446D01*
X148880000Y-123678018D01*
X148880000Y-124725633D01*
X149093483Y-124668433D01*
X149093492Y-124668429D01*
X149307577Y-124568600D01*
X149307579Y-124568599D01*
X149501073Y-124433113D01*
X149501079Y-124433108D01*
X149668108Y-124266079D01*
X149668113Y-124266073D01*
X149778119Y-124108967D01*
X149832695Y-124065342D01*
X149902194Y-124058148D01*
X149964549Y-124089670D01*
X149981269Y-124108967D01*
X150091505Y-124266402D01*
X150208461Y-124383357D01*
X150258599Y-124433495D01*
X150355384Y-124501265D01*
X150452165Y-124569032D01*
X150452167Y-124569033D01*
X150452170Y-124569035D01*
X150666337Y-124668903D01*
X150894592Y-124730063D01*
X151082918Y-124746539D01*
X151129999Y-124750659D01*
X151130000Y-124750659D01*
X151130001Y-124750659D01*
X151169234Y-124747226D01*
X151365408Y-124730063D01*
X151593663Y-124668903D01*
X151807829Y-124569035D01*
X152001401Y-124433495D01*
X152168495Y-124266401D01*
X152278426Y-124109401D01*
X152333001Y-124065778D01*
X152402500Y-124058584D01*
X152464855Y-124090106D01*
X152481571Y-124109398D01*
X152508457Y-124147795D01*
X152591506Y-124266403D01*
X152708461Y-124383357D01*
X152758599Y-124433495D01*
X152855384Y-124501265D01*
X152952165Y-124569032D01*
X152952167Y-124569033D01*
X152952170Y-124569035D01*
X153166337Y-124668903D01*
X153394592Y-124730063D01*
X153582918Y-124746539D01*
X153629999Y-124750659D01*
X153630000Y-124750659D01*
X153630001Y-124750659D01*
X153669234Y-124747226D01*
X153865408Y-124730063D01*
X154093663Y-124668903D01*
X154307829Y-124569035D01*
X154501401Y-124433495D01*
X154648602Y-124286293D01*
X154709924Y-124252810D01*
X154779615Y-124257794D01*
X154835549Y-124299665D01*
X154841821Y-124308879D01*
X154850338Y-124322687D01*
X154937288Y-124463656D01*
X155061344Y-124587712D01*
X155210666Y-124679814D01*
X155344505Y-124724164D01*
X155401949Y-124763936D01*
X155428772Y-124828451D01*
X155429500Y-124841869D01*
X155429500Y-126478481D01*
X155409815Y-126545520D01*
X155393181Y-126566162D01*
X154376162Y-127583181D01*
X154314839Y-127616666D01*
X154288481Y-127619500D01*
X149290537Y-127619500D01*
X149286793Y-127619387D01*
X149224897Y-127615643D01*
X149224890Y-127615643D01*
X149163902Y-127626819D01*
X149160201Y-127627382D01*
X149098625Y-127634860D01*
X149089142Y-127638456D01*
X149067538Y-127644478D01*
X149066035Y-127644754D01*
X149057565Y-127646306D01*
X149057563Y-127646307D01*
X149001027Y-127671752D01*
X148997569Y-127673184D01*
X148939569Y-127695182D01*
X148931224Y-127700942D01*
X148911683Y-127711964D01*
X148902444Y-127716122D01*
X148902439Y-127716125D01*
X148853621Y-127754370D01*
X148850606Y-127756589D01*
X148799572Y-127791816D01*
X148799565Y-127791822D01*
X148758442Y-127838240D01*
X148755875Y-127840966D01*
X146538660Y-130058181D01*
X146477337Y-130091666D01*
X146450980Y-130094500D01*
X146218331Y-130094500D01*
X146218312Y-130094501D01*
X146117247Y-130104825D01*
X145953484Y-130159092D01*
X145953481Y-130159093D01*
X145806648Y-130249661D01*
X145723129Y-130333181D01*
X145661806Y-130366666D01*
X145635448Y-130369500D01*
X143949499Y-130369500D01*
X143882460Y-130349815D01*
X143836705Y-130297011D01*
X143825499Y-130245500D01*
X143825499Y-130192129D01*
X143825498Y-130192123D01*
X143825497Y-130192116D01*
X143819091Y-130132517D01*
X143807436Y-130101269D01*
X143768797Y-129997671D01*
X143768793Y-129997664D01*
X143682547Y-129882455D01*
X143664511Y-129868953D01*
X143622640Y-129813019D01*
X143617657Y-129743327D01*
X143651143Y-129682004D01*
X143664515Y-129670418D01*
X143682191Y-129657186D01*
X143768350Y-129542093D01*
X143768354Y-129542086D01*
X143818596Y-129407379D01*
X143818598Y-129407372D01*
X143824999Y-129347844D01*
X143825000Y-129347827D01*
X143825000Y-128750000D01*
X139725000Y-128750000D01*
X139725000Y-129347844D01*
X139731401Y-129407372D01*
X139731403Y-129407379D01*
X139781645Y-129542086D01*
X139781649Y-129542093D01*
X139867808Y-129657185D01*
X139885486Y-129670419D01*
X139927357Y-129726352D01*
X139932342Y-129796044D01*
X139898858Y-129857367D01*
X139885490Y-129868951D01*
X139867455Y-129882452D01*
X139867452Y-129882455D01*
X139781206Y-129997664D01*
X139781202Y-129997671D01*
X139730908Y-130132517D01*
X139724501Y-130192116D01*
X139724501Y-130192123D01*
X139724500Y-130192135D01*
X139724500Y-131887870D01*
X139724501Y-131887876D01*
X139730908Y-131947483D01*
X139781202Y-132082328D01*
X139781206Y-132082335D01*
X139867452Y-132197544D01*
X139867455Y-132197547D01*
X139982664Y-132283793D01*
X139982671Y-132283797D01*
X140117517Y-132334091D01*
X140117516Y-132334091D01*
X140124444Y-132334835D01*
X140177127Y-132340500D01*
X143372872Y-132340499D01*
X143432483Y-132334091D01*
X143567331Y-132283796D01*
X143682546Y-132197546D01*
X143768796Y-132082331D01*
X143819091Y-131947483D01*
X143825500Y-131887873D01*
X143825500Y-131887870D01*
X143825502Y-131887838D01*
X143825504Y-131887830D01*
X143825855Y-131884572D01*
X143826625Y-131884654D01*
X143848760Y-131821953D01*
X143903946Y-131779101D01*
X143949323Y-131770500D01*
X145635448Y-131770500D01*
X145702487Y-131790185D01*
X145723129Y-131806819D01*
X145806650Y-131890340D01*
X145953484Y-131980908D01*
X146117247Y-132035174D01*
X146218323Y-132045500D01*
X146816676Y-132045499D01*
X146816684Y-132045498D01*
X146816687Y-132045498D01*
X146872030Y-132039844D01*
X146917753Y-132035174D01*
X147081516Y-131980908D01*
X147228350Y-131890340D01*
X147342319Y-131776371D01*
X147403642Y-131742886D01*
X147473334Y-131747870D01*
X147517681Y-131776371D01*
X147631650Y-131890340D01*
X147633098Y-131891233D01*
X147633882Y-131892104D01*
X147637317Y-131894821D01*
X147636852Y-131895407D01*
X147679821Y-131943180D01*
X147692000Y-131996771D01*
X147692000Y-133222457D01*
X147672315Y-133289496D01*
X147619511Y-133335251D01*
X147550353Y-133345195D01*
X147486797Y-133316170D01*
X147467195Y-133292433D01*
X147466355Y-133293044D01*
X147462534Y-133287785D01*
X147335870Y-133147111D01*
X147182734Y-133035851D01*
X147182729Y-133035848D01*
X147009807Y-132958857D01*
X147009802Y-132958855D01*
X146864001Y-132927865D01*
X146824646Y-132919500D01*
X146635354Y-132919500D01*
X146602897Y-132926398D01*
X146450197Y-132958855D01*
X146450192Y-132958857D01*
X146277270Y-133035848D01*
X146277265Y-133035851D01*
X146124129Y-133147111D01*
X145997466Y-133287785D01*
X145902821Y-133451715D01*
X145902818Y-133451722D01*
X145850874Y-133611590D01*
X145844326Y-133631744D01*
X145824540Y-133820000D01*
X145844326Y-134008256D01*
X145860573Y-134058259D01*
X145860931Y-134059359D01*
X145867000Y-134097678D01*
X145867000Y-136065500D01*
X145847315Y-136132539D01*
X145794511Y-136178294D01*
X145743000Y-136189500D01*
X143949499Y-136189500D01*
X143882460Y-136169815D01*
X143836705Y-136117011D01*
X143825499Y-136065500D01*
X143825499Y-136042129D01*
X143825498Y-136042123D01*
X143825497Y-136042116D01*
X143819091Y-135982517D01*
X143815376Y-135972557D01*
X143768797Y-135847671D01*
X143768793Y-135847664D01*
X143682547Y-135732455D01*
X143664511Y-135718953D01*
X143622640Y-135663019D01*
X143617657Y-135593327D01*
X143651143Y-135532004D01*
X143664515Y-135520418D01*
X143682191Y-135507186D01*
X143768350Y-135392093D01*
X143768354Y-135392086D01*
X143818596Y-135257379D01*
X143818598Y-135257372D01*
X143824999Y-135197844D01*
X143825000Y-135197827D01*
X143825000Y-134600000D01*
X139725000Y-134600000D01*
X139725000Y-135197844D01*
X139731401Y-135257372D01*
X139731403Y-135257379D01*
X139781645Y-135392086D01*
X139781649Y-135392093D01*
X139867808Y-135507185D01*
X139885486Y-135520419D01*
X139927357Y-135576352D01*
X139932342Y-135646044D01*
X139898858Y-135707367D01*
X139885490Y-135718951D01*
X139867455Y-135732452D01*
X139867452Y-135732455D01*
X139781206Y-135847664D01*
X139781202Y-135847671D01*
X139730908Y-135982517D01*
X139725175Y-136035849D01*
X139724501Y-136042123D01*
X139724500Y-136042135D01*
X139724500Y-137737870D01*
X139724501Y-137737876D01*
X139730908Y-137797483D01*
X139781202Y-137932328D01*
X139781206Y-137932335D01*
X139867452Y-138047544D01*
X139867455Y-138047547D01*
X139982664Y-138133793D01*
X139982671Y-138133797D01*
X140117517Y-138184091D01*
X140117516Y-138184091D01*
X140124444Y-138184835D01*
X140177127Y-138190500D01*
X143372872Y-138190499D01*
X143432483Y-138184091D01*
X143567331Y-138133796D01*
X143682546Y-138047546D01*
X143768796Y-137932331D01*
X143819091Y-137797483D01*
X143825500Y-137737873D01*
X143825500Y-137714500D01*
X143845185Y-137647461D01*
X143897989Y-137601706D01*
X143949500Y-137590500D01*
X145586595Y-137590500D01*
X145653634Y-137610185D01*
X145692132Y-137649402D01*
X145734660Y-137718350D01*
X145856650Y-137840340D01*
X146003484Y-137930908D01*
X146167247Y-137985174D01*
X146268323Y-137995500D01*
X146866676Y-137995499D01*
X146866684Y-137995498D01*
X146866687Y-137995498D01*
X146927361Y-137989300D01*
X146967753Y-137985174D01*
X147131516Y-137930908D01*
X147278350Y-137840340D01*
X147392321Y-137726368D01*
X147453640Y-137692886D01*
X147523332Y-137697870D01*
X147567680Y-137726370D01*
X147655682Y-137814372D01*
X147689166Y-137875693D01*
X147692000Y-137902052D01*
X147692000Y-140259061D01*
X147672315Y-140326100D01*
X147619511Y-140371855D01*
X147550353Y-140381799D01*
X147486797Y-140352774D01*
X147460613Y-140321061D01*
X147424817Y-140259061D01*
X147412533Y-140237784D01*
X147285871Y-140097112D01*
X147221027Y-140050000D01*
X147132734Y-139985851D01*
X147132729Y-139985848D01*
X146959807Y-139908857D01*
X146959802Y-139908855D01*
X146814001Y-139877865D01*
X146774646Y-139869500D01*
X146585354Y-139869500D01*
X146552897Y-139876398D01*
X146400197Y-139908855D01*
X146400192Y-139908857D01*
X146227270Y-139985848D01*
X146227265Y-139985851D01*
X146074129Y-140097111D01*
X145947466Y-140237785D01*
X145852821Y-140401715D01*
X145852818Y-140401722D01*
X145804640Y-140550000D01*
X145794326Y-140581744D01*
X145774540Y-140770000D01*
X145794326Y-140958256D01*
X145794327Y-140958259D01*
X145852821Y-141138286D01*
X145855463Y-141144219D01*
X145853353Y-141145158D01*
X145867000Y-141196068D01*
X145867000Y-141937948D01*
X145847315Y-142004987D01*
X145830681Y-142025629D01*
X145773129Y-142083181D01*
X145711806Y-142116666D01*
X145685448Y-142119500D01*
X143949499Y-142119500D01*
X143882460Y-142099815D01*
X143836705Y-142047011D01*
X143825499Y-141995500D01*
X143825499Y-141992129D01*
X143825498Y-141992123D01*
X143825497Y-141992116D01*
X143819091Y-141932517D01*
X143789229Y-141852454D01*
X143768797Y-141797671D01*
X143768793Y-141797664D01*
X143682547Y-141682455D01*
X143664511Y-141668953D01*
X143622640Y-141613019D01*
X143617657Y-141543327D01*
X143651143Y-141482004D01*
X143664515Y-141470418D01*
X143682191Y-141457186D01*
X143768350Y-141342093D01*
X143768354Y-141342086D01*
X143818596Y-141207379D01*
X143818598Y-141207372D01*
X143824999Y-141147844D01*
X143825000Y-141147827D01*
X143825000Y-140550000D01*
X139725000Y-140550000D01*
X139725000Y-141147844D01*
X139731401Y-141207372D01*
X139731403Y-141207379D01*
X139781645Y-141342086D01*
X139781649Y-141342093D01*
X139867808Y-141457185D01*
X139885486Y-141470419D01*
X139927357Y-141526352D01*
X139932342Y-141596044D01*
X139898858Y-141657367D01*
X139885490Y-141668951D01*
X139867455Y-141682452D01*
X139867452Y-141682455D01*
X139781206Y-141797664D01*
X139781202Y-141797671D01*
X139730908Y-141932517D01*
X139725453Y-141983261D01*
X139724501Y-141992123D01*
X139724500Y-141992135D01*
X139724500Y-143687870D01*
X139724501Y-143687876D01*
X139730908Y-143747483D01*
X139781202Y-143882328D01*
X139781206Y-143882335D01*
X139867452Y-143997544D01*
X139867455Y-143997547D01*
X139982664Y-144083793D01*
X139982671Y-144083797D01*
X140117517Y-144134091D01*
X140117516Y-144134091D01*
X140124444Y-144134835D01*
X140177127Y-144140500D01*
X143372872Y-144140499D01*
X143432483Y-144134091D01*
X143567331Y-144083796D01*
X143682546Y-143997546D01*
X143768796Y-143882331D01*
X143819091Y-143747483D01*
X143825500Y-143687873D01*
X143825500Y-143644500D01*
X143845185Y-143577461D01*
X143897989Y-143531706D01*
X143949500Y-143520500D01*
X145685448Y-143520500D01*
X145752487Y-143540185D01*
X145773129Y-143556819D01*
X145856650Y-143640340D01*
X146003484Y-143730908D01*
X146167247Y-143785174D01*
X146268323Y-143795500D01*
X146866676Y-143795499D01*
X146866684Y-143795498D01*
X146866687Y-143795498D01*
X146922030Y-143789844D01*
X146967753Y-143785174D01*
X147131516Y-143730908D01*
X147278350Y-143640340D01*
X147392321Y-143526368D01*
X147453640Y-143492886D01*
X147523332Y-143497870D01*
X147567680Y-143526370D01*
X147655682Y-143614372D01*
X147689166Y-143675693D01*
X147692000Y-143702052D01*
X147692000Y-147987948D01*
X147672315Y-148054987D01*
X147655681Y-148075629D01*
X147567681Y-148163629D01*
X147506358Y-148197114D01*
X147436666Y-148192130D01*
X147392319Y-148163629D01*
X147278351Y-148049661D01*
X147278350Y-148049660D01*
X147178299Y-147987948D01*
X147131518Y-147959093D01*
X147131513Y-147959091D01*
X147130069Y-147958612D01*
X146967753Y-147904826D01*
X146967751Y-147904825D01*
X146866678Y-147894500D01*
X146268330Y-147894500D01*
X146268312Y-147894501D01*
X146167247Y-147904825D01*
X146003484Y-147959092D01*
X146003481Y-147959093D01*
X145856648Y-148049661D01*
X145803129Y-148103181D01*
X145741806Y-148136666D01*
X145715448Y-148139500D01*
X143949499Y-148139500D01*
X143882460Y-148119815D01*
X143836705Y-148067011D01*
X143825499Y-148015500D01*
X143825499Y-147992129D01*
X143825498Y-147992123D01*
X143825497Y-147992116D01*
X143819091Y-147932517D01*
X143808758Y-147904814D01*
X143768797Y-147797671D01*
X143768793Y-147797664D01*
X143682547Y-147682455D01*
X143664511Y-147668953D01*
X143622640Y-147613019D01*
X143617657Y-147543327D01*
X143651143Y-147482004D01*
X143664515Y-147470418D01*
X143682191Y-147457186D01*
X143768350Y-147342093D01*
X143768354Y-147342086D01*
X143818596Y-147207379D01*
X143818598Y-147207372D01*
X143824999Y-147147844D01*
X143825000Y-147147827D01*
X143825000Y-146550000D01*
X139725000Y-146550000D01*
X139725000Y-147147844D01*
X139731401Y-147207372D01*
X139731403Y-147207379D01*
X139781645Y-147342086D01*
X139781649Y-147342093D01*
X139867808Y-147457185D01*
X139885486Y-147470419D01*
X139927357Y-147526352D01*
X139932342Y-147596044D01*
X139898858Y-147657367D01*
X139885490Y-147668951D01*
X139867455Y-147682452D01*
X139867452Y-147682455D01*
X139781206Y-147797664D01*
X139781202Y-147797671D01*
X139730908Y-147932517D01*
X139727954Y-147959999D01*
X139724501Y-147992123D01*
X139724500Y-147992135D01*
X139724500Y-149687870D01*
X139724501Y-149687876D01*
X139730908Y-149747483D01*
X139781202Y-149882328D01*
X139781206Y-149882335D01*
X139867452Y-149997544D01*
X139867455Y-149997547D01*
X139982664Y-150083793D01*
X139982671Y-150083797D01*
X140117517Y-150134091D01*
X140117516Y-150134091D01*
X140124444Y-150134835D01*
X140177127Y-150140500D01*
X143372872Y-150140499D01*
X143432483Y-150134091D01*
X143567331Y-150083796D01*
X143682546Y-149997546D01*
X143768796Y-149882331D01*
X143819091Y-149747483D01*
X143825500Y-149687873D01*
X143825500Y-149664500D01*
X143845185Y-149597461D01*
X143897989Y-149551706D01*
X143949500Y-149540500D01*
X145655448Y-149540500D01*
X145722487Y-149560185D01*
X145743129Y-149576819D01*
X145856650Y-149690340D01*
X146003484Y-149780908D01*
X146167247Y-149835174D01*
X146268323Y-149845500D01*
X146500979Y-149845499D01*
X146568019Y-149865183D01*
X146588661Y-149881818D01*
X147264662Y-150557819D01*
X147298147Y-150619142D01*
X147293163Y-150688834D01*
X147251291Y-150744767D01*
X147185827Y-150769184D01*
X147176981Y-150769500D01*
X138379507Y-150769500D01*
X138312468Y-150749815D01*
X138266713Y-150697011D01*
X138255509Y-150644882D01*
X138261953Y-149352214D01*
X138278413Y-146050000D01*
X139725000Y-146050000D01*
X141525000Y-146050000D01*
X141525000Y-145000000D01*
X142025000Y-145000000D01*
X142025000Y-146050000D01*
X143825000Y-146050000D01*
X143825000Y-145452172D01*
X143824999Y-145452155D01*
X143818598Y-145392627D01*
X143818596Y-145392620D01*
X143768354Y-145257913D01*
X143768350Y-145257906D01*
X143682190Y-145142812D01*
X143682187Y-145142809D01*
X143567093Y-145056649D01*
X143567086Y-145056645D01*
X143432379Y-145006403D01*
X143432372Y-145006401D01*
X143372844Y-145000000D01*
X142025000Y-145000000D01*
X141525000Y-145000000D01*
X140177155Y-145000000D01*
X140117627Y-145006401D01*
X140117620Y-145006403D01*
X139982913Y-145056645D01*
X139982906Y-145056649D01*
X139867812Y-145142809D01*
X139867809Y-145142812D01*
X139781649Y-145257906D01*
X139781645Y-145257913D01*
X139731403Y-145392620D01*
X139731401Y-145392627D01*
X139725000Y-145452155D01*
X139725000Y-146050000D01*
X138278413Y-146050000D01*
X138308321Y-140050000D01*
X139725000Y-140050000D01*
X141525000Y-140050000D01*
X141525000Y-139000000D01*
X142025000Y-139000000D01*
X142025000Y-140050000D01*
X143825000Y-140050000D01*
X143825000Y-139452172D01*
X143824999Y-139452155D01*
X143818598Y-139392627D01*
X143818596Y-139392620D01*
X143768354Y-139257913D01*
X143768350Y-139257906D01*
X143682190Y-139142812D01*
X143682187Y-139142809D01*
X143567093Y-139056649D01*
X143567086Y-139056645D01*
X143432379Y-139006403D01*
X143432372Y-139006401D01*
X143372844Y-139000000D01*
X142025000Y-139000000D01*
X141525000Y-139000000D01*
X140177155Y-139000000D01*
X140117627Y-139006401D01*
X140117620Y-139006403D01*
X139982913Y-139056645D01*
X139982906Y-139056649D01*
X139867812Y-139142809D01*
X139867809Y-139142812D01*
X139781649Y-139257906D01*
X139781645Y-139257913D01*
X139731403Y-139392620D01*
X139731401Y-139392627D01*
X139725000Y-139452155D01*
X139725000Y-140050000D01*
X138308321Y-140050000D01*
X138337980Y-134100000D01*
X139725000Y-134100000D01*
X141525000Y-134100000D01*
X141525000Y-133050000D01*
X142025000Y-133050000D01*
X142025000Y-134100000D01*
X143825000Y-134100000D01*
X143825000Y-133502172D01*
X143824999Y-133502155D01*
X143818598Y-133442627D01*
X143818596Y-133442620D01*
X143768354Y-133307913D01*
X143768350Y-133307906D01*
X143682190Y-133192812D01*
X143682187Y-133192809D01*
X143567093Y-133106649D01*
X143567086Y-133106645D01*
X143432379Y-133056403D01*
X143432372Y-133056401D01*
X143372844Y-133050000D01*
X142025000Y-133050000D01*
X141525000Y-133050000D01*
X140177155Y-133050000D01*
X140117627Y-133056401D01*
X140117620Y-133056403D01*
X139982913Y-133106645D01*
X139982906Y-133106649D01*
X139867812Y-133192809D01*
X139867809Y-133192812D01*
X139781649Y-133307906D01*
X139781645Y-133307913D01*
X139731403Y-133442620D01*
X139731401Y-133442627D01*
X139725000Y-133502155D01*
X139725000Y-134100000D01*
X138337980Y-134100000D01*
X138359781Y-129726352D01*
X138367140Y-128250000D01*
X139725000Y-128250000D01*
X141525000Y-128250000D01*
X141525000Y-127200000D01*
X142025000Y-127200000D01*
X142025000Y-128250000D01*
X143825000Y-128250000D01*
X143825000Y-127652172D01*
X143824999Y-127652155D01*
X143818598Y-127592627D01*
X143818596Y-127592620D01*
X143768354Y-127457913D01*
X143768350Y-127457906D01*
X143682190Y-127342812D01*
X143682187Y-127342809D01*
X143567093Y-127256649D01*
X143567086Y-127256645D01*
X143432379Y-127206403D01*
X143432372Y-127206401D01*
X143372844Y-127200000D01*
X142025000Y-127200000D01*
X141525000Y-127200000D01*
X140177155Y-127200000D01*
X140117627Y-127206401D01*
X140117620Y-127206403D01*
X139982913Y-127256645D01*
X139982906Y-127256649D01*
X139867812Y-127342809D01*
X139867809Y-127342812D01*
X139781649Y-127457906D01*
X139781645Y-127457913D01*
X139731403Y-127592620D01*
X139731401Y-127592627D01*
X139725000Y-127652155D01*
X139725000Y-128250000D01*
X138367140Y-128250000D01*
X138379385Y-125793382D01*
X138399403Y-125726441D01*
X138452434Y-125680950D01*
X138503383Y-125670000D01*
X140480000Y-125670000D01*
X142750000Y-123500000D01*
X142750000Y-112850729D01*
X142769685Y-112783690D01*
X142822489Y-112737935D01*
X142891647Y-112727991D01*
X142955203Y-112757016D01*
G37*
%TD.AperFunction*%
%TA.AperFunction,Conductor*%
G36*
X168584809Y-121490185D02*
G01*
X168605451Y-121506819D01*
X175872009Y-128773377D01*
X180963681Y-133865048D01*
X180997166Y-133926371D01*
X181000000Y-133952729D01*
X181000000Y-143207981D01*
X180980315Y-143275020D01*
X180963681Y-143295662D01*
X174626162Y-149633181D01*
X174564839Y-149666666D01*
X174538481Y-149669500D01*
X158845579Y-149669500D01*
X158778540Y-149649815D01*
X158732785Y-149597011D01*
X158722841Y-149527853D01*
X158751866Y-149464297D01*
X158754325Y-149461543D01*
X158788164Y-149424785D01*
X158924173Y-149216607D01*
X159024063Y-148988881D01*
X159085108Y-148747821D01*
X159085109Y-148747812D01*
X159105643Y-148500005D01*
X159105643Y-148499994D01*
X159085109Y-148252187D01*
X159085107Y-148252175D01*
X159024063Y-148011118D01*
X158924173Y-147783393D01*
X158788166Y-147575217D01*
X158702357Y-147482004D01*
X158619744Y-147392262D01*
X158423509Y-147239526D01*
X158423507Y-147239525D01*
X158423506Y-147239524D01*
X158204811Y-147121172D01*
X158204802Y-147121169D01*
X157969616Y-147040429D01*
X157724335Y-146999500D01*
X157475665Y-146999500D01*
X157230383Y-147040429D01*
X156995197Y-147121169D01*
X156995188Y-147121172D01*
X156776493Y-147239524D01*
X156580257Y-147392261D01*
X156411833Y-147575217D01*
X156275826Y-147783393D01*
X156175936Y-148011118D01*
X156114892Y-148252175D01*
X156114890Y-148252187D01*
X156094357Y-148499994D01*
X156094357Y-148500005D01*
X156114890Y-148747812D01*
X156114892Y-148747824D01*
X156175936Y-148988881D01*
X156275826Y-149216606D01*
X156411833Y-149424782D01*
X156411836Y-149424785D01*
X156445650Y-149461517D01*
X156476573Y-149524171D01*
X156468713Y-149593597D01*
X156424566Y-149647753D01*
X156358149Y-149669444D01*
X156354421Y-149669500D01*
X150705357Y-149669500D01*
X150638318Y-149649815D01*
X150592563Y-149597011D01*
X150582619Y-149527853D01*
X150611644Y-149464297D01*
X150613207Y-149462528D01*
X150712533Y-149352216D01*
X150807179Y-149188284D01*
X150865674Y-149008256D01*
X150885460Y-148820000D01*
X150865674Y-148631744D01*
X150807179Y-148451716D01*
X150712533Y-148287784D01*
X150585871Y-148147112D01*
X150575394Y-148139500D01*
X150432734Y-148035851D01*
X150432729Y-148035848D01*
X150259807Y-147958857D01*
X150259802Y-147958855D01*
X150114001Y-147927865D01*
X150074646Y-147919500D01*
X149885354Y-147919500D01*
X149852897Y-147926398D01*
X149700197Y-147958855D01*
X149700192Y-147958857D01*
X149527270Y-148035848D01*
X149527265Y-148035851D01*
X149375910Y-148145818D01*
X149310104Y-148169298D01*
X149303025Y-148169500D01*
X149274552Y-148169500D01*
X149207513Y-148149815D01*
X149186871Y-148133181D01*
X149129319Y-148075629D01*
X149095834Y-148014306D01*
X149093000Y-147987948D01*
X149093000Y-143702052D01*
X149112685Y-143635013D01*
X149129319Y-143614371D01*
X149166229Y-143577461D01*
X149225340Y-143518350D01*
X149315908Y-143371516D01*
X149370174Y-143207753D01*
X149380500Y-143106677D01*
X149380499Y-142533324D01*
X149370174Y-142432247D01*
X149315908Y-142268484D01*
X149225340Y-142121650D01*
X149129319Y-142025629D01*
X149095834Y-141964306D01*
X149093000Y-141937948D01*
X149093000Y-137902052D01*
X149112685Y-137835013D01*
X149129319Y-137814371D01*
X149146208Y-137797482D01*
X149225340Y-137718350D01*
X149315908Y-137571516D01*
X149370174Y-137407753D01*
X149380500Y-137306677D01*
X149380499Y-136733324D01*
X149370174Y-136632247D01*
X149315908Y-136468484D01*
X149225340Y-136321650D01*
X149129319Y-136225629D01*
X149095834Y-136164306D01*
X149093000Y-136137948D01*
X149093000Y-131902052D01*
X149112685Y-131835013D01*
X149129319Y-131814371D01*
X149136871Y-131806819D01*
X149175340Y-131768350D01*
X149265908Y-131621516D01*
X149320174Y-131457753D01*
X149330500Y-131356677D01*
X149330499Y-130783324D01*
X149320174Y-130682247D01*
X149265908Y-130518484D01*
X149254510Y-130500005D01*
X156094859Y-130500005D01*
X156115385Y-130747729D01*
X156115387Y-130747738D01*
X156176412Y-130988717D01*
X156276266Y-131216364D01*
X156376564Y-131369882D01*
X157116923Y-130629523D01*
X157140507Y-130709844D01*
X157218239Y-130830798D01*
X157326900Y-130924952D01*
X157457685Y-130984680D01*
X157467466Y-130986086D01*
X156729942Y-131723609D01*
X156776768Y-131760055D01*
X156776770Y-131760056D01*
X156995385Y-131878364D01*
X156995396Y-131878369D01*
X157230506Y-131959083D01*
X157475707Y-132000000D01*
X157724293Y-132000000D01*
X157969493Y-131959083D01*
X158204603Y-131878369D01*
X158204614Y-131878364D01*
X158423228Y-131760057D01*
X158423231Y-131760055D01*
X158470056Y-131723609D01*
X157732533Y-130986086D01*
X157742315Y-130984680D01*
X157873100Y-130924952D01*
X157981761Y-130830798D01*
X158059493Y-130709844D01*
X158083076Y-130629524D01*
X158823434Y-131369882D01*
X158923731Y-131216369D01*
X159023587Y-130988717D01*
X159084612Y-130747738D01*
X159084614Y-130747729D01*
X159105141Y-130500005D01*
X159105141Y-130499994D01*
X159084614Y-130252270D01*
X159084612Y-130252261D01*
X159023587Y-130011282D01*
X158923731Y-129783630D01*
X158823434Y-129630116D01*
X158083076Y-130370475D01*
X158059493Y-130290156D01*
X157981761Y-130169202D01*
X157873100Y-130075048D01*
X157742315Y-130015320D01*
X157732534Y-130013913D01*
X158470057Y-129276390D01*
X158470056Y-129276389D01*
X158423229Y-129239943D01*
X158204614Y-129121635D01*
X158204603Y-129121630D01*
X157969493Y-129040916D01*
X157724293Y-129000000D01*
X157475707Y-129000000D01*
X157230506Y-129040916D01*
X156995396Y-129121630D01*
X156995390Y-129121632D01*
X156776761Y-129239949D01*
X156729942Y-129276388D01*
X156729942Y-129276390D01*
X157467466Y-130013913D01*
X157457685Y-130015320D01*
X157326900Y-130075048D01*
X157218239Y-130169202D01*
X157140507Y-130290156D01*
X157116923Y-130370475D01*
X156376564Y-129630116D01*
X156276267Y-129783632D01*
X156176412Y-130011282D01*
X156115387Y-130252261D01*
X156115385Y-130252270D01*
X156094859Y-130499994D01*
X156094859Y-130500005D01*
X149254510Y-130500005D01*
X149175340Y-130371650D01*
X149053350Y-130249660D01*
X148906516Y-130159092D01*
X148742753Y-130104826D01*
X148742751Y-130104825D01*
X148736327Y-130102697D01*
X148736800Y-130101269D01*
X148682331Y-130071757D01*
X148648647Y-130010543D01*
X148653405Y-129940836D01*
X148682046Y-129896110D01*
X149028342Y-129549815D01*
X149521338Y-129056819D01*
X149582661Y-129023334D01*
X149609019Y-129020500D01*
X154606952Y-129020500D01*
X154610697Y-129020613D01*
X154618042Y-129021057D01*
X154672606Y-129024358D01*
X154710314Y-129017447D01*
X154733621Y-129013177D01*
X154737325Y-129012613D01*
X154755170Y-129010446D01*
X154798872Y-129005140D01*
X154808335Y-129001550D01*
X154829961Y-128995522D01*
X154830893Y-128995351D01*
X154839932Y-128993695D01*
X154896512Y-128968229D01*
X154899942Y-128966809D01*
X154957930Y-128944818D01*
X154966266Y-128939062D01*
X154985821Y-128928034D01*
X154995057Y-128923878D01*
X155043896Y-128885613D01*
X155046876Y-128883421D01*
X155097929Y-128848183D01*
X155139065Y-128801748D01*
X155141599Y-128799056D01*
X156609056Y-127331599D01*
X156611748Y-127329065D01*
X156658183Y-127287929D01*
X156693427Y-127236866D01*
X156695617Y-127233890D01*
X156733877Y-127185057D01*
X156738029Y-127175828D01*
X156749062Y-127156268D01*
X156749419Y-127155750D01*
X156754818Y-127147930D01*
X156776812Y-127089933D01*
X156778231Y-127086505D01*
X156803694Y-127029932D01*
X156805520Y-127019965D01*
X156811548Y-126998340D01*
X156815140Y-126988872D01*
X156822615Y-126927309D01*
X156823179Y-126923605D01*
X156829416Y-126889567D01*
X156834357Y-126862606D01*
X156833934Y-126855620D01*
X156830613Y-126800707D01*
X156830500Y-126796963D01*
X156830500Y-124841869D01*
X156850185Y-124774830D01*
X156902989Y-124729075D01*
X156915486Y-124724166D01*
X157049334Y-124679814D01*
X157198656Y-124587712D01*
X157322712Y-124463656D01*
X157414814Y-124314334D01*
X157469999Y-124147797D01*
X157480500Y-124045009D01*
X157480499Y-122495763D01*
X157500184Y-122428725D01*
X157552987Y-122382970D01*
X157622146Y-122373026D01*
X157685702Y-122402051D01*
X157692796Y-122408703D01*
X157750686Y-122467420D01*
X160383339Y-125137682D01*
X160389771Y-125143958D01*
X160390275Y-125144450D01*
X160397414Y-125151282D01*
X160515275Y-125233808D01*
X160577630Y-125265330D01*
X160577634Y-125265331D01*
X160577640Y-125265334D01*
X160661340Y-125293561D01*
X160718574Y-125333636D01*
X160745056Y-125398293D01*
X160745244Y-125421861D01*
X160744532Y-125430002D01*
X160764364Y-125656686D01*
X160764366Y-125656697D01*
X160823258Y-125876488D01*
X160823261Y-125876497D01*
X160919431Y-126082732D01*
X160919432Y-126082734D01*
X161049954Y-126269141D01*
X161210858Y-126430045D01*
X161210861Y-126430047D01*
X161397266Y-126560568D01*
X161455865Y-126587893D01*
X161508305Y-126634065D01*
X161527457Y-126701258D01*
X161507242Y-126768139D01*
X161455867Y-126812657D01*
X161397515Y-126839867D01*
X161211179Y-126970342D01*
X161050342Y-127131179D01*
X160919865Y-127317517D01*
X160823734Y-127523673D01*
X160823730Y-127523682D01*
X160771127Y-127719999D01*
X160771128Y-127720000D01*
X161816314Y-127720000D01*
X161790507Y-127760156D01*
X161750000Y-127898111D01*
X161750000Y-128041889D01*
X161790507Y-128179844D01*
X161816314Y-128220000D01*
X160771128Y-128220000D01*
X160823730Y-128416317D01*
X160823734Y-128416326D01*
X160919865Y-128622482D01*
X161050342Y-128808820D01*
X161211179Y-128969657D01*
X161397518Y-129100134D01*
X161397520Y-129100135D01*
X161455865Y-129127342D01*
X161508305Y-129173514D01*
X161527457Y-129240707D01*
X161507242Y-129307589D01*
X161455867Y-129352105D01*
X161397268Y-129379431D01*
X161397264Y-129379433D01*
X161210858Y-129509954D01*
X161049954Y-129670858D01*
X160919432Y-129857265D01*
X160919431Y-129857267D01*
X160823261Y-130063502D01*
X160823258Y-130063511D01*
X160764366Y-130283302D01*
X160764364Y-130283313D01*
X160744532Y-130509998D01*
X160744532Y-130510001D01*
X160764364Y-130736686D01*
X160764366Y-130736697D01*
X160823258Y-130956488D01*
X160823261Y-130956497D01*
X160919431Y-131162732D01*
X160919432Y-131162734D01*
X161049954Y-131349141D01*
X161210858Y-131510045D01*
X161210861Y-131510047D01*
X161397266Y-131640568D01*
X161455275Y-131667618D01*
X161507714Y-131713791D01*
X161526866Y-131780984D01*
X161506650Y-131847865D01*
X161455275Y-131892381D01*
X161438272Y-131900310D01*
X161397267Y-131919431D01*
X161397265Y-131919432D01*
X161210858Y-132049954D01*
X161049954Y-132210858D01*
X160919432Y-132397265D01*
X160919431Y-132397267D01*
X160823261Y-132603502D01*
X160823258Y-132603511D01*
X160764366Y-132823302D01*
X160764364Y-132823313D01*
X160744532Y-133049998D01*
X160744532Y-133050000D01*
X160764364Y-133276686D01*
X160764366Y-133276697D01*
X160823258Y-133496488D01*
X160823261Y-133496497D01*
X160919431Y-133702732D01*
X160919432Y-133702734D01*
X161049954Y-133889141D01*
X161210858Y-134050045D01*
X161210861Y-134050047D01*
X161397266Y-134180568D01*
X161455275Y-134207618D01*
X161507714Y-134253791D01*
X161526866Y-134320984D01*
X161506650Y-134387865D01*
X161455275Y-134432382D01*
X161397267Y-134459431D01*
X161397265Y-134459432D01*
X161210858Y-134589954D01*
X161049954Y-134750858D01*
X160989902Y-134836623D01*
X160935325Y-134880248D01*
X160888327Y-134889500D01*
X155741519Y-134889500D01*
X155674480Y-134869815D01*
X155653838Y-134853181D01*
X154606503Y-133805846D01*
X154573018Y-133744523D01*
X154570865Y-133731143D01*
X154565674Y-133681744D01*
X154565530Y-133681302D01*
X154507181Y-133501722D01*
X154507180Y-133501721D01*
X154507179Y-133501716D01*
X154412533Y-133337784D01*
X154285871Y-133197112D01*
X154279953Y-133192812D01*
X154132734Y-133085851D01*
X154132729Y-133085848D01*
X153959807Y-133008857D01*
X153959802Y-133008855D01*
X153814001Y-132977865D01*
X153774646Y-132969500D01*
X153585354Y-132969500D01*
X153552897Y-132976398D01*
X153400197Y-133008855D01*
X153400192Y-133008857D01*
X153227270Y-133085848D01*
X153227265Y-133085851D01*
X153074129Y-133197111D01*
X152947466Y-133337785D01*
X152852821Y-133501715D01*
X152852818Y-133501722D01*
X152794327Y-133681740D01*
X152794326Y-133681744D01*
X152774540Y-133870000D01*
X152794326Y-134058256D01*
X152794327Y-134058259D01*
X152852818Y-134238277D01*
X152852821Y-134238284D01*
X152947467Y-134402216D01*
X152961267Y-134417542D01*
X153074129Y-134542888D01*
X153227265Y-134654148D01*
X153227270Y-134654151D01*
X153400191Y-134731142D01*
X153400193Y-134731142D01*
X153400197Y-134731144D01*
X153555130Y-134764075D01*
X153616607Y-134797266D01*
X153617026Y-134797683D01*
X154888399Y-136069056D01*
X154890935Y-136071750D01*
X154932071Y-136118183D01*
X154960706Y-136137948D01*
X154983110Y-136153413D01*
X154986127Y-136155633D01*
X155034938Y-136193874D01*
X155034943Y-136193877D01*
X155044174Y-136198031D01*
X155063727Y-136209059D01*
X155072070Y-136214818D01*
X155117838Y-136232175D01*
X155130057Y-136236809D01*
X155133512Y-136238239D01*
X155143498Y-136242734D01*
X155190063Y-136263692D01*
X155190064Y-136263692D01*
X155190068Y-136263694D01*
X155200030Y-136265519D01*
X155221651Y-136271546D01*
X155231125Y-136275139D01*
X155231128Y-136275140D01*
X155247871Y-136277173D01*
X155292689Y-136282615D01*
X155296386Y-136283177D01*
X155357394Y-136294357D01*
X155357395Y-136294356D01*
X155357396Y-136294357D01*
X155419293Y-136290613D01*
X155423037Y-136290500D01*
X160888327Y-136290500D01*
X160955366Y-136310185D01*
X160989902Y-136343377D01*
X161049954Y-136429141D01*
X161210858Y-136590045D01*
X161210861Y-136590047D01*
X161397266Y-136720568D01*
X161455275Y-136747618D01*
X161507714Y-136793791D01*
X161526866Y-136860984D01*
X161506650Y-136927865D01*
X161455275Y-136972382D01*
X161397267Y-136999431D01*
X161397265Y-136999432D01*
X161210858Y-137129954D01*
X161049954Y-137290858D01*
X160919432Y-137477265D01*
X160919431Y-137477267D01*
X160823261Y-137683502D01*
X160823258Y-137683511D01*
X160764366Y-137903302D01*
X160764364Y-137903313D01*
X160744532Y-138129998D01*
X160744532Y-138130001D01*
X160764364Y-138356686D01*
X160764366Y-138356697D01*
X160823258Y-138576488D01*
X160823261Y-138576497D01*
X160919431Y-138782732D01*
X160919432Y-138782734D01*
X161049954Y-138969141D01*
X161210858Y-139130045D01*
X161210861Y-139130047D01*
X161397266Y-139260568D01*
X161455275Y-139287618D01*
X161507714Y-139333791D01*
X161526866Y-139400984D01*
X161506650Y-139467865D01*
X161455275Y-139512382D01*
X161397267Y-139539431D01*
X161397265Y-139539432D01*
X161210858Y-139669954D01*
X161049954Y-139830858D01*
X160919432Y-140017265D01*
X160919431Y-140017267D01*
X160823261Y-140223502D01*
X160823258Y-140223511D01*
X160764366Y-140443302D01*
X160764364Y-140443313D01*
X160744532Y-140669998D01*
X160744532Y-140670001D01*
X160764364Y-140896686D01*
X160764366Y-140896697D01*
X160823258Y-141116488D01*
X160823261Y-141116497D01*
X160919431Y-141322732D01*
X160919432Y-141322734D01*
X161049954Y-141509141D01*
X161210858Y-141670045D01*
X161210861Y-141670047D01*
X161397266Y-141800568D01*
X161455275Y-141827618D01*
X161507714Y-141873791D01*
X161526866Y-141940984D01*
X161506650Y-142007865D01*
X161455275Y-142052382D01*
X161397267Y-142079431D01*
X161397265Y-142079432D01*
X161210858Y-142209954D01*
X161049954Y-142370858D01*
X160919432Y-142557265D01*
X160919431Y-142557267D01*
X160823261Y-142763502D01*
X160823258Y-142763511D01*
X160764366Y-142983302D01*
X160764364Y-142983313D01*
X160744532Y-143209998D01*
X160744532Y-143210001D01*
X160764364Y-143436686D01*
X160764366Y-143436697D01*
X160823258Y-143656488D01*
X160823261Y-143656497D01*
X160919431Y-143862732D01*
X160919432Y-143862734D01*
X161049954Y-144049141D01*
X161210858Y-144210045D01*
X161210861Y-144210047D01*
X161397266Y-144340568D01*
X161603504Y-144436739D01*
X161823308Y-144495635D01*
X161993216Y-144510500D01*
X162506784Y-144510500D01*
X162676692Y-144495635D01*
X162896496Y-144436739D01*
X163102734Y-144340568D01*
X163289139Y-144210047D01*
X163450047Y-144049139D01*
X163580568Y-143862734D01*
X163676739Y-143656496D01*
X163735635Y-143436692D01*
X163755468Y-143210000D01*
X163755291Y-143207981D01*
X163738534Y-143016447D01*
X163735635Y-142983308D01*
X163676739Y-142763504D01*
X163580568Y-142557266D01*
X163450047Y-142370861D01*
X163450045Y-142370858D01*
X163289141Y-142209954D01*
X163102734Y-142079432D01*
X163102728Y-142079429D01*
X163044725Y-142052382D01*
X162992285Y-142006210D01*
X162973133Y-141939017D01*
X162993348Y-141872135D01*
X163044725Y-141827618D01*
X163102734Y-141800568D01*
X163289139Y-141670047D01*
X163450047Y-141509139D01*
X163580568Y-141322734D01*
X163676739Y-141116496D01*
X163735635Y-140896692D01*
X163755468Y-140670000D01*
X163735635Y-140443308D01*
X163676739Y-140223504D01*
X163580568Y-140017266D01*
X163450047Y-139830861D01*
X163450045Y-139830858D01*
X163289141Y-139669954D01*
X163102734Y-139539432D01*
X163102728Y-139539429D01*
X163044725Y-139512382D01*
X162992285Y-139466210D01*
X162973133Y-139399017D01*
X162993348Y-139332135D01*
X163044725Y-139287618D01*
X163102734Y-139260568D01*
X163289139Y-139130047D01*
X163450047Y-138969139D01*
X163580568Y-138782734D01*
X163676739Y-138576496D01*
X163735635Y-138356692D01*
X163755468Y-138130000D01*
X163735635Y-137903308D01*
X163676739Y-137683504D01*
X163632094Y-137587763D01*
X168825787Y-137587763D01*
X168855413Y-137857013D01*
X168855415Y-137857024D01*
X168923926Y-138119082D01*
X168923928Y-138119088D01*
X169029870Y-138368390D01*
X169101998Y-138486575D01*
X169170979Y-138599605D01*
X169170986Y-138599615D01*
X169344253Y-138807819D01*
X169344259Y-138807824D01*
X169545998Y-138988582D01*
X169771910Y-139138044D01*
X170017176Y-139253020D01*
X170017183Y-139253022D01*
X170017185Y-139253023D01*
X170276557Y-139331057D01*
X170276564Y-139331058D01*
X170276569Y-139331060D01*
X170544561Y-139370500D01*
X170544566Y-139370500D01*
X170747636Y-139370500D01*
X170799133Y-139366730D01*
X170950156Y-139355677D01*
X171062758Y-139330593D01*
X171214546Y-139296782D01*
X171214548Y-139296781D01*
X171214553Y-139296780D01*
X171467558Y-139200014D01*
X171703777Y-139067441D01*
X171918177Y-138901888D01*
X172106186Y-138706881D01*
X172263799Y-138486579D01*
X172337787Y-138342669D01*
X172387649Y-138245690D01*
X172387651Y-138245684D01*
X172387656Y-138245675D01*
X172475118Y-137989305D01*
X172524319Y-137722933D01*
X172534212Y-137452235D01*
X172504586Y-137182982D01*
X172436072Y-136920912D01*
X172330130Y-136671610D01*
X172189018Y-136440390D01*
X172179655Y-136429139D01*
X172015746Y-136232180D01*
X172015740Y-136232175D01*
X171814002Y-136051418D01*
X171588092Y-135901957D01*
X171588090Y-135901956D01*
X171342824Y-135786980D01*
X171342819Y-135786978D01*
X171342814Y-135786976D01*
X171083442Y-135708942D01*
X171083428Y-135708939D01*
X170967791Y-135691921D01*
X170815439Y-135669500D01*
X170612369Y-135669500D01*
X170612364Y-135669500D01*
X170409844Y-135684323D01*
X170409831Y-135684325D01*
X170145453Y-135743217D01*
X170145446Y-135743220D01*
X169892439Y-135839987D01*
X169656226Y-135972557D01*
X169441822Y-136138112D01*
X169253822Y-136333109D01*
X169253816Y-136333116D01*
X169096202Y-136553419D01*
X169096199Y-136553424D01*
X168972350Y-136794309D01*
X168972343Y-136794327D01*
X168884884Y-137050685D01*
X168884882Y-137050695D01*
X168840522Y-137290861D01*
X168835681Y-137317068D01*
X168835680Y-137317075D01*
X168825787Y-137587763D01*
X163632094Y-137587763D01*
X163580568Y-137477266D01*
X163468397Y-137317068D01*
X163450045Y-137290858D01*
X163289141Y-137129954D01*
X163102734Y-136999432D01*
X163102728Y-136999429D01*
X163044725Y-136972382D01*
X162992285Y-136926210D01*
X162973133Y-136859017D01*
X162993348Y-136792135D01*
X163044725Y-136747618D01*
X163102734Y-136720568D01*
X163289139Y-136590047D01*
X163450047Y-136429139D01*
X163580568Y-136242734D01*
X163676739Y-136036496D01*
X163735635Y-135816692D01*
X163755468Y-135590000D01*
X163755424Y-135589501D01*
X163738153Y-135392093D01*
X163735635Y-135363308D01*
X163676739Y-135143504D01*
X163580568Y-134937266D01*
X163450047Y-134750861D01*
X163450045Y-134750858D01*
X163289141Y-134589954D01*
X163102734Y-134459432D01*
X163102728Y-134459429D01*
X163044725Y-134432382D01*
X162992285Y-134386210D01*
X162973133Y-134319017D01*
X162993348Y-134252135D01*
X163044725Y-134207618D01*
X163102734Y-134180568D01*
X163289139Y-134050047D01*
X163450047Y-133889139D01*
X163580568Y-133702734D01*
X163676739Y-133496496D01*
X163735635Y-133276692D01*
X163755468Y-133050000D01*
X163755424Y-133049501D01*
X163735635Y-132823313D01*
X163735635Y-132823308D01*
X163676739Y-132603504D01*
X163580568Y-132397266D01*
X163450047Y-132210861D01*
X163450045Y-132210858D01*
X163289141Y-132049954D01*
X163102734Y-131919432D01*
X163102728Y-131919429D01*
X163065463Y-131902052D01*
X163044724Y-131892381D01*
X162992285Y-131846210D01*
X162973133Y-131779017D01*
X162993348Y-131712135D01*
X163044725Y-131667618D01*
X163102734Y-131640568D01*
X163289139Y-131510047D01*
X163450047Y-131349139D01*
X163580568Y-131162734D01*
X163676739Y-130956496D01*
X163735635Y-130736692D01*
X163755468Y-130510000D01*
X163735635Y-130283308D01*
X163676739Y-130063504D01*
X163580568Y-129857266D01*
X163450047Y-129670861D01*
X163450045Y-129670858D01*
X163289141Y-129509954D01*
X163102734Y-129379432D01*
X163102732Y-129379431D01*
X163044725Y-129352382D01*
X163044132Y-129352105D01*
X162991694Y-129305934D01*
X162972542Y-129238740D01*
X162992758Y-129171859D01*
X163044134Y-129127341D01*
X163102484Y-129100132D01*
X163288820Y-128969657D01*
X163449657Y-128808820D01*
X163459334Y-128795000D01*
X164780001Y-128795000D01*
X164780001Y-129007486D01*
X164790494Y-129110197D01*
X164845641Y-129276619D01*
X164845643Y-129276624D01*
X164937684Y-129425845D01*
X165061654Y-129549815D01*
X165210875Y-129641856D01*
X165210880Y-129641858D01*
X165377302Y-129697005D01*
X165377309Y-129697006D01*
X165480019Y-129707499D01*
X165929999Y-129707499D01*
X165930000Y-129707498D01*
X165930000Y-128795000D01*
X166430000Y-128795000D01*
X166430000Y-129707499D01*
X166879972Y-129707499D01*
X166879986Y-129707498D01*
X166982697Y-129697005D01*
X167149119Y-129641858D01*
X167149124Y-129641856D01*
X167298345Y-129549815D01*
X167422315Y-129425845D01*
X167514356Y-129276624D01*
X167514358Y-129276619D01*
X167569505Y-129110197D01*
X167569506Y-129110190D01*
X167579999Y-129007486D01*
X167580000Y-129007473D01*
X167580000Y-128795000D01*
X166430000Y-128795000D01*
X165930000Y-128795000D01*
X164780001Y-128795000D01*
X163459334Y-128795000D01*
X163580134Y-128622482D01*
X163676265Y-128416326D01*
X163676269Y-128416317D01*
X163708776Y-128295000D01*
X164780000Y-128295000D01*
X165930000Y-128295000D01*
X165930000Y-127382500D01*
X166430000Y-127382500D01*
X166430000Y-128295000D01*
X167579999Y-128295000D01*
X167579999Y-128082528D01*
X167579998Y-128082513D01*
X167569505Y-127979802D01*
X167514358Y-127813380D01*
X167514356Y-127813375D01*
X167422315Y-127664154D01*
X167298345Y-127540184D01*
X167149124Y-127448143D01*
X167149119Y-127448141D01*
X166982697Y-127392994D01*
X166982690Y-127392993D01*
X166879986Y-127382500D01*
X166430000Y-127382500D01*
X165930000Y-127382500D01*
X165480028Y-127382500D01*
X165480012Y-127382501D01*
X165377302Y-127392994D01*
X165210880Y-127448141D01*
X165210875Y-127448143D01*
X165061654Y-127540184D01*
X164937684Y-127664154D01*
X164845643Y-127813375D01*
X164845641Y-127813380D01*
X164790494Y-127979802D01*
X164790493Y-127979809D01*
X164780000Y-128082513D01*
X164780000Y-128295000D01*
X163708776Y-128295000D01*
X163728872Y-128220000D01*
X162683686Y-128220000D01*
X162709493Y-128179844D01*
X162750000Y-128041889D01*
X162750000Y-127898111D01*
X162709493Y-127760156D01*
X162683686Y-127720000D01*
X163728872Y-127720000D01*
X163728872Y-127719999D01*
X163676269Y-127523682D01*
X163676265Y-127523673D01*
X163580134Y-127317517D01*
X163449657Y-127131179D01*
X163288820Y-126970342D01*
X163102482Y-126839865D01*
X163044133Y-126812657D01*
X162991694Y-126766484D01*
X162972542Y-126699291D01*
X162992758Y-126632410D01*
X163044129Y-126587895D01*
X163102734Y-126560568D01*
X163289139Y-126430047D01*
X163450047Y-126269139D01*
X163482090Y-126223377D01*
X163536667Y-126179752D01*
X163583665Y-126170500D01*
X164787492Y-126170500D01*
X164854531Y-126190185D01*
X164893029Y-126229401D01*
X164937288Y-126301156D01*
X165061344Y-126425212D01*
X165210666Y-126517314D01*
X165377203Y-126572499D01*
X165479991Y-126583000D01*
X166880008Y-126582999D01*
X166982797Y-126572499D01*
X167149334Y-126517314D01*
X167298656Y-126425212D01*
X167422712Y-126301156D01*
X167514814Y-126151834D01*
X167569999Y-125985297D01*
X167580500Y-125882509D01*
X167580499Y-124957492D01*
X167569999Y-124854703D01*
X167514814Y-124688166D01*
X167422712Y-124538844D01*
X167298656Y-124414788D01*
X167149334Y-124322686D01*
X166982797Y-124267501D01*
X166982795Y-124267500D01*
X166880010Y-124257000D01*
X165479998Y-124257000D01*
X165479981Y-124257001D01*
X165377203Y-124267500D01*
X165377200Y-124267501D01*
X165210668Y-124322685D01*
X165210663Y-124322687D01*
X165061342Y-124414789D01*
X164937289Y-124538842D01*
X164937288Y-124538844D01*
X164897912Y-124602684D01*
X164893031Y-124610597D01*
X164841083Y-124657321D01*
X164787492Y-124669500D01*
X163569661Y-124669500D01*
X163502622Y-124649815D01*
X163468089Y-124616627D01*
X163461071Y-124606605D01*
X163438741Y-124540400D01*
X163455749Y-124472632D01*
X163468928Y-124454278D01*
X163485567Y-124435077D01*
X163545338Y-124304200D01*
X163560465Y-124252684D01*
X163565022Y-124237166D01*
X163565023Y-124237160D01*
X163565024Y-124237157D01*
X163585500Y-124094741D01*
X163585500Y-124007823D01*
X163584051Y-123980784D01*
X163579769Y-123940964D01*
X163571114Y-123887552D01*
X163520832Y-123752743D01*
X163487347Y-123691420D01*
X163401123Y-123576239D01*
X163401117Y-123576233D01*
X163401113Y-123576228D01*
X161507066Y-121682181D01*
X161473581Y-121620858D01*
X161478565Y-121551166D01*
X161520437Y-121495233D01*
X161585901Y-121470816D01*
X161594747Y-121470500D01*
X168517770Y-121470500D01*
X168584809Y-121490185D01*
G37*
%TD.AperFunction*%
%TA.AperFunction,Conductor*%
G36*
X186642539Y-100320185D02*
G01*
X186688294Y-100372989D01*
X186699500Y-100424500D01*
X186699500Y-107990784D01*
X186696437Y-108012745D01*
X186695598Y-108021792D01*
X186699235Y-108061035D01*
X186699500Y-108066758D01*
X186699500Y-108077843D01*
X186699501Y-108077855D01*
X186701536Y-108088749D01*
X186702327Y-108094415D01*
X186705964Y-108133658D01*
X186708443Y-108142372D01*
X186711667Y-108151989D01*
X186714938Y-108160432D01*
X186714939Y-108160433D01*
X186735690Y-108193948D01*
X186738467Y-108198933D01*
X186756042Y-108234228D01*
X186761526Y-108241490D01*
X186767957Y-108249235D01*
X186774080Y-108255951D01*
X186805535Y-108279706D01*
X186809943Y-108283366D01*
X186816331Y-108289189D01*
X186839067Y-108309916D01*
X186839068Y-108309916D01*
X186839069Y-108309917D01*
X186846797Y-108314702D01*
X186855580Y-108319594D01*
X186863734Y-108323654D01*
X186863736Y-108323656D01*
X186901647Y-108334442D01*
X186907060Y-108336256D01*
X186920802Y-108341579D01*
X186976200Y-108384155D01*
X186999786Y-108449923D01*
X187000000Y-108457203D01*
X187000000Y-109208520D01*
X186980315Y-109275559D01*
X186927511Y-109321314D01*
X186920483Y-109323902D01*
X186919050Y-109324616D01*
X186913452Y-109326492D01*
X186909953Y-109327781D01*
X186907653Y-109328435D01*
X186898008Y-109331668D01*
X186889563Y-109334939D01*
X186856060Y-109355683D01*
X186851058Y-109358470D01*
X186815770Y-109376042D01*
X186808547Y-109381496D01*
X186800751Y-109387970D01*
X186794044Y-109394085D01*
X186770300Y-109425526D01*
X186766642Y-109429932D01*
X186740085Y-109459064D01*
X186735322Y-109466756D01*
X186730385Y-109475620D01*
X186726343Y-109483738D01*
X186715559Y-109521639D01*
X186713739Y-109527070D01*
X186699499Y-109563827D01*
X186697829Y-109572762D01*
X186696437Y-109582745D01*
X186695598Y-109591792D01*
X186699235Y-109631035D01*
X186699500Y-109636758D01*
X186699500Y-124760784D01*
X186694764Y-124794727D01*
X186692566Y-124802450D01*
X186655282Y-124861541D01*
X186591970Y-124891094D01*
X186522731Y-124881726D01*
X186469548Y-124836413D01*
X186460920Y-124820911D01*
X186454017Y-124806108D01*
X186440568Y-124777266D01*
X186321071Y-124606605D01*
X186310045Y-124590858D01*
X186149141Y-124429954D01*
X185962734Y-124299432D01*
X185962732Y-124299431D01*
X185756497Y-124203261D01*
X185756488Y-124203258D01*
X185536697Y-124144366D01*
X185536687Y-124144364D01*
X185366784Y-124129500D01*
X184853216Y-124129500D01*
X184683312Y-124144364D01*
X184683302Y-124144366D01*
X184463511Y-124203258D01*
X184463502Y-124203261D01*
X184257267Y-124299431D01*
X184257265Y-124299432D01*
X184070858Y-124429954D01*
X183909946Y-124590866D01*
X183906714Y-124594718D01*
X183848539Y-124633415D01*
X183778678Y-124634516D01*
X183724052Y-124602684D01*
X182566818Y-123445450D01*
X182533333Y-123384127D01*
X182530499Y-123357769D01*
X182530499Y-122607498D01*
X182530498Y-122607481D01*
X182519999Y-122504703D01*
X182519998Y-122504700D01*
X182507645Y-122467422D01*
X182464814Y-122338166D01*
X182372712Y-122188844D01*
X182248656Y-122064788D01*
X182108893Y-121978582D01*
X182099336Y-121972687D01*
X182099331Y-121972685D01*
X182073456Y-121964111D01*
X181932797Y-121917501D01*
X181932795Y-121917500D01*
X181830016Y-121907000D01*
X181830009Y-121907000D01*
X180629730Y-121907000D01*
X180562691Y-121887315D01*
X180542049Y-121870681D01*
X178866368Y-120195000D01*
X179730001Y-120195000D01*
X179730001Y-120407486D01*
X179740494Y-120510197D01*
X179795641Y-120676619D01*
X179795643Y-120676624D01*
X179887684Y-120825845D01*
X180011654Y-120949815D01*
X180160875Y-121041856D01*
X180160880Y-121041858D01*
X180327302Y-121097005D01*
X180327309Y-121097006D01*
X180430019Y-121107499D01*
X180879999Y-121107499D01*
X180880000Y-121107498D01*
X180880000Y-120195000D01*
X181380000Y-120195000D01*
X181380000Y-121107499D01*
X181829972Y-121107499D01*
X181829986Y-121107498D01*
X181932697Y-121097005D01*
X182099119Y-121041858D01*
X182099124Y-121041856D01*
X182248345Y-120949815D01*
X182372315Y-120825845D01*
X182464356Y-120676624D01*
X182464358Y-120676619D01*
X182519505Y-120510197D01*
X182519506Y-120510190D01*
X182529999Y-120407486D01*
X182530000Y-120407473D01*
X182530000Y-120195000D01*
X181380000Y-120195000D01*
X180880000Y-120195000D01*
X179730001Y-120195000D01*
X178866368Y-120195000D01*
X178366368Y-119695000D01*
X179730000Y-119695000D01*
X180880000Y-119695000D01*
X180880000Y-118782500D01*
X181380000Y-118782500D01*
X181380000Y-119695000D01*
X182529999Y-119695000D01*
X182529999Y-119482528D01*
X182529998Y-119482513D01*
X182519505Y-119379802D01*
X182464358Y-119213380D01*
X182464356Y-119213375D01*
X182372315Y-119064154D01*
X182248345Y-118940184D01*
X182099124Y-118848143D01*
X182099119Y-118848141D01*
X181932697Y-118792994D01*
X181932690Y-118792993D01*
X181829986Y-118782500D01*
X181380000Y-118782500D01*
X180880000Y-118782500D01*
X180430028Y-118782500D01*
X180430012Y-118782501D01*
X180327302Y-118792994D01*
X180160880Y-118848141D01*
X180160875Y-118848143D01*
X180011654Y-118940184D01*
X179887684Y-119064154D01*
X179795643Y-119213375D01*
X179795641Y-119213380D01*
X179740494Y-119379802D01*
X179740493Y-119379809D01*
X179730000Y-119482513D01*
X179730000Y-119695000D01*
X178366368Y-119695000D01*
X175540108Y-116868740D01*
X175506623Y-116807417D01*
X175511607Y-116737725D01*
X175553479Y-116681792D01*
X175618943Y-116657375D01*
X175666789Y-116663352D01*
X175747203Y-116689999D01*
X175849991Y-116700500D01*
X176650008Y-116700499D01*
X176650016Y-116700498D01*
X176650019Y-116700498D01*
X176742038Y-116691098D01*
X176752797Y-116689999D01*
X176919334Y-116634814D01*
X177068656Y-116542712D01*
X177162319Y-116449049D01*
X177223642Y-116415564D01*
X177293334Y-116420548D01*
X177337681Y-116449049D01*
X177431344Y-116542712D01*
X177580666Y-116634814D01*
X177747203Y-116689999D01*
X177849991Y-116700500D01*
X178650008Y-116700499D01*
X178650016Y-116700498D01*
X178650019Y-116700498D01*
X178742038Y-116691098D01*
X178752797Y-116689999D01*
X178919334Y-116634814D01*
X179068656Y-116542712D01*
X179192712Y-116418656D01*
X179284814Y-116269334D01*
X179339999Y-116102797D01*
X179350500Y-116000009D01*
X179350499Y-114999992D01*
X179339999Y-114897203D01*
X179284814Y-114730666D01*
X179192712Y-114581344D01*
X179068656Y-114457288D01*
X179068655Y-114457287D01*
X179009402Y-114420739D01*
X178962678Y-114368791D01*
X178950500Y-114315201D01*
X178950500Y-114020001D01*
X181054500Y-114020001D01*
X181054501Y-114020018D01*
X181065000Y-114122796D01*
X181065001Y-114122799D01*
X181120185Y-114289331D01*
X181120187Y-114289336D01*
X181136141Y-114315201D01*
X181212288Y-114438656D01*
X181336344Y-114562712D01*
X181485666Y-114654814D01*
X181652203Y-114709999D01*
X181754991Y-114720500D01*
X183355008Y-114720499D01*
X183457797Y-114709999D01*
X183624334Y-114654814D01*
X183773656Y-114562712D01*
X183897712Y-114438656D01*
X183989814Y-114289334D01*
X184044999Y-114122797D01*
X184055500Y-114020009D01*
X184055499Y-112719992D01*
X184044999Y-112617203D01*
X183989814Y-112450666D01*
X183897712Y-112301344D01*
X183773656Y-112177288D01*
X183661484Y-112108100D01*
X183618441Y-112081551D01*
X183571717Y-112029603D01*
X183560494Y-111960640D01*
X183588338Y-111896558D01*
X183595857Y-111888331D01*
X183743105Y-111741082D01*
X183878600Y-111547578D01*
X183978429Y-111333492D01*
X183978432Y-111333486D01*
X184035636Y-111120000D01*
X182988686Y-111120000D01*
X183014493Y-111079844D01*
X183055000Y-110941889D01*
X183055000Y-110798111D01*
X183014493Y-110660156D01*
X182988686Y-110620000D01*
X184035636Y-110620000D01*
X184035635Y-110619999D01*
X183978432Y-110406513D01*
X183978429Y-110406507D01*
X183878600Y-110192422D01*
X183878599Y-110192420D01*
X183743113Y-109998926D01*
X183743108Y-109998920D01*
X183576079Y-109831891D01*
X183576073Y-109831886D01*
X183382579Y-109696400D01*
X183382577Y-109696399D01*
X183168492Y-109596570D01*
X183168483Y-109596566D01*
X182940326Y-109535432D01*
X182940316Y-109535430D01*
X182805000Y-109523590D01*
X182805000Y-110434498D01*
X182697315Y-110385320D01*
X182590763Y-110370000D01*
X182519237Y-110370000D01*
X182412685Y-110385320D01*
X182305000Y-110434498D01*
X182305000Y-109523591D01*
X182304999Y-109523590D01*
X182169683Y-109535430D01*
X182169673Y-109535432D01*
X181941516Y-109596566D01*
X181941507Y-109596570D01*
X181727422Y-109696399D01*
X181727420Y-109696400D01*
X181533926Y-109831886D01*
X181533920Y-109831891D01*
X181366894Y-109998917D01*
X181231399Y-110192421D01*
X181131570Y-110406507D01*
X181131567Y-110406513D01*
X181074364Y-110619999D01*
X181074364Y-110620000D01*
X182121314Y-110620000D01*
X182095507Y-110660156D01*
X182055000Y-110798111D01*
X182055000Y-110941889D01*
X182095507Y-111079844D01*
X182121314Y-111120000D01*
X181074364Y-111120000D01*
X181131567Y-111333486D01*
X181131570Y-111333492D01*
X181231399Y-111547577D01*
X181231400Y-111547579D01*
X181366886Y-111741073D01*
X181514143Y-111888331D01*
X181547627Y-111949654D01*
X181542643Y-112019346D01*
X181500771Y-112075279D01*
X181491558Y-112081550D01*
X181336347Y-112177285D01*
X181336343Y-112177288D01*
X181212289Y-112301342D01*
X181120187Y-112450663D01*
X181120185Y-112450668D01*
X181105346Y-112495451D01*
X181065001Y-112617203D01*
X181065001Y-112617204D01*
X181065000Y-112617204D01*
X181054500Y-112719983D01*
X181054500Y-114020001D01*
X178950500Y-114020001D01*
X178950500Y-105849499D01*
X178970185Y-105782460D01*
X179022989Y-105736705D01*
X179074500Y-105725499D01*
X179400002Y-105725499D01*
X179400008Y-105725499D01*
X179502797Y-105714999D01*
X179669334Y-105659814D01*
X179818656Y-105567712D01*
X179942712Y-105443656D01*
X180034814Y-105294334D01*
X180089999Y-105127797D01*
X180100500Y-105025009D01*
X180100499Y-103474992D01*
X180097434Y-103444992D01*
X180089999Y-103372203D01*
X180089998Y-103372200D01*
X180050697Y-103253599D01*
X180034814Y-103205666D01*
X179942712Y-103056344D01*
X179818656Y-102932288D01*
X179725888Y-102875069D01*
X179669336Y-102840187D01*
X179669331Y-102840185D01*
X179667862Y-102839698D01*
X179502797Y-102785001D01*
X179502795Y-102785000D01*
X179400010Y-102774500D01*
X178099998Y-102774500D01*
X178099981Y-102774501D01*
X177997203Y-102785000D01*
X177997200Y-102785001D01*
X177830668Y-102840185D01*
X177830663Y-102840187D01*
X177681342Y-102932289D01*
X177557289Y-103056342D01*
X177461821Y-103211121D01*
X177409873Y-103257845D01*
X177340910Y-103269068D01*
X177276828Y-103241224D01*
X177268601Y-103233705D01*
X177121402Y-103086506D01*
X177121395Y-103086501D01*
X176927834Y-102950967D01*
X176927830Y-102950965D01*
X176887777Y-102932288D01*
X176713663Y-102851097D01*
X176713659Y-102851096D01*
X176713655Y-102851094D01*
X176485413Y-102789938D01*
X176485403Y-102789936D01*
X176250001Y-102769341D01*
X176249999Y-102769341D01*
X176014596Y-102789936D01*
X176014586Y-102789938D01*
X175786344Y-102851094D01*
X175786335Y-102851098D01*
X175572171Y-102950964D01*
X175572169Y-102950965D01*
X175378597Y-103086505D01*
X175211505Y-103253597D01*
X175101575Y-103410595D01*
X175046998Y-103454220D01*
X174977500Y-103461414D01*
X174915145Y-103429891D01*
X174898425Y-103410595D01*
X174788494Y-103253597D01*
X174621402Y-103086506D01*
X174621395Y-103086501D01*
X174427834Y-102950967D01*
X174427830Y-102950965D01*
X174387777Y-102932288D01*
X174213663Y-102851097D01*
X174213659Y-102851096D01*
X174213655Y-102851094D01*
X173985413Y-102789938D01*
X173985403Y-102789936D01*
X173750001Y-102769341D01*
X173749999Y-102769341D01*
X173514596Y-102789936D01*
X173514586Y-102789938D01*
X173286344Y-102851094D01*
X173286335Y-102851098D01*
X173072171Y-102950964D01*
X173072169Y-102950965D01*
X172878597Y-103086505D01*
X172711505Y-103253597D01*
X172601575Y-103410595D01*
X172546998Y-103454220D01*
X172477500Y-103461414D01*
X172415145Y-103429891D01*
X172398425Y-103410595D01*
X172288494Y-103253597D01*
X172121402Y-103086506D01*
X172121395Y-103086501D01*
X171927834Y-102950967D01*
X171927830Y-102950965D01*
X171887777Y-102932288D01*
X171713663Y-102851097D01*
X171713659Y-102851096D01*
X171713655Y-102851094D01*
X171485413Y-102789938D01*
X171485403Y-102789936D01*
X171250001Y-102769341D01*
X171249999Y-102769341D01*
X171014596Y-102789936D01*
X171014586Y-102789938D01*
X170786344Y-102851094D01*
X170786335Y-102851098D01*
X170572171Y-102950964D01*
X170572169Y-102950965D01*
X170378597Y-103086505D01*
X170211505Y-103253597D01*
X170075965Y-103447169D01*
X170075964Y-103447171D01*
X169976098Y-103661335D01*
X169976094Y-103661344D01*
X169914938Y-103889586D01*
X169914936Y-103889596D01*
X169899500Y-104066034D01*
X169899500Y-104433966D01*
X169914936Y-104610403D01*
X169914938Y-104610413D01*
X169976094Y-104838655D01*
X169976096Y-104838659D01*
X169976097Y-104838663D01*
X170000000Y-104889922D01*
X170075964Y-105052828D01*
X170075965Y-105052830D01*
X170211505Y-105246402D01*
X170315144Y-105350040D01*
X170378599Y-105413495D01*
X170421675Y-105443657D01*
X170572165Y-105549032D01*
X170572167Y-105549033D01*
X170572170Y-105549035D01*
X170786337Y-105648903D01*
X171014592Y-105710063D01*
X171202918Y-105726539D01*
X171249999Y-105730659D01*
X171250000Y-105730659D01*
X171250001Y-105730659D01*
X171289234Y-105727226D01*
X171485408Y-105710063D01*
X171713663Y-105648903D01*
X171927829Y-105549035D01*
X172121401Y-105413495D01*
X172288495Y-105246401D01*
X172398426Y-105089401D01*
X172453001Y-105045778D01*
X172522500Y-105038584D01*
X172584855Y-105070106D01*
X172601571Y-105089398D01*
X172672144Y-105190187D01*
X172711506Y-105246403D01*
X172815144Y-105350040D01*
X172878599Y-105413495D01*
X172921675Y-105443657D01*
X173072165Y-105549032D01*
X173072167Y-105549033D01*
X173072170Y-105549035D01*
X173286337Y-105648903D01*
X173514592Y-105710063D01*
X173702918Y-105726539D01*
X173749999Y-105730659D01*
X173750000Y-105730659D01*
X173750001Y-105730659D01*
X173789234Y-105727226D01*
X173985408Y-105710063D01*
X174213663Y-105648903D01*
X174427829Y-105549035D01*
X174621401Y-105413495D01*
X174788495Y-105246401D01*
X174898426Y-105089401D01*
X174953001Y-105045778D01*
X175022500Y-105038584D01*
X175084855Y-105070106D01*
X175101571Y-105089398D01*
X175172144Y-105190187D01*
X175211506Y-105246403D01*
X175315144Y-105350040D01*
X175378599Y-105413495D01*
X175421675Y-105443657D01*
X175572165Y-105549032D01*
X175572167Y-105549033D01*
X175572170Y-105549035D01*
X175786337Y-105648903D01*
X176014592Y-105710063D01*
X176202918Y-105726539D01*
X176249999Y-105730659D01*
X176250000Y-105730659D01*
X176250001Y-105730659D01*
X176289234Y-105727226D01*
X176485408Y-105710063D01*
X176713663Y-105648903D01*
X176927829Y-105549035D01*
X177121401Y-105413495D01*
X177268602Y-105266293D01*
X177329924Y-105232810D01*
X177399615Y-105237794D01*
X177455549Y-105279665D01*
X177461820Y-105288879D01*
X177531038Y-105401098D01*
X177549500Y-105466195D01*
X177549500Y-114315201D01*
X177529815Y-114382240D01*
X177490598Y-114420739D01*
X177431344Y-114457287D01*
X177431343Y-114457288D01*
X177337681Y-114550951D01*
X177276358Y-114584436D01*
X177206666Y-114579452D01*
X177162319Y-114550951D01*
X177068657Y-114457289D01*
X177068656Y-114457288D01*
X176974888Y-114399452D01*
X176919336Y-114365187D01*
X176919331Y-114365185D01*
X176891223Y-114355871D01*
X176752797Y-114310001D01*
X176752795Y-114310000D01*
X176650010Y-114299500D01*
X175849998Y-114299500D01*
X175849980Y-114299501D01*
X175747203Y-114310000D01*
X175747200Y-114310001D01*
X175580668Y-114365185D01*
X175580663Y-114365187D01*
X175431342Y-114457289D01*
X175307289Y-114581342D01*
X175307288Y-114581344D01*
X175221457Y-114720500D01*
X175211395Y-114736813D01*
X175209600Y-114735706D01*
X175170313Y-114780337D01*
X175104092Y-114799500D01*
X173773037Y-114799500D01*
X173769293Y-114799387D01*
X173707397Y-114795643D01*
X173707390Y-114795643D01*
X173646402Y-114806819D01*
X173642701Y-114807382D01*
X173581125Y-114814860D01*
X173571642Y-114818456D01*
X173550038Y-114824478D01*
X173548535Y-114824754D01*
X173540065Y-114826306D01*
X173540063Y-114826307D01*
X173483527Y-114851752D01*
X173480069Y-114853184D01*
X173422069Y-114875182D01*
X173413724Y-114880942D01*
X173394183Y-114891964D01*
X173384944Y-114896122D01*
X173378527Y-114900002D01*
X173378094Y-114899286D01*
X173334369Y-114919709D01*
X173150197Y-114958855D01*
X173150192Y-114958857D01*
X172977270Y-115035848D01*
X172977265Y-115035851D01*
X172824129Y-115147111D01*
X172697466Y-115287785D01*
X172602821Y-115451715D01*
X172602818Y-115451722D01*
X172553742Y-115602764D01*
X172544326Y-115631744D01*
X172534757Y-115722791D01*
X172524782Y-115817693D01*
X172498197Y-115882308D01*
X172440900Y-115922292D01*
X172371081Y-115924952D01*
X172313780Y-115892412D01*
X168916819Y-112495451D01*
X168883334Y-112434128D01*
X168880500Y-112407770D01*
X168880500Y-107433705D01*
X168881809Y-107415735D01*
X168882565Y-107410574D01*
X168885289Y-107391977D01*
X168880735Y-107339931D01*
X168880500Y-107334528D01*
X168880500Y-107326297D01*
X168880500Y-107326291D01*
X168876693Y-107293724D01*
X168875946Y-107285185D01*
X168869999Y-107217201D01*
X168868539Y-107210129D01*
X168868597Y-107210116D01*
X168866965Y-107202757D01*
X168866906Y-107202772D01*
X168865241Y-107195751D01*
X168865241Y-107195745D01*
X168838974Y-107123576D01*
X168814814Y-107050666D01*
X168814813Y-107050665D01*
X168814813Y-107050663D01*
X168811764Y-107044124D01*
X168811817Y-107044099D01*
X168808531Y-107037311D01*
X168808479Y-107037338D01*
X168805236Y-107030882D01*
X168763034Y-106966716D01*
X168722714Y-106901347D01*
X168718234Y-106895681D01*
X168718280Y-106895643D01*
X168713519Y-106889799D01*
X168713474Y-106889838D01*
X168708834Y-106884308D01*
X168652982Y-106831613D01*
X168405729Y-106584361D01*
X168393949Y-106570730D01*
X168386482Y-106560701D01*
X168379612Y-106551472D01*
X168374322Y-106547033D01*
X168339587Y-106517886D01*
X168335612Y-106514244D01*
X168332690Y-106511322D01*
X168329780Y-106508411D01*
X168304040Y-106488059D01*
X168245209Y-106438694D01*
X168239180Y-106434729D01*
X168239212Y-106434680D01*
X168232853Y-106430628D01*
X168232822Y-106430679D01*
X168226680Y-106426891D01*
X168226678Y-106426890D01*
X168226677Y-106426889D01*
X168187474Y-106408608D01*
X168157058Y-106394424D01*
X168122894Y-106377267D01*
X168088433Y-106359960D01*
X168088431Y-106359959D01*
X168088430Y-106359959D01*
X168081645Y-106357489D01*
X168081665Y-106357433D01*
X168074549Y-106354959D01*
X168074531Y-106355015D01*
X168067671Y-106352742D01*
X168039841Y-106346996D01*
X167992434Y-106337207D01*
X167943472Y-106325603D01*
X167917719Y-106319499D01*
X167910547Y-106318661D01*
X167910553Y-106318601D01*
X167903055Y-106317835D01*
X167903050Y-106317895D01*
X167895860Y-106317265D01*
X167819083Y-106319500D01*
X161393705Y-106319500D01*
X161375735Y-106318191D01*
X161351972Y-106314710D01*
X161307512Y-106318601D01*
X161299931Y-106319264D01*
X161294530Y-106319500D01*
X161286289Y-106319500D01*
X161264579Y-106322037D01*
X161253724Y-106323306D01*
X161238419Y-106324645D01*
X161177199Y-106330001D01*
X161170132Y-106331460D01*
X161170120Y-106331404D01*
X161162763Y-106333035D01*
X161162777Y-106333092D01*
X161155743Y-106334759D01*
X161083575Y-106361025D01*
X161010675Y-106385181D01*
X161004126Y-106388236D01*
X161004101Y-106388183D01*
X160997308Y-106391471D01*
X160997334Y-106391523D01*
X160990880Y-106394764D01*
X160926708Y-106436971D01*
X160861347Y-106477285D01*
X160855683Y-106481765D01*
X160855647Y-106481719D01*
X160849797Y-106486485D01*
X160849834Y-106486529D01*
X160844305Y-106491168D01*
X160791598Y-106547033D01*
X160194358Y-107144272D01*
X160180729Y-107156051D01*
X160161468Y-107170390D01*
X160127898Y-107210397D01*
X160124253Y-107214376D01*
X160118410Y-107220221D01*
X160110076Y-107230760D01*
X160053051Y-107271132D01*
X160051822Y-107271547D01*
X160010667Y-107285185D01*
X159861342Y-107377289D01*
X159737289Y-107501342D01*
X159645187Y-107650663D01*
X159645186Y-107650666D01*
X159590001Y-107817203D01*
X159590001Y-107817204D01*
X159590000Y-107817204D01*
X159579500Y-107919983D01*
X159579500Y-108407769D01*
X159559815Y-108474808D01*
X159543181Y-108495450D01*
X158700451Y-109338181D01*
X158639128Y-109371666D01*
X158612770Y-109374500D01*
X156310959Y-109374500D01*
X156246811Y-109356618D01*
X156241602Y-109353469D01*
X156087887Y-109305570D01*
X156087885Y-109305569D01*
X156087883Y-109305569D01*
X156041117Y-109301319D01*
X156021091Y-109299500D01*
X156021088Y-109299500D01*
X154413901Y-109299500D01*
X154347117Y-109305568D01*
X154347106Y-109305571D01*
X154193401Y-109353467D01*
X154055608Y-109436766D01*
X153941766Y-109550608D01*
X153858469Y-109688397D01*
X153810569Y-109842116D01*
X153804500Y-109908911D01*
X153804500Y-110341098D01*
X153810568Y-110407882D01*
X153810571Y-110407893D01*
X153858467Y-110561599D01*
X153939625Y-110695850D01*
X153957461Y-110763405D01*
X153939625Y-110824150D01*
X153858469Y-110958397D01*
X153810569Y-111112116D01*
X153804500Y-111178911D01*
X153804500Y-111611098D01*
X153810568Y-111677882D01*
X153810571Y-111677893D01*
X153858467Y-111831599D01*
X153939625Y-111965850D01*
X153957461Y-112033405D01*
X153939625Y-112094150D01*
X153858469Y-112228397D01*
X153810569Y-112382116D01*
X153804500Y-112448911D01*
X153804500Y-112881098D01*
X153810568Y-112947882D01*
X153810571Y-112947893D01*
X153858467Y-113101599D01*
X153939625Y-113235850D01*
X153957461Y-113303405D01*
X153939625Y-113364150D01*
X153858469Y-113498397D01*
X153810569Y-113652116D01*
X153806520Y-113696679D01*
X153805389Y-113709132D01*
X153804500Y-113718911D01*
X153804500Y-114151098D01*
X153810568Y-114217882D01*
X153810571Y-114217893D01*
X153858467Y-114371599D01*
X153939625Y-114505850D01*
X153957461Y-114573405D01*
X153939625Y-114634150D01*
X153858469Y-114768397D01*
X153810569Y-114922116D01*
X153807231Y-114958855D01*
X153805152Y-114981740D01*
X153804500Y-114988911D01*
X153804500Y-115421098D01*
X153810568Y-115487882D01*
X153810571Y-115487893D01*
X153858467Y-115641599D01*
X153939625Y-115775850D01*
X153957461Y-115843405D01*
X153939625Y-115904150D01*
X153858469Y-116038397D01*
X153810569Y-116192116D01*
X153804500Y-116258911D01*
X153804500Y-116691098D01*
X153810568Y-116757882D01*
X153810571Y-116757893D01*
X153858467Y-116911599D01*
X153939625Y-117045850D01*
X153957461Y-117113405D01*
X153939625Y-117174150D01*
X153858469Y-117308397D01*
X153810569Y-117462116D01*
X153804500Y-117528911D01*
X153804500Y-117961098D01*
X153810568Y-118027882D01*
X153810571Y-118027893D01*
X153858467Y-118181598D01*
X153858468Y-118181600D01*
X153858469Y-118181602D01*
X153939918Y-118316335D01*
X153957754Y-118383887D01*
X153939918Y-118444633D01*
X153858927Y-118578607D01*
X153811067Y-118732197D01*
X153811064Y-118732207D01*
X153808085Y-118764999D01*
X153808085Y-118765000D01*
X156626915Y-118765000D01*
X156626914Y-118764999D01*
X156623935Y-118732207D01*
X156623934Y-118732205D01*
X156600310Y-118656390D01*
X156599160Y-118586529D01*
X156635961Y-118527137D01*
X156699030Y-118497069D01*
X156718696Y-118495500D01*
X157892770Y-118495500D01*
X157959809Y-118515185D01*
X157980451Y-118531819D01*
X158551451Y-119102819D01*
X158584936Y-119164142D01*
X158579952Y-119233834D01*
X158538080Y-119289767D01*
X158472616Y-119314184D01*
X158463770Y-119314500D01*
X156726805Y-119314500D01*
X156659766Y-119294815D01*
X156635242Y-119274120D01*
X156626913Y-119265000D01*
X153808087Y-119265000D01*
X153799758Y-119274120D01*
X153740014Y-119310348D01*
X153708195Y-119314500D01*
X153362814Y-119314500D01*
X153348527Y-119314908D01*
X153344918Y-119315062D01*
X153334091Y-119315526D01*
X153334087Y-119315526D01*
X153193091Y-119344095D01*
X153193082Y-119344097D01*
X153193079Y-119344098D01*
X153193075Y-119344099D01*
X153193069Y-119344101D01*
X153127276Y-119367575D01*
X153127246Y-119367584D01*
X153127230Y-119367591D01*
X153104762Y-119379449D01*
X153099302Y-119382329D01*
X153095593Y-119384132D01*
X153077123Y-119392355D01*
X153074068Y-119393715D01*
X152964640Y-119442434D01*
X152939990Y-119450444D01*
X152907942Y-119457256D01*
X152884262Y-119462290D01*
X152858482Y-119465000D01*
X152801516Y-119465000D01*
X152775736Y-119462290D01*
X152753984Y-119457666D01*
X152720010Y-119450445D01*
X152695356Y-119442434D01*
X152546638Y-119376219D01*
X152499445Y-119354666D01*
X152499434Y-119354662D01*
X152432400Y-119334978D01*
X152432394Y-119334976D01*
X152346941Y-119322690D01*
X152289975Y-119314500D01*
X152289973Y-119314500D01*
X151709500Y-119314500D01*
X151642461Y-119294815D01*
X151596706Y-119242011D01*
X151585500Y-119190500D01*
X151585500Y-118977229D01*
X151605185Y-118910190D01*
X151621815Y-118889552D01*
X152193974Y-118317392D01*
X152196581Y-118314934D01*
X152214652Y-118298852D01*
X152244460Y-118272326D01*
X152281232Y-118219808D01*
X152283355Y-118216956D01*
X152323111Y-118166677D01*
X152327850Y-118156513D01*
X152338655Y-118137798D01*
X152345088Y-118128612D01*
X152368762Y-118069017D01*
X152370145Y-118065811D01*
X152397257Y-118007673D01*
X152399522Y-117996700D01*
X152405727Y-117975974D01*
X152409860Y-117965571D01*
X152409862Y-117965567D01*
X152419153Y-117902129D01*
X152419762Y-117898672D01*
X152432734Y-117835856D01*
X152432408Y-117824652D01*
X152433664Y-117803070D01*
X152435289Y-117791974D01*
X152429705Y-117728153D01*
X152429495Y-117724551D01*
X152427631Y-117660485D01*
X152424730Y-117649661D01*
X152420975Y-117628372D01*
X152419999Y-117617203D01*
X152399844Y-117556378D01*
X152398809Y-117552922D01*
X152384725Y-117500362D01*
X152380500Y-117468268D01*
X152380500Y-105825300D01*
X152400185Y-105758261D01*
X152452989Y-105712506D01*
X152465482Y-105707599D01*
X152549334Y-105679814D01*
X152698656Y-105587712D01*
X152822712Y-105463656D01*
X152914814Y-105314334D01*
X152969999Y-105147797D01*
X152980500Y-105045009D01*
X152980500Y-104495000D01*
X156483592Y-104495000D01*
X156495430Y-104630315D01*
X156495432Y-104630326D01*
X156556566Y-104858483D01*
X156556570Y-104858492D01*
X156656399Y-105072577D01*
X156656400Y-105072579D01*
X156791886Y-105266073D01*
X156791891Y-105266079D01*
X156958917Y-105433105D01*
X157152421Y-105568600D01*
X157366507Y-105668429D01*
X157366516Y-105668433D01*
X157580000Y-105725634D01*
X157580000Y-104680501D01*
X157687685Y-104729680D01*
X157794237Y-104745000D01*
X157865763Y-104745000D01*
X157972315Y-104729680D01*
X158080000Y-104680501D01*
X158080000Y-105725633D01*
X158293483Y-105668433D01*
X158293492Y-105668429D01*
X158507577Y-105568600D01*
X158507579Y-105568599D01*
X158701073Y-105433113D01*
X158701079Y-105433108D01*
X158848331Y-105285857D01*
X158909654Y-105252372D01*
X158979346Y-105257356D01*
X159035279Y-105299228D01*
X159041551Y-105308441D01*
X159068780Y-105352586D01*
X159137288Y-105463656D01*
X159261344Y-105587712D01*
X159410666Y-105679814D01*
X159577203Y-105734999D01*
X159679991Y-105745500D01*
X160980008Y-105745499D01*
X161082797Y-105734999D01*
X161249334Y-105679814D01*
X161398656Y-105587712D01*
X161522712Y-105463656D01*
X161614814Y-105314334D01*
X161669999Y-105147797D01*
X161680500Y-105045009D01*
X161680499Y-103444992D01*
X161678956Y-103429891D01*
X161669999Y-103342203D01*
X161669998Y-103342200D01*
X161640638Y-103253599D01*
X161614814Y-103175666D01*
X161522712Y-103026344D01*
X161398656Y-102902288D01*
X161249334Y-102810186D01*
X161082797Y-102755001D01*
X161082795Y-102755000D01*
X160980010Y-102744500D01*
X159679998Y-102744500D01*
X159679981Y-102744501D01*
X159577203Y-102755000D01*
X159577200Y-102755001D01*
X159410668Y-102810185D01*
X159410663Y-102810187D01*
X159261342Y-102902289D01*
X159137288Y-103026343D01*
X159137285Y-103026347D01*
X159041550Y-103181558D01*
X158989602Y-103228283D01*
X158920640Y-103239504D01*
X158856558Y-103211661D01*
X158848331Y-103204143D01*
X158701078Y-103056891D01*
X158507578Y-102921399D01*
X158293492Y-102821570D01*
X158293486Y-102821567D01*
X158080000Y-102764364D01*
X158080000Y-103809498D01*
X157972315Y-103760320D01*
X157865763Y-103745000D01*
X157794237Y-103745000D01*
X157687685Y-103760320D01*
X157580000Y-103809498D01*
X157580000Y-102764364D01*
X157579999Y-102764364D01*
X157366513Y-102821567D01*
X157366507Y-102821570D01*
X157152422Y-102921399D01*
X157152420Y-102921400D01*
X156958926Y-103056886D01*
X156958920Y-103056891D01*
X156791891Y-103223920D01*
X156791886Y-103223926D01*
X156656400Y-103417420D01*
X156656399Y-103417422D01*
X156556570Y-103631507D01*
X156556566Y-103631516D01*
X156495432Y-103859673D01*
X156495430Y-103859684D01*
X156483592Y-103994999D01*
X156483593Y-103995000D01*
X157396314Y-103995000D01*
X157370507Y-104035156D01*
X157330000Y-104173111D01*
X157330000Y-104316889D01*
X157370507Y-104454844D01*
X157396314Y-104495000D01*
X156483592Y-104495000D01*
X152980500Y-104495000D01*
X152980499Y-103444992D01*
X152978956Y-103429891D01*
X152969999Y-103342203D01*
X152969998Y-103342200D01*
X152940638Y-103253599D01*
X152914814Y-103175666D01*
X152822712Y-103026344D01*
X152698656Y-102902288D01*
X152549334Y-102810186D01*
X152382797Y-102755001D01*
X152382795Y-102755000D01*
X152280010Y-102744500D01*
X150979998Y-102744500D01*
X150979981Y-102744501D01*
X150877203Y-102755000D01*
X150877200Y-102755001D01*
X150710668Y-102810185D01*
X150710663Y-102810187D01*
X150561342Y-102902289D01*
X150437288Y-103026343D01*
X150437285Y-103026347D01*
X150341550Y-103181558D01*
X150289602Y-103228283D01*
X150220640Y-103239504D01*
X150156558Y-103211661D01*
X150148331Y-103204143D01*
X150001078Y-103056891D01*
X149807578Y-102921399D01*
X149593492Y-102821570D01*
X149593486Y-102821567D01*
X149380000Y-102764364D01*
X149380000Y-103809498D01*
X149272315Y-103760320D01*
X149165763Y-103745000D01*
X149094237Y-103745000D01*
X148987685Y-103760320D01*
X148880000Y-103809498D01*
X148880000Y-102764364D01*
X148879999Y-102764364D01*
X148666513Y-102821567D01*
X148666507Y-102821570D01*
X148452422Y-102921399D01*
X148452420Y-102921400D01*
X148258926Y-103056886D01*
X148258920Y-103056891D01*
X148091891Y-103223920D01*
X148091886Y-103223926D01*
X147956400Y-103417420D01*
X147956399Y-103417422D01*
X147856570Y-103631507D01*
X147856566Y-103631516D01*
X147795432Y-103859673D01*
X147795430Y-103859684D01*
X147783592Y-103994999D01*
X147783593Y-103995000D01*
X148696314Y-103995000D01*
X148670507Y-104035156D01*
X148630000Y-104173111D01*
X148630000Y-104316889D01*
X148670507Y-104454844D01*
X148696314Y-104495000D01*
X147783592Y-104495000D01*
X147795430Y-104630315D01*
X147795432Y-104630326D01*
X147856566Y-104858483D01*
X147856570Y-104858492D01*
X147956399Y-105072577D01*
X147956400Y-105072579D01*
X148091886Y-105266073D01*
X148091891Y-105266079D01*
X148258917Y-105433105D01*
X148452421Y-105568600D01*
X148666507Y-105668429D01*
X148666516Y-105668433D01*
X148880000Y-105725634D01*
X148880000Y-104680501D01*
X148987685Y-104729680D01*
X149094237Y-104745000D01*
X149165763Y-104745000D01*
X149272315Y-104729680D01*
X149380000Y-104680501D01*
X149380000Y-105725633D01*
X149593483Y-105668433D01*
X149593492Y-105668429D01*
X149807577Y-105568600D01*
X149807579Y-105568599D01*
X150001073Y-105433113D01*
X150001079Y-105433108D01*
X150148331Y-105285857D01*
X150209654Y-105252372D01*
X150279346Y-105257356D01*
X150335279Y-105299228D01*
X150341551Y-105308441D01*
X150368780Y-105352586D01*
X150437288Y-105463656D01*
X150561344Y-105587712D01*
X150710666Y-105679814D01*
X150794505Y-105707595D01*
X150851948Y-105747366D01*
X150878772Y-105811882D01*
X150879500Y-105825300D01*
X150879500Y-117457769D01*
X150859815Y-117524808D01*
X150843181Y-117545450D01*
X150667180Y-117721451D01*
X150605857Y-117754936D01*
X150536165Y-117749952D01*
X150480232Y-117708080D01*
X150455815Y-117642616D01*
X150455499Y-117633770D01*
X150455499Y-117528901D01*
X150449431Y-117462117D01*
X150449428Y-117462106D01*
X150401532Y-117308401D01*
X150401531Y-117308400D01*
X150401531Y-117308398D01*
X150320373Y-117174147D01*
X150302538Y-117106596D01*
X150320373Y-117045852D01*
X150401531Y-116911602D01*
X150449430Y-116757887D01*
X150455500Y-116691091D01*
X150455499Y-116258910D01*
X150455499Y-116258909D01*
X150455499Y-116258901D01*
X150449431Y-116192117D01*
X150449428Y-116192106D01*
X150401532Y-116038401D01*
X150401531Y-116038400D01*
X150401531Y-116038398D01*
X150320373Y-115904147D01*
X150302538Y-115836596D01*
X150320373Y-115775852D01*
X150401531Y-115641602D01*
X150449430Y-115487887D01*
X150455500Y-115421091D01*
X150455499Y-114988910D01*
X150455499Y-114988909D01*
X150455499Y-114988901D01*
X150449431Y-114922117D01*
X150449428Y-114922106D01*
X150401532Y-114768401D01*
X150401531Y-114768400D01*
X150401531Y-114768398D01*
X150320373Y-114634147D01*
X150302538Y-114566596D01*
X150320373Y-114505852D01*
X150401531Y-114371602D01*
X150449430Y-114217887D01*
X150455500Y-114151091D01*
X150455499Y-113718910D01*
X150455499Y-113718909D01*
X150455499Y-113718901D01*
X150449431Y-113652117D01*
X150449428Y-113652106D01*
X150401532Y-113498401D01*
X150401531Y-113498400D01*
X150401531Y-113498398D01*
X150320373Y-113364147D01*
X150302538Y-113296596D01*
X150320373Y-113235852D01*
X150401531Y-113101602D01*
X150449430Y-112947887D01*
X150455500Y-112881091D01*
X150455499Y-112448910D01*
X150455499Y-112448909D01*
X150455499Y-112448901D01*
X150449431Y-112382117D01*
X150449428Y-112382106D01*
X150401532Y-112228401D01*
X150401531Y-112228400D01*
X150401531Y-112228398D01*
X150320373Y-112094147D01*
X150302538Y-112026596D01*
X150320373Y-111965852D01*
X150401531Y-111831602D01*
X150449430Y-111677887D01*
X150455500Y-111611091D01*
X150455499Y-111178910D01*
X150455499Y-111178909D01*
X150455499Y-111178901D01*
X150449431Y-111112117D01*
X150449428Y-111112106D01*
X150401532Y-110958401D01*
X150401531Y-110958400D01*
X150401531Y-110958398D01*
X150320373Y-110824147D01*
X150302538Y-110756596D01*
X150320373Y-110695852D01*
X150401531Y-110561602D01*
X150449430Y-110407887D01*
X150455500Y-110341091D01*
X150455499Y-109908910D01*
X150455499Y-109908909D01*
X150455499Y-109908901D01*
X150449431Y-109842117D01*
X150449428Y-109842106D01*
X150401532Y-109688401D01*
X150401531Y-109688400D01*
X150401531Y-109688398D01*
X150318236Y-109550612D01*
X150318234Y-109550610D01*
X150318233Y-109550608D01*
X150204391Y-109436766D01*
X150193086Y-109429932D01*
X150066602Y-109353469D01*
X149912887Y-109305570D01*
X149912885Y-109305569D01*
X149912883Y-109305569D01*
X149866117Y-109301319D01*
X149846091Y-109299500D01*
X149846088Y-109299500D01*
X148238901Y-109299500D01*
X148172117Y-109305568D01*
X148172106Y-109305571D01*
X148018402Y-109353467D01*
X148018399Y-109353468D01*
X148018398Y-109353469D01*
X148013188Y-109356618D01*
X147949041Y-109374500D01*
X147647230Y-109374500D01*
X147580191Y-109354815D01*
X147559549Y-109338181D01*
X144266819Y-106045451D01*
X144233334Y-105984128D01*
X144230500Y-105957770D01*
X144230500Y-105730343D01*
X144250185Y-105663304D01*
X144269625Y-105639943D01*
X144930000Y-105020000D01*
X146330000Y-103720000D01*
X146330000Y-100424500D01*
X146349685Y-100357461D01*
X146402489Y-100311706D01*
X146454000Y-100300500D01*
X186575500Y-100300500D01*
X186642539Y-100320185D01*
G37*
%TD.AperFunction*%
%TD*%
%TA.AperFunction,Conductor*%
%TO.N,+5V*%
G36*
X151023039Y-118689685D02*
G01*
X151068794Y-118742489D01*
X151080000Y-118794000D01*
X151080000Y-119820000D01*
X152289975Y-119820000D01*
X152357014Y-119839685D01*
X152362861Y-119843682D01*
X152377270Y-119854151D01*
X152550192Y-119931142D01*
X152550197Y-119931144D01*
X152735354Y-119970500D01*
X152735355Y-119970500D01*
X152924644Y-119970500D01*
X152924646Y-119970500D01*
X153109803Y-119931144D01*
X153282730Y-119854151D01*
X153297139Y-119843681D01*
X153362946Y-119820202D01*
X153370025Y-119820000D01*
X154281932Y-119820000D01*
X154318820Y-119825614D01*
X154328492Y-119828627D01*
X154347113Y-119834430D01*
X154413909Y-119840500D01*
X156021090Y-119840499D01*
X156021097Y-119840499D01*
X156087882Y-119834431D01*
X156087885Y-119834430D01*
X156087887Y-119834430D01*
X156091027Y-119833451D01*
X156116179Y-119825615D01*
X156153069Y-119820000D01*
X158878638Y-119820000D01*
X158945677Y-119839685D01*
X158966319Y-119856319D01*
X163043681Y-123933681D01*
X163077166Y-123995004D01*
X163080000Y-124021362D01*
X163080000Y-124094741D01*
X163060315Y-124161780D01*
X163007511Y-124207535D01*
X162938353Y-124217479D01*
X162903597Y-124207124D01*
X162896327Y-124203734D01*
X162896317Y-124203730D01*
X162676610Y-124144860D01*
X162676599Y-124144858D01*
X162506763Y-124130000D01*
X162500000Y-124130000D01*
X162500000Y-124994498D01*
X162392315Y-124945320D01*
X162285763Y-124930000D01*
X162214237Y-124930000D01*
X162107685Y-124945320D01*
X162000000Y-124994498D01*
X162000000Y-124130000D01*
X161993237Y-124130000D01*
X161823400Y-124144858D01*
X161823389Y-124144860D01*
X161603682Y-124203730D01*
X161603673Y-124203734D01*
X161397517Y-124299865D01*
X161211179Y-124430342D01*
X161050338Y-124591183D01*
X160929763Y-124763381D01*
X160875186Y-124807006D01*
X160805688Y-124814198D01*
X160743333Y-124782676D01*
X160739888Y-124779314D01*
X157280000Y-121270000D01*
X157279998Y-121269999D01*
X147603367Y-121220629D01*
X147536429Y-121200603D01*
X147490944Y-121147566D01*
X147480000Y-121096631D01*
X147480000Y-119558864D01*
X147499685Y-119491825D01*
X147552489Y-119446070D01*
X147621647Y-119436126D01*
X147685203Y-119465151D01*
X147710117Y-119494714D01*
X147767163Y-119589080D01*
X147880919Y-119702836D01*
X148018603Y-119786070D01*
X148172207Y-119833934D01*
X148238957Y-119840000D01*
X148792500Y-119840000D01*
X148792500Y-119265000D01*
X149292500Y-119265000D01*
X149292500Y-119840000D01*
X149846043Y-119840000D01*
X149912792Y-119833934D01*
X150066396Y-119786070D01*
X150204080Y-119702836D01*
X150317836Y-119589080D01*
X150401072Y-119451392D01*
X150448932Y-119297802D01*
X150448935Y-119297792D01*
X150451914Y-119265000D01*
X149292500Y-119265000D01*
X148792500Y-119265000D01*
X148792500Y-118889000D01*
X148812185Y-118821961D01*
X148864989Y-118776206D01*
X148916500Y-118765000D01*
X150451915Y-118765000D01*
X150466712Y-118748796D01*
X150469106Y-118736676D01*
X150517552Y-118686330D01*
X150579060Y-118670000D01*
X150956000Y-118670000D01*
X151023039Y-118689685D01*
G37*
%TD.AperFunction*%
%TD*%
M02*
