M48
; DRILL file {KiCad 7.0.8} date Mon Feb  3 21:17:38 2025
; FORMAT={-:-/ absolute / inch / decimal}
; #@! TF.CreationDate,2025-02-03T21:17:38+05:30
; #@! TF.GenerationSoftware,Kicad,Pcbnew,7.0.8
; #@! TF.FileFunction,Plated,1,2,PTH
FMAT,2
INCH
; #@! TA.AperFunction,Plated,PTH,ViaDrill
T1C0.0157
; #@! TA.AperFunction,Plated,PTH,ComponentDrill
T2C0.0280
; #@! TA.AperFunction,Plated,PTH,ComponentDrill
T3C0.0315
; #@! TA.AperFunction,Plated,PTH,ComponentDrill
T4C0.0374
; #@! TA.AperFunction,Plated,PTH,ComponentDrill
T5C0.0394
; #@! TA.AperFunction,Plated,PTH,ComponentDrill
T6C0.0512
%
G90
G05
T1
X4.439Y-4.8886
X4.7217Y-5.052
X5.0209Y-4.9142
X5.0839Y-5.3866
X5.1035Y-5.1602
X5.7748Y-5.5421
X5.7768Y-5.2685
X5.9047Y-5.8591
X6.0169Y-4.6878
X6.0504Y-5.2705
X6.0827Y-4.9929
X6.1685Y-4.4356
X6.202Y-4.5356
X6.4618Y-4.5343
X6.4697Y-4.2665
X6.4697Y-4.4457
X6.4717Y-4.3571
X6.5228Y-4.6976
X6.7492Y-4.6543
X6.828Y-4.5598
T2
X4.4862Y-5.3622
X4.687Y-5.4252
T3
X4.4902Y-5.876
X4.6358Y-5.5807
T4
X5.8516Y-4.8531
X5.95Y-4.8531
X6.0484Y-4.8531
X6.1469Y-4.8531
X6.7421Y-4.1043
X6.8406Y-4.1043
X6.939Y-4.1043
X7.0374Y-4.1043
T5
X4.8819Y-5.374
X4.8819Y-5.6102
X5.8713Y-4.1041
X5.9697Y-4.1041
X6.2047Y-5.1378
X6.2047Y-5.8465
X6.2138Y-4.1041
X6.3122Y-4.1041
X6.3878Y-4.9382
X6.3878Y-5.0382
X6.3878Y-5.1382
X6.3878Y-5.2382
X6.3878Y-5.3382
X6.3878Y-5.4382
X6.3878Y-5.5382
X6.3878Y-5.6382
X7.1872Y-4.365
X7.1872Y-4.4634
X7.2878Y-4.9382
X7.2878Y-5.0382
X7.2878Y-5.1382
X7.2878Y-5.2382
X7.2878Y-5.3382
X7.2878Y-5.4382
X7.2878Y-5.5382
X7.2878Y-5.6382
T6
X4.1587Y-4.0496
X4.1587Y-4.2496
X4.1587Y-4.4496
X4.1587Y-4.6496
X4.1587Y-4.8496
X4.1587Y-5.0496
X4.1587Y-5.2496
X4.1587Y-5.4496
X4.1587Y-5.6496
X4.1587Y-5.8496
X4.5071Y-4.0445
X4.5071Y-4.4972
X4.5071Y-4.7728
X4.6921Y-4.0445
X4.826Y-4.0441
X4.826Y-4.4969
X4.826Y-4.7724
X5.011Y-4.0441
X5.1449Y-4.0441
X5.1449Y-4.4969
X5.1449Y-4.7724
X5.3299Y-4.0441
X5.4638Y-4.0441
X5.4638Y-4.4969
X5.4638Y-4.7724
X5.6488Y-4.0441
X7.6035Y-4.2969
X7.6035Y-4.4969
X7.6035Y-4.6969
X7.6035Y-4.8969
X7.6035Y-5.0969
X7.6035Y-5.2969
X7.6035Y-5.4969
X7.6035Y-5.6969
T0
M30
