%TF.GenerationSoftware,KiCad,Pcbnew,7.0.8*%
%TF.CreationDate,2025-02-07T18:27:24+05:30*%
%TF.ProjectId,WemosD1Mini-8266,57656d6f-7344-4314-9d69-6e692d383236,rev?*%
%TF.SameCoordinates,Original*%
%TF.FileFunction,Legend,Bot*%
%TF.FilePolarity,Positive*%
%FSLAX46Y46*%
G04 Gerber Fmt 4.6, Leading zero omitted, Abs format (unit mm)*
G04 Created by KiCad (PCBNEW 7.0.8) date 2025-02-07 18:27:24*
%MOMM*%
%LPD*%
G01*
G04 APERTURE LIST*
%ADD10C,0.150000*%
%ADD11C,0.200000*%
%ADD12C,0.300000*%
%ADD13C,0.120000*%
G04 APERTURE END LIST*
D10*
X103255124Y-128519819D02*
X103255124Y-127519819D01*
X103255124Y-127519819D02*
X102921791Y-128234104D01*
X102921791Y-128234104D02*
X102588458Y-127519819D01*
X102588458Y-127519819D02*
X102588458Y-128519819D01*
X102207505Y-127519819D02*
X101588458Y-127519819D01*
X101588458Y-127519819D02*
X101921791Y-127900771D01*
X101921791Y-127900771D02*
X101778934Y-127900771D01*
X101778934Y-127900771D02*
X101683696Y-127948390D01*
X101683696Y-127948390D02*
X101636077Y-127996009D01*
X101636077Y-127996009D02*
X101588458Y-128091247D01*
X101588458Y-128091247D02*
X101588458Y-128329342D01*
X101588458Y-128329342D02*
X101636077Y-128424580D01*
X101636077Y-128424580D02*
X101683696Y-128472200D01*
X101683696Y-128472200D02*
X101778934Y-128519819D01*
X101778934Y-128519819D02*
X102064648Y-128519819D01*
X102064648Y-128519819D02*
X102159886Y-128472200D01*
X102159886Y-128472200D02*
X102207505Y-128424580D01*
X103155124Y-138659819D02*
X103155124Y-137659819D01*
X103155124Y-137659819D02*
X102821791Y-138374104D01*
X102821791Y-138374104D02*
X102488458Y-137659819D01*
X102488458Y-137659819D02*
X102488458Y-138659819D01*
X101488458Y-138659819D02*
X102059886Y-138659819D01*
X101774172Y-138659819D02*
X101774172Y-137659819D01*
X101774172Y-137659819D02*
X101869410Y-137802676D01*
X101869410Y-137802676D02*
X101964648Y-137897914D01*
X101964648Y-137897914D02*
X102059886Y-137945533D01*
X102278934Y-102889819D02*
X102755124Y-102889819D01*
X102755124Y-102889819D02*
X102755124Y-101889819D01*
X101421791Y-102889819D02*
X101993219Y-102889819D01*
X101707505Y-102889819D02*
X101707505Y-101889819D01*
X101707505Y-101889819D02*
X101802743Y-102032676D01*
X101802743Y-102032676D02*
X101897981Y-102127914D01*
X101897981Y-102127914D02*
X101993219Y-102175533D01*
X102755124Y-143629819D02*
X102755124Y-142629819D01*
X102755124Y-142629819D02*
X102374172Y-142629819D01*
X102374172Y-142629819D02*
X102278934Y-142677438D01*
X102278934Y-142677438D02*
X102231315Y-142725057D01*
X102231315Y-142725057D02*
X102183696Y-142820295D01*
X102183696Y-142820295D02*
X102183696Y-142963152D01*
X102183696Y-142963152D02*
X102231315Y-143058390D01*
X102231315Y-143058390D02*
X102278934Y-143106009D01*
X102278934Y-143106009D02*
X102374172Y-143153628D01*
X102374172Y-143153628D02*
X102755124Y-143153628D01*
X101897981Y-143248866D02*
X101850362Y-143201247D01*
X101850362Y-143201247D02*
X101755124Y-143153628D01*
X101755124Y-143153628D02*
X101564648Y-143248866D01*
X101564648Y-143248866D02*
X101469410Y-143201247D01*
X101469410Y-143201247D02*
X101421791Y-143153628D01*
X102755124Y-148789819D02*
X102755124Y-147789819D01*
X102755124Y-147789819D02*
X102183696Y-148789819D01*
X102183696Y-148789819D02*
X102183696Y-147789819D01*
X101850362Y-148408866D02*
X101802743Y-148361247D01*
X101802743Y-148361247D02*
X101707505Y-148313628D01*
X101707505Y-148313628D02*
X101517029Y-148408866D01*
X101517029Y-148408866D02*
X101421791Y-148361247D01*
X101421791Y-148361247D02*
X101374172Y-148313628D01*
X102478934Y-108059819D02*
X102955124Y-108059819D01*
X102955124Y-108059819D02*
X102955124Y-107059819D01*
X102193219Y-107155057D02*
X102145600Y-107107438D01*
X102145600Y-107107438D02*
X102050362Y-107059819D01*
X102050362Y-107059819D02*
X101812267Y-107059819D01*
X101812267Y-107059819D02*
X101717029Y-107107438D01*
X101717029Y-107107438D02*
X101669410Y-107155057D01*
X101669410Y-107155057D02*
X101621791Y-107250295D01*
X101621791Y-107250295D02*
X101621791Y-107345533D01*
X101621791Y-107345533D02*
X101669410Y-107488390D01*
X101669410Y-107488390D02*
X102240838Y-108059819D01*
X102240838Y-108059819D02*
X101621791Y-108059819D01*
D11*
X176595400Y-108177945D02*
X176523971Y-108035088D01*
X176523971Y-108035088D02*
X176523971Y-107796993D01*
X176523971Y-107796993D02*
X176595400Y-107701755D01*
X176595400Y-107701755D02*
X176666828Y-107654136D01*
X176666828Y-107654136D02*
X176809685Y-107606517D01*
X176809685Y-107606517D02*
X176952542Y-107606517D01*
X176952542Y-107606517D02*
X177095400Y-107654136D01*
X177095400Y-107654136D02*
X177166828Y-107701755D01*
X177166828Y-107701755D02*
X177238257Y-107796993D01*
X177238257Y-107796993D02*
X177309685Y-107987469D01*
X177309685Y-107987469D02*
X177381114Y-108082707D01*
X177381114Y-108082707D02*
X177452542Y-108130326D01*
X177452542Y-108130326D02*
X177595400Y-108177945D01*
X177595400Y-108177945D02*
X177738257Y-108177945D01*
X177738257Y-108177945D02*
X177881114Y-108130326D01*
X177881114Y-108130326D02*
X177952542Y-108082707D01*
X177952542Y-108082707D02*
X178023971Y-107987469D01*
X178023971Y-107987469D02*
X178023971Y-107749374D01*
X178023971Y-107749374D02*
X177952542Y-107606517D01*
X176523971Y-106654136D02*
X176523971Y-107225564D01*
X176523971Y-106939850D02*
X178023971Y-106939850D01*
X178023971Y-106939850D02*
X177809685Y-107035088D01*
X177809685Y-107035088D02*
X177666828Y-107130326D01*
X177666828Y-107130326D02*
X177595400Y-107225564D01*
X176023971Y-105939850D02*
X176023971Y-106177945D01*
X176023971Y-106177945D02*
X178166828Y-106177945D01*
X178166828Y-106177945D02*
X178166828Y-105939850D01*
X174180400Y-108177945D02*
X174108971Y-108035088D01*
X174108971Y-108035088D02*
X174108971Y-107796993D01*
X174108971Y-107796993D02*
X174180400Y-107701755D01*
X174180400Y-107701755D02*
X174251828Y-107654136D01*
X174251828Y-107654136D02*
X174394685Y-107606517D01*
X174394685Y-107606517D02*
X174537542Y-107606517D01*
X174537542Y-107606517D02*
X174680400Y-107654136D01*
X174680400Y-107654136D02*
X174751828Y-107701755D01*
X174751828Y-107701755D02*
X174823257Y-107796993D01*
X174823257Y-107796993D02*
X174894685Y-107987469D01*
X174894685Y-107987469D02*
X174966114Y-108082707D01*
X174966114Y-108082707D02*
X175037542Y-108130326D01*
X175037542Y-108130326D02*
X175180400Y-108177945D01*
X175180400Y-108177945D02*
X175323257Y-108177945D01*
X175323257Y-108177945D02*
X175466114Y-108130326D01*
X175466114Y-108130326D02*
X175537542Y-108082707D01*
X175537542Y-108082707D02*
X175608971Y-107987469D01*
X175608971Y-107987469D02*
X175608971Y-107749374D01*
X175608971Y-107749374D02*
X175537542Y-107606517D01*
X175466114Y-107225564D02*
X175537542Y-107177945D01*
X175537542Y-107177945D02*
X175608971Y-107082707D01*
X175608971Y-107082707D02*
X175608971Y-106844612D01*
X175608971Y-106844612D02*
X175537542Y-106749374D01*
X175537542Y-106749374D02*
X175466114Y-106701755D01*
X175466114Y-106701755D02*
X175323257Y-106654136D01*
X175323257Y-106654136D02*
X175180400Y-106654136D01*
X175180400Y-106654136D02*
X174966114Y-106701755D01*
X174966114Y-106701755D02*
X174108971Y-107273183D01*
X174108971Y-107273183D02*
X174108971Y-106654136D01*
X173608971Y-105939850D02*
X173608971Y-106177945D01*
X173608971Y-106177945D02*
X175751828Y-106177945D01*
X175751828Y-106177945D02*
X175751828Y-105939850D01*
X171765400Y-108177945D02*
X171693971Y-108035088D01*
X171693971Y-108035088D02*
X171693971Y-107796993D01*
X171693971Y-107796993D02*
X171765400Y-107701755D01*
X171765400Y-107701755D02*
X171836828Y-107654136D01*
X171836828Y-107654136D02*
X171979685Y-107606517D01*
X171979685Y-107606517D02*
X172122542Y-107606517D01*
X172122542Y-107606517D02*
X172265400Y-107654136D01*
X172265400Y-107654136D02*
X172336828Y-107701755D01*
X172336828Y-107701755D02*
X172408257Y-107796993D01*
X172408257Y-107796993D02*
X172479685Y-107987469D01*
X172479685Y-107987469D02*
X172551114Y-108082707D01*
X172551114Y-108082707D02*
X172622542Y-108130326D01*
X172622542Y-108130326D02*
X172765400Y-108177945D01*
X172765400Y-108177945D02*
X172908257Y-108177945D01*
X172908257Y-108177945D02*
X173051114Y-108130326D01*
X173051114Y-108130326D02*
X173122542Y-108082707D01*
X173122542Y-108082707D02*
X173193971Y-107987469D01*
X173193971Y-107987469D02*
X173193971Y-107749374D01*
X173193971Y-107749374D02*
X173122542Y-107606517D01*
X173193971Y-107273183D02*
X173193971Y-106654136D01*
X173193971Y-106654136D02*
X172622542Y-106987469D01*
X172622542Y-106987469D02*
X172622542Y-106844612D01*
X172622542Y-106844612D02*
X172551114Y-106749374D01*
X172551114Y-106749374D02*
X172479685Y-106701755D01*
X172479685Y-106701755D02*
X172336828Y-106654136D01*
X172336828Y-106654136D02*
X171979685Y-106654136D01*
X171979685Y-106654136D02*
X171836828Y-106701755D01*
X171836828Y-106701755D02*
X171765400Y-106749374D01*
X171765400Y-106749374D02*
X171693971Y-106844612D01*
X171693971Y-106844612D02*
X171693971Y-107130326D01*
X171693971Y-107130326D02*
X171765400Y-107225564D01*
X171765400Y-107225564D02*
X171836828Y-107273183D01*
X171193971Y-105939850D02*
X171193971Y-106177945D01*
X171193971Y-106177945D02*
X173336828Y-106177945D01*
X173336828Y-106177945D02*
X173336828Y-105939850D01*
D10*
X102578934Y-113219819D02*
X103055124Y-113219819D01*
X103055124Y-113219819D02*
X103055124Y-112219819D01*
X102340838Y-112219819D02*
X101721791Y-112219819D01*
X101721791Y-112219819D02*
X102055124Y-112600771D01*
X102055124Y-112600771D02*
X101912267Y-112600771D01*
X101912267Y-112600771D02*
X101817029Y-112648390D01*
X101817029Y-112648390D02*
X101769410Y-112696009D01*
X101769410Y-112696009D02*
X101721791Y-112791247D01*
X101721791Y-112791247D02*
X101721791Y-113029342D01*
X101721791Y-113029342D02*
X101769410Y-113124580D01*
X101769410Y-113124580D02*
X101817029Y-113172200D01*
X101817029Y-113172200D02*
X101912267Y-113219819D01*
X101912267Y-113219819D02*
X102197981Y-113219819D01*
X102197981Y-113219819D02*
X102293219Y-113172200D01*
X102293219Y-113172200D02*
X102340838Y-113124580D01*
X102578934Y-118289819D02*
X103055124Y-118289819D01*
X103055124Y-118289819D02*
X103055124Y-117289819D01*
X101817029Y-117623152D02*
X101817029Y-118289819D01*
X102055124Y-117242200D02*
X102293219Y-117956485D01*
X102293219Y-117956485D02*
X101674172Y-117956485D01*
X103255124Y-133189819D02*
X103255124Y-132189819D01*
X103255124Y-132189819D02*
X102921791Y-132904104D01*
X102921791Y-132904104D02*
X102588458Y-132189819D01*
X102588458Y-132189819D02*
X102588458Y-133189819D01*
X102159886Y-132285057D02*
X102112267Y-132237438D01*
X102112267Y-132237438D02*
X102017029Y-132189819D01*
X102017029Y-132189819D02*
X101778934Y-132189819D01*
X101778934Y-132189819D02*
X101683696Y-132237438D01*
X101683696Y-132237438D02*
X101636077Y-132285057D01*
X101636077Y-132285057D02*
X101588458Y-132380295D01*
X101588458Y-132380295D02*
X101588458Y-132475533D01*
X101588458Y-132475533D02*
X101636077Y-132618390D01*
X101636077Y-132618390D02*
X102207505Y-133189819D01*
X102207505Y-133189819D02*
X101588458Y-133189819D01*
D12*
X176000828Y-129431653D02*
X177500828Y-129788796D01*
X177500828Y-129788796D02*
X176429400Y-130074510D01*
X176429400Y-130074510D02*
X177500828Y-130360225D01*
X177500828Y-130360225D02*
X176000828Y-130717368D01*
X177429400Y-131860225D02*
X177500828Y-131717368D01*
X177500828Y-131717368D02*
X177500828Y-131431654D01*
X177500828Y-131431654D02*
X177429400Y-131288796D01*
X177429400Y-131288796D02*
X177286542Y-131217368D01*
X177286542Y-131217368D02*
X176715114Y-131217368D01*
X176715114Y-131217368D02*
X176572257Y-131288796D01*
X176572257Y-131288796D02*
X176500828Y-131431654D01*
X176500828Y-131431654D02*
X176500828Y-131717368D01*
X176500828Y-131717368D02*
X176572257Y-131860225D01*
X176572257Y-131860225D02*
X176715114Y-131931654D01*
X176715114Y-131931654D02*
X176857971Y-131931654D01*
X176857971Y-131931654D02*
X177000828Y-131217368D01*
X177500828Y-132574510D02*
X176500828Y-132574510D01*
X176643685Y-132574510D02*
X176572257Y-132645939D01*
X176572257Y-132645939D02*
X176500828Y-132788796D01*
X176500828Y-132788796D02*
X176500828Y-133003082D01*
X176500828Y-133003082D02*
X176572257Y-133145939D01*
X176572257Y-133145939D02*
X176715114Y-133217368D01*
X176715114Y-133217368D02*
X177500828Y-133217368D01*
X176715114Y-133217368D02*
X176572257Y-133288796D01*
X176572257Y-133288796D02*
X176500828Y-133431653D01*
X176500828Y-133431653D02*
X176500828Y-133645939D01*
X176500828Y-133645939D02*
X176572257Y-133788796D01*
X176572257Y-133788796D02*
X176715114Y-133860225D01*
X176715114Y-133860225D02*
X177500828Y-133860225D01*
X177500828Y-134788796D02*
X177429400Y-134645939D01*
X177429400Y-134645939D02*
X177357971Y-134574510D01*
X177357971Y-134574510D02*
X177215114Y-134503082D01*
X177215114Y-134503082D02*
X176786542Y-134503082D01*
X176786542Y-134503082D02*
X176643685Y-134574510D01*
X176643685Y-134574510D02*
X176572257Y-134645939D01*
X176572257Y-134645939D02*
X176500828Y-134788796D01*
X176500828Y-134788796D02*
X176500828Y-135003082D01*
X176500828Y-135003082D02*
X176572257Y-135145939D01*
X176572257Y-135145939D02*
X176643685Y-135217368D01*
X176643685Y-135217368D02*
X176786542Y-135288796D01*
X176786542Y-135288796D02*
X177215114Y-135288796D01*
X177215114Y-135288796D02*
X177357971Y-135217368D01*
X177357971Y-135217368D02*
X177429400Y-135145939D01*
X177429400Y-135145939D02*
X177500828Y-135003082D01*
X177500828Y-135003082D02*
X177500828Y-134788796D01*
X177429400Y-135860225D02*
X177500828Y-136003082D01*
X177500828Y-136003082D02*
X177500828Y-136288796D01*
X177500828Y-136288796D02*
X177429400Y-136431653D01*
X177429400Y-136431653D02*
X177286542Y-136503082D01*
X177286542Y-136503082D02*
X177215114Y-136503082D01*
X177215114Y-136503082D02*
X177072257Y-136431653D01*
X177072257Y-136431653D02*
X177000828Y-136288796D01*
X177000828Y-136288796D02*
X177000828Y-136074511D01*
X177000828Y-136074511D02*
X176929400Y-135931653D01*
X176929400Y-135931653D02*
X176786542Y-135860225D01*
X176786542Y-135860225D02*
X176715114Y-135860225D01*
X176715114Y-135860225D02*
X176572257Y-135931653D01*
X176572257Y-135931653D02*
X176500828Y-136074511D01*
X176500828Y-136074511D02*
X176500828Y-136288796D01*
X176500828Y-136288796D02*
X176572257Y-136431653D01*
X177500828Y-138288796D02*
X176000828Y-138288796D01*
X176000828Y-138288796D02*
X176000828Y-138645939D01*
X176000828Y-138645939D02*
X176072257Y-138860225D01*
X176072257Y-138860225D02*
X176215114Y-139003082D01*
X176215114Y-139003082D02*
X176357971Y-139074511D01*
X176357971Y-139074511D02*
X176643685Y-139145939D01*
X176643685Y-139145939D02*
X176857971Y-139145939D01*
X176857971Y-139145939D02*
X177143685Y-139074511D01*
X177143685Y-139074511D02*
X177286542Y-139003082D01*
X177286542Y-139003082D02*
X177429400Y-138860225D01*
X177429400Y-138860225D02*
X177500828Y-138645939D01*
X177500828Y-138645939D02*
X177500828Y-138288796D01*
X177500828Y-140574511D02*
X177500828Y-139717368D01*
X177500828Y-140145939D02*
X176000828Y-140145939D01*
X176000828Y-140145939D02*
X176215114Y-140003082D01*
X176215114Y-140003082D02*
X176357971Y-139860225D01*
X176357971Y-139860225D02*
X176429400Y-139717368D01*
X177500828Y-142360224D02*
X176000828Y-142360224D01*
X176000828Y-142360224D02*
X177072257Y-142860224D01*
X177072257Y-142860224D02*
X176000828Y-143360224D01*
X176000828Y-143360224D02*
X177500828Y-143360224D01*
X177500828Y-144074510D02*
X176500828Y-144074510D01*
X176000828Y-144074510D02*
X176072257Y-144003082D01*
X176072257Y-144003082D02*
X176143685Y-144074510D01*
X176143685Y-144074510D02*
X176072257Y-144145939D01*
X176072257Y-144145939D02*
X176000828Y-144074510D01*
X176000828Y-144074510D02*
X176143685Y-144074510D01*
X176500828Y-144788796D02*
X177500828Y-144788796D01*
X176643685Y-144788796D02*
X176572257Y-144860225D01*
X176572257Y-144860225D02*
X176500828Y-145003082D01*
X176500828Y-145003082D02*
X176500828Y-145217368D01*
X176500828Y-145217368D02*
X176572257Y-145360225D01*
X176572257Y-145360225D02*
X176715114Y-145431654D01*
X176715114Y-145431654D02*
X177500828Y-145431654D01*
X177500828Y-146145939D02*
X176500828Y-146145939D01*
X176000828Y-146145939D02*
X176072257Y-146074511D01*
X176072257Y-146074511D02*
X176143685Y-146145939D01*
X176143685Y-146145939D02*
X176072257Y-146217368D01*
X176072257Y-146217368D02*
X176000828Y-146145939D01*
X176000828Y-146145939D02*
X176143685Y-146145939D01*
X178915828Y-130217368D02*
X179915828Y-130217368D01*
X178344400Y-129860225D02*
X179415828Y-129503082D01*
X179415828Y-129503082D02*
X179415828Y-130431653D01*
X179915828Y-131003081D02*
X178415828Y-131003081D01*
X178415828Y-131003081D02*
X179915828Y-131860224D01*
X179915828Y-131860224D02*
X178415828Y-131860224D01*
X179344400Y-133717367D02*
X179344400Y-134860225D01*
X178415828Y-136574510D02*
X178415828Y-137503082D01*
X178415828Y-137503082D02*
X178987257Y-137003082D01*
X178987257Y-137003082D02*
X178987257Y-137217367D01*
X178987257Y-137217367D02*
X179058685Y-137360225D01*
X179058685Y-137360225D02*
X179130114Y-137431653D01*
X179130114Y-137431653D02*
X179272971Y-137503082D01*
X179272971Y-137503082D02*
X179630114Y-137503082D01*
X179630114Y-137503082D02*
X179772971Y-137431653D01*
X179772971Y-137431653D02*
X179844400Y-137360225D01*
X179844400Y-137360225D02*
X179915828Y-137217367D01*
X179915828Y-137217367D02*
X179915828Y-136788796D01*
X179915828Y-136788796D02*
X179844400Y-136645939D01*
X179844400Y-136645939D02*
X179772971Y-136574510D01*
X179915828Y-138145938D02*
X178415828Y-138145938D01*
X178415828Y-138145938D02*
X178415828Y-138503081D01*
X178415828Y-138503081D02*
X178487257Y-138717367D01*
X178487257Y-138717367D02*
X178630114Y-138860224D01*
X178630114Y-138860224D02*
X178772971Y-138931653D01*
X178772971Y-138931653D02*
X179058685Y-139003081D01*
X179058685Y-139003081D02*
X179272971Y-139003081D01*
X179272971Y-139003081D02*
X179558685Y-138931653D01*
X179558685Y-138931653D02*
X179701542Y-138860224D01*
X179701542Y-138860224D02*
X179844400Y-138717367D01*
X179844400Y-138717367D02*
X179915828Y-138503081D01*
X179915828Y-138503081D02*
X179915828Y-138145938D01*
X179915828Y-139645938D02*
X178415828Y-139645938D01*
X178487257Y-141145939D02*
X178415828Y-141003082D01*
X178415828Y-141003082D02*
X178415828Y-140788796D01*
X178415828Y-140788796D02*
X178487257Y-140574510D01*
X178487257Y-140574510D02*
X178630114Y-140431653D01*
X178630114Y-140431653D02*
X178772971Y-140360224D01*
X178772971Y-140360224D02*
X179058685Y-140288796D01*
X179058685Y-140288796D02*
X179272971Y-140288796D01*
X179272971Y-140288796D02*
X179558685Y-140360224D01*
X179558685Y-140360224D02*
X179701542Y-140431653D01*
X179701542Y-140431653D02*
X179844400Y-140574510D01*
X179844400Y-140574510D02*
X179915828Y-140788796D01*
X179915828Y-140788796D02*
X179915828Y-140931653D01*
X179915828Y-140931653D02*
X179844400Y-141145939D01*
X179844400Y-141145939D02*
X179772971Y-141217367D01*
X179772971Y-141217367D02*
X179272971Y-141217367D01*
X179272971Y-141217367D02*
X179272971Y-140931653D01*
X179487257Y-142931653D02*
X179487257Y-143645939D01*
X179915828Y-142788796D02*
X178415828Y-143288796D01*
X178415828Y-143288796D02*
X179915828Y-143788796D01*
X179915828Y-144288795D02*
X178415828Y-144288795D01*
X178415828Y-144288795D02*
X178415828Y-144645938D01*
X178415828Y-144645938D02*
X178487257Y-144860224D01*
X178487257Y-144860224D02*
X178630114Y-145003081D01*
X178630114Y-145003081D02*
X178772971Y-145074510D01*
X178772971Y-145074510D02*
X179058685Y-145145938D01*
X179058685Y-145145938D02*
X179272971Y-145145938D01*
X179272971Y-145145938D02*
X179558685Y-145074510D01*
X179558685Y-145074510D02*
X179701542Y-145003081D01*
X179701542Y-145003081D02*
X179844400Y-144860224D01*
X179844400Y-144860224D02*
X179915828Y-144645938D01*
X179915828Y-144645938D02*
X179915828Y-144288795D01*
X179772971Y-146645938D02*
X179844400Y-146574510D01*
X179844400Y-146574510D02*
X179915828Y-146360224D01*
X179915828Y-146360224D02*
X179915828Y-146217367D01*
X179915828Y-146217367D02*
X179844400Y-146003081D01*
X179844400Y-146003081D02*
X179701542Y-145860224D01*
X179701542Y-145860224D02*
X179558685Y-145788795D01*
X179558685Y-145788795D02*
X179272971Y-145717367D01*
X179272971Y-145717367D02*
X179058685Y-145717367D01*
X179058685Y-145717367D02*
X178772971Y-145788795D01*
X178772971Y-145788795D02*
X178630114Y-145860224D01*
X178630114Y-145860224D02*
X178487257Y-146003081D01*
X178487257Y-146003081D02*
X178415828Y-146217367D01*
X178415828Y-146217367D02*
X178415828Y-146360224D01*
X178415828Y-146360224D02*
X178487257Y-146574510D01*
X178487257Y-146574510D02*
X178558685Y-146645938D01*
X180830828Y-133931653D02*
X182330828Y-134431653D01*
X182330828Y-134431653D02*
X180830828Y-134931653D01*
X182330828Y-136217367D02*
X182330828Y-135360224D01*
X182330828Y-135788795D02*
X180830828Y-135788795D01*
X180830828Y-135788795D02*
X181045114Y-135645938D01*
X181045114Y-135645938D02*
X181187971Y-135503081D01*
X181187971Y-135503081D02*
X181259400Y-135360224D01*
X182187971Y-136860223D02*
X182259400Y-136931652D01*
X182259400Y-136931652D02*
X182330828Y-136860223D01*
X182330828Y-136860223D02*
X182259400Y-136788795D01*
X182259400Y-136788795D02*
X182187971Y-136860223D01*
X182187971Y-136860223D02*
X182330828Y-136860223D01*
X180830828Y-137431652D02*
X180830828Y-138360224D01*
X180830828Y-138360224D02*
X181402257Y-137860224D01*
X181402257Y-137860224D02*
X181402257Y-138074509D01*
X181402257Y-138074509D02*
X181473685Y-138217367D01*
X181473685Y-138217367D02*
X181545114Y-138288795D01*
X181545114Y-138288795D02*
X181687971Y-138360224D01*
X181687971Y-138360224D02*
X182045114Y-138360224D01*
X182045114Y-138360224D02*
X182187971Y-138288795D01*
X182187971Y-138288795D02*
X182259400Y-138217367D01*
X182259400Y-138217367D02*
X182330828Y-138074509D01*
X182330828Y-138074509D02*
X182330828Y-137645938D01*
X182330828Y-137645938D02*
X182259400Y-137503081D01*
X182259400Y-137503081D02*
X182187971Y-137431652D01*
D10*
X103155124Y-123359819D02*
X103155124Y-122359819D01*
X103155124Y-122359819D02*
X102821791Y-123074104D01*
X102821791Y-123074104D02*
X102488458Y-122359819D01*
X102488458Y-122359819D02*
X102488458Y-123359819D01*
X101583696Y-122693152D02*
X101583696Y-123359819D01*
X101821791Y-122312200D02*
X102059886Y-123026485D01*
X102059886Y-123026485D02*
X101440839Y-123026485D01*
X184084819Y-111686666D02*
X184799104Y-111686666D01*
X184799104Y-111686666D02*
X184941961Y-111639047D01*
X184941961Y-111639047D02*
X185037200Y-111543809D01*
X185037200Y-111543809D02*
X185084819Y-111400952D01*
X185084819Y-111400952D02*
X185084819Y-111305714D01*
X184084819Y-112639047D02*
X184084819Y-112162857D01*
X184084819Y-112162857D02*
X184561009Y-112115238D01*
X184561009Y-112115238D02*
X184513390Y-112162857D01*
X184513390Y-112162857D02*
X184465771Y-112258095D01*
X184465771Y-112258095D02*
X184465771Y-112496190D01*
X184465771Y-112496190D02*
X184513390Y-112591428D01*
X184513390Y-112591428D02*
X184561009Y-112639047D01*
X184561009Y-112639047D02*
X184656247Y-112686666D01*
X184656247Y-112686666D02*
X184894342Y-112686666D01*
X184894342Y-112686666D02*
X184989580Y-112639047D01*
X184989580Y-112639047D02*
X185037200Y-112591428D01*
X185037200Y-112591428D02*
X185084819Y-112496190D01*
X185084819Y-112496190D02*
X185084819Y-112258095D01*
X185084819Y-112258095D02*
X185037200Y-112162857D01*
X185037200Y-112162857D02*
X184989580Y-112115238D01*
X159513333Y-101624819D02*
X159513333Y-102339104D01*
X159513333Y-102339104D02*
X159560952Y-102481961D01*
X159560952Y-102481961D02*
X159656190Y-102577200D01*
X159656190Y-102577200D02*
X159799047Y-102624819D01*
X159799047Y-102624819D02*
X159894285Y-102624819D01*
X159132380Y-101624819D02*
X158513333Y-101624819D01*
X158513333Y-101624819D02*
X158846666Y-102005771D01*
X158846666Y-102005771D02*
X158703809Y-102005771D01*
X158703809Y-102005771D02*
X158608571Y-102053390D01*
X158608571Y-102053390D02*
X158560952Y-102101009D01*
X158560952Y-102101009D02*
X158513333Y-102196247D01*
X158513333Y-102196247D02*
X158513333Y-102434342D01*
X158513333Y-102434342D02*
X158560952Y-102529580D01*
X158560952Y-102529580D02*
X158608571Y-102577200D01*
X158608571Y-102577200D02*
X158703809Y-102624819D01*
X158703809Y-102624819D02*
X158989523Y-102624819D01*
X158989523Y-102624819D02*
X159084761Y-102577200D01*
X159084761Y-102577200D02*
X159132380Y-102529580D01*
X150513333Y-101724819D02*
X150513333Y-102439104D01*
X150513333Y-102439104D02*
X150560952Y-102581961D01*
X150560952Y-102581961D02*
X150656190Y-102677200D01*
X150656190Y-102677200D02*
X150799047Y-102724819D01*
X150799047Y-102724819D02*
X150894285Y-102724819D01*
X150084761Y-101820057D02*
X150037142Y-101772438D01*
X150037142Y-101772438D02*
X149941904Y-101724819D01*
X149941904Y-101724819D02*
X149703809Y-101724819D01*
X149703809Y-101724819D02*
X149608571Y-101772438D01*
X149608571Y-101772438D02*
X149560952Y-101820057D01*
X149560952Y-101820057D02*
X149513333Y-101915295D01*
X149513333Y-101915295D02*
X149513333Y-102010533D01*
X149513333Y-102010533D02*
X149560952Y-102153390D01*
X149560952Y-102153390D02*
X150132380Y-102724819D01*
X150132380Y-102724819D02*
X149513333Y-102724819D01*
X152713333Y-120624819D02*
X152713333Y-121339104D01*
X152713333Y-121339104D02*
X152760952Y-121481961D01*
X152760952Y-121481961D02*
X152856190Y-121577200D01*
X152856190Y-121577200D02*
X152999047Y-121624819D01*
X152999047Y-121624819D02*
X153094285Y-121624819D01*
X151808571Y-120958152D02*
X151808571Y-121624819D01*
X152046666Y-120577200D02*
X152284761Y-121291485D01*
X152284761Y-121291485D02*
X151665714Y-121291485D01*
X112146666Y-131874819D02*
X112479999Y-131398628D01*
X112718094Y-131874819D02*
X112718094Y-130874819D01*
X112718094Y-130874819D02*
X112337142Y-130874819D01*
X112337142Y-130874819D02*
X112241904Y-130922438D01*
X112241904Y-130922438D02*
X112194285Y-130970057D01*
X112194285Y-130970057D02*
X112146666Y-131065295D01*
X112146666Y-131065295D02*
X112146666Y-131208152D01*
X112146666Y-131208152D02*
X112194285Y-131303390D01*
X112194285Y-131303390D02*
X112241904Y-131351009D01*
X112241904Y-131351009D02*
X112337142Y-131398628D01*
X112337142Y-131398628D02*
X112718094Y-131398628D01*
X111289523Y-131208152D02*
X111289523Y-131874819D01*
X111527618Y-130827200D02*
X111765713Y-131541485D01*
X111765713Y-131541485D02*
X111146666Y-131541485D01*
X147646666Y-147894819D02*
X147979999Y-147418628D01*
X148218094Y-147894819D02*
X148218094Y-146894819D01*
X148218094Y-146894819D02*
X147837142Y-146894819D01*
X147837142Y-146894819D02*
X147741904Y-146942438D01*
X147741904Y-146942438D02*
X147694285Y-146990057D01*
X147694285Y-146990057D02*
X147646666Y-147085295D01*
X147646666Y-147085295D02*
X147646666Y-147228152D01*
X147646666Y-147228152D02*
X147694285Y-147323390D01*
X147694285Y-147323390D02*
X147741904Y-147371009D01*
X147741904Y-147371009D02*
X147837142Y-147418628D01*
X147837142Y-147418628D02*
X148218094Y-147418628D01*
X147313332Y-146894819D02*
X146694285Y-146894819D01*
X146694285Y-146894819D02*
X147027618Y-147275771D01*
X147027618Y-147275771D02*
X146884761Y-147275771D01*
X146884761Y-147275771D02*
X146789523Y-147323390D01*
X146789523Y-147323390D02*
X146741904Y-147371009D01*
X146741904Y-147371009D02*
X146694285Y-147466247D01*
X146694285Y-147466247D02*
X146694285Y-147704342D01*
X146694285Y-147704342D02*
X146741904Y-147799580D01*
X146741904Y-147799580D02*
X146789523Y-147847200D01*
X146789523Y-147847200D02*
X146884761Y-147894819D01*
X146884761Y-147894819D02*
X147170475Y-147894819D01*
X147170475Y-147894819D02*
X147265713Y-147847200D01*
X147265713Y-147847200D02*
X147313332Y-147799580D01*
X152891904Y-117674819D02*
X152891904Y-118484342D01*
X152891904Y-118484342D02*
X152844285Y-118579580D01*
X152844285Y-118579580D02*
X152796666Y-118627200D01*
X152796666Y-118627200D02*
X152701428Y-118674819D01*
X152701428Y-118674819D02*
X152510952Y-118674819D01*
X152510952Y-118674819D02*
X152415714Y-118627200D01*
X152415714Y-118627200D02*
X152368095Y-118579580D01*
X152368095Y-118579580D02*
X152320476Y-118484342D01*
X152320476Y-118484342D02*
X152320476Y-117674819D01*
X151415714Y-117674819D02*
X151606190Y-117674819D01*
X151606190Y-117674819D02*
X151701428Y-117722438D01*
X151701428Y-117722438D02*
X151749047Y-117770057D01*
X151749047Y-117770057D02*
X151844285Y-117912914D01*
X151844285Y-117912914D02*
X151891904Y-118103390D01*
X151891904Y-118103390D02*
X151891904Y-118484342D01*
X151891904Y-118484342D02*
X151844285Y-118579580D01*
X151844285Y-118579580D02*
X151796666Y-118627200D01*
X151796666Y-118627200D02*
X151701428Y-118674819D01*
X151701428Y-118674819D02*
X151510952Y-118674819D01*
X151510952Y-118674819D02*
X151415714Y-118627200D01*
X151415714Y-118627200D02*
X151368095Y-118579580D01*
X151368095Y-118579580D02*
X151320476Y-118484342D01*
X151320476Y-118484342D02*
X151320476Y-118246247D01*
X151320476Y-118246247D02*
X151368095Y-118151009D01*
X151368095Y-118151009D02*
X151415714Y-118103390D01*
X151415714Y-118103390D02*
X151510952Y-118055771D01*
X151510952Y-118055771D02*
X151701428Y-118055771D01*
X151701428Y-118055771D02*
X151796666Y-118103390D01*
X151796666Y-118103390D02*
X151844285Y-118151009D01*
X151844285Y-118151009D02*
X151891904Y-118246247D01*
X147646666Y-136044819D02*
X147979999Y-135568628D01*
X148218094Y-136044819D02*
X148218094Y-135044819D01*
X148218094Y-135044819D02*
X147837142Y-135044819D01*
X147837142Y-135044819D02*
X147741904Y-135092438D01*
X147741904Y-135092438D02*
X147694285Y-135140057D01*
X147694285Y-135140057D02*
X147646666Y-135235295D01*
X147646666Y-135235295D02*
X147646666Y-135378152D01*
X147646666Y-135378152D02*
X147694285Y-135473390D01*
X147694285Y-135473390D02*
X147741904Y-135521009D01*
X147741904Y-135521009D02*
X147837142Y-135568628D01*
X147837142Y-135568628D02*
X148218094Y-135568628D01*
X147170475Y-136044819D02*
X146979999Y-136044819D01*
X146979999Y-136044819D02*
X146884761Y-135997200D01*
X146884761Y-135997200D02*
X146837142Y-135949580D01*
X146837142Y-135949580D02*
X146741904Y-135806723D01*
X146741904Y-135806723D02*
X146694285Y-135616247D01*
X146694285Y-135616247D02*
X146694285Y-135235295D01*
X146694285Y-135235295D02*
X146741904Y-135140057D01*
X146741904Y-135140057D02*
X146789523Y-135092438D01*
X146789523Y-135092438D02*
X146884761Y-135044819D01*
X146884761Y-135044819D02*
X147075237Y-135044819D01*
X147075237Y-135044819D02*
X147170475Y-135092438D01*
X147170475Y-135092438D02*
X147218094Y-135140057D01*
X147218094Y-135140057D02*
X147265713Y-135235295D01*
X147265713Y-135235295D02*
X147265713Y-135473390D01*
X147265713Y-135473390D02*
X147218094Y-135568628D01*
X147218094Y-135568628D02*
X147170475Y-135616247D01*
X147170475Y-135616247D02*
X147075237Y-135663866D01*
X147075237Y-135663866D02*
X146884761Y-135663866D01*
X146884761Y-135663866D02*
X146789523Y-135616247D01*
X146789523Y-135616247D02*
X146741904Y-135568628D01*
X146741904Y-135568628D02*
X146694285Y-135473390D01*
X148072857Y-130094819D02*
X148406190Y-129618628D01*
X148644285Y-130094819D02*
X148644285Y-129094819D01*
X148644285Y-129094819D02*
X148263333Y-129094819D01*
X148263333Y-129094819D02*
X148168095Y-129142438D01*
X148168095Y-129142438D02*
X148120476Y-129190057D01*
X148120476Y-129190057D02*
X148072857Y-129285295D01*
X148072857Y-129285295D02*
X148072857Y-129428152D01*
X148072857Y-129428152D02*
X148120476Y-129523390D01*
X148120476Y-129523390D02*
X148168095Y-129571009D01*
X148168095Y-129571009D02*
X148263333Y-129618628D01*
X148263333Y-129618628D02*
X148644285Y-129618628D01*
X147120476Y-130094819D02*
X147691904Y-130094819D01*
X147406190Y-130094819D02*
X147406190Y-129094819D01*
X147406190Y-129094819D02*
X147501428Y-129237676D01*
X147501428Y-129237676D02*
X147596666Y-129332914D01*
X147596666Y-129332914D02*
X147691904Y-129380533D01*
X146263333Y-129428152D02*
X146263333Y-130094819D01*
X146501428Y-129047200D02*
X146739523Y-129761485D01*
X146739523Y-129761485D02*
X146120476Y-129761485D01*
X116746666Y-128674819D02*
X117079999Y-128198628D01*
X117318094Y-128674819D02*
X117318094Y-127674819D01*
X117318094Y-127674819D02*
X116937142Y-127674819D01*
X116937142Y-127674819D02*
X116841904Y-127722438D01*
X116841904Y-127722438D02*
X116794285Y-127770057D01*
X116794285Y-127770057D02*
X116746666Y-127865295D01*
X116746666Y-127865295D02*
X116746666Y-128008152D01*
X116746666Y-128008152D02*
X116794285Y-128103390D01*
X116794285Y-128103390D02*
X116841904Y-128151009D01*
X116841904Y-128151009D02*
X116937142Y-128198628D01*
X116937142Y-128198628D02*
X117318094Y-128198628D01*
X116175237Y-128103390D02*
X116270475Y-128055771D01*
X116270475Y-128055771D02*
X116318094Y-128008152D01*
X116318094Y-128008152D02*
X116365713Y-127912914D01*
X116365713Y-127912914D02*
X116365713Y-127865295D01*
X116365713Y-127865295D02*
X116318094Y-127770057D01*
X116318094Y-127770057D02*
X116270475Y-127722438D01*
X116270475Y-127722438D02*
X116175237Y-127674819D01*
X116175237Y-127674819D02*
X115984761Y-127674819D01*
X115984761Y-127674819D02*
X115889523Y-127722438D01*
X115889523Y-127722438D02*
X115841904Y-127770057D01*
X115841904Y-127770057D02*
X115794285Y-127865295D01*
X115794285Y-127865295D02*
X115794285Y-127912914D01*
X115794285Y-127912914D02*
X115841904Y-128008152D01*
X115841904Y-128008152D02*
X115889523Y-128055771D01*
X115889523Y-128055771D02*
X115984761Y-128103390D01*
X115984761Y-128103390D02*
X116175237Y-128103390D01*
X116175237Y-128103390D02*
X116270475Y-128151009D01*
X116270475Y-128151009D02*
X116318094Y-128198628D01*
X116318094Y-128198628D02*
X116365713Y-128293866D01*
X116365713Y-128293866D02*
X116365713Y-128484342D01*
X116365713Y-128484342D02*
X116318094Y-128579580D01*
X116318094Y-128579580D02*
X116270475Y-128627200D01*
X116270475Y-128627200D02*
X116175237Y-128674819D01*
X116175237Y-128674819D02*
X115984761Y-128674819D01*
X115984761Y-128674819D02*
X115889523Y-128627200D01*
X115889523Y-128627200D02*
X115841904Y-128579580D01*
X115841904Y-128579580D02*
X115794285Y-128484342D01*
X115794285Y-128484342D02*
X115794285Y-128293866D01*
X115794285Y-128293866D02*
X115841904Y-128198628D01*
X115841904Y-128198628D02*
X115889523Y-128151009D01*
X115889523Y-128151009D02*
X115984761Y-128103390D01*
X158922857Y-115824819D02*
X159256190Y-115348628D01*
X159494285Y-115824819D02*
X159494285Y-114824819D01*
X159494285Y-114824819D02*
X159113333Y-114824819D01*
X159113333Y-114824819D02*
X159018095Y-114872438D01*
X159018095Y-114872438D02*
X158970476Y-114920057D01*
X158970476Y-114920057D02*
X158922857Y-115015295D01*
X158922857Y-115015295D02*
X158922857Y-115158152D01*
X158922857Y-115158152D02*
X158970476Y-115253390D01*
X158970476Y-115253390D02*
X159018095Y-115301009D01*
X159018095Y-115301009D02*
X159113333Y-115348628D01*
X159113333Y-115348628D02*
X159494285Y-115348628D01*
X157970476Y-115824819D02*
X158541904Y-115824819D01*
X158256190Y-115824819D02*
X158256190Y-114824819D01*
X158256190Y-114824819D02*
X158351428Y-114967676D01*
X158351428Y-114967676D02*
X158446666Y-115062914D01*
X158446666Y-115062914D02*
X158541904Y-115110533D01*
X157065714Y-114824819D02*
X157541904Y-114824819D01*
X157541904Y-114824819D02*
X157589523Y-115301009D01*
X157589523Y-115301009D02*
X157541904Y-115253390D01*
X157541904Y-115253390D02*
X157446666Y-115205771D01*
X157446666Y-115205771D02*
X157208571Y-115205771D01*
X157208571Y-115205771D02*
X157113333Y-115253390D01*
X157113333Y-115253390D02*
X157065714Y-115301009D01*
X157065714Y-115301009D02*
X157018095Y-115396247D01*
X157018095Y-115396247D02*
X157018095Y-115634342D01*
X157018095Y-115634342D02*
X157065714Y-115729580D01*
X157065714Y-115729580D02*
X157113333Y-115777200D01*
X157113333Y-115777200D02*
X157208571Y-115824819D01*
X157208571Y-115824819D02*
X157446666Y-115824819D01*
X157446666Y-115824819D02*
X157541904Y-115777200D01*
X157541904Y-115777200D02*
X157589523Y-115729580D01*
X158972857Y-111174819D02*
X159306190Y-110698628D01*
X159544285Y-111174819D02*
X159544285Y-110174819D01*
X159544285Y-110174819D02*
X159163333Y-110174819D01*
X159163333Y-110174819D02*
X159068095Y-110222438D01*
X159068095Y-110222438D02*
X159020476Y-110270057D01*
X159020476Y-110270057D02*
X158972857Y-110365295D01*
X158972857Y-110365295D02*
X158972857Y-110508152D01*
X158972857Y-110508152D02*
X159020476Y-110603390D01*
X159020476Y-110603390D02*
X159068095Y-110651009D01*
X159068095Y-110651009D02*
X159163333Y-110698628D01*
X159163333Y-110698628D02*
X159544285Y-110698628D01*
X158020476Y-111174819D02*
X158591904Y-111174819D01*
X158306190Y-111174819D02*
X158306190Y-110174819D01*
X158306190Y-110174819D02*
X158401428Y-110317676D01*
X158401428Y-110317676D02*
X158496666Y-110412914D01*
X158496666Y-110412914D02*
X158591904Y-110460533D01*
X157687142Y-110174819D02*
X157020476Y-110174819D01*
X157020476Y-110174819D02*
X157449047Y-111174819D01*
X130741904Y-129224819D02*
X130741904Y-130034342D01*
X130741904Y-130034342D02*
X130694285Y-130129580D01*
X130694285Y-130129580D02*
X130646666Y-130177200D01*
X130646666Y-130177200D02*
X130551428Y-130224819D01*
X130551428Y-130224819D02*
X130360952Y-130224819D01*
X130360952Y-130224819D02*
X130265714Y-130177200D01*
X130265714Y-130177200D02*
X130218095Y-130129580D01*
X130218095Y-130129580D02*
X130170476Y-130034342D01*
X130170476Y-130034342D02*
X130170476Y-129224819D01*
X129265714Y-129558152D02*
X129265714Y-130224819D01*
X129503809Y-129177200D02*
X129741904Y-129891485D01*
X129741904Y-129891485D02*
X129122857Y-129891485D01*
X116896666Y-133774819D02*
X117229999Y-133298628D01*
X117468094Y-133774819D02*
X117468094Y-132774819D01*
X117468094Y-132774819D02*
X117087142Y-132774819D01*
X117087142Y-132774819D02*
X116991904Y-132822438D01*
X116991904Y-132822438D02*
X116944285Y-132870057D01*
X116944285Y-132870057D02*
X116896666Y-132965295D01*
X116896666Y-132965295D02*
X116896666Y-133108152D01*
X116896666Y-133108152D02*
X116944285Y-133203390D01*
X116944285Y-133203390D02*
X116991904Y-133251009D01*
X116991904Y-133251009D02*
X117087142Y-133298628D01*
X117087142Y-133298628D02*
X117468094Y-133298628D01*
X115991904Y-132774819D02*
X116468094Y-132774819D01*
X116468094Y-132774819D02*
X116515713Y-133251009D01*
X116515713Y-133251009D02*
X116468094Y-133203390D01*
X116468094Y-133203390D02*
X116372856Y-133155771D01*
X116372856Y-133155771D02*
X116134761Y-133155771D01*
X116134761Y-133155771D02*
X116039523Y-133203390D01*
X116039523Y-133203390D02*
X115991904Y-133251009D01*
X115991904Y-133251009D02*
X115944285Y-133346247D01*
X115944285Y-133346247D02*
X115944285Y-133584342D01*
X115944285Y-133584342D02*
X115991904Y-133679580D01*
X115991904Y-133679580D02*
X116039523Y-133727200D01*
X116039523Y-133727200D02*
X116134761Y-133774819D01*
X116134761Y-133774819D02*
X116372856Y-133774819D01*
X116372856Y-133774819D02*
X116468094Y-133727200D01*
X116468094Y-133727200D02*
X116515713Y-133679580D01*
X130418094Y-126724819D02*
X130418094Y-125724819D01*
X130418094Y-125724819D02*
X130179999Y-125724819D01*
X130179999Y-125724819D02*
X130037142Y-125772438D01*
X130037142Y-125772438D02*
X129941904Y-125867676D01*
X129941904Y-125867676D02*
X129894285Y-125962914D01*
X129894285Y-125962914D02*
X129846666Y-126153390D01*
X129846666Y-126153390D02*
X129846666Y-126296247D01*
X129846666Y-126296247D02*
X129894285Y-126486723D01*
X129894285Y-126486723D02*
X129941904Y-126581961D01*
X129941904Y-126581961D02*
X130037142Y-126677200D01*
X130037142Y-126677200D02*
X130179999Y-126724819D01*
X130179999Y-126724819D02*
X130418094Y-126724819D01*
X129513332Y-125724819D02*
X128894285Y-125724819D01*
X128894285Y-125724819D02*
X129227618Y-126105771D01*
X129227618Y-126105771D02*
X129084761Y-126105771D01*
X129084761Y-126105771D02*
X128989523Y-126153390D01*
X128989523Y-126153390D02*
X128941904Y-126201009D01*
X128941904Y-126201009D02*
X128894285Y-126296247D01*
X128894285Y-126296247D02*
X128894285Y-126534342D01*
X128894285Y-126534342D02*
X128941904Y-126629580D01*
X128941904Y-126629580D02*
X128989523Y-126677200D01*
X128989523Y-126677200D02*
X129084761Y-126724819D01*
X129084761Y-126724819D02*
X129370475Y-126724819D01*
X129370475Y-126724819D02*
X129465713Y-126677200D01*
X129465713Y-126677200D02*
X129513332Y-126629580D01*
X125668094Y-149524819D02*
X125668094Y-148524819D01*
X125668094Y-148524819D02*
X125429999Y-148524819D01*
X125429999Y-148524819D02*
X125287142Y-148572438D01*
X125287142Y-148572438D02*
X125191904Y-148667676D01*
X125191904Y-148667676D02*
X125144285Y-148762914D01*
X125144285Y-148762914D02*
X125096666Y-148953390D01*
X125096666Y-148953390D02*
X125096666Y-149096247D01*
X125096666Y-149096247D02*
X125144285Y-149286723D01*
X125144285Y-149286723D02*
X125191904Y-149381961D01*
X125191904Y-149381961D02*
X125287142Y-149477200D01*
X125287142Y-149477200D02*
X125429999Y-149524819D01*
X125429999Y-149524819D02*
X125668094Y-149524819D01*
X124144285Y-149524819D02*
X124715713Y-149524819D01*
X124429999Y-149524819D02*
X124429999Y-148524819D01*
X124429999Y-148524819D02*
X124525237Y-148667676D01*
X124525237Y-148667676D02*
X124620475Y-148762914D01*
X124620475Y-148762914D02*
X124715713Y-148810533D01*
X127668094Y-134624819D02*
X127668094Y-133624819D01*
X127668094Y-133624819D02*
X127429999Y-133624819D01*
X127429999Y-133624819D02*
X127287142Y-133672438D01*
X127287142Y-133672438D02*
X127191904Y-133767676D01*
X127191904Y-133767676D02*
X127144285Y-133862914D01*
X127144285Y-133862914D02*
X127096666Y-134053390D01*
X127096666Y-134053390D02*
X127096666Y-134196247D01*
X127096666Y-134196247D02*
X127144285Y-134386723D01*
X127144285Y-134386723D02*
X127191904Y-134481961D01*
X127191904Y-134481961D02*
X127287142Y-134577200D01*
X127287142Y-134577200D02*
X127429999Y-134624819D01*
X127429999Y-134624819D02*
X127668094Y-134624819D01*
X126715713Y-133720057D02*
X126668094Y-133672438D01*
X126668094Y-133672438D02*
X126572856Y-133624819D01*
X126572856Y-133624819D02*
X126334761Y-133624819D01*
X126334761Y-133624819D02*
X126239523Y-133672438D01*
X126239523Y-133672438D02*
X126191904Y-133720057D01*
X126191904Y-133720057D02*
X126144285Y-133815295D01*
X126144285Y-133815295D02*
X126144285Y-133910533D01*
X126144285Y-133910533D02*
X126191904Y-134053390D01*
X126191904Y-134053390D02*
X126763332Y-134624819D01*
X126763332Y-134624819D02*
X126144285Y-134624819D01*
X130441904Y-135274819D02*
X130441904Y-136084342D01*
X130441904Y-136084342D02*
X130394285Y-136179580D01*
X130394285Y-136179580D02*
X130346666Y-136227200D01*
X130346666Y-136227200D02*
X130251428Y-136274819D01*
X130251428Y-136274819D02*
X130060952Y-136274819D01*
X130060952Y-136274819D02*
X129965714Y-136227200D01*
X129965714Y-136227200D02*
X129918095Y-136179580D01*
X129918095Y-136179580D02*
X129870476Y-136084342D01*
X129870476Y-136084342D02*
X129870476Y-135274819D01*
X129489523Y-135274819D02*
X128870476Y-135274819D01*
X128870476Y-135274819D02*
X129203809Y-135655771D01*
X129203809Y-135655771D02*
X129060952Y-135655771D01*
X129060952Y-135655771D02*
X128965714Y-135703390D01*
X128965714Y-135703390D02*
X128918095Y-135751009D01*
X128918095Y-135751009D02*
X128870476Y-135846247D01*
X128870476Y-135846247D02*
X128870476Y-136084342D01*
X128870476Y-136084342D02*
X128918095Y-136179580D01*
X128918095Y-136179580D02*
X128965714Y-136227200D01*
X128965714Y-136227200D02*
X129060952Y-136274819D01*
X129060952Y-136274819D02*
X129346666Y-136274819D01*
X129346666Y-136274819D02*
X129441904Y-136227200D01*
X129441904Y-136227200D02*
X129489523Y-136179580D01*
X183339580Y-121340833D02*
X183387200Y-121293214D01*
X183387200Y-121293214D02*
X183434819Y-121150357D01*
X183434819Y-121150357D02*
X183434819Y-121055119D01*
X183434819Y-121055119D02*
X183387200Y-120912262D01*
X183387200Y-120912262D02*
X183291961Y-120817024D01*
X183291961Y-120817024D02*
X183196723Y-120769405D01*
X183196723Y-120769405D02*
X183006247Y-120721786D01*
X183006247Y-120721786D02*
X182863390Y-120721786D01*
X182863390Y-120721786D02*
X182672914Y-120769405D01*
X182672914Y-120769405D02*
X182577676Y-120817024D01*
X182577676Y-120817024D02*
X182482438Y-120912262D01*
X182482438Y-120912262D02*
X182434819Y-121055119D01*
X182434819Y-121055119D02*
X182434819Y-121150357D01*
X182434819Y-121150357D02*
X182482438Y-121293214D01*
X182482438Y-121293214D02*
X182530057Y-121340833D01*
X183434819Y-122293214D02*
X183434819Y-121721786D01*
X183434819Y-122007500D02*
X182434819Y-122007500D01*
X182434819Y-122007500D02*
X182577676Y-121912262D01*
X182577676Y-121912262D02*
X182672914Y-121817024D01*
X182672914Y-121817024D02*
X182720533Y-121721786D01*
X130391904Y-141024819D02*
X130391904Y-141834342D01*
X130391904Y-141834342D02*
X130344285Y-141929580D01*
X130344285Y-141929580D02*
X130296666Y-141977200D01*
X130296666Y-141977200D02*
X130201428Y-142024819D01*
X130201428Y-142024819D02*
X130010952Y-142024819D01*
X130010952Y-142024819D02*
X129915714Y-141977200D01*
X129915714Y-141977200D02*
X129868095Y-141929580D01*
X129868095Y-141929580D02*
X129820476Y-141834342D01*
X129820476Y-141834342D02*
X129820476Y-141024819D01*
X129391904Y-141120057D02*
X129344285Y-141072438D01*
X129344285Y-141072438D02*
X129249047Y-141024819D01*
X129249047Y-141024819D02*
X129010952Y-141024819D01*
X129010952Y-141024819D02*
X128915714Y-141072438D01*
X128915714Y-141072438D02*
X128868095Y-141120057D01*
X128868095Y-141120057D02*
X128820476Y-141215295D01*
X128820476Y-141215295D02*
X128820476Y-141310533D01*
X128820476Y-141310533D02*
X128868095Y-141453390D01*
X128868095Y-141453390D02*
X129439523Y-142024819D01*
X129439523Y-142024819D02*
X128820476Y-142024819D01*
X130541904Y-147174819D02*
X130541904Y-147984342D01*
X130541904Y-147984342D02*
X130494285Y-148079580D01*
X130494285Y-148079580D02*
X130446666Y-148127200D01*
X130446666Y-148127200D02*
X130351428Y-148174819D01*
X130351428Y-148174819D02*
X130160952Y-148174819D01*
X130160952Y-148174819D02*
X130065714Y-148127200D01*
X130065714Y-148127200D02*
X130018095Y-148079580D01*
X130018095Y-148079580D02*
X129970476Y-147984342D01*
X129970476Y-147984342D02*
X129970476Y-147174819D01*
X128970476Y-148174819D02*
X129541904Y-148174819D01*
X129256190Y-148174819D02*
X129256190Y-147174819D01*
X129256190Y-147174819D02*
X129351428Y-147317676D01*
X129351428Y-147317676D02*
X129446666Y-147412914D01*
X129446666Y-147412914D02*
X129541904Y-147460533D01*
X178042857Y-117704819D02*
X178376190Y-117228628D01*
X178614285Y-117704819D02*
X178614285Y-116704819D01*
X178614285Y-116704819D02*
X178233333Y-116704819D01*
X178233333Y-116704819D02*
X178138095Y-116752438D01*
X178138095Y-116752438D02*
X178090476Y-116800057D01*
X178090476Y-116800057D02*
X178042857Y-116895295D01*
X178042857Y-116895295D02*
X178042857Y-117038152D01*
X178042857Y-117038152D02*
X178090476Y-117133390D01*
X178090476Y-117133390D02*
X178138095Y-117181009D01*
X178138095Y-117181009D02*
X178233333Y-117228628D01*
X178233333Y-117228628D02*
X178614285Y-117228628D01*
X177090476Y-117704819D02*
X177661904Y-117704819D01*
X177376190Y-117704819D02*
X177376190Y-116704819D01*
X177376190Y-116704819D02*
X177471428Y-116847676D01*
X177471428Y-116847676D02*
X177566666Y-116942914D01*
X177566666Y-116942914D02*
X177661904Y-116990533D01*
X176614285Y-117704819D02*
X176423809Y-117704819D01*
X176423809Y-117704819D02*
X176328571Y-117657200D01*
X176328571Y-117657200D02*
X176280952Y-117609580D01*
X176280952Y-117609580D02*
X176185714Y-117466723D01*
X176185714Y-117466723D02*
X176138095Y-117276247D01*
X176138095Y-117276247D02*
X176138095Y-116895295D01*
X176138095Y-116895295D02*
X176185714Y-116800057D01*
X176185714Y-116800057D02*
X176233333Y-116752438D01*
X176233333Y-116752438D02*
X176328571Y-116704819D01*
X176328571Y-116704819D02*
X176519047Y-116704819D01*
X176519047Y-116704819D02*
X176614285Y-116752438D01*
X176614285Y-116752438D02*
X176661904Y-116800057D01*
X176661904Y-116800057D02*
X176709523Y-116895295D01*
X176709523Y-116895295D02*
X176709523Y-117133390D01*
X176709523Y-117133390D02*
X176661904Y-117228628D01*
X176661904Y-117228628D02*
X176614285Y-117276247D01*
X176614285Y-117276247D02*
X176519047Y-117323866D01*
X176519047Y-117323866D02*
X176328571Y-117323866D01*
X176328571Y-117323866D02*
X176233333Y-117276247D01*
X176233333Y-117276247D02*
X176185714Y-117228628D01*
X176185714Y-117228628D02*
X176138095Y-117133390D01*
X164689580Y-126815833D02*
X164737200Y-126768214D01*
X164737200Y-126768214D02*
X164784819Y-126625357D01*
X164784819Y-126625357D02*
X164784819Y-126530119D01*
X164784819Y-126530119D02*
X164737200Y-126387262D01*
X164737200Y-126387262D02*
X164641961Y-126292024D01*
X164641961Y-126292024D02*
X164546723Y-126244405D01*
X164546723Y-126244405D02*
X164356247Y-126196786D01*
X164356247Y-126196786D02*
X164213390Y-126196786D01*
X164213390Y-126196786D02*
X164022914Y-126244405D01*
X164022914Y-126244405D02*
X163927676Y-126292024D01*
X163927676Y-126292024D02*
X163832438Y-126387262D01*
X163832438Y-126387262D02*
X163784819Y-126530119D01*
X163784819Y-126530119D02*
X163784819Y-126625357D01*
X163784819Y-126625357D02*
X163832438Y-126768214D01*
X163832438Y-126768214D02*
X163880057Y-126815833D01*
X163880057Y-127196786D02*
X163832438Y-127244405D01*
X163832438Y-127244405D02*
X163784819Y-127339643D01*
X163784819Y-127339643D02*
X163784819Y-127577738D01*
X163784819Y-127577738D02*
X163832438Y-127672976D01*
X163832438Y-127672976D02*
X163880057Y-127720595D01*
X163880057Y-127720595D02*
X163975295Y-127768214D01*
X163975295Y-127768214D02*
X164070533Y-127768214D01*
X164070533Y-127768214D02*
X164213390Y-127720595D01*
X164213390Y-127720595D02*
X164784819Y-127149167D01*
X164784819Y-127149167D02*
X164784819Y-127768214D01*
X112346666Y-127124819D02*
X112679999Y-126648628D01*
X112918094Y-127124819D02*
X112918094Y-126124819D01*
X112918094Y-126124819D02*
X112537142Y-126124819D01*
X112537142Y-126124819D02*
X112441904Y-126172438D01*
X112441904Y-126172438D02*
X112394285Y-126220057D01*
X112394285Y-126220057D02*
X112346666Y-126315295D01*
X112346666Y-126315295D02*
X112346666Y-126458152D01*
X112346666Y-126458152D02*
X112394285Y-126553390D01*
X112394285Y-126553390D02*
X112441904Y-126601009D01*
X112441904Y-126601009D02*
X112537142Y-126648628D01*
X112537142Y-126648628D02*
X112918094Y-126648628D01*
X112013332Y-126124819D02*
X111346666Y-126124819D01*
X111346666Y-126124819D02*
X111775237Y-127124819D01*
X147646666Y-141844819D02*
X147979999Y-141368628D01*
X148218094Y-141844819D02*
X148218094Y-140844819D01*
X148218094Y-140844819D02*
X147837142Y-140844819D01*
X147837142Y-140844819D02*
X147741904Y-140892438D01*
X147741904Y-140892438D02*
X147694285Y-140940057D01*
X147694285Y-140940057D02*
X147646666Y-141035295D01*
X147646666Y-141035295D02*
X147646666Y-141178152D01*
X147646666Y-141178152D02*
X147694285Y-141273390D01*
X147694285Y-141273390D02*
X147741904Y-141321009D01*
X147741904Y-141321009D02*
X147837142Y-141368628D01*
X147837142Y-141368628D02*
X148218094Y-141368628D01*
X146789523Y-140844819D02*
X146979999Y-140844819D01*
X146979999Y-140844819D02*
X147075237Y-140892438D01*
X147075237Y-140892438D02*
X147122856Y-140940057D01*
X147122856Y-140940057D02*
X147218094Y-141082914D01*
X147218094Y-141082914D02*
X147265713Y-141273390D01*
X147265713Y-141273390D02*
X147265713Y-141654342D01*
X147265713Y-141654342D02*
X147218094Y-141749580D01*
X147218094Y-141749580D02*
X147170475Y-141797200D01*
X147170475Y-141797200D02*
X147075237Y-141844819D01*
X147075237Y-141844819D02*
X146884761Y-141844819D01*
X146884761Y-141844819D02*
X146789523Y-141797200D01*
X146789523Y-141797200D02*
X146741904Y-141749580D01*
X146741904Y-141749580D02*
X146694285Y-141654342D01*
X146694285Y-141654342D02*
X146694285Y-141416247D01*
X146694285Y-141416247D02*
X146741904Y-141321009D01*
X146741904Y-141321009D02*
X146789523Y-141273390D01*
X146789523Y-141273390D02*
X146884761Y-141225771D01*
X146884761Y-141225771D02*
X147075237Y-141225771D01*
X147075237Y-141225771D02*
X147170475Y-141273390D01*
X147170475Y-141273390D02*
X147218094Y-141321009D01*
X147218094Y-141321009D02*
X147265713Y-141416247D01*
X115396666Y-143824819D02*
X115729999Y-143348628D01*
X115968094Y-143824819D02*
X115968094Y-142824819D01*
X115968094Y-142824819D02*
X115587142Y-142824819D01*
X115587142Y-142824819D02*
X115491904Y-142872438D01*
X115491904Y-142872438D02*
X115444285Y-142920057D01*
X115444285Y-142920057D02*
X115396666Y-143015295D01*
X115396666Y-143015295D02*
X115396666Y-143158152D01*
X115396666Y-143158152D02*
X115444285Y-143253390D01*
X115444285Y-143253390D02*
X115491904Y-143301009D01*
X115491904Y-143301009D02*
X115587142Y-143348628D01*
X115587142Y-143348628D02*
X115968094Y-143348628D01*
X115015713Y-142920057D02*
X114968094Y-142872438D01*
X114968094Y-142872438D02*
X114872856Y-142824819D01*
X114872856Y-142824819D02*
X114634761Y-142824819D01*
X114634761Y-142824819D02*
X114539523Y-142872438D01*
X114539523Y-142872438D02*
X114491904Y-142920057D01*
X114491904Y-142920057D02*
X114444285Y-143015295D01*
X114444285Y-143015295D02*
X114444285Y-143110533D01*
X114444285Y-143110533D02*
X114491904Y-143253390D01*
X114491904Y-143253390D02*
X115063332Y-143824819D01*
X115063332Y-143824819D02*
X114444285Y-143824819D01*
X158872857Y-109024819D02*
X159206190Y-108548628D01*
X159444285Y-109024819D02*
X159444285Y-108024819D01*
X159444285Y-108024819D02*
X159063333Y-108024819D01*
X159063333Y-108024819D02*
X158968095Y-108072438D01*
X158968095Y-108072438D02*
X158920476Y-108120057D01*
X158920476Y-108120057D02*
X158872857Y-108215295D01*
X158872857Y-108215295D02*
X158872857Y-108358152D01*
X158872857Y-108358152D02*
X158920476Y-108453390D01*
X158920476Y-108453390D02*
X158968095Y-108501009D01*
X158968095Y-108501009D02*
X159063333Y-108548628D01*
X159063333Y-108548628D02*
X159444285Y-108548628D01*
X157920476Y-109024819D02*
X158491904Y-109024819D01*
X158206190Y-109024819D02*
X158206190Y-108024819D01*
X158206190Y-108024819D02*
X158301428Y-108167676D01*
X158301428Y-108167676D02*
X158396666Y-108262914D01*
X158396666Y-108262914D02*
X158491904Y-108310533D01*
X157349047Y-108453390D02*
X157444285Y-108405771D01*
X157444285Y-108405771D02*
X157491904Y-108358152D01*
X157491904Y-108358152D02*
X157539523Y-108262914D01*
X157539523Y-108262914D02*
X157539523Y-108215295D01*
X157539523Y-108215295D02*
X157491904Y-108120057D01*
X157491904Y-108120057D02*
X157444285Y-108072438D01*
X157444285Y-108072438D02*
X157349047Y-108024819D01*
X157349047Y-108024819D02*
X157158571Y-108024819D01*
X157158571Y-108024819D02*
X157063333Y-108072438D01*
X157063333Y-108072438D02*
X157015714Y-108120057D01*
X157015714Y-108120057D02*
X156968095Y-108215295D01*
X156968095Y-108215295D02*
X156968095Y-108262914D01*
X156968095Y-108262914D02*
X157015714Y-108358152D01*
X157015714Y-108358152D02*
X157063333Y-108405771D01*
X157063333Y-108405771D02*
X157158571Y-108453390D01*
X157158571Y-108453390D02*
X157349047Y-108453390D01*
X157349047Y-108453390D02*
X157444285Y-108501009D01*
X157444285Y-108501009D02*
X157491904Y-108548628D01*
X157491904Y-108548628D02*
X157539523Y-108643866D01*
X157539523Y-108643866D02*
X157539523Y-108834342D01*
X157539523Y-108834342D02*
X157491904Y-108929580D01*
X157491904Y-108929580D02*
X157444285Y-108977200D01*
X157444285Y-108977200D02*
X157349047Y-109024819D01*
X157349047Y-109024819D02*
X157158571Y-109024819D01*
X157158571Y-109024819D02*
X157063333Y-108977200D01*
X157063333Y-108977200D02*
X157015714Y-108929580D01*
X157015714Y-108929580D02*
X156968095Y-108834342D01*
X156968095Y-108834342D02*
X156968095Y-108643866D01*
X156968095Y-108643866D02*
X157015714Y-108548628D01*
X157015714Y-108548628D02*
X157063333Y-108501009D01*
X157063333Y-108501009D02*
X157158571Y-108453390D01*
X112704819Y-144133333D02*
X112228628Y-143800000D01*
X112704819Y-143561905D02*
X111704819Y-143561905D01*
X111704819Y-143561905D02*
X111704819Y-143942857D01*
X111704819Y-143942857D02*
X111752438Y-144038095D01*
X111752438Y-144038095D02*
X111800057Y-144085714D01*
X111800057Y-144085714D02*
X111895295Y-144133333D01*
X111895295Y-144133333D02*
X112038152Y-144133333D01*
X112038152Y-144133333D02*
X112133390Y-144085714D01*
X112133390Y-144085714D02*
X112181009Y-144038095D01*
X112181009Y-144038095D02*
X112228628Y-143942857D01*
X112228628Y-143942857D02*
X112228628Y-143561905D01*
X112704819Y-145085714D02*
X112704819Y-144514286D01*
X112704819Y-144800000D02*
X111704819Y-144800000D01*
X111704819Y-144800000D02*
X111847676Y-144704762D01*
X111847676Y-144704762D02*
X111942914Y-144609524D01*
X111942914Y-144609524D02*
X111990533Y-144514286D01*
X158922857Y-113374819D02*
X159256190Y-112898628D01*
X159494285Y-113374819D02*
X159494285Y-112374819D01*
X159494285Y-112374819D02*
X159113333Y-112374819D01*
X159113333Y-112374819D02*
X159018095Y-112422438D01*
X159018095Y-112422438D02*
X158970476Y-112470057D01*
X158970476Y-112470057D02*
X158922857Y-112565295D01*
X158922857Y-112565295D02*
X158922857Y-112708152D01*
X158922857Y-112708152D02*
X158970476Y-112803390D01*
X158970476Y-112803390D02*
X159018095Y-112851009D01*
X159018095Y-112851009D02*
X159113333Y-112898628D01*
X159113333Y-112898628D02*
X159494285Y-112898628D01*
X157970476Y-113374819D02*
X158541904Y-113374819D01*
X158256190Y-113374819D02*
X158256190Y-112374819D01*
X158256190Y-112374819D02*
X158351428Y-112517676D01*
X158351428Y-112517676D02*
X158446666Y-112612914D01*
X158446666Y-112612914D02*
X158541904Y-112660533D01*
X157113333Y-112374819D02*
X157303809Y-112374819D01*
X157303809Y-112374819D02*
X157399047Y-112422438D01*
X157399047Y-112422438D02*
X157446666Y-112470057D01*
X157446666Y-112470057D02*
X157541904Y-112612914D01*
X157541904Y-112612914D02*
X157589523Y-112803390D01*
X157589523Y-112803390D02*
X157589523Y-113184342D01*
X157589523Y-113184342D02*
X157541904Y-113279580D01*
X157541904Y-113279580D02*
X157494285Y-113327200D01*
X157494285Y-113327200D02*
X157399047Y-113374819D01*
X157399047Y-113374819D02*
X157208571Y-113374819D01*
X157208571Y-113374819D02*
X157113333Y-113327200D01*
X157113333Y-113327200D02*
X157065714Y-113279580D01*
X157065714Y-113279580D02*
X157018095Y-113184342D01*
X157018095Y-113184342D02*
X157018095Y-112946247D01*
X157018095Y-112946247D02*
X157065714Y-112851009D01*
X157065714Y-112851009D02*
X157113333Y-112803390D01*
X157113333Y-112803390D02*
X157208571Y-112755771D01*
X157208571Y-112755771D02*
X157399047Y-112755771D01*
X157399047Y-112755771D02*
X157494285Y-112803390D01*
X157494285Y-112803390D02*
X157541904Y-112851009D01*
X157541904Y-112851009D02*
X157589523Y-112946247D01*
D13*
%TO.C,R4*%
X111752936Y-132385000D02*
X112207064Y-132385000D01*
X111752936Y-133855000D02*
X112207064Y-133855000D01*
%TO.C,R3*%
X147734724Y-149392500D02*
X147225276Y-149392500D01*
X147734724Y-148347500D02*
X147225276Y-148347500D01*
%TO.C,U6*%
X154440000Y-119880000D02*
X154440000Y-119600000D01*
X154440000Y-109540000D02*
X156130000Y-109540000D01*
X154440000Y-109260000D02*
X154440000Y-109540000D01*
X152130000Y-119880000D02*
X154440000Y-119880000D01*
X152130000Y-119880000D02*
X149820000Y-119880000D01*
X152130000Y-109260000D02*
X154440000Y-109260000D01*
X152130000Y-109260000D02*
X149820000Y-109260000D01*
X149820000Y-119880000D02*
X149820000Y-119600000D01*
X149820000Y-109260000D02*
X149820000Y-109540000D01*
%TO.C,R9*%
X147734724Y-137542500D02*
X147225276Y-137542500D01*
X147734724Y-136497500D02*
X147225276Y-136497500D01*
%TO.C,R14*%
X147684724Y-131592500D02*
X147175276Y-131592500D01*
X147684724Y-130547500D02*
X147175276Y-130547500D01*
%TO.C,R8*%
X116302936Y-125585000D02*
X116757064Y-125585000D01*
X116302936Y-127055000D02*
X116757064Y-127055000D01*
%TO.C,R15*%
X161452936Y-114585000D02*
X161907064Y-114585000D01*
X161452936Y-116055000D02*
X161907064Y-116055000D01*
%TO.C,R17*%
X161452936Y-109935000D02*
X161907064Y-109935000D01*
X161452936Y-111405000D02*
X161907064Y-111405000D01*
%TO.C,U4*%
X131095000Y-127110000D02*
X143565000Y-127110000D01*
X131095000Y-132430000D02*
X131095000Y-127110000D01*
X134795000Y-127170000D02*
X139865000Y-127170000D01*
X134795000Y-132370000D02*
X134795000Y-127170000D01*
X136330000Y-132370000D02*
X134795000Y-132370000D01*
X139865000Y-127170000D02*
X139865000Y-132370000D01*
X139865000Y-132370000D02*
X138330000Y-132370000D01*
X143565000Y-127110000D02*
X143565000Y-132430000D01*
X143565000Y-132430000D02*
X131095000Y-132430000D01*
X138330000Y-132370000D02*
G75*
G03*
X136330000Y-132370000I-1000000J0D01*
G01*
%TO.C,R5*%
X116352936Y-130635000D02*
X116807064Y-130635000D01*
X116352936Y-132105000D02*
X116807064Y-132105000D01*
%TO.C,D3*%
X121320000Y-124720000D02*
X126830000Y-124720000D01*
X121320000Y-128020000D02*
X121320000Y-124720000D01*
X121320000Y-128020000D02*
X126830000Y-128020000D01*
%TO.C,D1*%
X121420000Y-144920000D02*
X126930000Y-144920000D01*
X121420000Y-148220000D02*
X121420000Y-144920000D01*
X121420000Y-148220000D02*
X126930000Y-148220000D01*
%TO.C,D2*%
X121220000Y-129720000D02*
X126730000Y-129720000D01*
X121220000Y-133020000D02*
X121220000Y-129720000D01*
X121220000Y-133020000D02*
X126730000Y-133020000D01*
%TO.C,U3*%
X131095000Y-132960000D02*
X143565000Y-132960000D01*
X131095000Y-138280000D02*
X131095000Y-132960000D01*
X134795000Y-133020000D02*
X139865000Y-133020000D01*
X134795000Y-138220000D02*
X134795000Y-133020000D01*
X136330000Y-138220000D02*
X134795000Y-138220000D01*
X139865000Y-133020000D02*
X139865000Y-138220000D01*
X139865000Y-138220000D02*
X138330000Y-138220000D01*
X143565000Y-132960000D02*
X143565000Y-138280000D01*
X143565000Y-138280000D02*
X131095000Y-138280000D01*
X138330000Y-138220000D02*
G75*
G03*
X136330000Y-138220000I-1000000J0D01*
G01*
%TO.C,C1*%
X180220000Y-122218752D02*
X180220000Y-120796248D01*
X182040000Y-122218752D02*
X182040000Y-120796248D01*
%TO.C,U2*%
X131095000Y-138910000D02*
X143565000Y-138910000D01*
X131095000Y-144230000D02*
X131095000Y-138910000D01*
X134795000Y-138970000D02*
X139865000Y-138970000D01*
X134795000Y-144170000D02*
X134795000Y-138970000D01*
X136330000Y-144170000D02*
X134795000Y-144170000D01*
X139865000Y-138970000D02*
X139865000Y-144170000D01*
X139865000Y-144170000D02*
X138330000Y-144170000D01*
X143565000Y-138910000D02*
X143565000Y-144230000D01*
X143565000Y-144230000D02*
X131095000Y-144230000D01*
X138330000Y-144170000D02*
G75*
G03*
X136330000Y-144170000I-1000000J0D01*
G01*
%TO.C,U1*%
X131095000Y-144910000D02*
X143565000Y-144910000D01*
X131095000Y-150230000D02*
X131095000Y-144910000D01*
X134795000Y-144970000D02*
X139865000Y-144970000D01*
X134795000Y-150170000D02*
X134795000Y-144970000D01*
X136330000Y-150170000D02*
X134795000Y-150170000D01*
X139865000Y-144970000D02*
X139865000Y-150170000D01*
X139865000Y-150170000D02*
X138330000Y-150170000D01*
X143565000Y-144910000D02*
X143565000Y-150230000D01*
X143565000Y-150230000D02*
X131095000Y-150230000D01*
X138330000Y-150170000D02*
G75*
G03*
X136330000Y-150170000I-1000000J0D01*
G01*
%TO.C,R19*%
X177477064Y-116235000D02*
X177022936Y-116235000D01*
X177477064Y-114765000D02*
X177022936Y-114765000D01*
%TO.C,C2*%
X167090000Y-126271248D02*
X167090000Y-127693752D01*
X165270000Y-126271248D02*
X165270000Y-127693752D01*
%TO.C,R7*%
X111802936Y-127585000D02*
X112257064Y-127585000D01*
X111802936Y-129055000D02*
X112257064Y-129055000D01*
%TO.C,R6*%
X147734724Y-143342500D02*
X147225276Y-143342500D01*
X147734724Y-142297500D02*
X147225276Y-142297500D01*
%TO.C,R2*%
X115002936Y-144535000D02*
X115457064Y-144535000D01*
X115002936Y-146005000D02*
X115457064Y-146005000D01*
%TO.C,R18*%
X161452936Y-107685000D02*
X161907064Y-107685000D01*
X161452936Y-109155000D02*
X161907064Y-109155000D01*
%TO.C,R1*%
X111235000Y-144022936D02*
X111235000Y-144477064D01*
X109765000Y-144022936D02*
X109765000Y-144477064D01*
%TO.C,R16*%
X161452936Y-112185000D02*
X161907064Y-112185000D01*
X161452936Y-113655000D02*
X161907064Y-113655000D01*
%TD*%
M02*
