M48
; DRILL file {KiCad 7.0.8} date Thu Feb  1 01:06:53 2024
; FORMAT={-:-/ absolute / inch / decimal}
; #@! TF.CreationDate,2024-02-01T01:06:53+05:30
; #@! TF.GenerationSoftware,Kicad,Pcbnew,7.0.8
; #@! TF.FileFunction,Plated,1,2,PTH
FMAT,2
INCH
; #@! TA.AperFunction,Plated,PTH,ViaDrill
T1C0.0157
; #@! TA.AperFunction,Plated,PTH,ComponentDrill
T2C0.0394
; #@! TA.AperFunction,Plated,PTH,ComponentDrill
T3C0.0512
%
G90
G05
T1
X4.0004Y-2.0354
X4.0846Y-2.9256
X4.0894Y-3.165
X4.1657Y-3.2953
X4.3354Y-1.8886
X4.389Y-3.7091
X4.4283Y-3.515
X4.4803Y-2.2386
X4.5323Y-2.5181
X4.5782Y-2.0434
X4.5898Y-1.9681
X4.5929Y-1.9091
X4.6799Y-1.7772
X4.915Y-2.5835
X5.0555Y-3.2827
X5.0752Y-2.8118
X5.1217Y-2.4402
X5.1488Y-1.987
X5.185Y-1.8346
X5.1886Y-2.2724
X5.2803Y-2.1539
X5.3673Y-2.8118
X5.387Y-3.2862
X5.472Y-3.5697
T2
X3.2516Y-3.1559
X3.2516Y-3.3921
X4.5744Y-2.9197
X4.5744Y-3.6283
X4.6386Y-2.5823
X4.6386Y-2.6823
X4.6398Y-2.3283
X4.6398Y-2.4283
X4.7866Y-2.7154
X4.7866Y-2.8154
X4.7866Y-2.9154
X4.7866Y-3.0154
X4.7866Y-3.1154
X4.7866Y-3.2154
X4.7866Y-3.3154
X4.7866Y-3.4154
X5.6866Y-2.7154
X5.6866Y-2.8154
X5.6866Y-2.9154
X5.6866Y-3.0154
X5.6866Y-3.1154
X5.6866Y-3.2154
X5.6866Y-3.3154
X5.6866Y-3.4154
T3
X2.8476Y-1.8354
X2.8476Y-2.0354
X2.8476Y-2.2354
X2.8476Y-2.4354
X2.8476Y-2.6354
X2.8476Y-2.8354
X2.8476Y-3.0354
X2.8476Y-3.2354
X2.8476Y-3.4354
X2.8476Y-3.6354
X3.2413Y-1.8445
X3.2413Y-2.2972
X3.2413Y-2.5728
X3.4264Y-1.8445
X3.5752Y-1.8445
X3.5752Y-2.2972
X3.5752Y-2.5728
X3.7602Y-1.8445
X3.9118Y-1.8445
X3.9118Y-2.2972
X3.9118Y-2.5728
X4.0969Y-1.8445
X4.2457Y-1.8445
X4.2457Y-2.2972
X4.2457Y-2.5728
X4.4307Y-1.8445
T0
M30
