%TF.GenerationSoftware,KiCad,Pcbnew,7.0.8*%
%TF.CreationDate,2025-02-02T00:41:23+05:30*%
%TF.ProjectId,WemosD1Mini-8266,57656d6f-7344-4314-9d69-6e692d383236,rev?*%
%TF.SameCoordinates,Original*%
%TF.FileFunction,Drillmap*%
%TF.FilePolarity,Positive*%
%FSLAX45Y45*%
G04 Gerber Fmt 4.5, Leading zero omitted, Abs format (unit mm)*
G04 Created by KiCad (PCBNEW 7.0.8) date 2025-02-02 00:41:23*
%MOMM*%
%LPD*%
G01*
G04 APERTURE LIST*
%ADD10C,0.100000*%
%ADD11C,0.200000*%
G04 APERTURE END LIST*
D10*
X4010000Y-3985000D02*
X12725000Y-3985000D01*
X12725000Y-9185000D01*
X4010000Y-9185000D01*
X4010000Y-3985000D01*
X7745000Y-6665000D02*
X7820000Y-6665000D01*
X7820000Y-9055000D01*
X7745000Y-9055000D01*
X7745000Y-6665000D01*
X6695000Y-4675000D02*
X7095000Y-4695000D01*
X8180000Y-5305000D01*
X8455000Y-6525000D01*
X8425000Y-6530000D01*
X8150000Y-5325000D01*
X7090000Y-4730000D01*
X5230000Y-4610000D01*
X5245000Y-4585000D01*
X6695000Y-4675000D01*
D11*
X4265777Y-9501484D02*
X4265777Y-9301484D01*
X4265777Y-9301484D02*
X4313396Y-9301484D01*
X4313396Y-9301484D02*
X4341967Y-9311008D01*
X4341967Y-9311008D02*
X4361015Y-9330055D01*
X4361015Y-9330055D02*
X4370539Y-9349103D01*
X4370539Y-9349103D02*
X4380063Y-9387198D01*
X4380063Y-9387198D02*
X4380063Y-9415770D01*
X4380063Y-9415770D02*
X4370539Y-9453865D01*
X4370539Y-9453865D02*
X4361015Y-9472912D01*
X4361015Y-9472912D02*
X4341967Y-9491960D01*
X4341967Y-9491960D02*
X4313396Y-9501484D01*
X4313396Y-9501484D02*
X4265777Y-9501484D01*
X4465777Y-9501484D02*
X4465777Y-9368150D01*
X4465777Y-9406246D02*
X4475301Y-9387198D01*
X4475301Y-9387198D02*
X4484824Y-9377674D01*
X4484824Y-9377674D02*
X4503872Y-9368150D01*
X4503872Y-9368150D02*
X4522920Y-9368150D01*
X4589586Y-9501484D02*
X4589586Y-9368150D01*
X4589586Y-9301484D02*
X4580063Y-9311008D01*
X4580063Y-9311008D02*
X4589586Y-9320531D01*
X4589586Y-9320531D02*
X4599110Y-9311008D01*
X4599110Y-9311008D02*
X4589586Y-9301484D01*
X4589586Y-9301484D02*
X4589586Y-9320531D01*
X4713396Y-9501484D02*
X4694348Y-9491960D01*
X4694348Y-9491960D02*
X4684824Y-9472912D01*
X4684824Y-9472912D02*
X4684824Y-9301484D01*
X4818158Y-9501484D02*
X4799110Y-9491960D01*
X4799110Y-9491960D02*
X4789586Y-9472912D01*
X4789586Y-9472912D02*
X4789586Y-9301484D01*
X5046729Y-9501484D02*
X5046729Y-9301484D01*
X5046729Y-9301484D02*
X5113396Y-9444341D01*
X5113396Y-9444341D02*
X5180063Y-9301484D01*
X5180063Y-9301484D02*
X5180063Y-9501484D01*
X5361015Y-9501484D02*
X5361015Y-9396722D01*
X5361015Y-9396722D02*
X5351491Y-9377674D01*
X5351491Y-9377674D02*
X5332444Y-9368150D01*
X5332444Y-9368150D02*
X5294348Y-9368150D01*
X5294348Y-9368150D02*
X5275301Y-9377674D01*
X5361015Y-9491960D02*
X5341967Y-9501484D01*
X5341967Y-9501484D02*
X5294348Y-9501484D01*
X5294348Y-9501484D02*
X5275301Y-9491960D01*
X5275301Y-9491960D02*
X5265777Y-9472912D01*
X5265777Y-9472912D02*
X5265777Y-9453865D01*
X5265777Y-9453865D02*
X5275301Y-9434817D01*
X5275301Y-9434817D02*
X5294348Y-9425293D01*
X5294348Y-9425293D02*
X5341967Y-9425293D01*
X5341967Y-9425293D02*
X5361015Y-9415770D01*
X5456253Y-9368150D02*
X5456253Y-9568150D01*
X5456253Y-9377674D02*
X5475301Y-9368150D01*
X5475301Y-9368150D02*
X5513396Y-9368150D01*
X5513396Y-9368150D02*
X5532444Y-9377674D01*
X5532444Y-9377674D02*
X5541967Y-9387198D01*
X5541967Y-9387198D02*
X5551491Y-9406246D01*
X5551491Y-9406246D02*
X5551491Y-9463389D01*
X5551491Y-9463389D02*
X5541967Y-9482436D01*
X5541967Y-9482436D02*
X5532444Y-9491960D01*
X5532444Y-9491960D02*
X5513396Y-9501484D01*
X5513396Y-9501484D02*
X5475301Y-9501484D01*
X5475301Y-9501484D02*
X5456253Y-9491960D01*
X5637205Y-9482436D02*
X5646729Y-9491960D01*
X5646729Y-9491960D02*
X5637205Y-9501484D01*
X5637205Y-9501484D02*
X5627682Y-9491960D01*
X5627682Y-9491960D02*
X5637205Y-9482436D01*
X5637205Y-9482436D02*
X5637205Y-9501484D01*
X5637205Y-9377674D02*
X5646729Y-9387198D01*
X5646729Y-9387198D02*
X5637205Y-9396722D01*
X5637205Y-9396722D02*
X5627682Y-9387198D01*
X5627682Y-9387198D02*
X5637205Y-9377674D01*
X5637205Y-9377674D02*
X5637205Y-9396722D01*
M02*
