%TF.GenerationSoftware,KiCad,Pcbnew,7.0.8*%
%TF.CreationDate,2025-02-07T18:27:24+05:30*%
%TF.ProjectId,WemosD1Mini-8266,57656d6f-7344-4314-9d69-6e692d383236,rev?*%
%TF.SameCoordinates,Original*%
%TF.FileFunction,Soldermask,Top*%
%TF.FilePolarity,Negative*%
%FSLAX46Y46*%
G04 Gerber Fmt 4.6, Leading zero omitted, Abs format (unit mm)*
G04 Created by KiCad (PCBNEW 7.0.8) date 2025-02-07 18:27:24*
%MOMM*%
%LPD*%
G01*
G04 APERTURE LIST*
G04 Aperture macros list*
%AMRoundRect*
0 Rectangle with rounded corners*
0 $1 Rounding radius*
0 $2 $3 $4 $5 $6 $7 $8 $9 X,Y pos of 4 corners*
0 Add a 4 corners polygon primitive as box body*
4,1,4,$2,$3,$4,$5,$6,$7,$8,$9,$2,$3,0*
0 Add four circle primitives for the rounded corners*
1,1,$1+$1,$2,$3*
1,1,$1+$1,$4,$5*
1,1,$1+$1,$6,$7*
1,1,$1+$1,$8,$9*
0 Add four rect primitives between the rounded corners*
20,1,$1+$1,$2,$3,$4,$5,0*
20,1,$1+$1,$4,$5,$6,$7,0*
20,1,$1+$1,$6,$7,$8,$9,0*
20,1,$1+$1,$8,$9,$2,$3,0*%
G04 Aperture macros list end*
%ADD10C,1.270000*%
%ADD11R,2.000000X2.000000*%
%ADD12O,2.000000X1.600000*%
%ADD13C,3.000000*%
%ADD14R,2.540000X2.540000*%
%ADD15C,2.540000*%
%ADD16C,2.000000*%
%ADD17RoundRect,0.250000X0.750000X-0.600000X0.750000X0.600000X-0.750000X0.600000X-0.750000X-0.600000X0*%
%ADD18O,2.000000X1.700000*%
%ADD19RoundRect,0.250000X-1.000000X-0.650000X1.000000X-0.650000X1.000000X0.650000X-1.000000X0.650000X0*%
%ADD20RoundRect,0.250000X0.325000X0.450000X-0.325000X0.450000X-0.325000X-0.450000X0.325000X-0.450000X0*%
%ADD21RoundRect,0.250000X0.625000X-0.400000X0.625000X0.400000X-0.625000X0.400000X-0.625000X-0.400000X0*%
%ADD22RoundRect,0.250000X0.600000X0.750000X-0.600000X0.750000X-0.600000X-0.750000X0.600000X-0.750000X0*%
%ADD23O,1.700000X2.000000*%
%ADD24C,1.800000*%
%ADD25RoundRect,0.250000X-0.625000X0.400000X-0.625000X-0.400000X0.625000X-0.400000X0.625000X0.400000X0*%
%ADD26RoundRect,0.250000X-0.350000X-0.450000X0.350000X-0.450000X0.350000X0.450000X-0.350000X0.450000X0*%
%ADD27C,3.200000*%
%ADD28RoundRect,0.250000X0.600000X0.725000X-0.600000X0.725000X-0.600000X-0.725000X0.600000X-0.725000X0*%
%ADD29O,1.700000X1.950000*%
%ADD30R,2.600000X2.600000*%
%ADD31C,2.600000*%
G04 APERTURE END LIST*
D10*
%TO.C,F1*%
X113950000Y-136200000D03*
X119050000Y-137800000D03*
%TD*%
D11*
%TO.C,U5*%
X185110000Y-143210000D03*
D12*
X185110000Y-140670000D03*
X185110000Y-138130000D03*
X185110000Y-135590000D03*
X185110000Y-133050000D03*
X185110000Y-130510000D03*
X185110000Y-127970000D03*
X185110000Y-125430000D03*
X162250000Y-125430000D03*
X162250000Y-127970000D03*
X162250000Y-130510000D03*
X162250000Y-133050000D03*
X162250000Y-135590000D03*
X162250000Y-138130000D03*
X162250000Y-140670000D03*
X162250000Y-143210000D03*
%TD*%
D13*
%TO.C,RL3*%
X122580000Y-114220000D03*
X122580000Y-121220000D03*
D14*
X122580000Y-102720000D03*
D15*
X127280000Y-102720000D03*
%TD*%
D11*
%TO.C,PS1*%
X124000000Y-136500000D03*
D16*
X124000000Y-142500000D03*
X157600000Y-130500000D03*
X157600000Y-148500000D03*
%TD*%
D17*
%TO.C,J5*%
X182555000Y-113370000D03*
D18*
X182555000Y-110870000D03*
%TD*%
D19*
%TO.C,D4*%
X121280000Y-125520000D03*
X125280000Y-125520000D03*
%TD*%
D20*
%TO.C,D7*%
X167855000Y-110670000D03*
X165805000Y-110670000D03*
%TD*%
D21*
%TO.C,R12*%
X117430000Y-133800000D03*
X117430000Y-130700000D03*
%TD*%
D22*
%TO.C,J3*%
X160330000Y-104245000D03*
D23*
X157830000Y-104245000D03*
%TD*%
D24*
%TO.C,RV1*%
X117750000Y-141750000D03*
X114050000Y-149250000D03*
%TD*%
D22*
%TO.C,J2*%
X151630000Y-104245000D03*
D23*
X149130000Y-104245000D03*
%TD*%
D13*
%TO.C,RL1*%
X138780000Y-114220000D03*
X138780000Y-121220000D03*
D14*
X138780000Y-102720000D03*
D15*
X143480000Y-102720000D03*
%TD*%
D21*
%TO.C,R13*%
X117380000Y-128550000D03*
X117380000Y-125450000D03*
%TD*%
D25*
%TO.C,R11*%
X113980000Y-130700000D03*
X113980000Y-133800000D03*
%TD*%
D13*
%TO.C,RL2*%
X130680000Y-114220000D03*
X130680000Y-121220000D03*
D14*
X130680000Y-102720000D03*
D15*
X135380000Y-102720000D03*
%TD*%
D26*
%TO.C,R21*%
X172000000Y-108250000D03*
X174000000Y-108250000D03*
%TD*%
D27*
%TO.C,H1*%
X170680000Y-137520000D03*
%TD*%
D28*
%TO.C,J6*%
X178750000Y-104250000D03*
D29*
X176250000Y-104250000D03*
X173750000Y-104250000D03*
X171250000Y-104250000D03*
%TD*%
D26*
%TO.C,R23*%
X176250000Y-111500000D03*
X178250000Y-111500000D03*
%TD*%
D20*
%TO.C,D5*%
X167805000Y-115120000D03*
X165755000Y-115120000D03*
%TD*%
D25*
%TO.C,R10*%
X114080000Y-125300000D03*
X114080000Y-128400000D03*
%TD*%
D13*
%TO.C,RL4*%
X114480000Y-114230000D03*
X114480000Y-121230000D03*
D14*
X114480000Y-102730000D03*
D15*
X119180000Y-102730000D03*
%TD*%
D26*
%TO.C,R20*%
X176250000Y-108250000D03*
X178250000Y-108250000D03*
%TD*%
D20*
%TO.C,D6*%
X167855000Y-112870000D03*
X165805000Y-112870000D03*
%TD*%
D30*
%TO.C,J1*%
X105630000Y-102860000D03*
D31*
X105630000Y-107940000D03*
X105630000Y-113020000D03*
X105630000Y-118100000D03*
X105630000Y-123180000D03*
X105630000Y-128260000D03*
X105630000Y-133340000D03*
X105630000Y-138420000D03*
X105630000Y-143500000D03*
X105630000Y-148580000D03*
%TD*%
D26*
%TO.C,R22*%
X172000000Y-111500000D03*
X174000000Y-111500000D03*
%TD*%
D20*
%TO.C,D8*%
X167855000Y-108420000D03*
X165805000Y-108420000D03*
%TD*%
D28*
%TO.C,J4*%
X156130000Y-123270000D03*
D29*
X153630000Y-123270000D03*
X151130000Y-123270000D03*
X148630000Y-123270000D03*
%TD*%
M02*
