%TF.GenerationSoftware,KiCad,Pcbnew,7.0.8*%
%TF.CreationDate,2025-02-03T20:38:03+05:30*%
%TF.ProjectId,WemosD1Mini-8266,57656d6f-7344-4314-9d69-6e692d383236,rev?*%
%TF.SameCoordinates,Original*%
%TF.FileFunction,Profile,NP*%
%FSLAX46Y46*%
G04 Gerber Fmt 4.6, Leading zero omitted, Abs format (unit mm)*
G04 Created by KiCad (PCBNEW 7.0.8) date 2025-02-03 20:38:03*
%MOMM*%
%LPD*%
G01*
G04 APERTURE LIST*
%TA.AperFunction,Profile*%
%ADD10C,0.100000*%
%TD*%
G04 APERTURE END LIST*
D10*
X187000000Y-109620000D02*
X188000000Y-109620000D01*
X188000000Y-124820000D01*
X187000000Y-124820000D01*
X187000000Y-109620000D01*
X136800000Y-126200000D02*
X137825400Y-126200000D01*
X137825400Y-149900000D01*
X136800000Y-149900000D01*
X136800000Y-126200000D01*
X129230000Y-109000000D02*
X133680000Y-109000000D01*
X134750000Y-110750000D01*
X140250000Y-110750000D01*
X142250000Y-112750000D01*
X142250000Y-122750000D01*
X139580000Y-125000000D01*
X136980000Y-125000000D01*
X136980000Y-124000000D01*
X139000000Y-124000000D01*
X141230000Y-122000000D01*
X141230000Y-113500000D01*
X139880000Y-112000000D01*
X134000000Y-112000000D01*
X133000000Y-110000000D01*
X128750000Y-110000000D01*
X126250000Y-107250000D01*
X127000000Y-106770000D01*
X129230000Y-109000000D01*
X187000000Y-108050000D02*
X188000000Y-108050000D01*
X189000000Y-107100000D01*
X197000000Y-107100000D01*
X198000000Y-108000000D01*
X198000000Y-146650000D01*
X197000000Y-147400000D01*
X189000000Y-147400000D01*
X188000000Y-146600000D01*
X187000000Y-146600000D01*
X187000000Y-151070000D01*
X100120000Y-151070000D01*
X100000000Y-100000000D01*
X187000000Y-100000000D01*
X187000000Y-108050000D01*
X187000000Y-127000000D02*
X188025400Y-127000000D01*
X188025400Y-144620000D01*
X187000000Y-144620000D01*
X187000000Y-127000000D01*
M02*
