%TF.GenerationSoftware,KiCad,Pcbnew,7.0.8*%
%TF.CreationDate,2025-02-07T18:27:23+05:30*%
%TF.ProjectId,WemosD1Mini-8266,57656d6f-7344-4314-9d69-6e692d383236,rev?*%
%TF.SameCoordinates,Original*%
%TF.FileFunction,Copper,L1,Top*%
%TF.FilePolarity,Positive*%
%FSLAX46Y46*%
G04 Gerber Fmt 4.6, Leading zero omitted, Abs format (unit mm)*
G04 Created by KiCad (PCBNEW 7.0.8) date 2025-02-07 18:27:23*
%MOMM*%
%LPD*%
G01*
G04 APERTURE LIST*
G04 Aperture macros list*
%AMRoundRect*
0 Rectangle with rounded corners*
0 $1 Rounding radius*
0 $2 $3 $4 $5 $6 $7 $8 $9 X,Y pos of 4 corners*
0 Add a 4 corners polygon primitive as box body*
4,1,4,$2,$3,$4,$5,$6,$7,$8,$9,$2,$3,0*
0 Add four circle primitives for the rounded corners*
1,1,$1+$1,$2,$3*
1,1,$1+$1,$4,$5*
1,1,$1+$1,$6,$7*
1,1,$1+$1,$8,$9*
0 Add four rect primitives between the rounded corners*
20,1,$1+$1,$2,$3,$4,$5,0*
20,1,$1+$1,$4,$5,$6,$7,0*
20,1,$1+$1,$6,$7,$8,$9,0*
20,1,$1+$1,$8,$9,$2,$3,0*%
G04 Aperture macros list end*
%TA.AperFunction,ComponentPad*%
%ADD10C,1.270000*%
%TD*%
%TA.AperFunction,ComponentPad*%
%ADD11R,2.000000X2.000000*%
%TD*%
%TA.AperFunction,ComponentPad*%
%ADD12O,2.000000X1.600000*%
%TD*%
%TA.AperFunction,ComponentPad*%
%ADD13C,3.000000*%
%TD*%
%TA.AperFunction,ComponentPad*%
%ADD14R,2.540000X2.540000*%
%TD*%
%TA.AperFunction,ComponentPad*%
%ADD15C,2.540000*%
%TD*%
%TA.AperFunction,ComponentPad*%
%ADD16C,2.000000*%
%TD*%
%TA.AperFunction,ComponentPad*%
%ADD17RoundRect,0.250000X0.750000X-0.600000X0.750000X0.600000X-0.750000X0.600000X-0.750000X-0.600000X0*%
%TD*%
%TA.AperFunction,ComponentPad*%
%ADD18O,2.000000X1.700000*%
%TD*%
%TA.AperFunction,SMDPad,CuDef*%
%ADD19RoundRect,0.250000X-1.000000X-0.650000X1.000000X-0.650000X1.000000X0.650000X-1.000000X0.650000X0*%
%TD*%
%TA.AperFunction,SMDPad,CuDef*%
%ADD20RoundRect,0.250000X0.325000X0.450000X-0.325000X0.450000X-0.325000X-0.450000X0.325000X-0.450000X0*%
%TD*%
%TA.AperFunction,SMDPad,CuDef*%
%ADD21RoundRect,0.250000X0.625000X-0.400000X0.625000X0.400000X-0.625000X0.400000X-0.625000X-0.400000X0*%
%TD*%
%TA.AperFunction,ComponentPad*%
%ADD22RoundRect,0.250000X0.600000X0.750000X-0.600000X0.750000X-0.600000X-0.750000X0.600000X-0.750000X0*%
%TD*%
%TA.AperFunction,ComponentPad*%
%ADD23O,1.700000X2.000000*%
%TD*%
%TA.AperFunction,ComponentPad*%
%ADD24C,1.800000*%
%TD*%
%TA.AperFunction,SMDPad,CuDef*%
%ADD25RoundRect,0.250000X-0.625000X0.400000X-0.625000X-0.400000X0.625000X-0.400000X0.625000X0.400000X0*%
%TD*%
%TA.AperFunction,SMDPad,CuDef*%
%ADD26RoundRect,0.250000X-0.350000X-0.450000X0.350000X-0.450000X0.350000X0.450000X-0.350000X0.450000X0*%
%TD*%
%TA.AperFunction,ComponentPad*%
%ADD27RoundRect,0.250000X0.600000X0.725000X-0.600000X0.725000X-0.600000X-0.725000X0.600000X-0.725000X0*%
%TD*%
%TA.AperFunction,ComponentPad*%
%ADD28O,1.700000X1.950000*%
%TD*%
%TA.AperFunction,ComponentPad*%
%ADD29R,2.600000X2.600000*%
%TD*%
%TA.AperFunction,ComponentPad*%
%ADD30C,2.600000*%
%TD*%
%TA.AperFunction,ViaPad*%
%ADD31C,0.800000*%
%TD*%
%TA.AperFunction,Conductor*%
%ADD32C,0.500000*%
%TD*%
%TA.AperFunction,Conductor*%
%ADD33C,0.400000*%
%TD*%
%TA.AperFunction,Conductor*%
%ADD34C,1.000000*%
%TD*%
%TA.AperFunction,Conductor*%
%ADD35C,2.000000*%
%TD*%
G04 APERTURE END LIST*
D10*
%TO.P,F1,1*%
%TO.N,/AC{slash}L*%
X113950000Y-136200000D03*
%TO.P,F1,2*%
%TO.N,/AC{slash}L(P)*%
X119050000Y-137800000D03*
%TD*%
D11*
%TO.P,U5,1,~{RST}*%
%TO.N,unconnected-(U5-~{RST}-Pad1)*%
X185110000Y-143210000D03*
D12*
%TO.P,U5,2,A0*%
%TO.N,Net-(J6-Pin_4)*%
X185110000Y-140670000D03*
%TO.P,U5,3,D0*%
%TO.N,/Voltage Sensing/In1*%
X185110000Y-138130000D03*
%TO.P,U5,4,SCK/D5*%
%TO.N,/Relays/RL1*%
X185110000Y-135590000D03*
%TO.P,U5,5,MISO/D6*%
%TO.N,/Relays/RL2*%
X185110000Y-133050000D03*
%TO.P,U5,6,MOSI/D7*%
%TO.N,/Relays/RL3*%
X185110000Y-130510000D03*
%TO.P,U5,7,CS/D8*%
%TO.N,/Relays/RL4*%
X185110000Y-127970000D03*
%TO.P,U5,8,3V3*%
%TO.N,+3.3V*%
X185110000Y-125430000D03*
%TO.P,U5,9,5V*%
%TO.N,+5V*%
X162250000Y-125430000D03*
%TO.P,U5,10,GND*%
%TO.N,Earth*%
X162250000Y-127970000D03*
%TO.P,U5,11,D4*%
%TO.N,unconnected-(U5-D4-Pad11)*%
X162250000Y-130510000D03*
%TO.P,U5,12,D3*%
%TO.N,/Voltage Sensing/In4*%
X162250000Y-133050000D03*
%TO.P,U5,13,SDA/D2*%
%TO.N,/Voltage Sensing/In3*%
X162250000Y-135590000D03*
%TO.P,U5,14,SCL/D1*%
%TO.N,/Voltage Sensing/In2*%
X162250000Y-138130000D03*
%TO.P,U5,15,RX*%
%TO.N,unconnected-(U5-RX-Pad15)*%
X162250000Y-140670000D03*
%TO.P,U5,16,TX*%
%TO.N,unconnected-(U5-TX-Pad16)*%
X162250000Y-143210000D03*
%TD*%
D13*
%TO.P,RL3,13*%
%TO.N,/Load2*%
X122580000Y-114220000D03*
%TO.P,RL3,14*%
%TO.N,/AC{slash}L*%
X122580000Y-121220000D03*
D14*
%TO.P,RL3,A1*%
%TO.N,+5V*%
X122580000Y-102720000D03*
D15*
%TO.P,RL3,A2*%
%TO.N,Net-(U6-O5)*%
X127280000Y-102720000D03*
%TD*%
D11*
%TO.P,PS1,1,AC/L*%
%TO.N,/AC{slash}L(P)*%
X124000000Y-136500000D03*
D16*
%TO.P,PS1,2,AC/N*%
%TO.N,/AC{slash}N*%
X124000000Y-142500000D03*
%TO.P,PS1,3,-Vout*%
%TO.N,Earth*%
X157600000Y-130500000D03*
%TO.P,PS1,4,+Vout*%
%TO.N,+5V*%
X157600000Y-148500000D03*
%TD*%
D17*
%TO.P,J5,1,Pin_1*%
%TO.N,/Voltage Sensing/In1*%
X182555000Y-113370000D03*
D18*
%TO.P,J5,2,Pin_2*%
%TO.N,Earth*%
X182555000Y-110870000D03*
%TD*%
D19*
%TO.P,D4,1,K*%
%TO.N,Net-(D4-K)*%
X121280000Y-125520000D03*
%TO.P,D4,2,A*%
%TO.N,/AC{slash}N*%
X125280000Y-125520000D03*
%TD*%
D20*
%TO.P,D7,1,K*%
%TO.N,Earth*%
X167855000Y-110670000D03*
%TO.P,D7,2,A*%
%TO.N,Net-(D7-A)*%
X165805000Y-110670000D03*
%TD*%
D21*
%TO.P,R12,1*%
%TO.N,Net-(R11-Pad2)*%
X117430000Y-133800000D03*
%TO.P,R12,2*%
%TO.N,Net-(R12-Pad2)*%
X117430000Y-130700000D03*
%TD*%
D22*
%TO.P,J3,1,Pin_1*%
%TO.N,+3.3V*%
X160330000Y-104245000D03*
D23*
%TO.P,J3,2,Pin_2*%
%TO.N,Earth*%
X157830000Y-104245000D03*
%TD*%
D24*
%TO.P,RV1,1*%
%TO.N,/AC{slash}L(P)*%
X117750000Y-141750000D03*
%TO.P,RV1,2*%
%TO.N,/AC{slash}N*%
X114050000Y-149250000D03*
%TD*%
D22*
%TO.P,J2,1,Pin_1*%
%TO.N,+5V*%
X151630000Y-104245000D03*
D23*
%TO.P,J2,2,Pin_2*%
%TO.N,Earth*%
X149130000Y-104245000D03*
%TD*%
D13*
%TO.P,RL1,13*%
%TO.N,/Load4*%
X138780000Y-114220000D03*
%TO.P,RL1,14*%
%TO.N,/AC{slash}L*%
X138780000Y-121220000D03*
D14*
%TO.P,RL1,A1*%
%TO.N,+5V*%
X138780000Y-102720000D03*
D15*
%TO.P,RL1,A2*%
%TO.N,Net-(U6-O1)*%
X143480000Y-102720000D03*
%TD*%
D21*
%TO.P,R13,1*%
%TO.N,Net-(R12-Pad2)*%
X117380000Y-128550000D03*
%TO.P,R13,2*%
%TO.N,Net-(D4-K)*%
X117380000Y-125450000D03*
%TD*%
D25*
%TO.P,R11,1*%
%TO.N,Net-(R10-Pad2)*%
X113980000Y-130700000D03*
%TO.P,R11,2*%
%TO.N,Net-(R11-Pad2)*%
X113980000Y-133800000D03*
%TD*%
D13*
%TO.P,RL2,13*%
%TO.N,/Load3*%
X130680000Y-114220000D03*
%TO.P,RL2,14*%
%TO.N,/AC{slash}L*%
X130680000Y-121220000D03*
D14*
%TO.P,RL2,A1*%
%TO.N,+5V*%
X130680000Y-102720000D03*
D15*
%TO.P,RL2,A2*%
%TO.N,Net-(U6-O3)*%
X135380000Y-102720000D03*
%TD*%
D26*
%TO.P,R21,1*%
%TO.N,Net-(J6-Pin_3)*%
X172000000Y-108250000D03*
%TO.P,R21,2*%
%TO.N,Net-(J6-Pin_2)*%
X174000000Y-108250000D03*
%TD*%
D27*
%TO.P,J6,1,Pin_1*%
%TO.N,Net-(J6-Pin_1)*%
X178750000Y-104250000D03*
D28*
%TO.P,J6,2,Pin_2*%
%TO.N,Net-(J6-Pin_2)*%
X176250000Y-104250000D03*
%TO.P,J6,3,Pin_3*%
%TO.N,Net-(J6-Pin_3)*%
X173750000Y-104250000D03*
%TO.P,J6,4,Pin_4*%
%TO.N,Net-(J6-Pin_4)*%
X171250000Y-104250000D03*
%TD*%
D26*
%TO.P,R23,1*%
%TO.N,Net-(J6-Pin_4)*%
X176250000Y-111500000D03*
%TO.P,R23,2*%
%TO.N,Earth*%
X178250000Y-111500000D03*
%TD*%
D20*
%TO.P,D5,1,K*%
%TO.N,Earth*%
X167805000Y-115120000D03*
%TO.P,D5,2,A*%
%TO.N,Net-(D5-A)*%
X165755000Y-115120000D03*
%TD*%
D25*
%TO.P,R10,1*%
%TO.N,/M4*%
X114080000Y-125300000D03*
%TO.P,R10,2*%
%TO.N,Net-(R10-Pad2)*%
X114080000Y-128400000D03*
%TD*%
D13*
%TO.P,RL4,13*%
%TO.N,/Load1*%
X114480000Y-114230000D03*
%TO.P,RL4,14*%
%TO.N,/AC{slash}L*%
X114480000Y-121230000D03*
D14*
%TO.P,RL4,A1*%
%TO.N,+5V*%
X114480000Y-102730000D03*
D15*
%TO.P,RL4,A2*%
%TO.N,Net-(U6-O7)*%
X119180000Y-102730000D03*
%TD*%
D26*
%TO.P,R20,1*%
%TO.N,Net-(J6-Pin_2)*%
X176250000Y-108250000D03*
%TO.P,R20,2*%
%TO.N,Net-(J6-Pin_1)*%
X178250000Y-108250000D03*
%TD*%
D20*
%TO.P,D6,1,K*%
%TO.N,Earth*%
X167855000Y-112870000D03*
%TO.P,D6,2,A*%
%TO.N,Net-(D6-A)*%
X165805000Y-112870000D03*
%TD*%
D29*
%TO.P,J1,1,Pin_1*%
%TO.N,/Load4*%
X105630000Y-102860000D03*
D30*
%TO.P,J1,2,Pin_2*%
%TO.N,/Load3*%
X105630000Y-107940000D03*
%TO.P,J1,3,Pin_3*%
%TO.N,/Load2*%
X105630000Y-113020000D03*
%TO.P,J1,4,Pin_4*%
%TO.N,/Load1*%
X105630000Y-118100000D03*
%TO.P,J1,5,Pin_5*%
%TO.N,/M4*%
X105630000Y-123180000D03*
%TO.P,J1,6,Pin_6*%
%TO.N,/M3*%
X105630000Y-128260000D03*
%TO.P,J1,7,Pin_7*%
%TO.N,/M2*%
X105630000Y-133340000D03*
%TO.P,J1,8,Pin_8*%
%TO.N,/M1*%
X105630000Y-138420000D03*
%TO.P,J1,9,Pin_9*%
%TO.N,/AC{slash}L*%
X105630000Y-143500000D03*
%TO.P,J1,10,Pin_10*%
%TO.N,/AC{slash}N*%
X105630000Y-148580000D03*
%TD*%
D26*
%TO.P,R22,1*%
%TO.N,Net-(J6-Pin_4)*%
X172000000Y-111500000D03*
%TO.P,R22,2*%
%TO.N,Net-(J6-Pin_3)*%
X174000000Y-111500000D03*
%TD*%
D20*
%TO.P,D8,1,K*%
%TO.N,Earth*%
X167855000Y-108420000D03*
%TO.P,D8,2,A*%
%TO.N,Net-(D8-A)*%
X165805000Y-108420000D03*
%TD*%
D27*
%TO.P,J4,1,Pin_1*%
%TO.N,/Voltage Sensing/In4*%
X156130000Y-123270000D03*
D28*
%TO.P,J4,2,Pin_2*%
%TO.N,/Voltage Sensing/In3*%
X153630000Y-123270000D03*
%TO.P,J4,3,Pin_3*%
%TO.N,/Voltage Sensing/In2*%
X151130000Y-123270000D03*
%TO.P,J4,4,Pin_4*%
%TO.N,Earth*%
X148630000Y-123270000D03*
%TD*%
D31*
%TO.N,Earth*%
X154500000Y-126820000D03*
X152830000Y-119070000D03*
%TO.N,/Voltage Sensing/In2*%
X146680000Y-140770000D03*
%TO.N,/Voltage Sensing/In3*%
X153680000Y-133870000D03*
X146730000Y-133820000D03*
%TO.N,/AC{slash}N*%
X127530000Y-124820000D03*
%TO.N,Net-(D4-K)*%
X129630000Y-131070000D03*
%TO.N,+3.3V*%
X149980000Y-148820000D03*
X173430000Y-115820000D03*
%TO.N,/M4*%
X112750000Y-124170000D03*
%TO.N,Net-(D3-K)*%
X129130000Y-136820000D03*
X119930000Y-128320000D03*
%TO.N,/Relays/RL2*%
X157530000Y-115205000D03*
X165680000Y-119320000D03*
%TO.N,/Relays/RL3*%
X156680000Y-112665000D03*
X171430000Y-118220000D03*
%TO.N,Net-(D5-A)*%
X164130000Y-115170000D03*
%TO.N,Net-(D6-A)*%
X164330000Y-112920000D03*
%TO.N,Net-(D7-A)*%
X164380000Y-110670000D03*
%TO.N,Net-(D8-A)*%
X164330000Y-108370000D03*
%TD*%
D32*
%TO.N,/Voltage Sensing/In1*%
X180330000Y-135320000D02*
X183140000Y-138130000D01*
X182555000Y-113370000D02*
X180880000Y-113370000D01*
X183140000Y-138130000D02*
X184825000Y-138130000D01*
X180880000Y-113370000D02*
X180330000Y-113920000D01*
X180330000Y-113920000D02*
X180330000Y-135320000D01*
D33*
%TO.N,Earth*%
X178250000Y-111500000D02*
X181925000Y-111500000D01*
X152830000Y-107470000D02*
X153130000Y-107170000D01*
D32*
X167855000Y-110670000D02*
X167855000Y-112870000D01*
X149130000Y-106870000D02*
X149130000Y-104245000D01*
X157830000Y-104245000D02*
X154905000Y-107170000D01*
X157830000Y-104245000D02*
X157830000Y-105241258D01*
D33*
X152830000Y-119070000D02*
X152830000Y-107470000D01*
D32*
X154905000Y-107170000D02*
X153130000Y-107170000D01*
X159058742Y-106470000D02*
X165905000Y-106470000D01*
X165905000Y-106470000D02*
X167855000Y-108420000D01*
D33*
X148630000Y-123270000D02*
X152830000Y-119070000D01*
D32*
X167855000Y-115070000D02*
X167805000Y-115120000D01*
X153130000Y-107170000D02*
X149430000Y-107170000D01*
X149430000Y-107170000D02*
X149130000Y-106870000D01*
X167855000Y-112870000D02*
X167855000Y-115070000D01*
D33*
X181925000Y-111500000D02*
X182555000Y-110870000D01*
D32*
X157830000Y-105241258D02*
X159058742Y-106470000D01*
X167855000Y-108420000D02*
X167855000Y-110670000D01*
D33*
%TO.N,/Voltage Sensing/In2*%
X149320000Y-138130000D02*
X161965000Y-138130000D01*
X161965000Y-138130000D02*
X160040000Y-138130000D01*
X160040000Y-138130000D02*
X151130000Y-129220000D01*
X151130000Y-129220000D02*
X151130000Y-123270000D01*
X146680000Y-140770000D02*
X149320000Y-138130000D01*
%TO.N,/Voltage Sensing/In3*%
X152500000Y-128500000D02*
X152500000Y-125750000D01*
X161965000Y-135590000D02*
X159590000Y-135590000D01*
X153630000Y-133820000D02*
X153680000Y-133870000D01*
X159590000Y-135590000D02*
X152500000Y-128500000D01*
X152500000Y-125750000D02*
X153630000Y-124620000D01*
X153630000Y-124620000D02*
X153630000Y-123270000D01*
X146730000Y-133820000D02*
X153630000Y-133820000D01*
%TO.N,/AC{slash}N*%
X126830000Y-125520000D02*
X127530000Y-124820000D01*
D34*
X106170000Y-149120000D02*
X105630000Y-148580000D01*
X122970000Y-142580000D02*
X116430000Y-149120000D01*
X114080000Y-149120000D02*
X106170000Y-149120000D01*
D33*
X125280000Y-125520000D02*
X126830000Y-125520000D01*
D34*
X116430000Y-149120000D02*
X114080000Y-149120000D01*
%TO.N,+5V*%
X163880000Y-125320000D02*
X162075000Y-125320000D01*
X161070000Y-148580000D02*
X165730000Y-143920000D01*
X157680000Y-148580000D02*
X161070000Y-148580000D01*
X165730000Y-127170000D02*
X163880000Y-125320000D01*
D32*
X114480000Y-102730000D02*
X114520000Y-102730000D01*
D34*
X165730000Y-143920000D02*
X165730000Y-127170000D01*
X157600000Y-148500000D02*
X157680000Y-148580000D01*
X162075000Y-125320000D02*
X161965000Y-125430000D01*
D33*
%TO.N,Net-(D4-K)*%
X117450000Y-125520000D02*
X117380000Y-125450000D01*
X126830000Y-131070000D02*
X129630000Y-131070000D01*
X121280000Y-125520000D02*
X126830000Y-131070000D01*
X121280000Y-125520000D02*
X117450000Y-125520000D01*
D34*
%TO.N,/Load4*%
X127930000Y-110970000D02*
X124780000Y-107820000D01*
X124780000Y-107820000D02*
X111890000Y-107820000D01*
X138780000Y-114220000D02*
X134930000Y-114220000D01*
X134930000Y-114220000D02*
X131680000Y-110970000D01*
X131680000Y-110970000D02*
X127930000Y-110970000D01*
X106930000Y-102860000D02*
X105630000Y-102860000D01*
X111890000Y-107820000D02*
X106930000Y-102860000D01*
D32*
%TO.N,+3.3V*%
X177180000Y-144570000D02*
X176750000Y-145000000D01*
X163770000Y-150230000D02*
X151390000Y-150230000D01*
X173430000Y-115820000D02*
X177180000Y-119570000D01*
X169202794Y-111592794D02*
X173430000Y-115820000D01*
X160330000Y-104245000D02*
X165727794Y-104245000D01*
X177180000Y-119570000D02*
X177180000Y-144570000D01*
X165727794Y-104245000D02*
X169202794Y-107720000D01*
X169000000Y-145000000D02*
X163770000Y-150230000D01*
X176750000Y-145000000D02*
X169000000Y-145000000D01*
X151390000Y-150230000D02*
X149980000Y-148820000D01*
X169202794Y-107720000D02*
X169202794Y-111592794D01*
D34*
%TO.N,/Load3*%
X127380000Y-114220000D02*
X130680000Y-114220000D01*
X111230000Y-109970000D02*
X123130000Y-109970000D01*
X105630000Y-107940000D02*
X109200000Y-107940000D01*
X123130000Y-109970000D02*
X127380000Y-114220000D01*
X109200000Y-107940000D02*
X111230000Y-109970000D01*
%TO.N,/Load2*%
X105630000Y-113020000D02*
X111530000Y-113020000D01*
X118730000Y-114220000D02*
X122580000Y-114220000D01*
X112930000Y-111620000D02*
X116130000Y-111620000D01*
X116130000Y-111620000D02*
X118730000Y-114220000D01*
X111530000Y-113020000D02*
X112930000Y-111620000D01*
D35*
%TO.N,/AC{slash}L*%
X114490000Y-121220000D02*
X114480000Y-121230000D01*
X109200000Y-143500000D02*
X105630000Y-143500000D01*
X110530000Y-136250000D02*
X110530000Y-142170000D01*
X112770000Y-121230000D02*
X110530000Y-123470000D01*
X122580000Y-121220000D02*
X114490000Y-121220000D01*
X130680000Y-121220000D02*
X122580000Y-121220000D01*
X110530000Y-142170000D02*
X109200000Y-143500000D01*
X138780000Y-121220000D02*
X130680000Y-121220000D01*
D34*
X113950000Y-136200000D02*
X110580000Y-136200000D01*
D35*
X110530000Y-123470000D02*
X110530000Y-136250000D01*
X114480000Y-121230000D02*
X112770000Y-121230000D01*
D34*
X110580000Y-136200000D02*
X110530000Y-136250000D01*
%TO.N,/Load1*%
X105630000Y-118100000D02*
X110610000Y-118100000D01*
X110610000Y-118100000D02*
X114480000Y-114230000D01*
D32*
%TO.N,Net-(U6-O5)*%
X127280000Y-102720000D02*
X127280000Y-103020000D01*
D33*
%TO.N,/M4*%
X112750000Y-124170000D02*
X114080000Y-125500000D01*
%TO.N,Net-(D3-K)*%
X129130000Y-136820000D02*
X127430000Y-136820000D01*
X119930000Y-129320000D02*
X119930000Y-128320000D01*
X127430000Y-136820000D02*
X119930000Y-129320000D01*
%TO.N,Net-(R10-Pad2)*%
X114080000Y-128400000D02*
X114080000Y-130600000D01*
X114080000Y-130600000D02*
X113980000Y-130700000D01*
%TO.N,/Voltage Sensing/In4*%
X160130000Y-131215000D02*
X160130000Y-129220000D01*
X161965000Y-133050000D02*
X160130000Y-131215000D01*
X156130000Y-125220000D02*
X156130000Y-123270000D01*
X160130000Y-129220000D02*
X156130000Y-125220000D01*
D32*
%TO.N,/Relays/RL2*%
X161645000Y-119320000D02*
X157530000Y-115205000D01*
X165680000Y-119320000D02*
X161645000Y-119320000D01*
%TO.N,/Relays/RL3*%
X171330000Y-118120000D02*
X162135000Y-118120000D01*
X162135000Y-118120000D02*
X156680000Y-112665000D01*
X171430000Y-118220000D02*
X171330000Y-118120000D01*
%TO.N,Net-(D5-A)*%
X165755000Y-115120000D02*
X164180000Y-115120000D01*
X164180000Y-115120000D02*
X164130000Y-115170000D01*
%TO.N,Net-(D6-A)*%
X165755000Y-112920000D02*
X165805000Y-112870000D01*
X164330000Y-112920000D02*
X165755000Y-112920000D01*
%TO.N,Net-(D7-A)*%
X165805000Y-110670000D02*
X164380000Y-110670000D01*
%TO.N,Net-(D8-A)*%
X165755000Y-108370000D02*
X165805000Y-108420000D01*
X164330000Y-108370000D02*
X165755000Y-108370000D01*
D34*
%TO.N,/AC{slash}L(P)*%
X120270000Y-136580000D02*
X118830000Y-138020000D01*
X118830000Y-140570000D02*
X118830000Y-138020000D01*
X122970000Y-136580000D02*
X120270000Y-136580000D01*
X117780000Y-141620000D02*
X118830000Y-140570000D01*
D33*
%TO.N,Net-(J6-Pin_1)*%
X178250000Y-104500000D02*
X178750000Y-104000000D01*
X178250000Y-108250000D02*
X178250000Y-104500000D01*
%TO.N,Net-(R11-Pad2)*%
X117430000Y-133800000D02*
X113980000Y-133800000D01*
%TO.N,Net-(R12-Pad2)*%
X117380000Y-128550000D02*
X117380000Y-130650000D01*
X117380000Y-130650000D02*
X117430000Y-130700000D01*
%TO.N,Net-(J6-Pin_2)*%
X176250000Y-108250000D02*
X176250000Y-104000000D01*
X174000000Y-108250000D02*
X176250000Y-108250000D01*
%TO.N,Net-(J6-Pin_3)*%
X172000000Y-108252082D02*
X172000000Y-108250000D01*
X172000000Y-105750000D02*
X173750000Y-104000000D01*
X174000000Y-110252082D02*
X172000000Y-108252082D01*
X172000000Y-108250000D02*
X172000000Y-105750000D01*
X174000000Y-111500000D02*
X174000000Y-110252082D01*
D32*
%TO.N,Net-(J6-Pin_4)*%
X184825000Y-140670000D02*
X182780000Y-140670000D01*
X170591457Y-110091457D02*
X170591457Y-104658543D01*
X172000000Y-112250000D02*
X172000000Y-111500000D01*
D33*
X176250000Y-112250000D02*
X174125000Y-114375000D01*
D32*
X178280000Y-136170000D02*
X178280000Y-118530000D01*
D33*
X176250000Y-111500000D02*
X176250000Y-112250000D01*
D32*
X178280000Y-118530000D02*
X174125000Y-114375000D01*
X170591457Y-104658543D02*
X171250000Y-104000000D01*
X174125000Y-114375000D02*
X172000000Y-112250000D01*
X172000000Y-111500000D02*
X170591457Y-110091457D01*
X182780000Y-140670000D02*
X178280000Y-136170000D01*
%TD*%
%TA.AperFunction,Conductor*%
%TO.N,+5V*%
G36*
X154219538Y-100320185D02*
G01*
X154265293Y-100372989D01*
X154276494Y-100425520D01*
X154251956Y-103404529D01*
X154231013Y-105947021D01*
X154210777Y-106013896D01*
X154157598Y-106059215D01*
X154107017Y-106070000D01*
X151050243Y-106070000D01*
X150983204Y-106050315D01*
X150937449Y-105997511D01*
X150926302Y-105949815D01*
X150926216Y-105947021D01*
X150923932Y-105872811D01*
X150941545Y-105805200D01*
X150992916Y-105757843D01*
X151047873Y-105744999D01*
X151379999Y-105744999D01*
X151380000Y-105744998D01*
X151380000Y-104680501D01*
X151487685Y-104729680D01*
X151594237Y-104745000D01*
X151665763Y-104745000D01*
X151772315Y-104729680D01*
X151880000Y-104680501D01*
X151880000Y-105744999D01*
X152279972Y-105744999D01*
X152279986Y-105744998D01*
X152382697Y-105734505D01*
X152549119Y-105679358D01*
X152549124Y-105679356D01*
X152698345Y-105587315D01*
X152822315Y-105463345D01*
X152914356Y-105314124D01*
X152914358Y-105314119D01*
X152969505Y-105147697D01*
X152969506Y-105147690D01*
X152979999Y-105044986D01*
X152980000Y-105044973D01*
X152980000Y-104495000D01*
X152063686Y-104495000D01*
X152089493Y-104454844D01*
X152130000Y-104316889D01*
X152130000Y-104173111D01*
X152089493Y-104035156D01*
X152063686Y-103995000D01*
X152979999Y-103995000D01*
X152979999Y-103445028D01*
X152979998Y-103445013D01*
X152969505Y-103342302D01*
X152914358Y-103175880D01*
X152914356Y-103175875D01*
X152822315Y-103026654D01*
X152698345Y-102902684D01*
X152549124Y-102810643D01*
X152549119Y-102810641D01*
X152382697Y-102755494D01*
X152382690Y-102755493D01*
X152279986Y-102745000D01*
X151880000Y-102745000D01*
X151880000Y-103809498D01*
X151772315Y-103760320D01*
X151665763Y-103745000D01*
X151594237Y-103745000D01*
X151487685Y-103760320D01*
X151380000Y-103809498D01*
X151380000Y-102745000D01*
X150980028Y-102745000D01*
X150980012Y-102745001D01*
X150877302Y-102755494D01*
X150863529Y-102760058D01*
X150793700Y-102762458D01*
X150738398Y-102731557D01*
X150736780Y-102729995D01*
X149380000Y-101420000D01*
X144730615Y-101420000D01*
X144663576Y-101400315D01*
X144646274Y-101386899D01*
X144586984Y-101331886D01*
X144419807Y-101217906D01*
X144367736Y-101182404D01*
X144367725Y-101182397D01*
X144128655Y-101067268D01*
X144128636Y-101067261D01*
X143875083Y-100989051D01*
X143875073Y-100989048D01*
X143612688Y-100949500D01*
X143612681Y-100949500D01*
X143347319Y-100949500D01*
X143347311Y-100949500D01*
X143084926Y-100989048D01*
X143084916Y-100989051D01*
X142831363Y-101067261D01*
X142831344Y-101067268D01*
X142592276Y-101182397D01*
X142592274Y-101182398D01*
X142373015Y-101331886D01*
X142313726Y-101386899D01*
X142251193Y-101418067D01*
X142229385Y-101420000D01*
X141280000Y-101420000D01*
X141280000Y-103047142D01*
X141260315Y-103114181D01*
X141207511Y-103159936D01*
X141157148Y-103171137D01*
X140675148Y-103175600D01*
X140607929Y-103156537D01*
X140561687Y-103104159D01*
X140550000Y-103051605D01*
X140550000Y-102970000D01*
X139380728Y-102970000D01*
X139403100Y-102922457D01*
X139433873Y-102761138D01*
X139423561Y-102597234D01*
X139382220Y-102470000D01*
X140550000Y-102470000D01*
X140550000Y-101402172D01*
X140549999Y-101402155D01*
X140543598Y-101342627D01*
X140543596Y-101342620D01*
X140493354Y-101207913D01*
X140493350Y-101207906D01*
X140407190Y-101092812D01*
X140407187Y-101092809D01*
X140292093Y-101006649D01*
X140292086Y-101006645D01*
X140157379Y-100956403D01*
X140157372Y-100956401D01*
X140097844Y-100950000D01*
X139030000Y-100950000D01*
X139030000Y-102115689D01*
X139021183Y-102110842D01*
X138862114Y-102070000D01*
X138739106Y-102070000D01*
X138617067Y-102085417D01*
X138530000Y-102119889D01*
X138530000Y-100950000D01*
X137462155Y-100950000D01*
X137402627Y-100956401D01*
X137402620Y-100956403D01*
X137267913Y-101006645D01*
X137267906Y-101006649D01*
X137152812Y-101092809D01*
X137152809Y-101092812D01*
X137066649Y-101207906D01*
X137066645Y-101207913D01*
X137016403Y-101342620D01*
X137016401Y-101342627D01*
X137010000Y-101402155D01*
X137010000Y-101569921D01*
X136990315Y-101636960D01*
X136937511Y-101682715D01*
X136868353Y-101692659D01*
X136804797Y-101663634D01*
X136789053Y-101647234D01*
X136735372Y-101579921D01*
X136681508Y-101512377D01*
X136486984Y-101331886D01*
X136319807Y-101217906D01*
X136267736Y-101182404D01*
X136267725Y-101182397D01*
X136028655Y-101067268D01*
X136028636Y-101067261D01*
X135775083Y-100989051D01*
X135775073Y-100989048D01*
X135512688Y-100949500D01*
X135512681Y-100949500D01*
X135247319Y-100949500D01*
X135247311Y-100949500D01*
X134984926Y-100989048D01*
X134984916Y-100989051D01*
X134731363Y-101067261D01*
X134731344Y-101067268D01*
X134492276Y-101182397D01*
X134492274Y-101182398D01*
X134273015Y-101331886D01*
X134078494Y-101512375D01*
X134078492Y-101512377D01*
X133913042Y-101719845D01*
X133780361Y-101949654D01*
X133683416Y-102196667D01*
X133683410Y-102196686D01*
X133624364Y-102455385D01*
X133624363Y-102455390D01*
X133604535Y-102719995D01*
X133604535Y-102720004D01*
X133624363Y-102984609D01*
X133624364Y-102984614D01*
X133624364Y-102984618D01*
X133624365Y-102984619D01*
X133627637Y-102998956D01*
X133648459Y-103090183D01*
X133644185Y-103159922D01*
X133602887Y-103216279D01*
X133537674Y-103241362D01*
X133528716Y-103241770D01*
X132575148Y-103250600D01*
X132507929Y-103231537D01*
X132461687Y-103179159D01*
X132450000Y-103126605D01*
X132450000Y-102970000D01*
X131280728Y-102970000D01*
X131303100Y-102922457D01*
X131333873Y-102761138D01*
X131323561Y-102597234D01*
X131282220Y-102470000D01*
X132450000Y-102470000D01*
X132450000Y-101402172D01*
X132449999Y-101402155D01*
X132443598Y-101342627D01*
X132443596Y-101342620D01*
X132393354Y-101207913D01*
X132393350Y-101207906D01*
X132307190Y-101092812D01*
X132307187Y-101092809D01*
X132192093Y-101006649D01*
X132192086Y-101006645D01*
X132057379Y-100956403D01*
X132057372Y-100956401D01*
X131997844Y-100950000D01*
X130930000Y-100950000D01*
X130930000Y-102115689D01*
X130921183Y-102110842D01*
X130762114Y-102070000D01*
X130639106Y-102070000D01*
X130517067Y-102085417D01*
X130430000Y-102119889D01*
X130430000Y-100950000D01*
X129362155Y-100950000D01*
X129302627Y-100956401D01*
X129302620Y-100956403D01*
X129167913Y-101006645D01*
X129167906Y-101006649D01*
X129052812Y-101092809D01*
X129052809Y-101092812D01*
X128966649Y-101207906D01*
X128966645Y-101207913D01*
X128916403Y-101342620D01*
X128916401Y-101342627D01*
X128910000Y-101402155D01*
X128910000Y-101569921D01*
X128890315Y-101636960D01*
X128837511Y-101682715D01*
X128768353Y-101692659D01*
X128704797Y-101663634D01*
X128689053Y-101647234D01*
X128635372Y-101579921D01*
X128581508Y-101512377D01*
X128386984Y-101331886D01*
X128219807Y-101217906D01*
X128167736Y-101182404D01*
X128167725Y-101182397D01*
X127928655Y-101067268D01*
X127928636Y-101067261D01*
X127675083Y-100989051D01*
X127675073Y-100989048D01*
X127412688Y-100949500D01*
X127412681Y-100949500D01*
X127147319Y-100949500D01*
X127147311Y-100949500D01*
X126884926Y-100989048D01*
X126884916Y-100989051D01*
X126631363Y-101067261D01*
X126631344Y-101067268D01*
X126392276Y-101182397D01*
X126392274Y-101182398D01*
X126173015Y-101331886D01*
X125978494Y-101512375D01*
X125978492Y-101512377D01*
X125813042Y-101719845D01*
X125680361Y-101949654D01*
X125583416Y-102196667D01*
X125583410Y-102196686D01*
X125524364Y-102455385D01*
X125524363Y-102455390D01*
X125504535Y-102719995D01*
X125504535Y-102720004D01*
X125524363Y-102984609D01*
X125524364Y-102984614D01*
X125524364Y-102984618D01*
X125524365Y-102984619D01*
X125527637Y-102998956D01*
X125565541Y-103165025D01*
X125561268Y-103234764D01*
X125519969Y-103291121D01*
X125454757Y-103316204D01*
X125445798Y-103316612D01*
X125080000Y-103320000D01*
X124474950Y-103324635D01*
X124407762Y-103305465D01*
X124361604Y-103253013D01*
X124350000Y-103200639D01*
X124350000Y-102970000D01*
X123180728Y-102970000D01*
X123203100Y-102922457D01*
X123233873Y-102761138D01*
X123223561Y-102597234D01*
X123182220Y-102470000D01*
X124350000Y-102470000D01*
X124350000Y-101402172D01*
X124349999Y-101402155D01*
X124343598Y-101342627D01*
X124343596Y-101342620D01*
X124293354Y-101207913D01*
X124293350Y-101207906D01*
X124207190Y-101092812D01*
X124207187Y-101092809D01*
X124092093Y-101006649D01*
X124092086Y-101006645D01*
X123957379Y-100956403D01*
X123957372Y-100956401D01*
X123897844Y-100950000D01*
X122830000Y-100950000D01*
X122830000Y-102115689D01*
X122821183Y-102110842D01*
X122662114Y-102070000D01*
X122539106Y-102070000D01*
X122417067Y-102085417D01*
X122330000Y-102119889D01*
X122330000Y-100950000D01*
X121262155Y-100950000D01*
X121202627Y-100956401D01*
X121202620Y-100956403D01*
X121067913Y-101006645D01*
X121067906Y-101006649D01*
X120952812Y-101092809D01*
X120952809Y-101092812D01*
X120866649Y-101207906D01*
X120866645Y-101207913D01*
X120816403Y-101342620D01*
X120816401Y-101342627D01*
X120810000Y-101402155D01*
X120810000Y-101579921D01*
X120790315Y-101646960D01*
X120737511Y-101692715D01*
X120668353Y-101702659D01*
X120604797Y-101673634D01*
X120589053Y-101657234D01*
X120566384Y-101628808D01*
X120481508Y-101522377D01*
X120286984Y-101341886D01*
X120272312Y-101331883D01*
X120067736Y-101192404D01*
X120067725Y-101192397D01*
X119828655Y-101077268D01*
X119828636Y-101077261D01*
X119575083Y-100999051D01*
X119575073Y-100999048D01*
X119312688Y-100959500D01*
X119312681Y-100959500D01*
X119047319Y-100959500D01*
X119047311Y-100959500D01*
X118784926Y-100999048D01*
X118784916Y-100999051D01*
X118531363Y-101077261D01*
X118531344Y-101077268D01*
X118292276Y-101192397D01*
X118292274Y-101192398D01*
X118073015Y-101341886D01*
X117878494Y-101522375D01*
X117878492Y-101522377D01*
X117713042Y-101729845D01*
X117580361Y-101959654D01*
X117483416Y-102206667D01*
X117483410Y-102206686D01*
X117424364Y-102465385D01*
X117424363Y-102465390D01*
X117404535Y-102729995D01*
X117404535Y-102730004D01*
X117424363Y-102994609D01*
X117424364Y-102994614D01*
X117477538Y-103227586D01*
X117473265Y-103297325D01*
X117431966Y-103353682D01*
X117366754Y-103378765D01*
X117357597Y-103379174D01*
X116374950Y-103386704D01*
X116307762Y-103367534D01*
X116261604Y-103315082D01*
X116250000Y-103262708D01*
X116250000Y-102980000D01*
X115080728Y-102980000D01*
X115103100Y-102932457D01*
X115133873Y-102771138D01*
X115123561Y-102607234D01*
X115082220Y-102480000D01*
X116250000Y-102480000D01*
X116250000Y-101412172D01*
X116249999Y-101412155D01*
X116243598Y-101352627D01*
X116243596Y-101352620D01*
X116193354Y-101217913D01*
X116193350Y-101217906D01*
X116107190Y-101102812D01*
X116107187Y-101102809D01*
X115992093Y-101016649D01*
X115992086Y-101016645D01*
X115857379Y-100966403D01*
X115857372Y-100966401D01*
X115797844Y-100960000D01*
X114730000Y-100960000D01*
X114730000Y-102125689D01*
X114721183Y-102120842D01*
X114562114Y-102080000D01*
X114439106Y-102080000D01*
X114317067Y-102095417D01*
X114230000Y-102129889D01*
X114230000Y-100960000D01*
X113162155Y-100960000D01*
X113102627Y-100966401D01*
X113102620Y-100966403D01*
X112967913Y-101016645D01*
X112967906Y-101016649D01*
X112852812Y-101102809D01*
X112852809Y-101102812D01*
X112766649Y-101217906D01*
X112766645Y-101217913D01*
X112716403Y-101352620D01*
X112716401Y-101352627D01*
X112710000Y-101412155D01*
X112710000Y-102480000D01*
X113879272Y-102480000D01*
X113856900Y-102527543D01*
X113826127Y-102688862D01*
X113836439Y-102852766D01*
X113877780Y-102980000D01*
X112710000Y-102980000D01*
X112710000Y-103291735D01*
X112690315Y-103358774D01*
X112637511Y-103404529D01*
X112586950Y-103415731D01*
X112154950Y-103419042D01*
X112087762Y-103399872D01*
X112041604Y-103347420D01*
X112030000Y-103295046D01*
X112030000Y-100424500D01*
X112049685Y-100357461D01*
X112102489Y-100311706D01*
X112154000Y-100300500D01*
X154152499Y-100300500D01*
X154219538Y-100320185D01*
G37*
%TD.AperFunction*%
%TD*%
%TA.AperFunction,Conductor*%
%TO.N,Earth*%
G36*
X186392539Y-100320185D02*
G01*
X186438294Y-100372989D01*
X186449500Y-100424500D01*
X186449500Y-124430951D01*
X186429815Y-124497990D01*
X186377011Y-124543745D01*
X186307853Y-124553689D01*
X186244297Y-124524664D01*
X186237819Y-124518632D01*
X186149141Y-124429954D01*
X185962734Y-124299432D01*
X185962732Y-124299431D01*
X185756497Y-124203261D01*
X185756488Y-124203258D01*
X185536697Y-124144366D01*
X185536687Y-124144364D01*
X185366784Y-124129500D01*
X184853216Y-124129500D01*
X184683312Y-124144364D01*
X184683302Y-124144366D01*
X184463511Y-124203258D01*
X184463502Y-124203261D01*
X184257267Y-124299431D01*
X184257265Y-124299432D01*
X184070858Y-124429954D01*
X183909954Y-124590858D01*
X183779432Y-124777265D01*
X183779431Y-124777267D01*
X183683261Y-124983502D01*
X183683258Y-124983511D01*
X183624366Y-125203302D01*
X183624364Y-125203313D01*
X183604532Y-125429998D01*
X183604532Y-125430001D01*
X183624364Y-125656686D01*
X183624366Y-125656697D01*
X183683258Y-125876488D01*
X183683261Y-125876497D01*
X183779431Y-126082732D01*
X183779432Y-126082734D01*
X183909954Y-126269141D01*
X184070858Y-126430045D01*
X184070861Y-126430047D01*
X184257266Y-126560568D01*
X184315275Y-126587618D01*
X184367714Y-126633791D01*
X184386866Y-126700984D01*
X184366650Y-126767865D01*
X184315275Y-126812382D01*
X184257267Y-126839431D01*
X184257265Y-126839432D01*
X184070858Y-126969954D01*
X183909954Y-127130858D01*
X183779432Y-127317265D01*
X183779431Y-127317267D01*
X183683261Y-127523502D01*
X183683258Y-127523511D01*
X183624366Y-127743302D01*
X183624364Y-127743313D01*
X183604532Y-127969998D01*
X183604532Y-127970001D01*
X183624364Y-128196686D01*
X183624366Y-128196697D01*
X183683258Y-128416488D01*
X183683261Y-128416497D01*
X183779431Y-128622732D01*
X183779432Y-128622734D01*
X183909954Y-128809141D01*
X184070858Y-128970045D01*
X184070861Y-128970047D01*
X184257266Y-129100568D01*
X184314681Y-129127341D01*
X184315275Y-129127618D01*
X184367714Y-129173791D01*
X184386866Y-129240984D01*
X184366650Y-129307865D01*
X184315275Y-129352382D01*
X184257267Y-129379431D01*
X184257265Y-129379432D01*
X184070858Y-129509954D01*
X183909954Y-129670858D01*
X183779432Y-129857265D01*
X183779431Y-129857267D01*
X183683261Y-130063502D01*
X183683258Y-130063511D01*
X183624366Y-130283302D01*
X183624364Y-130283313D01*
X183604532Y-130509998D01*
X183604532Y-130510001D01*
X183624364Y-130736686D01*
X183624366Y-130736697D01*
X183683258Y-130956488D01*
X183683261Y-130956497D01*
X183779431Y-131162732D01*
X183779432Y-131162734D01*
X183909954Y-131349141D01*
X184070858Y-131510045D01*
X184070861Y-131510047D01*
X184257266Y-131640568D01*
X184315275Y-131667618D01*
X184367714Y-131713791D01*
X184386866Y-131780984D01*
X184366650Y-131847865D01*
X184315275Y-131892382D01*
X184257267Y-131919431D01*
X184257265Y-131919432D01*
X184070858Y-132049954D01*
X183909954Y-132210858D01*
X183779432Y-132397265D01*
X183779431Y-132397267D01*
X183771561Y-132414143D01*
X183765329Y-132427511D01*
X183764912Y-132428405D01*
X183718740Y-132480844D01*
X183652530Y-132500000D01*
X181204500Y-132500000D01*
X181137461Y-132480315D01*
X181091706Y-132427511D01*
X181080500Y-132376000D01*
X181080500Y-114606230D01*
X181100185Y-114539191D01*
X181152989Y-114493436D01*
X181222147Y-114483492D01*
X181285703Y-114512517D01*
X181292181Y-114518549D01*
X181336344Y-114562712D01*
X181485666Y-114654814D01*
X181652203Y-114709999D01*
X181754991Y-114720500D01*
X183355008Y-114720499D01*
X183457797Y-114709999D01*
X183624334Y-114654814D01*
X183773656Y-114562712D01*
X183897712Y-114438656D01*
X183989814Y-114289334D01*
X184044999Y-114122797D01*
X184055500Y-114020009D01*
X184055499Y-112719992D01*
X184053968Y-112705009D01*
X184044999Y-112617203D01*
X184044998Y-112617200D01*
X184042461Y-112609544D01*
X183989814Y-112450666D01*
X183897712Y-112301344D01*
X183773656Y-112177288D01*
X183645565Y-112098281D01*
X183618441Y-112081551D01*
X183571717Y-112029603D01*
X183560494Y-111960640D01*
X183588338Y-111896558D01*
X183595857Y-111888331D01*
X183743105Y-111741082D01*
X183878600Y-111547578D01*
X183978429Y-111333492D01*
X183978432Y-111333486D01*
X184035636Y-111120000D01*
X182988686Y-111120000D01*
X183014493Y-111079844D01*
X183055000Y-110941889D01*
X183055000Y-110798111D01*
X183014493Y-110660156D01*
X182988686Y-110620000D01*
X184035636Y-110620000D01*
X184035635Y-110619999D01*
X183978432Y-110406513D01*
X183978429Y-110406507D01*
X183878600Y-110192422D01*
X183878599Y-110192420D01*
X183743113Y-109998926D01*
X183743108Y-109998920D01*
X183576079Y-109831891D01*
X183576073Y-109831886D01*
X183382579Y-109696400D01*
X183382577Y-109696399D01*
X183168492Y-109596570D01*
X183168483Y-109596566D01*
X182940326Y-109535432D01*
X182940316Y-109535430D01*
X182805000Y-109523590D01*
X182805000Y-110434498D01*
X182697315Y-110385320D01*
X182590763Y-110370000D01*
X182519237Y-110370000D01*
X182412685Y-110385320D01*
X182305000Y-110434498D01*
X182305000Y-109523591D01*
X182304999Y-109523590D01*
X182169683Y-109535430D01*
X182169673Y-109535432D01*
X181941516Y-109596566D01*
X181941507Y-109596570D01*
X181727422Y-109696399D01*
X181727420Y-109696400D01*
X181533926Y-109831886D01*
X181533920Y-109831891D01*
X181366894Y-109998917D01*
X181231399Y-110192421D01*
X181131570Y-110406507D01*
X181131567Y-110406513D01*
X181074364Y-110619999D01*
X181074364Y-110620000D01*
X182121314Y-110620000D01*
X182095507Y-110660156D01*
X182055000Y-110798111D01*
X182055000Y-110941889D01*
X182095507Y-111079844D01*
X182121314Y-111120000D01*
X181074364Y-111120000D01*
X181131567Y-111333486D01*
X181131570Y-111333492D01*
X181231399Y-111547577D01*
X181231400Y-111547579D01*
X181366886Y-111741073D01*
X181514143Y-111888331D01*
X181547627Y-111949654D01*
X181542643Y-112019346D01*
X181500771Y-112075279D01*
X181491558Y-112081550D01*
X181336347Y-112177285D01*
X181336343Y-112177288D01*
X181212289Y-112301342D01*
X181120187Y-112450663D01*
X181120185Y-112450668D01*
X181106893Y-112490781D01*
X181096295Y-112522766D01*
X181092405Y-112534504D01*
X181052632Y-112591949D01*
X180988116Y-112618772D01*
X180974699Y-112619500D01*
X180943705Y-112619500D01*
X180925735Y-112618191D01*
X180901972Y-112614710D01*
X180856890Y-112618655D01*
X180849933Y-112619264D01*
X180844532Y-112619500D01*
X180836288Y-112619500D01*
X180803707Y-112623308D01*
X180727199Y-112630001D01*
X180720133Y-112631461D01*
X180720121Y-112631404D01*
X180712754Y-112633038D01*
X180712768Y-112633094D01*
X180705751Y-112634756D01*
X180633573Y-112661026D01*
X180560662Y-112685187D01*
X180554119Y-112688238D01*
X180554094Y-112688186D01*
X180547314Y-112691468D01*
X180547340Y-112691520D01*
X180540881Y-112694764D01*
X180476709Y-112736970D01*
X180411345Y-112777288D01*
X180405677Y-112781770D01*
X180405641Y-112781724D01*
X180399798Y-112786484D01*
X180399835Y-112786528D01*
X180394310Y-112791164D01*
X180394304Y-112791169D01*
X180394304Y-112791170D01*
X180386902Y-112799016D01*
X180341599Y-112847033D01*
X179844358Y-113344272D01*
X179830729Y-113356051D01*
X179811468Y-113370390D01*
X179777898Y-113410397D01*
X179774253Y-113414376D01*
X179768409Y-113420222D01*
X179748059Y-113445959D01*
X179698695Y-113504789D01*
X179694729Y-113510819D01*
X179694682Y-113510788D01*
X179690630Y-113517147D01*
X179690679Y-113517177D01*
X179686889Y-113523321D01*
X179654424Y-113592941D01*
X179619960Y-113661566D01*
X179617488Y-113668357D01*
X179617432Y-113668336D01*
X179614960Y-113675450D01*
X179615015Y-113675469D01*
X179612742Y-113682327D01*
X179604975Y-113719946D01*
X179597207Y-113757565D01*
X179589839Y-113788655D01*
X179579498Y-113832286D01*
X179578661Y-113839454D01*
X179578601Y-113839447D01*
X179577835Y-113846945D01*
X179577895Y-113846951D01*
X179577265Y-113854140D01*
X179579500Y-113930916D01*
X179579500Y-135256294D01*
X179578191Y-135274263D01*
X179574710Y-135298025D01*
X179579264Y-135350064D01*
X179579500Y-135355470D01*
X179579500Y-135363709D01*
X179583306Y-135396274D01*
X179590000Y-135472791D01*
X179591461Y-135479867D01*
X179591403Y-135479878D01*
X179593034Y-135487237D01*
X179593092Y-135487224D01*
X179594757Y-135494250D01*
X179621025Y-135566424D01*
X179645185Y-135639331D01*
X179648236Y-135645874D01*
X179648182Y-135645898D01*
X179651470Y-135652688D01*
X179651521Y-135652663D01*
X179654761Y-135659113D01*
X179654762Y-135659114D01*
X179654763Y-135659117D01*
X179687531Y-135708939D01*
X179696965Y-135723283D01*
X179737287Y-135788655D01*
X179741766Y-135794319D01*
X179741719Y-135794356D01*
X179746482Y-135800202D01*
X179746528Y-135800164D01*
X179751173Y-135805700D01*
X179781306Y-135834128D01*
X179807018Y-135858386D01*
X180963681Y-137015049D01*
X180997166Y-137076371D01*
X181000000Y-137102729D01*
X181000000Y-137529270D01*
X180980315Y-137596309D01*
X180927511Y-137642064D01*
X180858353Y-137652008D01*
X180794797Y-137622983D01*
X180788319Y-137616951D01*
X179066819Y-135895451D01*
X179033334Y-135834128D01*
X179030500Y-135807770D01*
X179030500Y-118593705D01*
X179031809Y-118575735D01*
X179035289Y-118551974D01*
X179030736Y-118499939D01*
X179030500Y-118494532D01*
X179030500Y-118486297D01*
X179030500Y-118486291D01*
X179026691Y-118453707D01*
X179019998Y-118377202D01*
X179019996Y-118377197D01*
X179018538Y-118370133D01*
X179018597Y-118370120D01*
X179016967Y-118362764D01*
X179016908Y-118362779D01*
X179015242Y-118355753D01*
X179015241Y-118355745D01*
X178988973Y-118283573D01*
X178964815Y-118210666D01*
X178961763Y-118204121D01*
X178961817Y-118204095D01*
X178958533Y-118197312D01*
X178958480Y-118197340D01*
X178955238Y-118190886D01*
X178955237Y-118190883D01*
X178913038Y-118126723D01*
X178872712Y-118061344D01*
X178872711Y-118061343D01*
X178872710Y-118061341D01*
X178868234Y-118055681D01*
X178868280Y-118055643D01*
X178863519Y-118049799D01*
X178863474Y-118049838D01*
X178858834Y-118044308D01*
X178802982Y-117991613D01*
X175238693Y-114427324D01*
X175205208Y-114366001D01*
X175210192Y-114296309D01*
X175238691Y-114251964D01*
X176729056Y-112761599D01*
X176731748Y-112759065D01*
X176778183Y-112717929D01*
X176787101Y-112705007D01*
X176841380Y-112661016D01*
X176850110Y-112657752D01*
X176919334Y-112634814D01*
X177068656Y-112542712D01*
X177162675Y-112448692D01*
X177223994Y-112415210D01*
X177293686Y-112420194D01*
X177338034Y-112448695D01*
X177431654Y-112542315D01*
X177580875Y-112634356D01*
X177580880Y-112634358D01*
X177747302Y-112689505D01*
X177747309Y-112689506D01*
X177850019Y-112699999D01*
X177999999Y-112699999D01*
X178000000Y-112699998D01*
X178000000Y-111750000D01*
X178500000Y-111750000D01*
X178500000Y-112699999D01*
X178649972Y-112699999D01*
X178649986Y-112699998D01*
X178752697Y-112689505D01*
X178919119Y-112634358D01*
X178919124Y-112634356D01*
X179068345Y-112542315D01*
X179192315Y-112418345D01*
X179284356Y-112269124D01*
X179284358Y-112269119D01*
X179339505Y-112102697D01*
X179339506Y-112102690D01*
X179349999Y-111999986D01*
X179350000Y-111999973D01*
X179350000Y-111750000D01*
X178500000Y-111750000D01*
X178000000Y-111750000D01*
X178000000Y-110300000D01*
X178500000Y-110300000D01*
X178500000Y-111250000D01*
X179349999Y-111250000D01*
X179349999Y-111000028D01*
X179349998Y-111000013D01*
X179339505Y-110897302D01*
X179284358Y-110730880D01*
X179284356Y-110730875D01*
X179192315Y-110581654D01*
X179068345Y-110457684D01*
X178919124Y-110365643D01*
X178919119Y-110365641D01*
X178752697Y-110310494D01*
X178752690Y-110310493D01*
X178649986Y-110300000D01*
X178500000Y-110300000D01*
X178000000Y-110300000D01*
X177850027Y-110300000D01*
X177850012Y-110300001D01*
X177747302Y-110310494D01*
X177580880Y-110365641D01*
X177580875Y-110365643D01*
X177431657Y-110457682D01*
X177338034Y-110551305D01*
X177276710Y-110584789D01*
X177207019Y-110579805D01*
X177162672Y-110551304D01*
X177068657Y-110457289D01*
X177068656Y-110457288D01*
X176919334Y-110365186D01*
X176752797Y-110310001D01*
X176752795Y-110310000D01*
X176650010Y-110299500D01*
X175849998Y-110299500D01*
X175849980Y-110299501D01*
X175747203Y-110310000D01*
X175747200Y-110310001D01*
X175580668Y-110365185D01*
X175580663Y-110365187D01*
X175431342Y-110457289D01*
X175307289Y-110581342D01*
X175230539Y-110705775D01*
X175178591Y-110752499D01*
X175109628Y-110763722D01*
X175045546Y-110735878D01*
X175019461Y-110705775D01*
X174972626Y-110629843D01*
X174942712Y-110581344D01*
X174818656Y-110457288D01*
X174818655Y-110457287D01*
X174759402Y-110420739D01*
X174712678Y-110368791D01*
X174700500Y-110315201D01*
X174700500Y-110275117D01*
X174700613Y-110271372D01*
X174704357Y-110209476D01*
X174693177Y-110148468D01*
X174692615Y-110144771D01*
X174685140Y-110083211D01*
X174685139Y-110083207D01*
X174681546Y-110073733D01*
X174675519Y-110052111D01*
X174673694Y-110042152D01*
X174673694Y-110042150D01*
X174648241Y-109985596D01*
X174646807Y-109982134D01*
X174624818Y-109924153D01*
X174624818Y-109924152D01*
X174619058Y-109915808D01*
X174608035Y-109896262D01*
X174603878Y-109887025D01*
X174565617Y-109838189D01*
X174563417Y-109835199D01*
X174536717Y-109796516D01*
X174528185Y-109784155D01*
X174524160Y-109780589D01*
X174481750Y-109743017D01*
X174479056Y-109740481D01*
X174393144Y-109654569D01*
X174359659Y-109593246D01*
X174364643Y-109523554D01*
X174406515Y-109467621D01*
X174468224Y-109443530D01*
X174502797Y-109439999D01*
X174669334Y-109384814D01*
X174818656Y-109292712D01*
X174942712Y-109168656D01*
X175019461Y-109044224D01*
X175071409Y-108997500D01*
X175140371Y-108986277D01*
X175204453Y-109014120D01*
X175230538Y-109044224D01*
X175256812Y-109086821D01*
X175305380Y-109165564D01*
X175307288Y-109168656D01*
X175431344Y-109292712D01*
X175580666Y-109384814D01*
X175747203Y-109439999D01*
X175849991Y-109450500D01*
X176650008Y-109450499D01*
X176650016Y-109450498D01*
X176650019Y-109450498D01*
X176706302Y-109444748D01*
X176752797Y-109439999D01*
X176919334Y-109384814D01*
X177068656Y-109292712D01*
X177162319Y-109199049D01*
X177223642Y-109165564D01*
X177293334Y-109170548D01*
X177337681Y-109199049D01*
X177431344Y-109292712D01*
X177580666Y-109384814D01*
X177747203Y-109439999D01*
X177849991Y-109450500D01*
X178650008Y-109450499D01*
X178650016Y-109450498D01*
X178650019Y-109450498D01*
X178706302Y-109444748D01*
X178752797Y-109439999D01*
X178919334Y-109384814D01*
X179068656Y-109292712D01*
X179192712Y-109168656D01*
X179284814Y-109019334D01*
X179339999Y-108852797D01*
X179350500Y-108750009D01*
X179350499Y-107749992D01*
X179339999Y-107647203D01*
X179284814Y-107480666D01*
X179192712Y-107331344D01*
X179068656Y-107207288D01*
X179068655Y-107207287D01*
X179009402Y-107170739D01*
X178962678Y-107118791D01*
X178950500Y-107065201D01*
X178950500Y-105849499D01*
X178970185Y-105782460D01*
X179022989Y-105736705D01*
X179074500Y-105725499D01*
X179400002Y-105725499D01*
X179400008Y-105725499D01*
X179502797Y-105714999D01*
X179669334Y-105659814D01*
X179818656Y-105567712D01*
X179942712Y-105443656D01*
X180034814Y-105294334D01*
X180089999Y-105127797D01*
X180100500Y-105025009D01*
X180100499Y-103474992D01*
X180097434Y-103444992D01*
X180089999Y-103372203D01*
X180089998Y-103372200D01*
X180066415Y-103301032D01*
X180034814Y-103205666D01*
X179942712Y-103056344D01*
X179818656Y-102932288D01*
X179725888Y-102875069D01*
X179669336Y-102840187D01*
X179669331Y-102840185D01*
X179619857Y-102823791D01*
X179502797Y-102785001D01*
X179502795Y-102785000D01*
X179400010Y-102774500D01*
X178099998Y-102774500D01*
X178099981Y-102774501D01*
X177997203Y-102785000D01*
X177997200Y-102785001D01*
X177830668Y-102840185D01*
X177830663Y-102840187D01*
X177681342Y-102932289D01*
X177557289Y-103056342D01*
X177461821Y-103211121D01*
X177409873Y-103257845D01*
X177340910Y-103269068D01*
X177276828Y-103241224D01*
X177268601Y-103233705D01*
X177121402Y-103086506D01*
X177121395Y-103086501D01*
X176927834Y-102950967D01*
X176927830Y-102950965D01*
X176864436Y-102921404D01*
X176713663Y-102851097D01*
X176713659Y-102851096D01*
X176713655Y-102851094D01*
X176485413Y-102789938D01*
X176485403Y-102789936D01*
X176250001Y-102769341D01*
X176249999Y-102769341D01*
X176014596Y-102789936D01*
X176014586Y-102789938D01*
X175786344Y-102851094D01*
X175786335Y-102851098D01*
X175572171Y-102950964D01*
X175572169Y-102950965D01*
X175378597Y-103086505D01*
X175211505Y-103253597D01*
X175101575Y-103410595D01*
X175046998Y-103454220D01*
X174977500Y-103461414D01*
X174915145Y-103429891D01*
X174898425Y-103410595D01*
X174788494Y-103253597D01*
X174621402Y-103086506D01*
X174621395Y-103086501D01*
X174427834Y-102950967D01*
X174427830Y-102950965D01*
X174364436Y-102921404D01*
X174213663Y-102851097D01*
X174213659Y-102851096D01*
X174213655Y-102851094D01*
X173985413Y-102789938D01*
X173985403Y-102789936D01*
X173750001Y-102769341D01*
X173749999Y-102769341D01*
X173514596Y-102789936D01*
X173514586Y-102789938D01*
X173286344Y-102851094D01*
X173286335Y-102851098D01*
X173072171Y-102950964D01*
X173072169Y-102950965D01*
X172878597Y-103086505D01*
X172711505Y-103253597D01*
X172601575Y-103410595D01*
X172546998Y-103454220D01*
X172477500Y-103461414D01*
X172415145Y-103429891D01*
X172398425Y-103410595D01*
X172288494Y-103253597D01*
X172121402Y-103086506D01*
X172121395Y-103086501D01*
X171927834Y-102950967D01*
X171927830Y-102950965D01*
X171864436Y-102921404D01*
X171713663Y-102851097D01*
X171713659Y-102851096D01*
X171713655Y-102851094D01*
X171485413Y-102789938D01*
X171485403Y-102789936D01*
X171250001Y-102769341D01*
X171249999Y-102769341D01*
X171014596Y-102789936D01*
X171014586Y-102789938D01*
X170786344Y-102851094D01*
X170786335Y-102851098D01*
X170572171Y-102950964D01*
X170572169Y-102950965D01*
X170378597Y-103086505D01*
X170211505Y-103253597D01*
X170075965Y-103447169D01*
X170075964Y-103447171D01*
X169976098Y-103661335D01*
X169976094Y-103661344D01*
X169914938Y-103889586D01*
X169914936Y-103889596D01*
X169899500Y-104066034D01*
X169899500Y-104334715D01*
X169886312Y-104390364D01*
X169881414Y-104400115D01*
X169878945Y-104406900D01*
X169878889Y-104406879D01*
X169876417Y-104413993D01*
X169876472Y-104414012D01*
X169874199Y-104420870D01*
X169867989Y-104450950D01*
X169858664Y-104496108D01*
X169845458Y-104551827D01*
X169840955Y-104570829D01*
X169840118Y-104577997D01*
X169840058Y-104577990D01*
X169839292Y-104585488D01*
X169839352Y-104585494D01*
X169838722Y-104592683D01*
X169840957Y-104669459D01*
X169840957Y-106997432D01*
X169821272Y-107064471D01*
X169768468Y-107110226D01*
X169699310Y-107120170D01*
X169635754Y-107091145D01*
X169629276Y-107085113D01*
X166303523Y-103759361D01*
X166291743Y-103745730D01*
X166282117Y-103732801D01*
X166277406Y-103726472D01*
X166269693Y-103720000D01*
X166237381Y-103692886D01*
X166233406Y-103689244D01*
X166230484Y-103686322D01*
X166227574Y-103683411D01*
X166201834Y-103663059D01*
X166164904Y-103632071D01*
X166143008Y-103613698D01*
X166143007Y-103613697D01*
X166143003Y-103613694D01*
X166136974Y-103609729D01*
X166137006Y-103609680D01*
X166130647Y-103605628D01*
X166130616Y-103605679D01*
X166124474Y-103601891D01*
X166124472Y-103601890D01*
X166124471Y-103601889D01*
X166085268Y-103583608D01*
X166054852Y-103569424D01*
X166000179Y-103541967D01*
X165986227Y-103534960D01*
X165986225Y-103534959D01*
X165986224Y-103534959D01*
X165979439Y-103532489D01*
X165979459Y-103532433D01*
X165972343Y-103529959D01*
X165972325Y-103530015D01*
X165965465Y-103527742D01*
X165937635Y-103521996D01*
X165890228Y-103512207D01*
X165841266Y-103500603D01*
X165815513Y-103494499D01*
X165808341Y-103493661D01*
X165808347Y-103493601D01*
X165800849Y-103492835D01*
X165800844Y-103492895D01*
X165793654Y-103492265D01*
X165716877Y-103494500D01*
X161797535Y-103494500D01*
X161730496Y-103474815D01*
X161684741Y-103422011D01*
X161674177Y-103383102D01*
X161673663Y-103378071D01*
X161669999Y-103342203D01*
X161614814Y-103175666D01*
X161522712Y-103026344D01*
X161398656Y-102902288D01*
X161297970Y-102840185D01*
X161249336Y-102810187D01*
X161249331Y-102810185D01*
X161247862Y-102809698D01*
X161082797Y-102755001D01*
X161082795Y-102755000D01*
X160980010Y-102744500D01*
X159679998Y-102744500D01*
X159679981Y-102744501D01*
X159577203Y-102755000D01*
X159577200Y-102755001D01*
X159410668Y-102810185D01*
X159410663Y-102810187D01*
X159261342Y-102902289D01*
X159137288Y-103026343D01*
X159137285Y-103026347D01*
X159041550Y-103181558D01*
X158989602Y-103228283D01*
X158920640Y-103239504D01*
X158856558Y-103211661D01*
X158848331Y-103204143D01*
X158701078Y-103056891D01*
X158507578Y-102921399D01*
X158293492Y-102821570D01*
X158293486Y-102821567D01*
X158080000Y-102764364D01*
X158080000Y-103809498D01*
X157972315Y-103760320D01*
X157865763Y-103745000D01*
X157794237Y-103745000D01*
X157687685Y-103760320D01*
X157580000Y-103809498D01*
X157580000Y-102764364D01*
X157579999Y-102764364D01*
X157366513Y-102821567D01*
X157366507Y-102821570D01*
X157152422Y-102921399D01*
X157152420Y-102921400D01*
X156958926Y-103056886D01*
X156958920Y-103056891D01*
X156791891Y-103223920D01*
X156791886Y-103223926D01*
X156656400Y-103417420D01*
X156656399Y-103417422D01*
X156556570Y-103631507D01*
X156556566Y-103631516D01*
X156495432Y-103859673D01*
X156495430Y-103859684D01*
X156483592Y-103994999D01*
X156483593Y-103995000D01*
X157396314Y-103995000D01*
X157370507Y-104035156D01*
X157330000Y-104173111D01*
X157330000Y-104316889D01*
X157370507Y-104454844D01*
X157396314Y-104495000D01*
X156483592Y-104495000D01*
X156495430Y-104630315D01*
X156495432Y-104630326D01*
X156556566Y-104858483D01*
X156556570Y-104858492D01*
X156656399Y-105072577D01*
X156656400Y-105072579D01*
X156791886Y-105266073D01*
X156791891Y-105266079D01*
X156958917Y-105433105D01*
X157152421Y-105568600D01*
X157366507Y-105668429D01*
X157366516Y-105668433D01*
X157580000Y-105725634D01*
X157580000Y-104680501D01*
X157687685Y-104729680D01*
X157794237Y-104745000D01*
X157865763Y-104745000D01*
X157972315Y-104729680D01*
X158080000Y-104680501D01*
X158080000Y-105725633D01*
X158293483Y-105668433D01*
X158293492Y-105668429D01*
X158507577Y-105568600D01*
X158507579Y-105568599D01*
X158701073Y-105433113D01*
X158701079Y-105433108D01*
X158848331Y-105285857D01*
X158909654Y-105252372D01*
X158979346Y-105257356D01*
X159035279Y-105299228D01*
X159041551Y-105308441D01*
X159045186Y-105314334D01*
X159137288Y-105463656D01*
X159261344Y-105587712D01*
X159410666Y-105679814D01*
X159577203Y-105734999D01*
X159679991Y-105745500D01*
X160980008Y-105745499D01*
X160981154Y-105745382D01*
X160997895Y-105743671D01*
X161082797Y-105734999D01*
X161249334Y-105679814D01*
X161398656Y-105587712D01*
X161522712Y-105463656D01*
X161614814Y-105314334D01*
X161669999Y-105147797D01*
X161674177Y-105106896D01*
X161700573Y-105042207D01*
X161757753Y-105002055D01*
X161797535Y-104995500D01*
X165365564Y-104995500D01*
X165432603Y-105015185D01*
X165453245Y-105031819D01*
X167442288Y-107020862D01*
X167475773Y-107082185D01*
X167470789Y-107151877D01*
X167428917Y-107207810D01*
X167383728Y-107228356D01*
X167383731Y-107228364D01*
X167383662Y-107228386D01*
X167380563Y-107229796D01*
X167377304Y-107230493D01*
X167210880Y-107285641D01*
X167210875Y-107285643D01*
X167061654Y-107377684D01*
X166937683Y-107501655D01*
X166937679Y-107501660D01*
X166935826Y-107504665D01*
X166934018Y-107506290D01*
X166933202Y-107507323D01*
X166933025Y-107507183D01*
X166883874Y-107551385D01*
X166814911Y-107562601D01*
X166750831Y-107534752D01*
X166724753Y-107504653D01*
X166723424Y-107502499D01*
X166722712Y-107501344D01*
X166598656Y-107377288D01*
X166449334Y-107285186D01*
X166282797Y-107230001D01*
X166282795Y-107230000D01*
X166180010Y-107219500D01*
X165429998Y-107219500D01*
X165429980Y-107219501D01*
X165327203Y-107230000D01*
X165327200Y-107230001D01*
X165160668Y-107285185D01*
X165160663Y-107285187D01*
X165011342Y-107377289D01*
X164887288Y-107501343D01*
X164887286Y-107501346D01*
X164880786Y-107511884D01*
X164828837Y-107558606D01*
X164759874Y-107569826D01*
X164724814Y-107560062D01*
X164609807Y-107508857D01*
X164609802Y-107508855D01*
X164464001Y-107477865D01*
X164424646Y-107469500D01*
X164235354Y-107469500D01*
X164202897Y-107476398D01*
X164050197Y-107508855D01*
X164050192Y-107508857D01*
X163877270Y-107585848D01*
X163877265Y-107585851D01*
X163724129Y-107697111D01*
X163597466Y-107837785D01*
X163502821Y-108001715D01*
X163502818Y-108001722D01*
X163448142Y-108170000D01*
X163444326Y-108181744D01*
X163424540Y-108370000D01*
X163444326Y-108558256D01*
X163444327Y-108558259D01*
X163502818Y-108738277D01*
X163502821Y-108738284D01*
X163597467Y-108902216D01*
X163698226Y-109014120D01*
X163724129Y-109042888D01*
X163877265Y-109154148D01*
X163877270Y-109154151D01*
X164050192Y-109231142D01*
X164050197Y-109231144D01*
X164235354Y-109270500D01*
X164235355Y-109270500D01*
X164424644Y-109270500D01*
X164424646Y-109270500D01*
X164609803Y-109231144D01*
X164676425Y-109201481D01*
X164745672Y-109192196D01*
X164808949Y-109221824D01*
X164832396Y-109249662D01*
X164885249Y-109335351D01*
X164887289Y-109338657D01*
X165005951Y-109457319D01*
X165039436Y-109518642D01*
X165034452Y-109588334D01*
X165005951Y-109632681D01*
X164887289Y-109751342D01*
X164867365Y-109783644D01*
X164815416Y-109830367D01*
X164746453Y-109841588D01*
X164711392Y-109831825D01*
X164708117Y-109830367D01*
X164675337Y-109815772D01*
X164659801Y-109808855D01*
X164524624Y-109780123D01*
X164474646Y-109769500D01*
X164285354Y-109769500D01*
X164265392Y-109773743D01*
X164100197Y-109808855D01*
X164100192Y-109808857D01*
X163927270Y-109885848D01*
X163927265Y-109885851D01*
X163774129Y-109997111D01*
X163647466Y-110137785D01*
X163552821Y-110301715D01*
X163552818Y-110301722D01*
X163500657Y-110462259D01*
X163494326Y-110481744D01*
X163474540Y-110670000D01*
X163494326Y-110858256D01*
X163494327Y-110858259D01*
X163552818Y-111038277D01*
X163552821Y-111038284D01*
X163647467Y-111202216D01*
X163730967Y-111294952D01*
X163774129Y-111342888D01*
X163927265Y-111454148D01*
X163927270Y-111454151D01*
X164100192Y-111531142D01*
X164100197Y-111531144D01*
X164285354Y-111570500D01*
X164285355Y-111570500D01*
X164474644Y-111570500D01*
X164474646Y-111570500D01*
X164659803Y-111531144D01*
X164711392Y-111508174D01*
X164780640Y-111498889D01*
X164843917Y-111528517D01*
X164867365Y-111556357D01*
X164887285Y-111588652D01*
X164887288Y-111588656D01*
X164980951Y-111682319D01*
X165014436Y-111743642D01*
X165009452Y-111813334D01*
X164980951Y-111857681D01*
X164887288Y-111951343D01*
X164887285Y-111951347D01*
X164832397Y-112040335D01*
X164780449Y-112087060D01*
X164711487Y-112098281D01*
X164676423Y-112088517D01*
X164609807Y-112058857D01*
X164609802Y-112058855D01*
X164464001Y-112027865D01*
X164424646Y-112019500D01*
X164235354Y-112019500D01*
X164202897Y-112026398D01*
X164050197Y-112058855D01*
X164050192Y-112058857D01*
X163877270Y-112135848D01*
X163877265Y-112135851D01*
X163724129Y-112247111D01*
X163597466Y-112387785D01*
X163502821Y-112551715D01*
X163502818Y-112551722D01*
X163447441Y-112722156D01*
X163444326Y-112731744D01*
X163424540Y-112920000D01*
X163444326Y-113108256D01*
X163444327Y-113108259D01*
X163502818Y-113288277D01*
X163502821Y-113288284D01*
X163597467Y-113452216D01*
X163676496Y-113539986D01*
X163724129Y-113592888D01*
X163877265Y-113704148D01*
X163877270Y-113704151D01*
X164050192Y-113781142D01*
X164050197Y-113781144D01*
X164235354Y-113820500D01*
X164235355Y-113820500D01*
X164424644Y-113820500D01*
X164424646Y-113820500D01*
X164609803Y-113781144D01*
X164724815Y-113729936D01*
X164794063Y-113720652D01*
X164857340Y-113750279D01*
X164880788Y-113778118D01*
X164887287Y-113788655D01*
X164983168Y-113884536D01*
X165016653Y-113945859D01*
X165011669Y-114015551D01*
X164969797Y-114071484D01*
X164961783Y-114076940D01*
X164961343Y-114077288D01*
X164837289Y-114201342D01*
X164834237Y-114206290D01*
X164770975Y-114308856D01*
X164769901Y-114310597D01*
X164717953Y-114357321D01*
X164664362Y-114369500D01*
X164572367Y-114369500D01*
X164521931Y-114358779D01*
X164409807Y-114308857D01*
X164409802Y-114308855D01*
X164264001Y-114277865D01*
X164224646Y-114269500D01*
X164035354Y-114269500D01*
X164002897Y-114276398D01*
X163850197Y-114308855D01*
X163850192Y-114308857D01*
X163677270Y-114385848D01*
X163677265Y-114385851D01*
X163524129Y-114497111D01*
X163397466Y-114637785D01*
X163302821Y-114801715D01*
X163302818Y-114801722D01*
X163258742Y-114937375D01*
X163244326Y-114981744D01*
X163224540Y-115170000D01*
X163244326Y-115358256D01*
X163244327Y-115358259D01*
X163302818Y-115538277D01*
X163302821Y-115538284D01*
X163397467Y-115702216D01*
X163524129Y-115842888D01*
X163677265Y-115954148D01*
X163677270Y-115954151D01*
X163850192Y-116031142D01*
X163850197Y-116031144D01*
X164035354Y-116070500D01*
X164035355Y-116070500D01*
X164224644Y-116070500D01*
X164224646Y-116070500D01*
X164409803Y-116031144D01*
X164582730Y-115954151D01*
X164614312Y-115931205D01*
X164680116Y-115907725D01*
X164748170Y-115923550D01*
X164792735Y-115966426D01*
X164837285Y-116038652D01*
X164837288Y-116038656D01*
X164961344Y-116162712D01*
X165110666Y-116254814D01*
X165277203Y-116309999D01*
X165379991Y-116320500D01*
X166130008Y-116320499D01*
X166130016Y-116320498D01*
X166130019Y-116320498D01*
X166186302Y-116314748D01*
X166232797Y-116309999D01*
X166399334Y-116254814D01*
X166548656Y-116162712D01*
X166672712Y-116038656D01*
X166674752Y-116035347D01*
X166676745Y-116033555D01*
X166677193Y-116032989D01*
X166677289Y-116033065D01*
X166726694Y-115988623D01*
X166795656Y-115977395D01*
X166859740Y-116005234D01*
X166885829Y-116035339D01*
X166887681Y-116038341D01*
X166887683Y-116038344D01*
X167011654Y-116162315D01*
X167160875Y-116254356D01*
X167160880Y-116254358D01*
X167327302Y-116309505D01*
X167327309Y-116309506D01*
X167430019Y-116319999D01*
X167554999Y-116319999D01*
X167555000Y-116319998D01*
X167555000Y-115370000D01*
X168055000Y-115370000D01*
X168055000Y-116319999D01*
X168179972Y-116319999D01*
X168179986Y-116319998D01*
X168282697Y-116309505D01*
X168449119Y-116254358D01*
X168449124Y-116254356D01*
X168598345Y-116162315D01*
X168722315Y-116038345D01*
X168814356Y-115889124D01*
X168814358Y-115889119D01*
X168869505Y-115722697D01*
X168869506Y-115722690D01*
X168879999Y-115619986D01*
X168880000Y-115619973D01*
X168880000Y-115370000D01*
X168055000Y-115370000D01*
X167555000Y-115370000D01*
X167555000Y-114870000D01*
X168055000Y-114870000D01*
X168879999Y-114870000D01*
X168879999Y-114620028D01*
X168879998Y-114620013D01*
X168869505Y-114517302D01*
X168814358Y-114350880D01*
X168814356Y-114350875D01*
X168722315Y-114201654D01*
X168626030Y-114105369D01*
X168592545Y-114044046D01*
X168597529Y-113974354D01*
X168639401Y-113918421D01*
X168648183Y-113912443D01*
X168648344Y-113912316D01*
X168772315Y-113788345D01*
X168864356Y-113639124D01*
X168864358Y-113639119D01*
X168919505Y-113472697D01*
X168919506Y-113472690D01*
X168929999Y-113369986D01*
X168930000Y-113369973D01*
X168930000Y-113120000D01*
X168105000Y-113120000D01*
X168105000Y-114008638D01*
X168085315Y-114075677D01*
X168068681Y-114096319D01*
X168055000Y-114110000D01*
X168055000Y-114870000D01*
X167555000Y-114870000D01*
X167555000Y-113981362D01*
X167574685Y-113914323D01*
X167591319Y-113893681D01*
X167605000Y-113880000D01*
X167605000Y-108294000D01*
X167624685Y-108226961D01*
X167677489Y-108181206D01*
X167729000Y-108170000D01*
X167981000Y-108170000D01*
X168048039Y-108189685D01*
X168093794Y-108242489D01*
X168105000Y-108294000D01*
X168105000Y-112620000D01*
X168929997Y-112620000D01*
X168961633Y-112588364D01*
X169022956Y-112554879D01*
X169092648Y-112559863D01*
X169136996Y-112588364D01*
X172517228Y-115968596D01*
X172547478Y-116017958D01*
X172602819Y-116188280D01*
X172602821Y-116188284D01*
X172697467Y-116352216D01*
X172824129Y-116492888D01*
X172977265Y-116604148D01*
X172977270Y-116604151D01*
X173150191Y-116681142D01*
X173150193Y-116681142D01*
X173150197Y-116681144D01*
X173215329Y-116694987D01*
X173276809Y-116728178D01*
X173277228Y-116728596D01*
X176393181Y-119844549D01*
X176426666Y-119905872D01*
X176429500Y-119932230D01*
X176429500Y-144125500D01*
X176409815Y-144192539D01*
X176357011Y-144238294D01*
X176305500Y-144249500D01*
X169063705Y-144249500D01*
X169045735Y-144248191D01*
X169021972Y-144244710D01*
X168976533Y-144248686D01*
X168969931Y-144249264D01*
X168964530Y-144249500D01*
X168956289Y-144249500D01*
X168934579Y-144252037D01*
X168923724Y-144253306D01*
X168908419Y-144254645D01*
X168847199Y-144260001D01*
X168840132Y-144261460D01*
X168840120Y-144261404D01*
X168832763Y-144263035D01*
X168832777Y-144263092D01*
X168825743Y-144264759D01*
X168753575Y-144291025D01*
X168680675Y-144315181D01*
X168674126Y-144318236D01*
X168674101Y-144318183D01*
X168667308Y-144321471D01*
X168667334Y-144321523D01*
X168660880Y-144324764D01*
X168596708Y-144366971D01*
X168531347Y-144407285D01*
X168525683Y-144411765D01*
X168525647Y-144411719D01*
X168519798Y-144416484D01*
X168519835Y-144416528D01*
X168514310Y-144421164D01*
X168461597Y-144477035D01*
X163495451Y-149443181D01*
X163434128Y-149476666D01*
X163407770Y-149479500D01*
X161891429Y-149479500D01*
X161824390Y-149459815D01*
X161778635Y-149407011D01*
X161768691Y-149337853D01*
X161795822Y-149278443D01*
X161795044Y-149277841D01*
X161797613Y-149274520D01*
X161797716Y-149274297D01*
X161798198Y-149273765D01*
X161798891Y-149272868D01*
X161798895Y-149272866D01*
X161819928Y-149245691D01*
X161825098Y-149239821D01*
X166428467Y-144636452D01*
X166493053Y-144575059D01*
X166528099Y-144524706D01*
X166530938Y-144520941D01*
X166534612Y-144516435D01*
X166569698Y-144473407D01*
X166585601Y-144442960D01*
X166589674Y-144436239D01*
X166603393Y-144416528D01*
X166609295Y-144408049D01*
X166633492Y-144351660D01*
X166635498Y-144347435D01*
X166663909Y-144293049D01*
X166673357Y-144260022D01*
X166675988Y-144252633D01*
X166689540Y-144221058D01*
X166701895Y-144160930D01*
X166702999Y-144156429D01*
X166719886Y-144097418D01*
X166722494Y-144063157D01*
X166723585Y-144055389D01*
X166730500Y-144021743D01*
X166730500Y-143960398D01*
X166730679Y-143955688D01*
X166735337Y-143894524D01*
X166732473Y-143872038D01*
X166730997Y-143860442D01*
X166730500Y-143852603D01*
X166730500Y-137587763D01*
X168825787Y-137587763D01*
X168855413Y-137857013D01*
X168855415Y-137857024D01*
X168923926Y-138119082D01*
X168923928Y-138119088D01*
X169029870Y-138368390D01*
X169101998Y-138486575D01*
X169170979Y-138599605D01*
X169170986Y-138599615D01*
X169344253Y-138807819D01*
X169344259Y-138807824D01*
X169383056Y-138842586D01*
X169545998Y-138988582D01*
X169771910Y-139138044D01*
X170017176Y-139253020D01*
X170017183Y-139253022D01*
X170017185Y-139253023D01*
X170276557Y-139331057D01*
X170276564Y-139331058D01*
X170276569Y-139331060D01*
X170544561Y-139370500D01*
X170544566Y-139370500D01*
X170747636Y-139370500D01*
X170799133Y-139366730D01*
X170950156Y-139355677D01*
X171062758Y-139330593D01*
X171214546Y-139296782D01*
X171214548Y-139296781D01*
X171214553Y-139296780D01*
X171467558Y-139200014D01*
X171703777Y-139067441D01*
X171918177Y-138901888D01*
X172106186Y-138706881D01*
X172263799Y-138486579D01*
X172337787Y-138342669D01*
X172387649Y-138245690D01*
X172387651Y-138245684D01*
X172387656Y-138245675D01*
X172475118Y-137989305D01*
X172524319Y-137722933D01*
X172534212Y-137452235D01*
X172504586Y-137182982D01*
X172436072Y-136920912D01*
X172330130Y-136671610D01*
X172189018Y-136440390D01*
X172179655Y-136429139D01*
X172015746Y-136232180D01*
X172015740Y-136232175D01*
X171814002Y-136051418D01*
X171588092Y-135901957D01*
X171588090Y-135901956D01*
X171342824Y-135786980D01*
X171342819Y-135786978D01*
X171342814Y-135786976D01*
X171083442Y-135708942D01*
X171083428Y-135708939D01*
X170967791Y-135691921D01*
X170815439Y-135669500D01*
X170612369Y-135669500D01*
X170612364Y-135669500D01*
X170409844Y-135684323D01*
X170409831Y-135684325D01*
X170145453Y-135743217D01*
X170145446Y-135743220D01*
X169892439Y-135839987D01*
X169656226Y-135972557D01*
X169441822Y-136138112D01*
X169253822Y-136333109D01*
X169253816Y-136333116D01*
X169096202Y-136553419D01*
X169096199Y-136553424D01*
X168972350Y-136794309D01*
X168972343Y-136794327D01*
X168884884Y-137050685D01*
X168884881Y-137050699D01*
X168875271Y-137102729D01*
X168840522Y-137290861D01*
X168835681Y-137317068D01*
X168835680Y-137317075D01*
X168825787Y-137587763D01*
X166730500Y-137587763D01*
X166730500Y-127182698D01*
X166732757Y-127093641D01*
X166732756Y-127093640D01*
X166732757Y-127093637D01*
X166721933Y-127033249D01*
X166721280Y-127028587D01*
X166715074Y-126967563D01*
X166715074Y-126967562D01*
X166704784Y-126934768D01*
X166702917Y-126927155D01*
X166696858Y-126893347D01*
X166696857Y-126893345D01*
X166675494Y-126839865D01*
X166674100Y-126836374D01*
X166672521Y-126831938D01*
X166666385Y-126812382D01*
X166654159Y-126773412D01*
X166654158Y-126773410D01*
X166654157Y-126773407D01*
X166637488Y-126743378D01*
X166634117Y-126736278D01*
X166621378Y-126704386D01*
X166621377Y-126704383D01*
X166587620Y-126653163D01*
X166585180Y-126649134D01*
X166574379Y-126629675D01*
X166555409Y-126595498D01*
X166555407Y-126595495D01*
X166533033Y-126569434D01*
X166528302Y-126563159D01*
X166526593Y-126560566D01*
X166509402Y-126534481D01*
X166466012Y-126491091D01*
X166462822Y-126487648D01*
X166422867Y-126441106D01*
X166422863Y-126441102D01*
X166395698Y-126420074D01*
X166389803Y-126414882D01*
X164596451Y-124621531D01*
X164535061Y-124556949D01*
X164535060Y-124556948D01*
X164535059Y-124556947D01*
X164488677Y-124524664D01*
X164484709Y-124521902D01*
X164480946Y-124519064D01*
X164433413Y-124480305D01*
X164433406Y-124480300D01*
X164402959Y-124464397D01*
X164396251Y-124460334D01*
X164368049Y-124440705D01*
X164368046Y-124440703D01*
X164368045Y-124440703D01*
X164368041Y-124440701D01*
X164311680Y-124416514D01*
X164307424Y-124414493D01*
X164253057Y-124386094D01*
X164253050Y-124386091D01*
X164253049Y-124386091D01*
X164247008Y-124384362D01*
X164220030Y-124376642D01*
X164212630Y-124374008D01*
X164181057Y-124360459D01*
X164181058Y-124360459D01*
X164120966Y-124348109D01*
X164116391Y-124346986D01*
X164057420Y-124330113D01*
X164057425Y-124330113D01*
X164023158Y-124327503D01*
X164015380Y-124326412D01*
X163981742Y-124319500D01*
X163981741Y-124319500D01*
X163920402Y-124319500D01*
X163915695Y-124319321D01*
X163910121Y-124318896D01*
X163854524Y-124314662D01*
X163834589Y-124317201D01*
X163820440Y-124319003D01*
X163812611Y-124319500D01*
X163170491Y-124319500D01*
X163107992Y-124301148D01*
X163107421Y-124302138D01*
X163102733Y-124299431D01*
X162978452Y-124241478D01*
X162896496Y-124203261D01*
X162896492Y-124203260D01*
X162896488Y-124203258D01*
X162676697Y-124144366D01*
X162676687Y-124144364D01*
X162506784Y-124129500D01*
X161993216Y-124129500D01*
X161823312Y-124144364D01*
X161823302Y-124144366D01*
X161603511Y-124203258D01*
X161603502Y-124203261D01*
X161397267Y-124299431D01*
X161397265Y-124299432D01*
X161210858Y-124429954D01*
X161049954Y-124590858D01*
X160919432Y-124777265D01*
X160919431Y-124777267D01*
X160823261Y-124983502D01*
X160823258Y-124983511D01*
X160764366Y-125203302D01*
X160764364Y-125203313D01*
X160744532Y-125429998D01*
X160744532Y-125430001D01*
X160764364Y-125656686D01*
X160764366Y-125656697D01*
X160823258Y-125876488D01*
X160823261Y-125876497D01*
X160919431Y-126082732D01*
X160919432Y-126082734D01*
X161049954Y-126269141D01*
X161210858Y-126430045D01*
X161210861Y-126430047D01*
X161397266Y-126560568D01*
X161455865Y-126587893D01*
X161508305Y-126634065D01*
X161527457Y-126701258D01*
X161507242Y-126768139D01*
X161455867Y-126812657D01*
X161397515Y-126839867D01*
X161211179Y-126970342D01*
X161050342Y-127131179D01*
X160919865Y-127317517D01*
X160823734Y-127523673D01*
X160823730Y-127523682D01*
X160771127Y-127719999D01*
X160771128Y-127720000D01*
X161816314Y-127720000D01*
X161790507Y-127760156D01*
X161750000Y-127898111D01*
X161750000Y-128041889D01*
X161790507Y-128179844D01*
X161816314Y-128220000D01*
X160771128Y-128220000D01*
X160823730Y-128416317D01*
X160823734Y-128416326D01*
X160919865Y-128622482D01*
X161050342Y-128808820D01*
X161211179Y-128969657D01*
X161397518Y-129100134D01*
X161397520Y-129100135D01*
X161455865Y-129127342D01*
X161508305Y-129173514D01*
X161527457Y-129240707D01*
X161507242Y-129307589D01*
X161455867Y-129352105D01*
X161397268Y-129379431D01*
X161397264Y-129379433D01*
X161210858Y-129509954D01*
X161049958Y-129670854D01*
X161049489Y-129671414D01*
X161049220Y-129671592D01*
X161046124Y-129674689D01*
X161045501Y-129674066D01*
X160991317Y-129710115D01*
X160921456Y-129711223D01*
X160862086Y-129674386D01*
X160832057Y-129611298D01*
X160830500Y-129591707D01*
X160830500Y-129243035D01*
X160830613Y-129239290D01*
X160834357Y-129177394D01*
X160823177Y-129116386D01*
X160822615Y-129112689D01*
X160815140Y-129051129D01*
X160815139Y-129051125D01*
X160811546Y-129041651D01*
X160805519Y-129020029D01*
X160803694Y-129010068D01*
X160778239Y-128953512D01*
X160776809Y-128950057D01*
X160763646Y-128915349D01*
X160754818Y-128892070D01*
X160749059Y-128883727D01*
X160738030Y-128864172D01*
X160733877Y-128854943D01*
X160733874Y-128854938D01*
X160695633Y-128806127D01*
X160693413Y-128803110D01*
X160666781Y-128764528D01*
X160658183Y-128752071D01*
X160611750Y-128710935D01*
X160609056Y-128708399D01*
X156866819Y-124966162D01*
X156833334Y-124904839D01*
X156830500Y-124878481D01*
X156830500Y-124841869D01*
X156850185Y-124774830D01*
X156902989Y-124729075D01*
X156915486Y-124724166D01*
X157049334Y-124679814D01*
X157198656Y-124587712D01*
X157322712Y-124463656D01*
X157414814Y-124314334D01*
X157469999Y-124147797D01*
X157480500Y-124045009D01*
X157480499Y-122494992D01*
X157479156Y-122481849D01*
X157469999Y-122392203D01*
X157469998Y-122392200D01*
X157432104Y-122277845D01*
X157414814Y-122225666D01*
X157322712Y-122076344D01*
X157198656Y-121952288D01*
X157067786Y-121871567D01*
X157049336Y-121860187D01*
X157049331Y-121860185D01*
X157047862Y-121859698D01*
X156882797Y-121805001D01*
X156882795Y-121805000D01*
X156780010Y-121794500D01*
X155479998Y-121794500D01*
X155479981Y-121794501D01*
X155377203Y-121805000D01*
X155377200Y-121805001D01*
X155210668Y-121860185D01*
X155210663Y-121860187D01*
X155061342Y-121952289D01*
X154937289Y-122076342D01*
X154841821Y-122231121D01*
X154789873Y-122277845D01*
X154720910Y-122289068D01*
X154656828Y-122261224D01*
X154648601Y-122253705D01*
X154501402Y-122106506D01*
X154501395Y-122106501D01*
X154307834Y-121970967D01*
X154307830Y-121970965D01*
X154267777Y-121952288D01*
X154093663Y-121871097D01*
X154093659Y-121871096D01*
X154093655Y-121871094D01*
X153865413Y-121809938D01*
X153865403Y-121809936D01*
X153630001Y-121789341D01*
X153629999Y-121789341D01*
X153394596Y-121809936D01*
X153394586Y-121809938D01*
X153166344Y-121871094D01*
X153166335Y-121871098D01*
X152952171Y-121970964D01*
X152952169Y-121970965D01*
X152758597Y-122106505D01*
X152591505Y-122273597D01*
X152481575Y-122430595D01*
X152426998Y-122474220D01*
X152357500Y-122481414D01*
X152295145Y-122449891D01*
X152278425Y-122430595D01*
X152168494Y-122273597D01*
X152001402Y-122106506D01*
X152001395Y-122106501D01*
X151807834Y-121970967D01*
X151807830Y-121970965D01*
X151767777Y-121952288D01*
X151593663Y-121871097D01*
X151593659Y-121871096D01*
X151593655Y-121871094D01*
X151365413Y-121809938D01*
X151365403Y-121809936D01*
X151130001Y-121789341D01*
X151129999Y-121789341D01*
X150894596Y-121809936D01*
X150894586Y-121809938D01*
X150666344Y-121871094D01*
X150666335Y-121871098D01*
X150452171Y-121970964D01*
X150452169Y-121970965D01*
X150258597Y-122106505D01*
X150091508Y-122273594D01*
X149981269Y-122431032D01*
X149926692Y-122474656D01*
X149857193Y-122481849D01*
X149794839Y-122450327D01*
X149778119Y-122431031D01*
X149668113Y-122273926D01*
X149668108Y-122273920D01*
X149501082Y-122106894D01*
X149307578Y-121971399D01*
X149093492Y-121871570D01*
X149093486Y-121871567D01*
X148880000Y-121814364D01*
X148880000Y-122861981D01*
X148765199Y-122809554D01*
X148663975Y-122795000D01*
X148596025Y-122795000D01*
X148494801Y-122809554D01*
X148380000Y-122861981D01*
X148380000Y-121814364D01*
X148379999Y-121814364D01*
X148166513Y-121871567D01*
X148166507Y-121871570D01*
X147952422Y-121971399D01*
X147952420Y-121971400D01*
X147758926Y-122106886D01*
X147758920Y-122106891D01*
X147591891Y-122273920D01*
X147591886Y-122273926D01*
X147456400Y-122467420D01*
X147456399Y-122467422D01*
X147356570Y-122681507D01*
X147356566Y-122681516D01*
X147295432Y-122909673D01*
X147295430Y-122909683D01*
X147285779Y-123020000D01*
X148226031Y-123020000D01*
X148193481Y-123070649D01*
X148155000Y-123201705D01*
X148155000Y-123338295D01*
X148193481Y-123469351D01*
X148226031Y-123520000D01*
X147285779Y-123520000D01*
X147295430Y-123630316D01*
X147295432Y-123630326D01*
X147356566Y-123858483D01*
X147356570Y-123858492D01*
X147456399Y-124072577D01*
X147456400Y-124072579D01*
X147591886Y-124266073D01*
X147591891Y-124266079D01*
X147758917Y-124433105D01*
X147952421Y-124568600D01*
X148166507Y-124668429D01*
X148166516Y-124668433D01*
X148380000Y-124725634D01*
X148380000Y-123678018D01*
X148494801Y-123730446D01*
X148596025Y-123745000D01*
X148663975Y-123745000D01*
X148765199Y-123730446D01*
X148880000Y-123678018D01*
X148880000Y-124725633D01*
X149093483Y-124668433D01*
X149093492Y-124668429D01*
X149307577Y-124568600D01*
X149307579Y-124568599D01*
X149501073Y-124433113D01*
X149501079Y-124433108D01*
X149668108Y-124266079D01*
X149668113Y-124266073D01*
X149778119Y-124108967D01*
X149832695Y-124065342D01*
X149902194Y-124058148D01*
X149964549Y-124089670D01*
X149981269Y-124108967D01*
X150091506Y-124266403D01*
X150258596Y-124433493D01*
X150258599Y-124433495D01*
X150375307Y-124515215D01*
X150376623Y-124516136D01*
X150420248Y-124570713D01*
X150429500Y-124617711D01*
X150429500Y-129196951D01*
X150429387Y-129200696D01*
X150427010Y-129240000D01*
X150425642Y-129262606D01*
X150428168Y-129276389D01*
X150436821Y-129323612D01*
X150437384Y-129327313D01*
X150444859Y-129388870D01*
X150444860Y-129388874D01*
X150448451Y-129398343D01*
X150454474Y-129419946D01*
X150456304Y-129429930D01*
X150481759Y-129486490D01*
X150483189Y-129489941D01*
X150505182Y-129547930D01*
X150505183Y-129547931D01*
X150510936Y-129556266D01*
X150521961Y-129575813D01*
X150526120Y-129585055D01*
X150526122Y-129585057D01*
X150564222Y-129633689D01*
X150564371Y-129633878D01*
X150566591Y-129636896D01*
X150601812Y-129687924D01*
X150601816Y-129687928D01*
X150601817Y-129687929D01*
X150648250Y-129729064D01*
X150650941Y-129731598D01*
X152176946Y-131257603D01*
X153677162Y-132757819D01*
X153710647Y-132819142D01*
X153705663Y-132888834D01*
X153663791Y-132944767D01*
X153598327Y-132969184D01*
X153589481Y-132969500D01*
X153585354Y-132969500D01*
X153552897Y-132976398D01*
X153400197Y-133008855D01*
X153400192Y-133008857D01*
X153227270Y-133085848D01*
X153227265Y-133085851D01*
X153213548Y-133095818D01*
X153147742Y-133119298D01*
X153140663Y-133119500D01*
X147338156Y-133119500D01*
X147271117Y-133099815D01*
X147265271Y-133095818D01*
X147182734Y-133035851D01*
X147182729Y-133035848D01*
X147009807Y-132958857D01*
X147009802Y-132958855D01*
X146864001Y-132927865D01*
X146824646Y-132919500D01*
X146635354Y-132919500D01*
X146602897Y-132926398D01*
X146450197Y-132958855D01*
X146450192Y-132958857D01*
X146277270Y-133035848D01*
X146277265Y-133035851D01*
X146124129Y-133147111D01*
X145997466Y-133287785D01*
X145902821Y-133451715D01*
X145902818Y-133451722D01*
X145844327Y-133631740D01*
X145844326Y-133631744D01*
X145824540Y-133820000D01*
X145844326Y-134008256D01*
X145844327Y-134008259D01*
X145902818Y-134188277D01*
X145902821Y-134188284D01*
X145997467Y-134352216D01*
X146069649Y-134432382D01*
X146124129Y-134492888D01*
X146277265Y-134604148D01*
X146277270Y-134604151D01*
X146450192Y-134681142D01*
X146450197Y-134681144D01*
X146635354Y-134720500D01*
X146635355Y-134720500D01*
X146824644Y-134720500D01*
X146824646Y-134720500D01*
X147009803Y-134681144D01*
X147182730Y-134604151D01*
X147202272Y-134589953D01*
X147265271Y-134544182D01*
X147331077Y-134520702D01*
X147338156Y-134520500D01*
X153003025Y-134520500D01*
X153070064Y-134540185D01*
X153075910Y-134544182D01*
X153227265Y-134654148D01*
X153227270Y-134654151D01*
X153400192Y-134731142D01*
X153400197Y-134731144D01*
X153585354Y-134770500D01*
X153585355Y-134770500D01*
X153774644Y-134770500D01*
X153774646Y-134770500D01*
X153959803Y-134731144D01*
X154132730Y-134654151D01*
X154285871Y-134542888D01*
X154412533Y-134402216D01*
X154507179Y-134238284D01*
X154565674Y-134058256D01*
X154577676Y-133944052D01*
X154604260Y-133879440D01*
X154661558Y-133839455D01*
X154731377Y-133836795D01*
X154788678Y-133869335D01*
X158137162Y-137217819D01*
X158170647Y-137279142D01*
X158165663Y-137348834D01*
X158123791Y-137404767D01*
X158058327Y-137429184D01*
X158049481Y-137429500D01*
X149343048Y-137429500D01*
X149339303Y-137429387D01*
X149277396Y-137425642D01*
X149277389Y-137425642D01*
X149216386Y-137436821D01*
X149212685Y-137437384D01*
X149151128Y-137444859D01*
X149151121Y-137444861D01*
X149141647Y-137448454D01*
X149120049Y-137454475D01*
X149110069Y-137456304D01*
X149053519Y-137481755D01*
X149050060Y-137483188D01*
X148992071Y-137505181D01*
X148992066Y-137505184D01*
X148983722Y-137510943D01*
X148964187Y-137521961D01*
X148954947Y-137526120D01*
X148954945Y-137526121D01*
X148906136Y-137564359D01*
X148903122Y-137566576D01*
X148852070Y-137601817D01*
X148852068Y-137601818D01*
X148810942Y-137648240D01*
X148808375Y-137650966D01*
X146617026Y-139842316D01*
X146555703Y-139875801D01*
X146555126Y-139875925D01*
X146400197Y-139908855D01*
X146400192Y-139908857D01*
X146227270Y-139985848D01*
X146227265Y-139985851D01*
X146074129Y-140097111D01*
X145947466Y-140237785D01*
X145852821Y-140401715D01*
X145852818Y-140401722D01*
X145794327Y-140581740D01*
X145794326Y-140581744D01*
X145774540Y-140770000D01*
X145794326Y-140958256D01*
X145794327Y-140958259D01*
X145852818Y-141138277D01*
X145852821Y-141138284D01*
X145947467Y-141302216D01*
X146053971Y-141420500D01*
X146074129Y-141442888D01*
X146227265Y-141554148D01*
X146227270Y-141554151D01*
X146400192Y-141631142D01*
X146400197Y-141631144D01*
X146585354Y-141670500D01*
X146585355Y-141670500D01*
X146774644Y-141670500D01*
X146774646Y-141670500D01*
X146959803Y-141631144D01*
X147132730Y-141554151D01*
X147285871Y-141442888D01*
X147412533Y-141302216D01*
X147507179Y-141138284D01*
X147565674Y-140958256D01*
X147570864Y-140908869D01*
X147597447Y-140844258D01*
X147606494Y-140834161D01*
X149573838Y-138866819D01*
X149635161Y-138833334D01*
X149661519Y-138830500D01*
X159965073Y-138830500D01*
X159987424Y-138832531D01*
X159997394Y-138834358D01*
X160051957Y-138831057D01*
X160059303Y-138830613D01*
X160063048Y-138830500D01*
X160888327Y-138830500D01*
X160955366Y-138850185D01*
X160989902Y-138883377D01*
X161049954Y-138969141D01*
X161210858Y-139130045D01*
X161210861Y-139130047D01*
X161397266Y-139260568D01*
X161455275Y-139287618D01*
X161507714Y-139333791D01*
X161526866Y-139400984D01*
X161506650Y-139467865D01*
X161455275Y-139512382D01*
X161397267Y-139539431D01*
X161397265Y-139539432D01*
X161210858Y-139669954D01*
X161049954Y-139830858D01*
X160919432Y-140017265D01*
X160919431Y-140017267D01*
X160823261Y-140223502D01*
X160823258Y-140223511D01*
X160764366Y-140443302D01*
X160764364Y-140443313D01*
X160744532Y-140669998D01*
X160744532Y-140670001D01*
X160764364Y-140896686D01*
X160764366Y-140896697D01*
X160823258Y-141116488D01*
X160823261Y-141116497D01*
X160919431Y-141322732D01*
X160919432Y-141322734D01*
X161049954Y-141509141D01*
X161210858Y-141670045D01*
X161210861Y-141670047D01*
X161397266Y-141800568D01*
X161455275Y-141827618D01*
X161507714Y-141873791D01*
X161526866Y-141940984D01*
X161506650Y-142007865D01*
X161455275Y-142052382D01*
X161397267Y-142079431D01*
X161397265Y-142079432D01*
X161210858Y-142209954D01*
X161049954Y-142370858D01*
X160919432Y-142557265D01*
X160919431Y-142557267D01*
X160823261Y-142763502D01*
X160823258Y-142763511D01*
X160764366Y-142983302D01*
X160764364Y-142983313D01*
X160744532Y-143209998D01*
X160744532Y-143210001D01*
X160764364Y-143436686D01*
X160764366Y-143436697D01*
X160823258Y-143656488D01*
X160823261Y-143656497D01*
X160919431Y-143862732D01*
X160919432Y-143862734D01*
X161049954Y-144049141D01*
X161210858Y-144210045D01*
X161210861Y-144210047D01*
X161397266Y-144340568D01*
X161603504Y-144436739D01*
X161823308Y-144495635D01*
X161993216Y-144510500D01*
X162506784Y-144510500D01*
X162676692Y-144495635D01*
X162896496Y-144436739D01*
X163102734Y-144340568D01*
X163289139Y-144210047D01*
X163450047Y-144049139D01*
X163580568Y-143862734D01*
X163676739Y-143656496D01*
X163735635Y-143436692D01*
X163755468Y-143210000D01*
X163735635Y-142983308D01*
X163676739Y-142763504D01*
X163580568Y-142557266D01*
X163450047Y-142370861D01*
X163450045Y-142370858D01*
X163289141Y-142209954D01*
X163102734Y-142079432D01*
X163102728Y-142079429D01*
X163044725Y-142052382D01*
X162992285Y-142006210D01*
X162973133Y-141939017D01*
X162993348Y-141872135D01*
X163044725Y-141827618D01*
X163102734Y-141800568D01*
X163289139Y-141670047D01*
X163450047Y-141509139D01*
X163580568Y-141322734D01*
X163676739Y-141116496D01*
X163735635Y-140896692D01*
X163755468Y-140670000D01*
X163735635Y-140443308D01*
X163676739Y-140223504D01*
X163580568Y-140017266D01*
X163450047Y-139830861D01*
X163450045Y-139830858D01*
X163289141Y-139669954D01*
X163102734Y-139539432D01*
X163102728Y-139539429D01*
X163044725Y-139512382D01*
X162992285Y-139466210D01*
X162973133Y-139399017D01*
X162993348Y-139332135D01*
X163044725Y-139287618D01*
X163102734Y-139260568D01*
X163289139Y-139130047D01*
X163450047Y-138969139D01*
X163580568Y-138782734D01*
X163676739Y-138576496D01*
X163735635Y-138356692D01*
X163755468Y-138130000D01*
X163735635Y-137903308D01*
X163676739Y-137683504D01*
X163580568Y-137477266D01*
X163468397Y-137317068D01*
X163450045Y-137290858D01*
X163289141Y-137129954D01*
X163102734Y-136999432D01*
X163102728Y-136999429D01*
X163044725Y-136972382D01*
X162992285Y-136926210D01*
X162973133Y-136859017D01*
X162993348Y-136792135D01*
X163044725Y-136747618D01*
X163102734Y-136720568D01*
X163289139Y-136590047D01*
X163450047Y-136429139D01*
X163580568Y-136242734D01*
X163676739Y-136036496D01*
X163735635Y-135816692D01*
X163755468Y-135590000D01*
X163735635Y-135363308D01*
X163676739Y-135143504D01*
X163580568Y-134937266D01*
X163450047Y-134750861D01*
X163450045Y-134750858D01*
X163289141Y-134589954D01*
X163102734Y-134459432D01*
X163102728Y-134459429D01*
X163044725Y-134432382D01*
X162992285Y-134386210D01*
X162973133Y-134319017D01*
X162993348Y-134252135D01*
X163044725Y-134207618D01*
X163102734Y-134180568D01*
X163289139Y-134050047D01*
X163450047Y-133889139D01*
X163580568Y-133702734D01*
X163676739Y-133496496D01*
X163735635Y-133276692D01*
X163755468Y-133050000D01*
X163751868Y-133008857D01*
X163748425Y-132969500D01*
X163735635Y-132823308D01*
X163676739Y-132603504D01*
X163580568Y-132397266D01*
X163450047Y-132210861D01*
X163450045Y-132210858D01*
X163289141Y-132049954D01*
X163102734Y-131919432D01*
X163102728Y-131919429D01*
X163044725Y-131892382D01*
X162992285Y-131846210D01*
X162973133Y-131779017D01*
X162993348Y-131712135D01*
X163044725Y-131667618D01*
X163102734Y-131640568D01*
X163289139Y-131510047D01*
X163450047Y-131349139D01*
X163580568Y-131162734D01*
X163676739Y-130956496D01*
X163735635Y-130736692D01*
X163755468Y-130510000D01*
X163735635Y-130283308D01*
X163676739Y-130063504D01*
X163580568Y-129857266D01*
X163450047Y-129670861D01*
X163450045Y-129670858D01*
X163289141Y-129509954D01*
X163102734Y-129379432D01*
X163102732Y-129379431D01*
X163091275Y-129374088D01*
X163044132Y-129352105D01*
X162991694Y-129305934D01*
X162972542Y-129238740D01*
X162992758Y-129171859D01*
X163044134Y-129127341D01*
X163102484Y-129100132D01*
X163288820Y-128969657D01*
X163449657Y-128808820D01*
X163580134Y-128622482D01*
X163676265Y-128416326D01*
X163676269Y-128416317D01*
X163728872Y-128220000D01*
X162683686Y-128220000D01*
X162709493Y-128179844D01*
X162750000Y-128041889D01*
X162750000Y-127898111D01*
X162709493Y-127760156D01*
X162683686Y-127720000D01*
X163728872Y-127720000D01*
X163728872Y-127719999D01*
X163676269Y-127523682D01*
X163676265Y-127523673D01*
X163580134Y-127317517D01*
X163449657Y-127131179D01*
X163288820Y-126970342D01*
X163102482Y-126839865D01*
X163044133Y-126812657D01*
X162991694Y-126766484D01*
X162972542Y-126699291D01*
X162992758Y-126632410D01*
X163044129Y-126587895D01*
X163102734Y-126560568D01*
X163289139Y-126430047D01*
X163344453Y-126374732D01*
X163405772Y-126341249D01*
X163475464Y-126346233D01*
X163519813Y-126374734D01*
X164693181Y-127548101D01*
X164726666Y-127609424D01*
X164729500Y-127635782D01*
X164729500Y-143454217D01*
X164709815Y-143521256D01*
X164693181Y-143541898D01*
X160691899Y-147543181D01*
X160630576Y-147576666D01*
X160604218Y-147579500D01*
X158846500Y-147579500D01*
X158779461Y-147559815D01*
X158755270Y-147539483D01*
X158619744Y-147392262D01*
X158423509Y-147239526D01*
X158423507Y-147239525D01*
X158423506Y-147239524D01*
X158204811Y-147121172D01*
X158204802Y-147121169D01*
X157969616Y-147040429D01*
X157724335Y-146999500D01*
X157475665Y-146999500D01*
X157230383Y-147040429D01*
X156995197Y-147121169D01*
X156995188Y-147121172D01*
X156776493Y-147239524D01*
X156580257Y-147392261D01*
X156411833Y-147575217D01*
X156275826Y-147783393D01*
X156175936Y-148011118D01*
X156114892Y-148252175D01*
X156114890Y-148252187D01*
X156094357Y-148499994D01*
X156094357Y-148500005D01*
X156114890Y-148747812D01*
X156114892Y-148747824D01*
X156175936Y-148988881D01*
X156275826Y-149216606D01*
X156322260Y-149287679D01*
X156342448Y-149354569D01*
X156323267Y-149421754D01*
X156270808Y-149467904D01*
X156218451Y-149479500D01*
X151752230Y-149479500D01*
X151685191Y-149459815D01*
X151664549Y-149443181D01*
X150892770Y-148671402D01*
X150862521Y-148622041D01*
X150807179Y-148451716D01*
X150712533Y-148287784D01*
X150585871Y-148147112D01*
X150585870Y-148147111D01*
X150432734Y-148035851D01*
X150432729Y-148035848D01*
X150259807Y-147958857D01*
X150259802Y-147958855D01*
X150114001Y-147927865D01*
X150074646Y-147919500D01*
X149885354Y-147919500D01*
X149852897Y-147926398D01*
X149700197Y-147958855D01*
X149700192Y-147958857D01*
X149527270Y-148035848D01*
X149527265Y-148035851D01*
X149374129Y-148147111D01*
X149247466Y-148287785D01*
X149152821Y-148451715D01*
X149152818Y-148451722D01*
X149097479Y-148622039D01*
X149094326Y-148631744D01*
X149074540Y-148820000D01*
X149094326Y-149008256D01*
X149094327Y-149008259D01*
X149152818Y-149188277D01*
X149152821Y-149188284D01*
X149247467Y-149352216D01*
X149344350Y-149459815D01*
X149374129Y-149492888D01*
X149527265Y-149604148D01*
X149527270Y-149604151D01*
X149700191Y-149681142D01*
X149700194Y-149681142D01*
X149700197Y-149681144D01*
X149734221Y-149688375D01*
X149765329Y-149694988D01*
X149826811Y-149728180D01*
X149827230Y-149728597D01*
X150656452Y-150557819D01*
X150689937Y-150619142D01*
X150684953Y-150688834D01*
X150643081Y-150744767D01*
X150577617Y-150769184D01*
X150568771Y-150769500D01*
X138379507Y-150769500D01*
X138312468Y-150749815D01*
X138266713Y-150697011D01*
X138255509Y-150644882D01*
X138261953Y-149352214D01*
X138364159Y-128847883D01*
X138379385Y-125793382D01*
X138399403Y-125726441D01*
X138452434Y-125680950D01*
X138503383Y-125670000D01*
X140480000Y-125670000D01*
X142750000Y-123500000D01*
X142750000Y-112665000D01*
X155774540Y-112665000D01*
X155794326Y-112853256D01*
X155794327Y-112853259D01*
X155852818Y-113033277D01*
X155852821Y-113033284D01*
X155947467Y-113197216D01*
X156030837Y-113289807D01*
X156074129Y-113337888D01*
X156227265Y-113449148D01*
X156227270Y-113449151D01*
X156400191Y-113526142D01*
X156400193Y-113526142D01*
X156400197Y-113526144D01*
X156465329Y-113539987D01*
X156526809Y-113573178D01*
X156527228Y-113573596D01*
X157155342Y-114201710D01*
X157188827Y-114263033D01*
X157183843Y-114332725D01*
X157141971Y-114388658D01*
X157118100Y-114402669D01*
X157077269Y-114420849D01*
X157077265Y-114420851D01*
X156924129Y-114532111D01*
X156797466Y-114672785D01*
X156702821Y-114836715D01*
X156702818Y-114836722D01*
X156644327Y-115016740D01*
X156644326Y-115016744D01*
X156624540Y-115205000D01*
X156644326Y-115393256D01*
X156644327Y-115393259D01*
X156702818Y-115573277D01*
X156702821Y-115573284D01*
X156797467Y-115737216D01*
X156892615Y-115842888D01*
X156924129Y-115877888D01*
X157077265Y-115989148D01*
X157077270Y-115989151D01*
X157250191Y-116066142D01*
X157250193Y-116066142D01*
X157250197Y-116066144D01*
X157315329Y-116079987D01*
X157376809Y-116113178D01*
X157377228Y-116113596D01*
X161069270Y-119805638D01*
X161081051Y-119819270D01*
X161095388Y-119838528D01*
X161135409Y-119872111D01*
X161139397Y-119875766D01*
X161145216Y-119881585D01*
X161145220Y-119881588D01*
X161145223Y-119881591D01*
X161170959Y-119901940D01*
X161229786Y-119951302D01*
X161229787Y-119951302D01*
X161229789Y-119951304D01*
X161235818Y-119955270D01*
X161235785Y-119955319D01*
X161242147Y-119959372D01*
X161242179Y-119959321D01*
X161248319Y-119963108D01*
X161248323Y-119963111D01*
X161283132Y-119979343D01*
X161317941Y-119995575D01*
X161386565Y-120030039D01*
X161386567Y-120030040D01*
X161386569Y-120030040D01*
X161393357Y-120032511D01*
X161393336Y-120032567D01*
X161400457Y-120035043D01*
X161400476Y-120034986D01*
X161407322Y-120037254D01*
X161407327Y-120037257D01*
X161407332Y-120037258D01*
X161407335Y-120037259D01*
X161482565Y-120052792D01*
X161557279Y-120070500D01*
X161557282Y-120070500D01*
X161557286Y-120070501D01*
X161564453Y-120071339D01*
X161564446Y-120071398D01*
X161571944Y-120072164D01*
X161571950Y-120072105D01*
X161579139Y-120072734D01*
X161579143Y-120072733D01*
X161579144Y-120072734D01*
X161655917Y-120070500D01*
X165140663Y-120070500D01*
X165207702Y-120090185D01*
X165213548Y-120094182D01*
X165227265Y-120104148D01*
X165227270Y-120104151D01*
X165400192Y-120181142D01*
X165400197Y-120181144D01*
X165585354Y-120220500D01*
X165585355Y-120220500D01*
X165774644Y-120220500D01*
X165774646Y-120220500D01*
X165959803Y-120181144D01*
X166132730Y-120104151D01*
X166285871Y-119992888D01*
X166412533Y-119852216D01*
X166507179Y-119688284D01*
X166565674Y-119508256D01*
X166585460Y-119320000D01*
X166565674Y-119131744D01*
X166533531Y-119032818D01*
X166531536Y-118962977D01*
X166567616Y-118903144D01*
X166630317Y-118872316D01*
X166651462Y-118870500D01*
X170753025Y-118870500D01*
X170820064Y-118890185D01*
X170825910Y-118894182D01*
X170977265Y-119004148D01*
X170977270Y-119004151D01*
X171150192Y-119081142D01*
X171150197Y-119081144D01*
X171335354Y-119120500D01*
X171335355Y-119120500D01*
X171524644Y-119120500D01*
X171524646Y-119120500D01*
X171709803Y-119081144D01*
X171882730Y-119004151D01*
X172035871Y-118892888D01*
X172162533Y-118752216D01*
X172257179Y-118588284D01*
X172315674Y-118408256D01*
X172335460Y-118220000D01*
X172315674Y-118031744D01*
X172257179Y-117851716D01*
X172162533Y-117687784D01*
X172035871Y-117547112D01*
X172035870Y-117547111D01*
X171882734Y-117435851D01*
X171882729Y-117435848D01*
X171709807Y-117358857D01*
X171709802Y-117358855D01*
X171564001Y-117327865D01*
X171524646Y-117319500D01*
X171335354Y-117319500D01*
X171295999Y-117327865D01*
X171150198Y-117358855D01*
X171144014Y-117360865D01*
X171143790Y-117360178D01*
X171099933Y-117369500D01*
X162497230Y-117369500D01*
X162430191Y-117349815D01*
X162409549Y-117333181D01*
X157592770Y-112516402D01*
X157562521Y-112467041D01*
X157507179Y-112296716D01*
X157412533Y-112132784D01*
X157285871Y-111992112D01*
X157275741Y-111984752D01*
X157132734Y-111880851D01*
X157132729Y-111880848D01*
X156959807Y-111803857D01*
X156959802Y-111803855D01*
X156814001Y-111772865D01*
X156774646Y-111764500D01*
X156585354Y-111764500D01*
X156552897Y-111771398D01*
X156400197Y-111803855D01*
X156400192Y-111803857D01*
X156227270Y-111880848D01*
X156227265Y-111880851D01*
X156074129Y-111992111D01*
X155947466Y-112132785D01*
X155852821Y-112296715D01*
X155852818Y-112296722D01*
X155797479Y-112467039D01*
X155794326Y-112476744D01*
X155774540Y-112665000D01*
X142750000Y-112665000D01*
X142750000Y-112500000D01*
X142478004Y-112247111D01*
X140330001Y-110250000D01*
X140330000Y-110250000D01*
X135322135Y-110250000D01*
X135255096Y-110230315D01*
X135214343Y-110187293D01*
X134380001Y-108720000D01*
X134380000Y-108720000D01*
X133821697Y-108720000D01*
X133776467Y-108709228D01*
X133776346Y-108709647D01*
X133767807Y-108707165D01*
X133765802Y-108706688D01*
X133765311Y-108706440D01*
X133760490Y-108705039D01*
X133741111Y-108700423D01*
X133736175Y-108699501D01*
X133736173Y-108699500D01*
X133736170Y-108699500D01*
X133697775Y-108699500D01*
X133691705Y-108699202D01*
X133653503Y-108695446D01*
X133648462Y-108695884D01*
X133622001Y-108699500D01*
X129962025Y-108699500D01*
X129894986Y-108679815D01*
X129873449Y-108662277D01*
X128035424Y-106786158D01*
X128002570Y-106724495D01*
X128000000Y-106699381D01*
X128000000Y-105625530D01*
X128019685Y-105558491D01*
X128072489Y-105512736D01*
X128125519Y-105501539D01*
X143507295Y-105690166D01*
X144206986Y-105698747D01*
X144206987Y-105698747D01*
X144930000Y-105020000D01*
X146330000Y-103720000D01*
X146330000Y-102049500D01*
X146349685Y-101982461D01*
X146402489Y-101936706D01*
X146454000Y-101925500D01*
X149125698Y-101925500D01*
X149192737Y-101945185D01*
X149211825Y-101960292D01*
X149882522Y-102607861D01*
X150127989Y-102844864D01*
X150162544Y-102905591D01*
X150158783Y-102975359D01*
X150117899Y-103032018D01*
X150052873Y-103057580D01*
X149984350Y-103043928D01*
X149970735Y-103035644D01*
X149807585Y-102921404D01*
X149807579Y-102921400D01*
X149593492Y-102821570D01*
X149593486Y-102821567D01*
X149380000Y-102764364D01*
X149380000Y-103809498D01*
X149272315Y-103760320D01*
X149165763Y-103745000D01*
X149094237Y-103745000D01*
X148987685Y-103760320D01*
X148880000Y-103809498D01*
X148880000Y-102764364D01*
X148879999Y-102764364D01*
X148666513Y-102821567D01*
X148666507Y-102821570D01*
X148452422Y-102921399D01*
X148452420Y-102921400D01*
X148258926Y-103056886D01*
X148258920Y-103056891D01*
X148091891Y-103223920D01*
X148091886Y-103223926D01*
X147956400Y-103417420D01*
X147956399Y-103417422D01*
X147856570Y-103631507D01*
X147856566Y-103631516D01*
X147795432Y-103859673D01*
X147795430Y-103859684D01*
X147783592Y-103994999D01*
X147783593Y-103995000D01*
X148696314Y-103995000D01*
X148670507Y-104035156D01*
X148630000Y-104173111D01*
X148630000Y-104316889D01*
X148670507Y-104454844D01*
X148696314Y-104495000D01*
X147783592Y-104495000D01*
X147795430Y-104630315D01*
X147795432Y-104630326D01*
X147856566Y-104858483D01*
X147856570Y-104858492D01*
X147956399Y-105072577D01*
X147956400Y-105072579D01*
X148091886Y-105266073D01*
X148091891Y-105266079D01*
X148258917Y-105433105D01*
X148452421Y-105568600D01*
X148666507Y-105668429D01*
X148666516Y-105668433D01*
X148880000Y-105725634D01*
X148880000Y-104680501D01*
X148987685Y-104729680D01*
X149094237Y-104745000D01*
X149165763Y-104745000D01*
X149272315Y-104729680D01*
X149380000Y-104680501D01*
X149380000Y-105725633D01*
X149593483Y-105668433D01*
X149593492Y-105668429D01*
X149807577Y-105568600D01*
X149807579Y-105568599D01*
X150001073Y-105433113D01*
X150001079Y-105433108D01*
X150148331Y-105285857D01*
X150209654Y-105252372D01*
X150279346Y-105257356D01*
X150335279Y-105299228D01*
X150341551Y-105308441D01*
X150345186Y-105314334D01*
X150406347Y-105413493D01*
X150437289Y-105463657D01*
X150452339Y-105478707D01*
X150485824Y-105540030D01*
X150480840Y-105609722D01*
X150478984Y-105614405D01*
X150452370Y-105677771D01*
X150452368Y-105677776D01*
X150434757Y-105745382D01*
X150418671Y-105888362D01*
X150418670Y-105888373D01*
X150421040Y-105965355D01*
X150421042Y-105965378D01*
X150434065Y-106064855D01*
X150434066Y-106064858D01*
X150445210Y-106112541D01*
X150445211Y-106112544D01*
X150477627Y-106207498D01*
X150477631Y-106207505D01*
X150555414Y-106328537D01*
X150555422Y-106328548D01*
X150601166Y-106381340D01*
X150601169Y-106381343D01*
X150601173Y-106381347D01*
X150709907Y-106475567D01*
X150709910Y-106475568D01*
X150709911Y-106475569D01*
X150800402Y-106516896D01*
X150840784Y-106535338D01*
X150885600Y-106548497D01*
X150907818Y-106555022D01*
X150907823Y-106555023D01*
X150907827Y-106555024D01*
X151050243Y-106575500D01*
X151050246Y-106575500D01*
X154107013Y-106575500D01*
X154107017Y-106575500D01*
X154212431Y-106564387D01*
X154263012Y-106553602D01*
X154363799Y-106520747D01*
X154485475Y-106443958D01*
X154538654Y-106398639D01*
X154633765Y-106290683D01*
X154694611Y-106160302D01*
X154714847Y-106093427D01*
X154736496Y-105951185D01*
X154781977Y-100429684D01*
X154782005Y-100426300D01*
X154782964Y-100426307D01*
X154798557Y-100362372D01*
X154849182Y-100314217D01*
X154905870Y-100300500D01*
X186325500Y-100300500D01*
X186392539Y-100320185D01*
G37*
%TD.AperFunction*%
%TA.AperFunction,Conductor*%
G36*
X154779615Y-124257794D02*
G01*
X154835549Y-124299665D01*
X154841821Y-124308879D01*
X154881993Y-124374008D01*
X154937288Y-124463656D01*
X155061344Y-124587712D01*
X155210666Y-124679814D01*
X155344505Y-124724164D01*
X155401949Y-124763936D01*
X155428772Y-124828451D01*
X155429500Y-124841869D01*
X155429500Y-125196951D01*
X155429387Y-125200696D01*
X155425642Y-125262603D01*
X155425642Y-125262605D01*
X155436821Y-125323612D01*
X155437384Y-125327313D01*
X155444859Y-125388870D01*
X155444860Y-125388874D01*
X155448451Y-125398343D01*
X155454474Y-125419946D01*
X155456304Y-125429930D01*
X155481759Y-125486490D01*
X155483189Y-125489941D01*
X155505182Y-125547930D01*
X155505183Y-125547931D01*
X155510936Y-125556266D01*
X155521961Y-125575813D01*
X155526120Y-125585055D01*
X155526124Y-125585060D01*
X155564371Y-125633878D01*
X155566591Y-125636896D01*
X155601812Y-125687924D01*
X155601816Y-125687928D01*
X155601817Y-125687929D01*
X155648250Y-125729064D01*
X155650941Y-125731598D01*
X157528767Y-127609424D01*
X159393181Y-129473838D01*
X159426666Y-129535161D01*
X159429500Y-129561519D01*
X159429500Y-131191951D01*
X159429387Y-131195696D01*
X159425642Y-131257603D01*
X159425642Y-131257605D01*
X159436821Y-131318612D01*
X159437384Y-131322313D01*
X159444859Y-131383870D01*
X159444860Y-131383874D01*
X159448451Y-131393343D01*
X159454474Y-131414946D01*
X159456304Y-131424930D01*
X159481759Y-131481490D01*
X159483189Y-131484941D01*
X159505182Y-131542930D01*
X159505183Y-131542931D01*
X159510936Y-131551266D01*
X159521961Y-131570813D01*
X159526120Y-131580055D01*
X159526124Y-131580060D01*
X159564371Y-131628878D01*
X159566591Y-131631896D01*
X159601812Y-131682924D01*
X159601816Y-131682928D01*
X159601817Y-131682929D01*
X159648250Y-131724064D01*
X159650941Y-131726598D01*
X160300343Y-132376000D01*
X160722133Y-132797790D01*
X160755618Y-132859113D01*
X160757980Y-132896278D01*
X160744532Y-133049997D01*
X160744532Y-133050001D01*
X160764364Y-133276686D01*
X160764366Y-133276697D01*
X160823258Y-133496488D01*
X160823261Y-133496497D01*
X160919431Y-133702732D01*
X160919432Y-133702734D01*
X161049954Y-133889141D01*
X161210858Y-134050045D01*
X161210861Y-134050047D01*
X161397266Y-134180568D01*
X161455275Y-134207618D01*
X161507714Y-134253791D01*
X161526866Y-134320984D01*
X161506650Y-134387865D01*
X161455275Y-134432382D01*
X161397267Y-134459431D01*
X161397265Y-134459432D01*
X161210858Y-134589954D01*
X161049954Y-134750858D01*
X160989902Y-134836623D01*
X160935325Y-134880248D01*
X160888327Y-134889500D01*
X159931519Y-134889500D01*
X159864480Y-134869815D01*
X159843838Y-134853181D01*
X157167205Y-132176547D01*
X157133720Y-132115224D01*
X157138704Y-132045532D01*
X157180576Y-131989599D01*
X157246040Y-131965182D01*
X157275296Y-131966557D01*
X157475707Y-132000000D01*
X157724293Y-132000000D01*
X157969493Y-131959083D01*
X158204603Y-131878369D01*
X158204614Y-131878364D01*
X158423228Y-131760057D01*
X158423231Y-131760055D01*
X158470056Y-131723609D01*
X157732533Y-130986086D01*
X157742315Y-130984680D01*
X157873100Y-130924952D01*
X157981761Y-130830798D01*
X158059493Y-130709844D01*
X158083076Y-130629524D01*
X158823434Y-131369882D01*
X158923731Y-131216369D01*
X159023587Y-130988717D01*
X159084612Y-130747738D01*
X159084614Y-130747729D01*
X159105141Y-130500005D01*
X159105141Y-130499994D01*
X159084614Y-130252270D01*
X159084612Y-130252261D01*
X159023587Y-130011282D01*
X158923731Y-129783630D01*
X158823434Y-129630116D01*
X158083076Y-130370475D01*
X158059493Y-130290156D01*
X157981761Y-130169202D01*
X157873100Y-130075048D01*
X157742315Y-130015320D01*
X157732534Y-130013913D01*
X158470057Y-129276390D01*
X158470056Y-129276389D01*
X158423229Y-129239943D01*
X158204614Y-129121635D01*
X158204603Y-129121630D01*
X157969493Y-129040916D01*
X157724293Y-129000000D01*
X157475707Y-129000000D01*
X157230506Y-129040916D01*
X156995396Y-129121630D01*
X156995390Y-129121632D01*
X156776761Y-129239949D01*
X156729942Y-129276388D01*
X156729942Y-129276390D01*
X157467466Y-130013913D01*
X157457685Y-130015320D01*
X157326900Y-130075048D01*
X157218239Y-130169202D01*
X157140507Y-130290156D01*
X157116923Y-130370475D01*
X156376564Y-129630116D01*
X156276267Y-129783632D01*
X156176412Y-130011282D01*
X156115387Y-130252261D01*
X156115385Y-130252270D01*
X156094859Y-130499994D01*
X156094859Y-130500005D01*
X156115385Y-130747729D01*
X156115387Y-130747741D01*
X156132676Y-130816011D01*
X156130051Y-130885831D01*
X156090095Y-130943148D01*
X156025493Y-130969765D01*
X155956757Y-130957231D01*
X155924789Y-130934132D01*
X153236819Y-128246162D01*
X153203334Y-128184839D01*
X153200500Y-128158481D01*
X153200500Y-126091518D01*
X153220185Y-126024479D01*
X153236815Y-126003841D01*
X154109056Y-125131599D01*
X154111748Y-125129065D01*
X154158183Y-125087929D01*
X154160333Y-125084815D01*
X154166889Y-125075314D01*
X154193427Y-125036866D01*
X154195617Y-125033890D01*
X154233877Y-124985057D01*
X154238029Y-124975828D01*
X154249062Y-124956268D01*
X154249419Y-124955750D01*
X154254818Y-124947930D01*
X154276812Y-124889933D01*
X154278231Y-124886505D01*
X154303694Y-124829932D01*
X154305520Y-124819965D01*
X154311548Y-124798340D01*
X154315140Y-124788872D01*
X154320434Y-124745266D01*
X154322615Y-124727309D01*
X154323179Y-124723605D01*
X154331203Y-124679814D01*
X154334357Y-124662606D01*
X154332038Y-124624277D01*
X154347638Y-124556174D01*
X154384687Y-124515218D01*
X154501401Y-124433495D01*
X154648602Y-124286293D01*
X154709924Y-124252810D01*
X154779615Y-124257794D01*
G37*
%TD.AperFunction*%
%TD*%
M02*
