%TF.GenerationSoftware,KiCad,Pcbnew,7.0.8*%
%TF.CreationDate,2025-02-03T21:17:31+05:30*%
%TF.ProjectId,WemosD1Mini-8266,57656d6f-7344-4314-9d69-6e692d383236,rev?*%
%TF.SameCoordinates,Original*%
%TF.FileFunction,Paste,Bot*%
%TF.FilePolarity,Positive*%
%FSLAX46Y46*%
G04 Gerber Fmt 4.6, Leading zero omitted, Abs format (unit mm)*
G04 Created by KiCad (PCBNEW 7.0.8) date 2025-02-03 21:17:31*
%MOMM*%
%LPD*%
G01*
G04 APERTURE LIST*
G04 Aperture macros list*
%AMRoundRect*
0 Rectangle with rounded corners*
0 $1 Rounding radius*
0 $2 $3 $4 $5 $6 $7 $8 $9 X,Y pos of 4 corners*
0 Add a 4 corners polygon primitive as box body*
4,1,4,$2,$3,$4,$5,$6,$7,$8,$9,$2,$3,0*
0 Add four circle primitives for the rounded corners*
1,1,$1+$1,$2,$3*
1,1,$1+$1,$4,$5*
1,1,$1+$1,$6,$7*
1,1,$1+$1,$8,$9*
0 Add four rect primitives between the rounded corners*
20,1,$1+$1,$2,$3,$4,$5,0*
20,1,$1+$1,$4,$5,$6,$7,0*
20,1,$1+$1,$6,$7,$8,$9,0*
20,1,$1+$1,$8,$9,$2,$3,0*%
G04 Aperture macros list end*
%ADD10RoundRect,0.250000X-0.350000X-0.450000X0.350000X-0.450000X0.350000X0.450000X-0.350000X0.450000X0*%
%ADD11RoundRect,0.237500X0.250000X0.237500X-0.250000X0.237500X-0.250000X-0.237500X0.250000X-0.237500X0*%
%ADD12RoundRect,0.162500X0.750000X0.162500X-0.750000X0.162500X-0.750000X-0.162500X0.750000X-0.162500X0*%
%ADD13R,3.100000X1.600000*%
%ADD14RoundRect,0.250000X-1.000000X-0.650000X1.000000X-0.650000X1.000000X0.650000X-1.000000X0.650000X0*%
%ADD15RoundRect,0.250000X0.650000X-0.412500X0.650000X0.412500X-0.650000X0.412500X-0.650000X-0.412500X0*%
%ADD16RoundRect,0.250000X0.350000X0.450000X-0.350000X0.450000X-0.350000X-0.450000X0.350000X-0.450000X0*%
%ADD17RoundRect,0.250000X-0.650000X0.412500X-0.650000X-0.412500X0.650000X-0.412500X0.650000X0.412500X0*%
%ADD18RoundRect,0.250000X-0.450000X0.350000X-0.450000X-0.350000X0.450000X-0.350000X0.450000X0.350000X0*%
G04 APERTURE END LIST*
D10*
%TO.C,R4*%
X110980000Y-133120000D03*
X112980000Y-133120000D03*
%TD*%
D11*
%TO.C,R3*%
X148392500Y-148870000D03*
X146567500Y-148870000D03*
%TD*%
D12*
%TO.C,U6*%
X155217500Y-110125000D03*
X155217500Y-111395000D03*
X155217500Y-112665000D03*
X155217500Y-113935000D03*
X155217500Y-115205000D03*
X155217500Y-116475000D03*
X155217500Y-117745000D03*
X155217500Y-119015000D03*
X149042500Y-119015000D03*
X149042500Y-117745000D03*
X149042500Y-116475000D03*
X149042500Y-115205000D03*
X149042500Y-113935000D03*
X149042500Y-112665000D03*
X149042500Y-111395000D03*
X149042500Y-110125000D03*
%TD*%
D11*
%TO.C,R9*%
X148392500Y-137020000D03*
X146567500Y-137020000D03*
%TD*%
%TO.C,R14*%
X148342500Y-131070000D03*
X146517500Y-131070000D03*
%TD*%
D10*
%TO.C,R8*%
X115530000Y-126320000D03*
X117530000Y-126320000D03*
%TD*%
%TO.C,R15*%
X160680000Y-115320000D03*
X162680000Y-115320000D03*
%TD*%
%TO.C,R17*%
X160680000Y-110670000D03*
X162680000Y-110670000D03*
%TD*%
D13*
%TO.C,U4*%
X132885000Y-131040000D03*
X132885000Y-128500000D03*
X141775000Y-128500000D03*
X141775000Y-131040000D03*
%TD*%
D10*
%TO.C,R5*%
X115580000Y-131370000D03*
X117580000Y-131370000D03*
%TD*%
D14*
%TO.C,D3*%
X122830000Y-126370000D03*
X126830000Y-126370000D03*
%TD*%
%TO.C,D1*%
X122930000Y-146570000D03*
X126930000Y-146570000D03*
%TD*%
%TO.C,D2*%
X122730000Y-131370000D03*
X126730000Y-131370000D03*
%TD*%
D13*
%TO.C,U3*%
X132885000Y-136890000D03*
X132885000Y-134350000D03*
X141775000Y-134350000D03*
X141775000Y-136890000D03*
%TD*%
D15*
%TO.C,C1*%
X181130000Y-123070000D03*
X181130000Y-119945000D03*
%TD*%
D13*
%TO.C,U2*%
X132885000Y-142840000D03*
X132885000Y-140300000D03*
X141775000Y-140300000D03*
X141775000Y-142840000D03*
%TD*%
%TO.C,U1*%
X132885000Y-148840000D03*
X132885000Y-146300000D03*
X141775000Y-146300000D03*
X141775000Y-148840000D03*
%TD*%
D16*
%TO.C,R19*%
X178250000Y-115500000D03*
X176250000Y-115500000D03*
%TD*%
D17*
%TO.C,C2*%
X166180000Y-125420000D03*
X166180000Y-128545000D03*
%TD*%
D10*
%TO.C,R7*%
X111030000Y-128320000D03*
X113030000Y-128320000D03*
%TD*%
D11*
%TO.C,R6*%
X148392500Y-142820000D03*
X146567500Y-142820000D03*
%TD*%
D10*
%TO.C,R2*%
X114230000Y-145270000D03*
X116230000Y-145270000D03*
%TD*%
%TO.C,R18*%
X160680000Y-108420000D03*
X162680000Y-108420000D03*
%TD*%
D18*
%TO.C,R1*%
X110500000Y-143250000D03*
X110500000Y-145250000D03*
%TD*%
D10*
%TO.C,R16*%
X160680000Y-112920000D03*
X162680000Y-112920000D03*
%TD*%
M02*
