%TF.GenerationSoftware,KiCad,Pcbnew,7.0.8*%
%TF.CreationDate,2024-02-01T01:06:35+05:30*%
%TF.ProjectId,WemosD1Mini-8266,57656d6f-7344-4314-9d69-6e692d383236,rev?*%
%TF.SameCoordinates,Original*%
%TF.FileFunction,Legend,Bot*%
%TF.FilePolarity,Positive*%
%FSLAX46Y46*%
G04 Gerber Fmt 4.6, Leading zero omitted, Abs format (unit mm)*
G04 Created by KiCad (PCBNEW 7.0.8) date 2024-02-01 01:06:35*
%MOMM*%
%LPD*%
G01*
G04 APERTURE LIST*
%ADD10C,0.150000*%
%ADD11C,0.300000*%
%ADD12C,0.200000*%
%ADD13C,0.120000*%
G04 APERTURE END LIST*
D10*
X69033220Y-93109819D02*
X69033220Y-92109819D01*
X69033220Y-92109819D02*
X68461792Y-93109819D01*
X68461792Y-93109819D02*
X68461792Y-92109819D01*
X68128458Y-92728866D02*
X68080839Y-92681247D01*
X68080839Y-92681247D02*
X67985601Y-92633628D01*
X67985601Y-92633628D02*
X67795125Y-92728866D01*
X67795125Y-92728866D02*
X67699887Y-92681247D01*
X67699887Y-92681247D02*
X67652268Y-92633628D01*
X69533220Y-77509819D02*
X69533220Y-76509819D01*
X69533220Y-76509819D02*
X69199887Y-77224104D01*
X69199887Y-77224104D02*
X68866554Y-76509819D01*
X68866554Y-76509819D02*
X68866554Y-77509819D01*
X68437982Y-76605057D02*
X68390363Y-76557438D01*
X68390363Y-76557438D02*
X68295125Y-76509819D01*
X68295125Y-76509819D02*
X68057030Y-76509819D01*
X68057030Y-76509819D02*
X67961792Y-76557438D01*
X67961792Y-76557438D02*
X67914173Y-76605057D01*
X67914173Y-76605057D02*
X67866554Y-76700295D01*
X67866554Y-76700295D02*
X67866554Y-76795533D01*
X67866554Y-76795533D02*
X67914173Y-76938390D01*
X67914173Y-76938390D02*
X68485601Y-77509819D01*
X68485601Y-77509819D02*
X67866554Y-77509819D01*
D11*
X129720828Y-72681653D02*
X131220828Y-73038796D01*
X131220828Y-73038796D02*
X130149400Y-73324510D01*
X130149400Y-73324510D02*
X131220828Y-73610225D01*
X131220828Y-73610225D02*
X129720828Y-73967368D01*
X131149400Y-75110225D02*
X131220828Y-74967368D01*
X131220828Y-74967368D02*
X131220828Y-74681654D01*
X131220828Y-74681654D02*
X131149400Y-74538796D01*
X131149400Y-74538796D02*
X131006542Y-74467368D01*
X131006542Y-74467368D02*
X130435114Y-74467368D01*
X130435114Y-74467368D02*
X130292257Y-74538796D01*
X130292257Y-74538796D02*
X130220828Y-74681654D01*
X130220828Y-74681654D02*
X130220828Y-74967368D01*
X130220828Y-74967368D02*
X130292257Y-75110225D01*
X130292257Y-75110225D02*
X130435114Y-75181654D01*
X130435114Y-75181654D02*
X130577971Y-75181654D01*
X130577971Y-75181654D02*
X130720828Y-74467368D01*
X131220828Y-75824510D02*
X130220828Y-75824510D01*
X130363685Y-75824510D02*
X130292257Y-75895939D01*
X130292257Y-75895939D02*
X130220828Y-76038796D01*
X130220828Y-76038796D02*
X130220828Y-76253082D01*
X130220828Y-76253082D02*
X130292257Y-76395939D01*
X130292257Y-76395939D02*
X130435114Y-76467368D01*
X130435114Y-76467368D02*
X131220828Y-76467368D01*
X130435114Y-76467368D02*
X130292257Y-76538796D01*
X130292257Y-76538796D02*
X130220828Y-76681653D01*
X130220828Y-76681653D02*
X130220828Y-76895939D01*
X130220828Y-76895939D02*
X130292257Y-77038796D01*
X130292257Y-77038796D02*
X130435114Y-77110225D01*
X130435114Y-77110225D02*
X131220828Y-77110225D01*
X131220828Y-78038796D02*
X131149400Y-77895939D01*
X131149400Y-77895939D02*
X131077971Y-77824510D01*
X131077971Y-77824510D02*
X130935114Y-77753082D01*
X130935114Y-77753082D02*
X130506542Y-77753082D01*
X130506542Y-77753082D02*
X130363685Y-77824510D01*
X130363685Y-77824510D02*
X130292257Y-77895939D01*
X130292257Y-77895939D02*
X130220828Y-78038796D01*
X130220828Y-78038796D02*
X130220828Y-78253082D01*
X130220828Y-78253082D02*
X130292257Y-78395939D01*
X130292257Y-78395939D02*
X130363685Y-78467368D01*
X130363685Y-78467368D02*
X130506542Y-78538796D01*
X130506542Y-78538796D02*
X130935114Y-78538796D01*
X130935114Y-78538796D02*
X131077971Y-78467368D01*
X131077971Y-78467368D02*
X131149400Y-78395939D01*
X131149400Y-78395939D02*
X131220828Y-78253082D01*
X131220828Y-78253082D02*
X131220828Y-78038796D01*
X131149400Y-79110225D02*
X131220828Y-79253082D01*
X131220828Y-79253082D02*
X131220828Y-79538796D01*
X131220828Y-79538796D02*
X131149400Y-79681653D01*
X131149400Y-79681653D02*
X131006542Y-79753082D01*
X131006542Y-79753082D02*
X130935114Y-79753082D01*
X130935114Y-79753082D02*
X130792257Y-79681653D01*
X130792257Y-79681653D02*
X130720828Y-79538796D01*
X130720828Y-79538796D02*
X130720828Y-79324511D01*
X130720828Y-79324511D02*
X130649400Y-79181653D01*
X130649400Y-79181653D02*
X130506542Y-79110225D01*
X130506542Y-79110225D02*
X130435114Y-79110225D01*
X130435114Y-79110225D02*
X130292257Y-79181653D01*
X130292257Y-79181653D02*
X130220828Y-79324511D01*
X130220828Y-79324511D02*
X130220828Y-79538796D01*
X130220828Y-79538796D02*
X130292257Y-79681653D01*
X131220828Y-81538796D02*
X129720828Y-81538796D01*
X129720828Y-81538796D02*
X129720828Y-81895939D01*
X129720828Y-81895939D02*
X129792257Y-82110225D01*
X129792257Y-82110225D02*
X129935114Y-82253082D01*
X129935114Y-82253082D02*
X130077971Y-82324511D01*
X130077971Y-82324511D02*
X130363685Y-82395939D01*
X130363685Y-82395939D02*
X130577971Y-82395939D01*
X130577971Y-82395939D02*
X130863685Y-82324511D01*
X130863685Y-82324511D02*
X131006542Y-82253082D01*
X131006542Y-82253082D02*
X131149400Y-82110225D01*
X131149400Y-82110225D02*
X131220828Y-81895939D01*
X131220828Y-81895939D02*
X131220828Y-81538796D01*
X131220828Y-83824511D02*
X131220828Y-82967368D01*
X131220828Y-83395939D02*
X129720828Y-83395939D01*
X129720828Y-83395939D02*
X129935114Y-83253082D01*
X129935114Y-83253082D02*
X130077971Y-83110225D01*
X130077971Y-83110225D02*
X130149400Y-82967368D01*
X131220828Y-85610224D02*
X129720828Y-85610224D01*
X129720828Y-85610224D02*
X130792257Y-86110224D01*
X130792257Y-86110224D02*
X129720828Y-86610224D01*
X129720828Y-86610224D02*
X131220828Y-86610224D01*
X131220828Y-87324510D02*
X130220828Y-87324510D01*
X129720828Y-87324510D02*
X129792257Y-87253082D01*
X129792257Y-87253082D02*
X129863685Y-87324510D01*
X129863685Y-87324510D02*
X129792257Y-87395939D01*
X129792257Y-87395939D02*
X129720828Y-87324510D01*
X129720828Y-87324510D02*
X129863685Y-87324510D01*
X130220828Y-88038796D02*
X131220828Y-88038796D01*
X130363685Y-88038796D02*
X130292257Y-88110225D01*
X130292257Y-88110225D02*
X130220828Y-88253082D01*
X130220828Y-88253082D02*
X130220828Y-88467368D01*
X130220828Y-88467368D02*
X130292257Y-88610225D01*
X130292257Y-88610225D02*
X130435114Y-88681654D01*
X130435114Y-88681654D02*
X131220828Y-88681654D01*
X131220828Y-89395939D02*
X130220828Y-89395939D01*
X129720828Y-89395939D02*
X129792257Y-89324511D01*
X129792257Y-89324511D02*
X129863685Y-89395939D01*
X129863685Y-89395939D02*
X129792257Y-89467368D01*
X129792257Y-89467368D02*
X129720828Y-89395939D01*
X129720828Y-89395939D02*
X129863685Y-89395939D01*
X132635828Y-73467368D02*
X133635828Y-73467368D01*
X132064400Y-73110225D02*
X133135828Y-72753082D01*
X133135828Y-72753082D02*
X133135828Y-73681653D01*
X133635828Y-74253081D02*
X132135828Y-74253081D01*
X132135828Y-74253081D02*
X133635828Y-75110224D01*
X133635828Y-75110224D02*
X132135828Y-75110224D01*
X133635828Y-76038796D02*
X133564400Y-75895939D01*
X133564400Y-75895939D02*
X133492971Y-75824510D01*
X133492971Y-75824510D02*
X133350114Y-75753082D01*
X133350114Y-75753082D02*
X132921542Y-75753082D01*
X132921542Y-75753082D02*
X132778685Y-75824510D01*
X132778685Y-75824510D02*
X132707257Y-75895939D01*
X132707257Y-75895939D02*
X132635828Y-76038796D01*
X132635828Y-76038796D02*
X132635828Y-76253082D01*
X132635828Y-76253082D02*
X132707257Y-76395939D01*
X132707257Y-76395939D02*
X132778685Y-76467368D01*
X132778685Y-76467368D02*
X132921542Y-76538796D01*
X132921542Y-76538796D02*
X133350114Y-76538796D01*
X133350114Y-76538796D02*
X133492971Y-76467368D01*
X133492971Y-76467368D02*
X133564400Y-76395939D01*
X133564400Y-76395939D02*
X133635828Y-76253082D01*
X133635828Y-76253082D02*
X133635828Y-76038796D01*
X133635828Y-77824511D02*
X132135828Y-77824511D01*
X133564400Y-77824511D02*
X133635828Y-77681653D01*
X133635828Y-77681653D02*
X133635828Y-77395939D01*
X133635828Y-77395939D02*
X133564400Y-77253082D01*
X133564400Y-77253082D02*
X133492971Y-77181653D01*
X133492971Y-77181653D02*
X133350114Y-77110225D01*
X133350114Y-77110225D02*
X132921542Y-77110225D01*
X132921542Y-77110225D02*
X132778685Y-77181653D01*
X132778685Y-77181653D02*
X132707257Y-77253082D01*
X132707257Y-77253082D02*
X132635828Y-77395939D01*
X132635828Y-77395939D02*
X132635828Y-77681653D01*
X132635828Y-77681653D02*
X132707257Y-77824511D01*
X133564400Y-79110225D02*
X133635828Y-78967368D01*
X133635828Y-78967368D02*
X133635828Y-78681654D01*
X133635828Y-78681654D02*
X133564400Y-78538796D01*
X133564400Y-78538796D02*
X133421542Y-78467368D01*
X133421542Y-78467368D02*
X132850114Y-78467368D01*
X132850114Y-78467368D02*
X132707257Y-78538796D01*
X132707257Y-78538796D02*
X132635828Y-78681654D01*
X132635828Y-78681654D02*
X132635828Y-78967368D01*
X132635828Y-78967368D02*
X132707257Y-79110225D01*
X132707257Y-79110225D02*
X132850114Y-79181654D01*
X132850114Y-79181654D02*
X132992971Y-79181654D01*
X132992971Y-79181654D02*
X133135828Y-78467368D01*
X133492971Y-81824510D02*
X133564400Y-81753082D01*
X133564400Y-81753082D02*
X133635828Y-81538796D01*
X133635828Y-81538796D02*
X133635828Y-81395939D01*
X133635828Y-81395939D02*
X133564400Y-81181653D01*
X133564400Y-81181653D02*
X133421542Y-81038796D01*
X133421542Y-81038796D02*
X133278685Y-80967367D01*
X133278685Y-80967367D02*
X132992971Y-80895939D01*
X132992971Y-80895939D02*
X132778685Y-80895939D01*
X132778685Y-80895939D02*
X132492971Y-80967367D01*
X132492971Y-80967367D02*
X132350114Y-81038796D01*
X132350114Y-81038796D02*
X132207257Y-81181653D01*
X132207257Y-81181653D02*
X132135828Y-81395939D01*
X132135828Y-81395939D02*
X132135828Y-81538796D01*
X132135828Y-81538796D02*
X132207257Y-81753082D01*
X132207257Y-81753082D02*
X132278685Y-81824510D01*
X133635828Y-82681653D02*
X133564400Y-82538796D01*
X133564400Y-82538796D02*
X133492971Y-82467367D01*
X133492971Y-82467367D02*
X133350114Y-82395939D01*
X133350114Y-82395939D02*
X132921542Y-82395939D01*
X132921542Y-82395939D02*
X132778685Y-82467367D01*
X132778685Y-82467367D02*
X132707257Y-82538796D01*
X132707257Y-82538796D02*
X132635828Y-82681653D01*
X132635828Y-82681653D02*
X132635828Y-82895939D01*
X132635828Y-82895939D02*
X132707257Y-83038796D01*
X132707257Y-83038796D02*
X132778685Y-83110225D01*
X132778685Y-83110225D02*
X132921542Y-83181653D01*
X132921542Y-83181653D02*
X133350114Y-83181653D01*
X133350114Y-83181653D02*
X133492971Y-83110225D01*
X133492971Y-83110225D02*
X133564400Y-83038796D01*
X133564400Y-83038796D02*
X133635828Y-82895939D01*
X133635828Y-82895939D02*
X133635828Y-82681653D01*
X132635828Y-83824510D02*
X133635828Y-83824510D01*
X132778685Y-83824510D02*
X132707257Y-83895939D01*
X132707257Y-83895939D02*
X132635828Y-84038796D01*
X132635828Y-84038796D02*
X132635828Y-84253082D01*
X132635828Y-84253082D02*
X132707257Y-84395939D01*
X132707257Y-84395939D02*
X132850114Y-84467368D01*
X132850114Y-84467368D02*
X133635828Y-84467368D01*
X132635828Y-84967368D02*
X132635828Y-85538796D01*
X132135828Y-85181653D02*
X133421542Y-85181653D01*
X133421542Y-85181653D02*
X133564400Y-85253082D01*
X133564400Y-85253082D02*
X133635828Y-85395939D01*
X133635828Y-85395939D02*
X133635828Y-85538796D01*
X133635828Y-86038796D02*
X132635828Y-86038796D01*
X132921542Y-86038796D02*
X132778685Y-86110225D01*
X132778685Y-86110225D02*
X132707257Y-86181654D01*
X132707257Y-86181654D02*
X132635828Y-86324511D01*
X132635828Y-86324511D02*
X132635828Y-86467368D01*
X133635828Y-87181653D02*
X133564400Y-87038796D01*
X133564400Y-87038796D02*
X133492971Y-86967367D01*
X133492971Y-86967367D02*
X133350114Y-86895939D01*
X133350114Y-86895939D02*
X132921542Y-86895939D01*
X132921542Y-86895939D02*
X132778685Y-86967367D01*
X132778685Y-86967367D02*
X132707257Y-87038796D01*
X132707257Y-87038796D02*
X132635828Y-87181653D01*
X132635828Y-87181653D02*
X132635828Y-87395939D01*
X132635828Y-87395939D02*
X132707257Y-87538796D01*
X132707257Y-87538796D02*
X132778685Y-87610225D01*
X132778685Y-87610225D02*
X132921542Y-87681653D01*
X132921542Y-87681653D02*
X133350114Y-87681653D01*
X133350114Y-87681653D02*
X133492971Y-87610225D01*
X133492971Y-87610225D02*
X133564400Y-87538796D01*
X133564400Y-87538796D02*
X133635828Y-87395939D01*
X133635828Y-87395939D02*
X133635828Y-87181653D01*
X133635828Y-88538796D02*
X133564400Y-88395939D01*
X133564400Y-88395939D02*
X133421542Y-88324510D01*
X133421542Y-88324510D02*
X132135828Y-88324510D01*
X134550828Y-77181653D02*
X136050828Y-77681653D01*
X136050828Y-77681653D02*
X134550828Y-78181653D01*
X136050828Y-79467367D02*
X136050828Y-78610224D01*
X136050828Y-79038795D02*
X134550828Y-79038795D01*
X134550828Y-79038795D02*
X134765114Y-78895938D01*
X134765114Y-78895938D02*
X134907971Y-78753081D01*
X134907971Y-78753081D02*
X134979400Y-78610224D01*
X135907971Y-80110223D02*
X135979400Y-80181652D01*
X135979400Y-80181652D02*
X136050828Y-80110223D01*
X136050828Y-80110223D02*
X135979400Y-80038795D01*
X135979400Y-80038795D02*
X135907971Y-80110223D01*
X135907971Y-80110223D02*
X136050828Y-80110223D01*
X134550828Y-81110224D02*
X134550828Y-81253081D01*
X134550828Y-81253081D02*
X134622257Y-81395938D01*
X134622257Y-81395938D02*
X134693685Y-81467367D01*
X134693685Y-81467367D02*
X134836542Y-81538795D01*
X134836542Y-81538795D02*
X135122257Y-81610224D01*
X135122257Y-81610224D02*
X135479400Y-81610224D01*
X135479400Y-81610224D02*
X135765114Y-81538795D01*
X135765114Y-81538795D02*
X135907971Y-81467367D01*
X135907971Y-81467367D02*
X135979400Y-81395938D01*
X135979400Y-81395938D02*
X136050828Y-81253081D01*
X136050828Y-81253081D02*
X136050828Y-81110224D01*
X136050828Y-81110224D02*
X135979400Y-80967367D01*
X135979400Y-80967367D02*
X135907971Y-80895938D01*
X135907971Y-80895938D02*
X135765114Y-80824509D01*
X135765114Y-80824509D02*
X135479400Y-80753081D01*
X135479400Y-80753081D02*
X135122257Y-80753081D01*
X135122257Y-80753081D02*
X134836542Y-80824509D01*
X134836542Y-80824509D02*
X134693685Y-80895938D01*
X134693685Y-80895938D02*
X134622257Y-80967367D01*
X134622257Y-80967367D02*
X134550828Y-81110224D01*
D10*
X68857030Y-57539819D02*
X69333220Y-57539819D01*
X69333220Y-57539819D02*
X69333220Y-56539819D01*
X68618934Y-56539819D02*
X67999887Y-56539819D01*
X67999887Y-56539819D02*
X68333220Y-56920771D01*
X68333220Y-56920771D02*
X68190363Y-56920771D01*
X68190363Y-56920771D02*
X68095125Y-56968390D01*
X68095125Y-56968390D02*
X68047506Y-57016009D01*
X68047506Y-57016009D02*
X67999887Y-57111247D01*
X67999887Y-57111247D02*
X67999887Y-57349342D01*
X67999887Y-57349342D02*
X68047506Y-57444580D01*
X68047506Y-57444580D02*
X68095125Y-57492200D01*
X68095125Y-57492200D02*
X68190363Y-57539819D01*
X68190363Y-57539819D02*
X68476077Y-57539819D01*
X68476077Y-57539819D02*
X68571315Y-57492200D01*
X68571315Y-57492200D02*
X68618934Y-57444580D01*
X69033220Y-87949819D02*
X69033220Y-86949819D01*
X69033220Y-86949819D02*
X68652268Y-86949819D01*
X68652268Y-86949819D02*
X68557030Y-86997438D01*
X68557030Y-86997438D02*
X68509411Y-87045057D01*
X68509411Y-87045057D02*
X68461792Y-87140295D01*
X68461792Y-87140295D02*
X68461792Y-87283152D01*
X68461792Y-87283152D02*
X68509411Y-87378390D01*
X68509411Y-87378390D02*
X68557030Y-87426009D01*
X68557030Y-87426009D02*
X68652268Y-87473628D01*
X68652268Y-87473628D02*
X69033220Y-87473628D01*
X68176077Y-87568866D02*
X68128458Y-87521247D01*
X68128458Y-87521247D02*
X68033220Y-87473628D01*
X68033220Y-87473628D02*
X67842744Y-87568866D01*
X67842744Y-87568866D02*
X67747506Y-87521247D01*
X67747506Y-87521247D02*
X67699887Y-87473628D01*
X68857030Y-62609819D02*
X69333220Y-62609819D01*
X69333220Y-62609819D02*
X69333220Y-61609819D01*
X68095125Y-61943152D02*
X68095125Y-62609819D01*
X68333220Y-61562200D02*
X68571315Y-62276485D01*
X68571315Y-62276485D02*
X67952268Y-62276485D01*
X69433220Y-82979819D02*
X69433220Y-81979819D01*
X69433220Y-81979819D02*
X69099887Y-82694104D01*
X69099887Y-82694104D02*
X68766554Y-81979819D01*
X68766554Y-81979819D02*
X68766554Y-82979819D01*
X67766554Y-82979819D02*
X68337982Y-82979819D01*
X68052268Y-82979819D02*
X68052268Y-81979819D01*
X68052268Y-81979819D02*
X68147506Y-82122676D01*
X68147506Y-82122676D02*
X68242744Y-82217914D01*
X68242744Y-82217914D02*
X68337982Y-82265533D01*
X68557030Y-47209819D02*
X69033220Y-47209819D01*
X69033220Y-47209819D02*
X69033220Y-46209819D01*
X67699887Y-47209819D02*
X68271315Y-47209819D01*
X67985601Y-47209819D02*
X67985601Y-46209819D01*
X67985601Y-46209819D02*
X68080839Y-46352676D01*
X68080839Y-46352676D02*
X68176077Y-46447914D01*
X68176077Y-46447914D02*
X68271315Y-46495533D01*
X68757030Y-52379819D02*
X69233220Y-52379819D01*
X69233220Y-52379819D02*
X69233220Y-51379819D01*
X68471315Y-51475057D02*
X68423696Y-51427438D01*
X68423696Y-51427438D02*
X68328458Y-51379819D01*
X68328458Y-51379819D02*
X68090363Y-51379819D01*
X68090363Y-51379819D02*
X67995125Y-51427438D01*
X67995125Y-51427438D02*
X67947506Y-51475057D01*
X67947506Y-51475057D02*
X67899887Y-51570295D01*
X67899887Y-51570295D02*
X67899887Y-51665533D01*
X67899887Y-51665533D02*
X67947506Y-51808390D01*
X67947506Y-51808390D02*
X68518934Y-52379819D01*
X68518934Y-52379819D02*
X67899887Y-52379819D01*
X69533220Y-72839819D02*
X69533220Y-71839819D01*
X69533220Y-71839819D02*
X69199887Y-72554104D01*
X69199887Y-72554104D02*
X68866554Y-71839819D01*
X68866554Y-71839819D02*
X68866554Y-72839819D01*
X68485601Y-71839819D02*
X67866554Y-71839819D01*
X67866554Y-71839819D02*
X68199887Y-72220771D01*
X68199887Y-72220771D02*
X68057030Y-72220771D01*
X68057030Y-72220771D02*
X67961792Y-72268390D01*
X67961792Y-72268390D02*
X67914173Y-72316009D01*
X67914173Y-72316009D02*
X67866554Y-72411247D01*
X67866554Y-72411247D02*
X67866554Y-72649342D01*
X67866554Y-72649342D02*
X67914173Y-72744580D01*
X67914173Y-72744580D02*
X67961792Y-72792200D01*
X67961792Y-72792200D02*
X68057030Y-72839819D01*
X68057030Y-72839819D02*
X68342744Y-72839819D01*
X68342744Y-72839819D02*
X68437982Y-72792200D01*
X68437982Y-72792200D02*
X68485601Y-72744580D01*
D12*
X102448898Y-62111980D02*
X102496517Y-62159600D01*
X102496517Y-62159600D02*
X102639374Y-62207219D01*
X102639374Y-62207219D02*
X102734612Y-62207219D01*
X102734612Y-62207219D02*
X102877469Y-62159600D01*
X102877469Y-62159600D02*
X102972707Y-62064361D01*
X102972707Y-62064361D02*
X103020326Y-61969123D01*
X103020326Y-61969123D02*
X103067945Y-61778647D01*
X103067945Y-61778647D02*
X103067945Y-61635790D01*
X103067945Y-61635790D02*
X103020326Y-61445314D01*
X103020326Y-61445314D02*
X102972707Y-61350076D01*
X102972707Y-61350076D02*
X102877469Y-61254838D01*
X102877469Y-61254838D02*
X102734612Y-61207219D01*
X102734612Y-61207219D02*
X102639374Y-61207219D01*
X102639374Y-61207219D02*
X102496517Y-61254838D01*
X102496517Y-61254838D02*
X102448898Y-61302457D01*
X102067945Y-61921504D02*
X101591755Y-61921504D01*
X102163183Y-62207219D02*
X101829850Y-61207219D01*
X101829850Y-61207219D02*
X101496517Y-62207219D01*
X101163183Y-61207219D02*
X101163183Y-62016742D01*
X101163183Y-62016742D02*
X101115564Y-62111980D01*
X101115564Y-62111980D02*
X101067945Y-62159600D01*
X101067945Y-62159600D02*
X100972707Y-62207219D01*
X100972707Y-62207219D02*
X100782231Y-62207219D01*
X100782231Y-62207219D02*
X100686993Y-62159600D01*
X100686993Y-62159600D02*
X100639374Y-62111980D01*
X100639374Y-62111980D02*
X100591755Y-62016742D01*
X100591755Y-62016742D02*
X100591755Y-61207219D01*
X100258421Y-61207219D02*
X99686993Y-61207219D01*
X99972707Y-62207219D02*
X99972707Y-61207219D01*
X99353659Y-62207219D02*
X99353659Y-61207219D01*
X98686993Y-61207219D02*
X98496517Y-61207219D01*
X98496517Y-61207219D02*
X98401279Y-61254838D01*
X98401279Y-61254838D02*
X98306041Y-61350076D01*
X98306041Y-61350076D02*
X98258422Y-61540552D01*
X98258422Y-61540552D02*
X98258422Y-61873885D01*
X98258422Y-61873885D02*
X98306041Y-62064361D01*
X98306041Y-62064361D02*
X98401279Y-62159600D01*
X98401279Y-62159600D02*
X98496517Y-62207219D01*
X98496517Y-62207219D02*
X98686993Y-62207219D01*
X98686993Y-62207219D02*
X98782231Y-62159600D01*
X98782231Y-62159600D02*
X98877469Y-62064361D01*
X98877469Y-62064361D02*
X98925088Y-61873885D01*
X98925088Y-61873885D02*
X98925088Y-61540552D01*
X98925088Y-61540552D02*
X98877469Y-61350076D01*
X98877469Y-61350076D02*
X98782231Y-61254838D01*
X98782231Y-61254838D02*
X98686993Y-61207219D01*
X97829850Y-62207219D02*
X97829850Y-61207219D01*
X97829850Y-61207219D02*
X97258422Y-62207219D01*
X97258422Y-62207219D02*
X97258422Y-61207219D01*
X96782231Y-62111980D02*
X96734612Y-62159600D01*
X96734612Y-62159600D02*
X96782231Y-62207219D01*
X96782231Y-62207219D02*
X96829850Y-62159600D01*
X96829850Y-62159600D02*
X96782231Y-62111980D01*
X96782231Y-62111980D02*
X96782231Y-62207219D01*
X96782231Y-61588171D02*
X96734612Y-61635790D01*
X96734612Y-61635790D02*
X96782231Y-61683409D01*
X96782231Y-61683409D02*
X96829850Y-61635790D01*
X96829850Y-61635790D02*
X96782231Y-61588171D01*
X96782231Y-61588171D02*
X96782231Y-61683409D01*
X95544136Y-62207219D02*
X95544136Y-61207219D01*
X95544136Y-61683409D02*
X94972708Y-61683409D01*
X94972708Y-62207219D02*
X94972708Y-61207219D01*
X94496517Y-62207219D02*
X94496517Y-61540552D01*
X94496517Y-61207219D02*
X94544136Y-61254838D01*
X94544136Y-61254838D02*
X94496517Y-61302457D01*
X94496517Y-61302457D02*
X94448898Y-61254838D01*
X94448898Y-61254838D02*
X94496517Y-61207219D01*
X94496517Y-61207219D02*
X94496517Y-61302457D01*
X93591756Y-61540552D02*
X93591756Y-62350076D01*
X93591756Y-62350076D02*
X93639375Y-62445314D01*
X93639375Y-62445314D02*
X93686994Y-62492933D01*
X93686994Y-62492933D02*
X93782232Y-62540552D01*
X93782232Y-62540552D02*
X93925089Y-62540552D01*
X93925089Y-62540552D02*
X94020327Y-62492933D01*
X93591756Y-62159600D02*
X93686994Y-62207219D01*
X93686994Y-62207219D02*
X93877470Y-62207219D01*
X93877470Y-62207219D02*
X93972708Y-62159600D01*
X93972708Y-62159600D02*
X94020327Y-62111980D01*
X94020327Y-62111980D02*
X94067946Y-62016742D01*
X94067946Y-62016742D02*
X94067946Y-61731028D01*
X94067946Y-61731028D02*
X94020327Y-61635790D01*
X94020327Y-61635790D02*
X93972708Y-61588171D01*
X93972708Y-61588171D02*
X93877470Y-61540552D01*
X93877470Y-61540552D02*
X93686994Y-61540552D01*
X93686994Y-61540552D02*
X93591756Y-61588171D01*
X93115565Y-62207219D02*
X93115565Y-61207219D01*
X92686994Y-62207219D02*
X92686994Y-61683409D01*
X92686994Y-61683409D02*
X92734613Y-61588171D01*
X92734613Y-61588171D02*
X92829851Y-61540552D01*
X92829851Y-61540552D02*
X92972708Y-61540552D01*
X92972708Y-61540552D02*
X93067946Y-61588171D01*
X93067946Y-61588171D02*
X93115565Y-61635790D01*
X91591755Y-61207219D02*
X91258422Y-62207219D01*
X91258422Y-62207219D02*
X90925089Y-61207219D01*
X90448898Y-62207219D02*
X90544136Y-62159600D01*
X90544136Y-62159600D02*
X90591755Y-62111980D01*
X90591755Y-62111980D02*
X90639374Y-62016742D01*
X90639374Y-62016742D02*
X90639374Y-61731028D01*
X90639374Y-61731028D02*
X90591755Y-61635790D01*
X90591755Y-61635790D02*
X90544136Y-61588171D01*
X90544136Y-61588171D02*
X90448898Y-61540552D01*
X90448898Y-61540552D02*
X90306041Y-61540552D01*
X90306041Y-61540552D02*
X90210803Y-61588171D01*
X90210803Y-61588171D02*
X90163184Y-61635790D01*
X90163184Y-61635790D02*
X90115565Y-61731028D01*
X90115565Y-61731028D02*
X90115565Y-62016742D01*
X90115565Y-62016742D02*
X90163184Y-62111980D01*
X90163184Y-62111980D02*
X90210803Y-62159600D01*
X90210803Y-62159600D02*
X90306041Y-62207219D01*
X90306041Y-62207219D02*
X90448898Y-62207219D01*
X89544136Y-62207219D02*
X89639374Y-62159600D01*
X89639374Y-62159600D02*
X89686993Y-62064361D01*
X89686993Y-62064361D02*
X89686993Y-61207219D01*
X89306040Y-61540552D02*
X88925088Y-61540552D01*
X89163183Y-61207219D02*
X89163183Y-62064361D01*
X89163183Y-62064361D02*
X89115564Y-62159600D01*
X89115564Y-62159600D02*
X89020326Y-62207219D01*
X89020326Y-62207219D02*
X88925088Y-62207219D01*
X88163183Y-62207219D02*
X88163183Y-61683409D01*
X88163183Y-61683409D02*
X88210802Y-61588171D01*
X88210802Y-61588171D02*
X88306040Y-61540552D01*
X88306040Y-61540552D02*
X88496516Y-61540552D01*
X88496516Y-61540552D02*
X88591754Y-61588171D01*
X88163183Y-62159600D02*
X88258421Y-62207219D01*
X88258421Y-62207219D02*
X88496516Y-62207219D01*
X88496516Y-62207219D02*
X88591754Y-62159600D01*
X88591754Y-62159600D02*
X88639373Y-62064361D01*
X88639373Y-62064361D02*
X88639373Y-61969123D01*
X88639373Y-61969123D02*
X88591754Y-61873885D01*
X88591754Y-61873885D02*
X88496516Y-61826266D01*
X88496516Y-61826266D02*
X88258421Y-61826266D01*
X88258421Y-61826266D02*
X88163183Y-61778647D01*
X87258421Y-61540552D02*
X87258421Y-62350076D01*
X87258421Y-62350076D02*
X87306040Y-62445314D01*
X87306040Y-62445314D02*
X87353659Y-62492933D01*
X87353659Y-62492933D02*
X87448897Y-62540552D01*
X87448897Y-62540552D02*
X87591754Y-62540552D01*
X87591754Y-62540552D02*
X87686992Y-62492933D01*
X87258421Y-62159600D02*
X87353659Y-62207219D01*
X87353659Y-62207219D02*
X87544135Y-62207219D01*
X87544135Y-62207219D02*
X87639373Y-62159600D01*
X87639373Y-62159600D02*
X87686992Y-62111980D01*
X87686992Y-62111980D02*
X87734611Y-62016742D01*
X87734611Y-62016742D02*
X87734611Y-61731028D01*
X87734611Y-61731028D02*
X87686992Y-61635790D01*
X87686992Y-61635790D02*
X87639373Y-61588171D01*
X87639373Y-61588171D02*
X87544135Y-61540552D01*
X87544135Y-61540552D02*
X87353659Y-61540552D01*
X87353659Y-61540552D02*
X87258421Y-61588171D01*
X86401278Y-62159600D02*
X86496516Y-62207219D01*
X86496516Y-62207219D02*
X86686992Y-62207219D01*
X86686992Y-62207219D02*
X86782230Y-62159600D01*
X86782230Y-62159600D02*
X86829849Y-62064361D01*
X86829849Y-62064361D02*
X86829849Y-61683409D01*
X86829849Y-61683409D02*
X86782230Y-61588171D01*
X86782230Y-61588171D02*
X86686992Y-61540552D01*
X86686992Y-61540552D02*
X86496516Y-61540552D01*
X86496516Y-61540552D02*
X86401278Y-61588171D01*
X86401278Y-61588171D02*
X86353659Y-61683409D01*
X86353659Y-61683409D02*
X86353659Y-61778647D01*
X86353659Y-61778647D02*
X86829849Y-61873885D01*
D10*
X69433220Y-67679819D02*
X69433220Y-66679819D01*
X69433220Y-66679819D02*
X69099887Y-67394104D01*
X69099887Y-67394104D02*
X68766554Y-66679819D01*
X68766554Y-66679819D02*
X68766554Y-67679819D01*
X67861792Y-67013152D02*
X67861792Y-67679819D01*
X68099887Y-66632200D02*
X68337982Y-67346485D01*
X68337982Y-67346485D02*
X67718935Y-67346485D01*
X121063333Y-64314819D02*
X121063333Y-65029104D01*
X121063333Y-65029104D02*
X121110952Y-65171961D01*
X121110952Y-65171961D02*
X121206190Y-65267200D01*
X121206190Y-65267200D02*
X121349047Y-65314819D01*
X121349047Y-65314819D02*
X121444285Y-65314819D01*
X120682380Y-64314819D02*
X120063333Y-64314819D01*
X120063333Y-64314819D02*
X120396666Y-64695771D01*
X120396666Y-64695771D02*
X120253809Y-64695771D01*
X120253809Y-64695771D02*
X120158571Y-64743390D01*
X120158571Y-64743390D02*
X120110952Y-64791009D01*
X120110952Y-64791009D02*
X120063333Y-64886247D01*
X120063333Y-64886247D02*
X120063333Y-65124342D01*
X120063333Y-65124342D02*
X120110952Y-65219580D01*
X120110952Y-65219580D02*
X120158571Y-65267200D01*
X120158571Y-65267200D02*
X120253809Y-65314819D01*
X120253809Y-65314819D02*
X120539523Y-65314819D01*
X120539523Y-65314819D02*
X120634761Y-65267200D01*
X120634761Y-65267200D02*
X120682380Y-65219580D01*
X120763333Y-58924819D02*
X120763333Y-59639104D01*
X120763333Y-59639104D02*
X120810952Y-59781961D01*
X120810952Y-59781961D02*
X120906190Y-59877200D01*
X120906190Y-59877200D02*
X121049047Y-59924819D01*
X121049047Y-59924819D02*
X121144285Y-59924819D01*
X119763333Y-59924819D02*
X120334761Y-59924819D01*
X120049047Y-59924819D02*
X120049047Y-58924819D01*
X120049047Y-58924819D02*
X120144285Y-59067676D01*
X120144285Y-59067676D02*
X120239523Y-59162914D01*
X120239523Y-59162914D02*
X120334761Y-59210533D01*
X107082857Y-73414819D02*
X107416190Y-72938628D01*
X107654285Y-73414819D02*
X107654285Y-72414819D01*
X107654285Y-72414819D02*
X107273333Y-72414819D01*
X107273333Y-72414819D02*
X107178095Y-72462438D01*
X107178095Y-72462438D02*
X107130476Y-72510057D01*
X107130476Y-72510057D02*
X107082857Y-72605295D01*
X107082857Y-72605295D02*
X107082857Y-72748152D01*
X107082857Y-72748152D02*
X107130476Y-72843390D01*
X107130476Y-72843390D02*
X107178095Y-72891009D01*
X107178095Y-72891009D02*
X107273333Y-72938628D01*
X107273333Y-72938628D02*
X107654285Y-72938628D01*
X106130476Y-73414819D02*
X106701904Y-73414819D01*
X106416190Y-73414819D02*
X106416190Y-72414819D01*
X106416190Y-72414819D02*
X106511428Y-72557676D01*
X106511428Y-72557676D02*
X106606666Y-72652914D01*
X106606666Y-72652914D02*
X106701904Y-72700533D01*
X105749523Y-72510057D02*
X105701904Y-72462438D01*
X105701904Y-72462438D02*
X105606666Y-72414819D01*
X105606666Y-72414819D02*
X105368571Y-72414819D01*
X105368571Y-72414819D02*
X105273333Y-72462438D01*
X105273333Y-72462438D02*
X105225714Y-72510057D01*
X105225714Y-72510057D02*
X105178095Y-72605295D01*
X105178095Y-72605295D02*
X105178095Y-72700533D01*
X105178095Y-72700533D02*
X105225714Y-72843390D01*
X105225714Y-72843390D02*
X105797142Y-73414819D01*
X105797142Y-73414819D02*
X105178095Y-73414819D01*
X106736666Y-79374819D02*
X107069999Y-78898628D01*
X107308094Y-79374819D02*
X107308094Y-78374819D01*
X107308094Y-78374819D02*
X106927142Y-78374819D01*
X106927142Y-78374819D02*
X106831904Y-78422438D01*
X106831904Y-78422438D02*
X106784285Y-78470057D01*
X106784285Y-78470057D02*
X106736666Y-78565295D01*
X106736666Y-78565295D02*
X106736666Y-78708152D01*
X106736666Y-78708152D02*
X106784285Y-78803390D01*
X106784285Y-78803390D02*
X106831904Y-78851009D01*
X106831904Y-78851009D02*
X106927142Y-78898628D01*
X106927142Y-78898628D02*
X107308094Y-78898628D01*
X106260475Y-79374819D02*
X106069999Y-79374819D01*
X106069999Y-79374819D02*
X105974761Y-79327200D01*
X105974761Y-79327200D02*
X105927142Y-79279580D01*
X105927142Y-79279580D02*
X105831904Y-79136723D01*
X105831904Y-79136723D02*
X105784285Y-78946247D01*
X105784285Y-78946247D02*
X105784285Y-78565295D01*
X105784285Y-78565295D02*
X105831904Y-78470057D01*
X105831904Y-78470057D02*
X105879523Y-78422438D01*
X105879523Y-78422438D02*
X105974761Y-78374819D01*
X105974761Y-78374819D02*
X106165237Y-78374819D01*
X106165237Y-78374819D02*
X106260475Y-78422438D01*
X106260475Y-78422438D02*
X106308094Y-78470057D01*
X106308094Y-78470057D02*
X106355713Y-78565295D01*
X106355713Y-78565295D02*
X106355713Y-78803390D01*
X106355713Y-78803390D02*
X106308094Y-78898628D01*
X106308094Y-78898628D02*
X106260475Y-78946247D01*
X106260475Y-78946247D02*
X106165237Y-78993866D01*
X106165237Y-78993866D02*
X105974761Y-78993866D01*
X105974761Y-78993866D02*
X105879523Y-78946247D01*
X105879523Y-78946247D02*
X105831904Y-78898628D01*
X105831904Y-78898628D02*
X105784285Y-78803390D01*
X106816666Y-85734819D02*
X107149999Y-85258628D01*
X107388094Y-85734819D02*
X107388094Y-84734819D01*
X107388094Y-84734819D02*
X107007142Y-84734819D01*
X107007142Y-84734819D02*
X106911904Y-84782438D01*
X106911904Y-84782438D02*
X106864285Y-84830057D01*
X106864285Y-84830057D02*
X106816666Y-84925295D01*
X106816666Y-84925295D02*
X106816666Y-85068152D01*
X106816666Y-85068152D02*
X106864285Y-85163390D01*
X106864285Y-85163390D02*
X106911904Y-85211009D01*
X106911904Y-85211009D02*
X107007142Y-85258628D01*
X107007142Y-85258628D02*
X107388094Y-85258628D01*
X105959523Y-84734819D02*
X106149999Y-84734819D01*
X106149999Y-84734819D02*
X106245237Y-84782438D01*
X106245237Y-84782438D02*
X106292856Y-84830057D01*
X106292856Y-84830057D02*
X106388094Y-84972914D01*
X106388094Y-84972914D02*
X106435713Y-85163390D01*
X106435713Y-85163390D02*
X106435713Y-85544342D01*
X106435713Y-85544342D02*
X106388094Y-85639580D01*
X106388094Y-85639580D02*
X106340475Y-85687200D01*
X106340475Y-85687200D02*
X106245237Y-85734819D01*
X106245237Y-85734819D02*
X106054761Y-85734819D01*
X106054761Y-85734819D02*
X105959523Y-85687200D01*
X105959523Y-85687200D02*
X105911904Y-85639580D01*
X105911904Y-85639580D02*
X105864285Y-85544342D01*
X105864285Y-85544342D02*
X105864285Y-85306247D01*
X105864285Y-85306247D02*
X105911904Y-85211009D01*
X105911904Y-85211009D02*
X105959523Y-85163390D01*
X105959523Y-85163390D02*
X106054761Y-85115771D01*
X106054761Y-85115771D02*
X106245237Y-85115771D01*
X106245237Y-85115771D02*
X106340475Y-85163390D01*
X106340475Y-85163390D02*
X106388094Y-85211009D01*
X106388094Y-85211009D02*
X106435713Y-85306247D01*
X106746666Y-92094819D02*
X107079999Y-91618628D01*
X107318094Y-92094819D02*
X107318094Y-91094819D01*
X107318094Y-91094819D02*
X106937142Y-91094819D01*
X106937142Y-91094819D02*
X106841904Y-91142438D01*
X106841904Y-91142438D02*
X106794285Y-91190057D01*
X106794285Y-91190057D02*
X106746666Y-91285295D01*
X106746666Y-91285295D02*
X106746666Y-91428152D01*
X106746666Y-91428152D02*
X106794285Y-91523390D01*
X106794285Y-91523390D02*
X106841904Y-91571009D01*
X106841904Y-91571009D02*
X106937142Y-91618628D01*
X106937142Y-91618628D02*
X107318094Y-91618628D01*
X106413332Y-91094819D02*
X105794285Y-91094819D01*
X105794285Y-91094819D02*
X106127618Y-91475771D01*
X106127618Y-91475771D02*
X105984761Y-91475771D01*
X105984761Y-91475771D02*
X105889523Y-91523390D01*
X105889523Y-91523390D02*
X105841904Y-91571009D01*
X105841904Y-91571009D02*
X105794285Y-91666247D01*
X105794285Y-91666247D02*
X105794285Y-91904342D01*
X105794285Y-91904342D02*
X105841904Y-91999580D01*
X105841904Y-91999580D02*
X105889523Y-92047200D01*
X105889523Y-92047200D02*
X105984761Y-92094819D01*
X105984761Y-92094819D02*
X106270475Y-92094819D01*
X106270475Y-92094819D02*
X106365713Y-92047200D01*
X106365713Y-92047200D02*
X106413332Y-91999580D01*
X89164819Y-69801905D02*
X88164819Y-69801905D01*
X88164819Y-69801905D02*
X88164819Y-70040000D01*
X88164819Y-70040000D02*
X88212438Y-70182857D01*
X88212438Y-70182857D02*
X88307676Y-70278095D01*
X88307676Y-70278095D02*
X88402914Y-70325714D01*
X88402914Y-70325714D02*
X88593390Y-70373333D01*
X88593390Y-70373333D02*
X88736247Y-70373333D01*
X88736247Y-70373333D02*
X88926723Y-70325714D01*
X88926723Y-70325714D02*
X89021961Y-70278095D01*
X89021961Y-70278095D02*
X89117200Y-70182857D01*
X89117200Y-70182857D02*
X89164819Y-70040000D01*
X89164819Y-70040000D02*
X89164819Y-69801905D01*
X88498152Y-71230476D02*
X89164819Y-71230476D01*
X88117200Y-70992381D02*
X88831485Y-70754286D01*
X88831485Y-70754286D02*
X88831485Y-71373333D01*
X87864819Y-76201905D02*
X86864819Y-76201905D01*
X86864819Y-76201905D02*
X86864819Y-76440000D01*
X86864819Y-76440000D02*
X86912438Y-76582857D01*
X86912438Y-76582857D02*
X87007676Y-76678095D01*
X87007676Y-76678095D02*
X87102914Y-76725714D01*
X87102914Y-76725714D02*
X87293390Y-76773333D01*
X87293390Y-76773333D02*
X87436247Y-76773333D01*
X87436247Y-76773333D02*
X87626723Y-76725714D01*
X87626723Y-76725714D02*
X87721961Y-76678095D01*
X87721961Y-76678095D02*
X87817200Y-76582857D01*
X87817200Y-76582857D02*
X87864819Y-76440000D01*
X87864819Y-76440000D02*
X87864819Y-76201905D01*
X86864819Y-77106667D02*
X86864819Y-77725714D01*
X86864819Y-77725714D02*
X87245771Y-77392381D01*
X87245771Y-77392381D02*
X87245771Y-77535238D01*
X87245771Y-77535238D02*
X87293390Y-77630476D01*
X87293390Y-77630476D02*
X87341009Y-77678095D01*
X87341009Y-77678095D02*
X87436247Y-77725714D01*
X87436247Y-77725714D02*
X87674342Y-77725714D01*
X87674342Y-77725714D02*
X87769580Y-77678095D01*
X87769580Y-77678095D02*
X87817200Y-77630476D01*
X87817200Y-77630476D02*
X87864819Y-77535238D01*
X87864819Y-77535238D02*
X87864819Y-77249524D01*
X87864819Y-77249524D02*
X87817200Y-77154286D01*
X87817200Y-77154286D02*
X87769580Y-77106667D01*
X87784819Y-84261905D02*
X86784819Y-84261905D01*
X86784819Y-84261905D02*
X86784819Y-84500000D01*
X86784819Y-84500000D02*
X86832438Y-84642857D01*
X86832438Y-84642857D02*
X86927676Y-84738095D01*
X86927676Y-84738095D02*
X87022914Y-84785714D01*
X87022914Y-84785714D02*
X87213390Y-84833333D01*
X87213390Y-84833333D02*
X87356247Y-84833333D01*
X87356247Y-84833333D02*
X87546723Y-84785714D01*
X87546723Y-84785714D02*
X87641961Y-84738095D01*
X87641961Y-84738095D02*
X87737200Y-84642857D01*
X87737200Y-84642857D02*
X87784819Y-84500000D01*
X87784819Y-84500000D02*
X87784819Y-84261905D01*
X86880057Y-85214286D02*
X86832438Y-85261905D01*
X86832438Y-85261905D02*
X86784819Y-85357143D01*
X86784819Y-85357143D02*
X86784819Y-85595238D01*
X86784819Y-85595238D02*
X86832438Y-85690476D01*
X86832438Y-85690476D02*
X86880057Y-85738095D01*
X86880057Y-85738095D02*
X86975295Y-85785714D01*
X86975295Y-85785714D02*
X87070533Y-85785714D01*
X87070533Y-85785714D02*
X87213390Y-85738095D01*
X87213390Y-85738095D02*
X87784819Y-85166667D01*
X87784819Y-85166667D02*
X87784819Y-85785714D01*
X88984819Y-90141905D02*
X87984819Y-90141905D01*
X87984819Y-90141905D02*
X87984819Y-90380000D01*
X87984819Y-90380000D02*
X88032438Y-90522857D01*
X88032438Y-90522857D02*
X88127676Y-90618095D01*
X88127676Y-90618095D02*
X88222914Y-90665714D01*
X88222914Y-90665714D02*
X88413390Y-90713333D01*
X88413390Y-90713333D02*
X88556247Y-90713333D01*
X88556247Y-90713333D02*
X88746723Y-90665714D01*
X88746723Y-90665714D02*
X88841961Y-90618095D01*
X88841961Y-90618095D02*
X88937200Y-90522857D01*
X88937200Y-90522857D02*
X88984819Y-90380000D01*
X88984819Y-90380000D02*
X88984819Y-90141905D01*
X88984819Y-91665714D02*
X88984819Y-91094286D01*
X88984819Y-91380000D02*
X87984819Y-91380000D01*
X87984819Y-91380000D02*
X88127676Y-91284762D01*
X88127676Y-91284762D02*
X88222914Y-91189524D01*
X88222914Y-91189524D02*
X88270533Y-91094286D01*
X112579580Y-72490833D02*
X112627200Y-72443214D01*
X112627200Y-72443214D02*
X112674819Y-72300357D01*
X112674819Y-72300357D02*
X112674819Y-72205119D01*
X112674819Y-72205119D02*
X112627200Y-72062262D01*
X112627200Y-72062262D02*
X112531961Y-71967024D01*
X112531961Y-71967024D02*
X112436723Y-71919405D01*
X112436723Y-71919405D02*
X112246247Y-71871786D01*
X112246247Y-71871786D02*
X112103390Y-71871786D01*
X112103390Y-71871786D02*
X111912914Y-71919405D01*
X111912914Y-71919405D02*
X111817676Y-71967024D01*
X111817676Y-71967024D02*
X111722438Y-72062262D01*
X111722438Y-72062262D02*
X111674819Y-72205119D01*
X111674819Y-72205119D02*
X111674819Y-72300357D01*
X111674819Y-72300357D02*
X111722438Y-72443214D01*
X111722438Y-72443214D02*
X111770057Y-72490833D01*
X112674819Y-73443214D02*
X112674819Y-72871786D01*
X112674819Y-73157500D02*
X111674819Y-73157500D01*
X111674819Y-73157500D02*
X111817676Y-73062262D01*
X111817676Y-73062262D02*
X111912914Y-72967024D01*
X111912914Y-72967024D02*
X111960533Y-72871786D01*
X125434166Y-61659580D02*
X125481785Y-61707200D01*
X125481785Y-61707200D02*
X125624642Y-61754819D01*
X125624642Y-61754819D02*
X125719880Y-61754819D01*
X125719880Y-61754819D02*
X125862737Y-61707200D01*
X125862737Y-61707200D02*
X125957975Y-61611961D01*
X125957975Y-61611961D02*
X126005594Y-61516723D01*
X126005594Y-61516723D02*
X126053213Y-61326247D01*
X126053213Y-61326247D02*
X126053213Y-61183390D01*
X126053213Y-61183390D02*
X126005594Y-60992914D01*
X126005594Y-60992914D02*
X125957975Y-60897676D01*
X125957975Y-60897676D02*
X125862737Y-60802438D01*
X125862737Y-60802438D02*
X125719880Y-60754819D01*
X125719880Y-60754819D02*
X125624642Y-60754819D01*
X125624642Y-60754819D02*
X125481785Y-60802438D01*
X125481785Y-60802438D02*
X125434166Y-60850057D01*
X125053213Y-60850057D02*
X125005594Y-60802438D01*
X125005594Y-60802438D02*
X124910356Y-60754819D01*
X124910356Y-60754819D02*
X124672261Y-60754819D01*
X124672261Y-60754819D02*
X124577023Y-60802438D01*
X124577023Y-60802438D02*
X124529404Y-60850057D01*
X124529404Y-60850057D02*
X124481785Y-60945295D01*
X124481785Y-60945295D02*
X124481785Y-61040533D01*
X124481785Y-61040533D02*
X124529404Y-61183390D01*
X124529404Y-61183390D02*
X125100832Y-61754819D01*
X125100832Y-61754819D02*
X124481785Y-61754819D01*
X76214819Y-66747142D02*
X75738628Y-66413809D01*
X76214819Y-66175714D02*
X75214819Y-66175714D01*
X75214819Y-66175714D02*
X75214819Y-66556666D01*
X75214819Y-66556666D02*
X75262438Y-66651904D01*
X75262438Y-66651904D02*
X75310057Y-66699523D01*
X75310057Y-66699523D02*
X75405295Y-66747142D01*
X75405295Y-66747142D02*
X75548152Y-66747142D01*
X75548152Y-66747142D02*
X75643390Y-66699523D01*
X75643390Y-66699523D02*
X75691009Y-66651904D01*
X75691009Y-66651904D02*
X75738628Y-66556666D01*
X75738628Y-66556666D02*
X75738628Y-66175714D01*
X76214819Y-67699523D02*
X76214819Y-67128095D01*
X76214819Y-67413809D02*
X75214819Y-67413809D01*
X75214819Y-67413809D02*
X75357676Y-67318571D01*
X75357676Y-67318571D02*
X75452914Y-67223333D01*
X75452914Y-67223333D02*
X75500533Y-67128095D01*
X75214819Y-68318571D02*
X75214819Y-68413809D01*
X75214819Y-68413809D02*
X75262438Y-68509047D01*
X75262438Y-68509047D02*
X75310057Y-68556666D01*
X75310057Y-68556666D02*
X75405295Y-68604285D01*
X75405295Y-68604285D02*
X75595771Y-68651904D01*
X75595771Y-68651904D02*
X75833866Y-68651904D01*
X75833866Y-68651904D02*
X76024342Y-68604285D01*
X76024342Y-68604285D02*
X76119580Y-68556666D01*
X76119580Y-68556666D02*
X76167200Y-68509047D01*
X76167200Y-68509047D02*
X76214819Y-68413809D01*
X76214819Y-68413809D02*
X76214819Y-68318571D01*
X76214819Y-68318571D02*
X76167200Y-68223333D01*
X76167200Y-68223333D02*
X76119580Y-68175714D01*
X76119580Y-68175714D02*
X76024342Y-68128095D01*
X76024342Y-68128095D02*
X75833866Y-68080476D01*
X75833866Y-68080476D02*
X75595771Y-68080476D01*
X75595771Y-68080476D02*
X75405295Y-68128095D01*
X75405295Y-68128095D02*
X75310057Y-68175714D01*
X75310057Y-68175714D02*
X75262438Y-68223333D01*
X75262438Y-68223333D02*
X75214819Y-68318571D01*
X104851904Y-82864819D02*
X104851904Y-83674342D01*
X104851904Y-83674342D02*
X104804285Y-83769580D01*
X104804285Y-83769580D02*
X104756666Y-83817200D01*
X104756666Y-83817200D02*
X104661428Y-83864819D01*
X104661428Y-83864819D02*
X104470952Y-83864819D01*
X104470952Y-83864819D02*
X104375714Y-83817200D01*
X104375714Y-83817200D02*
X104328095Y-83769580D01*
X104328095Y-83769580D02*
X104280476Y-83674342D01*
X104280476Y-83674342D02*
X104280476Y-82864819D01*
X103851904Y-82960057D02*
X103804285Y-82912438D01*
X103804285Y-82912438D02*
X103709047Y-82864819D01*
X103709047Y-82864819D02*
X103470952Y-82864819D01*
X103470952Y-82864819D02*
X103375714Y-82912438D01*
X103375714Y-82912438D02*
X103328095Y-82960057D01*
X103328095Y-82960057D02*
X103280476Y-83055295D01*
X103280476Y-83055295D02*
X103280476Y-83150533D01*
X103280476Y-83150533D02*
X103328095Y-83293390D01*
X103328095Y-83293390D02*
X103899523Y-83864819D01*
X103899523Y-83864819D02*
X103280476Y-83864819D01*
X104911904Y-71844819D02*
X104911904Y-72654342D01*
X104911904Y-72654342D02*
X104864285Y-72749580D01*
X104864285Y-72749580D02*
X104816666Y-72797200D01*
X104816666Y-72797200D02*
X104721428Y-72844819D01*
X104721428Y-72844819D02*
X104530952Y-72844819D01*
X104530952Y-72844819D02*
X104435714Y-72797200D01*
X104435714Y-72797200D02*
X104388095Y-72749580D01*
X104388095Y-72749580D02*
X104340476Y-72654342D01*
X104340476Y-72654342D02*
X104340476Y-71844819D01*
X103435714Y-72178152D02*
X103435714Y-72844819D01*
X103673809Y-71797200D02*
X103911904Y-72511485D01*
X103911904Y-72511485D02*
X103292857Y-72511485D01*
X126019404Y-45679819D02*
X126019404Y-46489342D01*
X126019404Y-46489342D02*
X125971785Y-46584580D01*
X125971785Y-46584580D02*
X125924166Y-46632200D01*
X125924166Y-46632200D02*
X125828928Y-46679819D01*
X125828928Y-46679819D02*
X125638452Y-46679819D01*
X125638452Y-46679819D02*
X125543214Y-46632200D01*
X125543214Y-46632200D02*
X125495595Y-46584580D01*
X125495595Y-46584580D02*
X125447976Y-46489342D01*
X125447976Y-46489342D02*
X125447976Y-45679819D01*
X124543214Y-45679819D02*
X124733690Y-45679819D01*
X124733690Y-45679819D02*
X124828928Y-45727438D01*
X124828928Y-45727438D02*
X124876547Y-45775057D01*
X124876547Y-45775057D02*
X124971785Y-45917914D01*
X124971785Y-45917914D02*
X125019404Y-46108390D01*
X125019404Y-46108390D02*
X125019404Y-46489342D01*
X125019404Y-46489342D02*
X124971785Y-46584580D01*
X124971785Y-46584580D02*
X124924166Y-46632200D01*
X124924166Y-46632200D02*
X124828928Y-46679819D01*
X124828928Y-46679819D02*
X124638452Y-46679819D01*
X124638452Y-46679819D02*
X124543214Y-46632200D01*
X124543214Y-46632200D02*
X124495595Y-46584580D01*
X124495595Y-46584580D02*
X124447976Y-46489342D01*
X124447976Y-46489342D02*
X124447976Y-46251247D01*
X124447976Y-46251247D02*
X124495595Y-46156009D01*
X124495595Y-46156009D02*
X124543214Y-46108390D01*
X124543214Y-46108390D02*
X124638452Y-46060771D01*
X124638452Y-46060771D02*
X124828928Y-46060771D01*
X124828928Y-46060771D02*
X124924166Y-46108390D01*
X124924166Y-46108390D02*
X124971785Y-46156009D01*
X124971785Y-46156009D02*
X125019404Y-46251247D01*
X79534819Y-89393333D02*
X79058628Y-89060000D01*
X79534819Y-88821905D02*
X78534819Y-88821905D01*
X78534819Y-88821905D02*
X78534819Y-89202857D01*
X78534819Y-89202857D02*
X78582438Y-89298095D01*
X78582438Y-89298095D02*
X78630057Y-89345714D01*
X78630057Y-89345714D02*
X78725295Y-89393333D01*
X78725295Y-89393333D02*
X78868152Y-89393333D01*
X78868152Y-89393333D02*
X78963390Y-89345714D01*
X78963390Y-89345714D02*
X79011009Y-89298095D01*
X79011009Y-89298095D02*
X79058628Y-89202857D01*
X79058628Y-89202857D02*
X79058628Y-88821905D01*
X79534819Y-90345714D02*
X79534819Y-89774286D01*
X79534819Y-90060000D02*
X78534819Y-90060000D01*
X78534819Y-90060000D02*
X78677676Y-89964762D01*
X78677676Y-89964762D02*
X78772914Y-89869524D01*
X78772914Y-89869524D02*
X78820533Y-89774286D01*
X81736666Y-91584819D02*
X82069999Y-91108628D01*
X82308094Y-91584819D02*
X82308094Y-90584819D01*
X82308094Y-90584819D02*
X81927142Y-90584819D01*
X81927142Y-90584819D02*
X81831904Y-90632438D01*
X81831904Y-90632438D02*
X81784285Y-90680057D01*
X81784285Y-90680057D02*
X81736666Y-90775295D01*
X81736666Y-90775295D02*
X81736666Y-90918152D01*
X81736666Y-90918152D02*
X81784285Y-91013390D01*
X81784285Y-91013390D02*
X81831904Y-91061009D01*
X81831904Y-91061009D02*
X81927142Y-91108628D01*
X81927142Y-91108628D02*
X82308094Y-91108628D01*
X81355713Y-90680057D02*
X81308094Y-90632438D01*
X81308094Y-90632438D02*
X81212856Y-90584819D01*
X81212856Y-90584819D02*
X80974761Y-90584819D01*
X80974761Y-90584819D02*
X80879523Y-90632438D01*
X80879523Y-90632438D02*
X80831904Y-90680057D01*
X80831904Y-90680057D02*
X80784285Y-90775295D01*
X80784285Y-90775295D02*
X80784285Y-90870533D01*
X80784285Y-90870533D02*
X80831904Y-91013390D01*
X80831904Y-91013390D02*
X81403332Y-91584819D01*
X81403332Y-91584819D02*
X80784285Y-91584819D01*
X105031904Y-76704819D02*
X105031904Y-77514342D01*
X105031904Y-77514342D02*
X104984285Y-77609580D01*
X104984285Y-77609580D02*
X104936666Y-77657200D01*
X104936666Y-77657200D02*
X104841428Y-77704819D01*
X104841428Y-77704819D02*
X104650952Y-77704819D01*
X104650952Y-77704819D02*
X104555714Y-77657200D01*
X104555714Y-77657200D02*
X104508095Y-77609580D01*
X104508095Y-77609580D02*
X104460476Y-77514342D01*
X104460476Y-77514342D02*
X104460476Y-76704819D01*
X104079523Y-76704819D02*
X103460476Y-76704819D01*
X103460476Y-76704819D02*
X103793809Y-77085771D01*
X103793809Y-77085771D02*
X103650952Y-77085771D01*
X103650952Y-77085771D02*
X103555714Y-77133390D01*
X103555714Y-77133390D02*
X103508095Y-77181009D01*
X103508095Y-77181009D02*
X103460476Y-77276247D01*
X103460476Y-77276247D02*
X103460476Y-77514342D01*
X103460476Y-77514342D02*
X103508095Y-77609580D01*
X103508095Y-77609580D02*
X103555714Y-77657200D01*
X103555714Y-77657200D02*
X103650952Y-77704819D01*
X103650952Y-77704819D02*
X103936666Y-77704819D01*
X103936666Y-77704819D02*
X104031904Y-77657200D01*
X104031904Y-77657200D02*
X104079523Y-77609580D01*
X82532857Y-71344819D02*
X82866190Y-70868628D01*
X83104285Y-71344819D02*
X83104285Y-70344819D01*
X83104285Y-70344819D02*
X82723333Y-70344819D01*
X82723333Y-70344819D02*
X82628095Y-70392438D01*
X82628095Y-70392438D02*
X82580476Y-70440057D01*
X82580476Y-70440057D02*
X82532857Y-70535295D01*
X82532857Y-70535295D02*
X82532857Y-70678152D01*
X82532857Y-70678152D02*
X82580476Y-70773390D01*
X82580476Y-70773390D02*
X82628095Y-70821009D01*
X82628095Y-70821009D02*
X82723333Y-70868628D01*
X82723333Y-70868628D02*
X83104285Y-70868628D01*
X81580476Y-71344819D02*
X82151904Y-71344819D01*
X81866190Y-71344819D02*
X81866190Y-70344819D01*
X81866190Y-70344819D02*
X81961428Y-70487676D01*
X81961428Y-70487676D02*
X82056666Y-70582914D01*
X82056666Y-70582914D02*
X82151904Y-70630533D01*
X80628095Y-71344819D02*
X81199523Y-71344819D01*
X80913809Y-71344819D02*
X80913809Y-70344819D01*
X80913809Y-70344819D02*
X81009047Y-70487676D01*
X81009047Y-70487676D02*
X81104285Y-70582914D01*
X81104285Y-70582914D02*
X81199523Y-70630533D01*
X76074819Y-79413333D02*
X75598628Y-79080000D01*
X76074819Y-78841905D02*
X75074819Y-78841905D01*
X75074819Y-78841905D02*
X75074819Y-79222857D01*
X75074819Y-79222857D02*
X75122438Y-79318095D01*
X75122438Y-79318095D02*
X75170057Y-79365714D01*
X75170057Y-79365714D02*
X75265295Y-79413333D01*
X75265295Y-79413333D02*
X75408152Y-79413333D01*
X75408152Y-79413333D02*
X75503390Y-79365714D01*
X75503390Y-79365714D02*
X75551009Y-79318095D01*
X75551009Y-79318095D02*
X75598628Y-79222857D01*
X75598628Y-79222857D02*
X75598628Y-78841905D01*
X75408152Y-80270476D02*
X76074819Y-80270476D01*
X75027200Y-80032381D02*
X75741485Y-79794286D01*
X75741485Y-79794286D02*
X75741485Y-80413333D01*
X81436666Y-77264819D02*
X81769999Y-76788628D01*
X82008094Y-77264819D02*
X82008094Y-76264819D01*
X82008094Y-76264819D02*
X81627142Y-76264819D01*
X81627142Y-76264819D02*
X81531904Y-76312438D01*
X81531904Y-76312438D02*
X81484285Y-76360057D01*
X81484285Y-76360057D02*
X81436666Y-76455295D01*
X81436666Y-76455295D02*
X81436666Y-76598152D01*
X81436666Y-76598152D02*
X81484285Y-76693390D01*
X81484285Y-76693390D02*
X81531904Y-76741009D01*
X81531904Y-76741009D02*
X81627142Y-76788628D01*
X81627142Y-76788628D02*
X82008094Y-76788628D01*
X80865237Y-76693390D02*
X80960475Y-76645771D01*
X80960475Y-76645771D02*
X81008094Y-76598152D01*
X81008094Y-76598152D02*
X81055713Y-76502914D01*
X81055713Y-76502914D02*
X81055713Y-76455295D01*
X81055713Y-76455295D02*
X81008094Y-76360057D01*
X81008094Y-76360057D02*
X80960475Y-76312438D01*
X80960475Y-76312438D02*
X80865237Y-76264819D01*
X80865237Y-76264819D02*
X80674761Y-76264819D01*
X80674761Y-76264819D02*
X80579523Y-76312438D01*
X80579523Y-76312438D02*
X80531904Y-76360057D01*
X80531904Y-76360057D02*
X80484285Y-76455295D01*
X80484285Y-76455295D02*
X80484285Y-76502914D01*
X80484285Y-76502914D02*
X80531904Y-76598152D01*
X80531904Y-76598152D02*
X80579523Y-76645771D01*
X80579523Y-76645771D02*
X80674761Y-76693390D01*
X80674761Y-76693390D02*
X80865237Y-76693390D01*
X80865237Y-76693390D02*
X80960475Y-76741009D01*
X80960475Y-76741009D02*
X81008094Y-76788628D01*
X81008094Y-76788628D02*
X81055713Y-76883866D01*
X81055713Y-76883866D02*
X81055713Y-77074342D01*
X81055713Y-77074342D02*
X81008094Y-77169580D01*
X81008094Y-77169580D02*
X80960475Y-77217200D01*
X80960475Y-77217200D02*
X80865237Y-77264819D01*
X80865237Y-77264819D02*
X80674761Y-77264819D01*
X80674761Y-77264819D02*
X80579523Y-77217200D01*
X80579523Y-77217200D02*
X80531904Y-77169580D01*
X80531904Y-77169580D02*
X80484285Y-77074342D01*
X80484285Y-77074342D02*
X80484285Y-76883866D01*
X80484285Y-76883866D02*
X80531904Y-76788628D01*
X80531904Y-76788628D02*
X80579523Y-76741009D01*
X80579523Y-76741009D02*
X80674761Y-76693390D01*
X104671904Y-89324819D02*
X104671904Y-90134342D01*
X104671904Y-90134342D02*
X104624285Y-90229580D01*
X104624285Y-90229580D02*
X104576666Y-90277200D01*
X104576666Y-90277200D02*
X104481428Y-90324819D01*
X104481428Y-90324819D02*
X104290952Y-90324819D01*
X104290952Y-90324819D02*
X104195714Y-90277200D01*
X104195714Y-90277200D02*
X104148095Y-90229580D01*
X104148095Y-90229580D02*
X104100476Y-90134342D01*
X104100476Y-90134342D02*
X104100476Y-89324819D01*
X103100476Y-90324819D02*
X103671904Y-90324819D01*
X103386190Y-90324819D02*
X103386190Y-89324819D01*
X103386190Y-89324819D02*
X103481428Y-89467676D01*
X103481428Y-89467676D02*
X103576666Y-89562914D01*
X103576666Y-89562914D02*
X103671904Y-89610533D01*
X78296666Y-74194819D02*
X78629999Y-73718628D01*
X78868094Y-74194819D02*
X78868094Y-73194819D01*
X78868094Y-73194819D02*
X78487142Y-73194819D01*
X78487142Y-73194819D02*
X78391904Y-73242438D01*
X78391904Y-73242438D02*
X78344285Y-73290057D01*
X78344285Y-73290057D02*
X78296666Y-73385295D01*
X78296666Y-73385295D02*
X78296666Y-73528152D01*
X78296666Y-73528152D02*
X78344285Y-73623390D01*
X78344285Y-73623390D02*
X78391904Y-73671009D01*
X78391904Y-73671009D02*
X78487142Y-73718628D01*
X78487142Y-73718628D02*
X78868094Y-73718628D01*
X77963332Y-73194819D02*
X77296666Y-73194819D01*
X77296666Y-73194819D02*
X77725237Y-74194819D01*
X78506666Y-85384819D02*
X78839999Y-84908628D01*
X79078094Y-85384819D02*
X79078094Y-84384819D01*
X79078094Y-84384819D02*
X78697142Y-84384819D01*
X78697142Y-84384819D02*
X78601904Y-84432438D01*
X78601904Y-84432438D02*
X78554285Y-84480057D01*
X78554285Y-84480057D02*
X78506666Y-84575295D01*
X78506666Y-84575295D02*
X78506666Y-84718152D01*
X78506666Y-84718152D02*
X78554285Y-84813390D01*
X78554285Y-84813390D02*
X78601904Y-84861009D01*
X78601904Y-84861009D02*
X78697142Y-84908628D01*
X78697142Y-84908628D02*
X79078094Y-84908628D01*
X77601904Y-84384819D02*
X78078094Y-84384819D01*
X78078094Y-84384819D02*
X78125713Y-84861009D01*
X78125713Y-84861009D02*
X78078094Y-84813390D01*
X78078094Y-84813390D02*
X77982856Y-84765771D01*
X77982856Y-84765771D02*
X77744761Y-84765771D01*
X77744761Y-84765771D02*
X77649523Y-84813390D01*
X77649523Y-84813390D02*
X77601904Y-84861009D01*
X77601904Y-84861009D02*
X77554285Y-84956247D01*
X77554285Y-84956247D02*
X77554285Y-85194342D01*
X77554285Y-85194342D02*
X77601904Y-85289580D01*
X77601904Y-85289580D02*
X77649523Y-85337200D01*
X77649523Y-85337200D02*
X77744761Y-85384819D01*
X77744761Y-85384819D02*
X77982856Y-85384819D01*
X77982856Y-85384819D02*
X78078094Y-85337200D01*
X78078094Y-85337200D02*
X78125713Y-85289580D01*
D13*
%TO.C,RJ4*%
X115390000Y-53240000D02*
G75*
G03*
X115390000Y-53240000I-700000J0D01*
G01*
%TO.C,RJ3*%
X120330000Y-53120000D02*
G75*
G03*
X120330000Y-53120000I-700000J0D01*
G01*
%TO.C,RJ2*%
X115610000Y-50020000D02*
G75*
G03*
X115610000Y-50020000I-700000J0D01*
G01*
%TO.C,RJ1*%
X118620000Y-47030000D02*
G75*
G03*
X118620000Y-47030000I-700000J0D01*
G01*
%TO.C,IJ4*%
X136840000Y-49510000D02*
G75*
G03*
X136840000Y-49510000I-700000J0D01*
G01*
%TO.C,IJ3*%
X136720000Y-52640000D02*
G75*
G03*
X136720000Y-52640000I-700000J0D01*
G01*
%TO.C,IJ2*%
X136650000Y-55580000D02*
G75*
G03*
X136650000Y-55580000I-700000J0D01*
G01*
%TO.C,IJ1*%
X136520000Y-58400000D02*
G75*
G03*
X136520000Y-58400000I-700000J0D01*
G01*
%TO.C,NCI1*%
X132610000Y-48720000D02*
G75*
G03*
X132610000Y-48720000I-700000J0D01*
G01*
%TO.C,NCI3*%
X132610000Y-55700000D02*
G75*
G03*
X132610000Y-55700000I-700000J0D01*
G01*
%TO.C,NCI2*%
X132610000Y-52520000D02*
G75*
G03*
X132610000Y-52520000I-700000J0D01*
G01*
%TO.C,NCR3*%
X118240000Y-54230000D02*
G75*
G03*
X118240000Y-54230000I-700000J0D01*
G01*
%TO.C,NCR2*%
X118790000Y-51670000D02*
G75*
G03*
X118790000Y-51670000I-700000J0D01*
G01*
%TO.C,NCR1*%
X119740000Y-49110000D02*
G75*
G03*
X119740000Y-49110000I-700000J0D01*
G01*
%TO.C,R12*%
X106694724Y-73867500D02*
X106185276Y-73867500D01*
X106694724Y-74912500D02*
X106185276Y-74912500D01*
%TO.C,R9*%
X106824724Y-80872500D02*
X106315276Y-80872500D01*
X106824724Y-79827500D02*
X106315276Y-79827500D01*
%TO.C,R6*%
X106904724Y-86187500D02*
X106395276Y-86187500D01*
X106904724Y-87232500D02*
X106395276Y-87232500D01*
%TO.C,R3*%
X106834724Y-92547500D02*
X106325276Y-92547500D01*
X106834724Y-93592500D02*
X106325276Y-93592500D01*
%TO.C,D4*%
X84560000Y-74050000D02*
X84560000Y-68540000D01*
X87860000Y-74050000D02*
X84560000Y-74050000D01*
X87860000Y-74050000D02*
X87860000Y-68540000D01*
%TO.C,D3*%
X88170000Y-81530000D02*
X88170000Y-76020000D01*
X91470000Y-81530000D02*
X88170000Y-81530000D01*
X91470000Y-81530000D02*
X91470000Y-76020000D01*
%TO.C,D2*%
X88290000Y-89080000D02*
X88290000Y-83570000D01*
X91590000Y-89080000D02*
X88290000Y-89080000D01*
X91590000Y-89080000D02*
X91590000Y-83570000D01*
%TO.C,D1*%
X84380000Y-94390000D02*
X84380000Y-88880000D01*
X87680000Y-94390000D02*
X84380000Y-94390000D01*
X87680000Y-94390000D02*
X87680000Y-88880000D01*
%TO.C,C1*%
X109460000Y-73368752D02*
X109460000Y-71946248D01*
X111280000Y-73368752D02*
X111280000Y-71946248D01*
%TO.C,C2*%
X124556248Y-58540000D02*
X125978752Y-58540000D01*
X124556248Y-60360000D02*
X125978752Y-60360000D01*
%TO.C,R10*%
X78145000Y-67162936D02*
X78145000Y-67617064D01*
X76675000Y-67162936D02*
X76675000Y-67617064D01*
%TO.C,U2*%
X98790000Y-88020000D02*
G75*
G03*
X96790000Y-88020000I-1000000J0D01*
G01*
X102930000Y-88080000D02*
X92650000Y-88080000D01*
X102930000Y-82760000D02*
X102930000Y-88080000D01*
X100440000Y-88020000D02*
X98790000Y-88020000D01*
X100440000Y-82820000D02*
X100440000Y-88020000D01*
X96790000Y-88020000D02*
X95140000Y-88020000D01*
X95140000Y-88020000D02*
X95140000Y-82820000D01*
X95140000Y-82820000D02*
X100440000Y-82820000D01*
X92650000Y-88080000D02*
X92650000Y-82760000D01*
X92650000Y-82760000D02*
X102930000Y-82760000D01*
%TO.C,U4*%
X92740000Y-70400000D02*
X103020000Y-70400000D01*
X92740000Y-75720000D02*
X92740000Y-70400000D01*
X95230000Y-70460000D02*
X100530000Y-70460000D01*
X95230000Y-75660000D02*
X95230000Y-70460000D01*
X96880000Y-75660000D02*
X95230000Y-75660000D01*
X100530000Y-70460000D02*
X100530000Y-75660000D01*
X100530000Y-75660000D02*
X98880000Y-75660000D01*
X103020000Y-70400000D02*
X103020000Y-75720000D01*
X103020000Y-75720000D02*
X92740000Y-75720000D01*
X98880000Y-75660000D02*
G75*
G03*
X96880000Y-75660000I-1000000J0D01*
G01*
%TO.C,U6*%
X127567500Y-57685000D02*
X127567500Y-57405000D01*
X127567500Y-47345000D02*
X129257500Y-47345000D01*
X127567500Y-47065000D02*
X127567500Y-47345000D01*
X125257500Y-57685000D02*
X127567500Y-57685000D01*
X125257500Y-57685000D02*
X122947500Y-57685000D01*
X125257500Y-47065000D02*
X127567500Y-47065000D01*
X125257500Y-47065000D02*
X122947500Y-47065000D01*
X122947500Y-57685000D02*
X122947500Y-57405000D01*
X122947500Y-47065000D02*
X122947500Y-47345000D01*
%TO.C,R1*%
X77935000Y-88092936D02*
X77935000Y-88547064D01*
X76465000Y-88092936D02*
X76465000Y-88547064D01*
%TO.C,R2*%
X81422936Y-92325000D02*
X81877064Y-92325000D01*
X81422936Y-93795000D02*
X81877064Y-93795000D01*
%TO.C,U3*%
X92640000Y-76480000D02*
X102920000Y-76480000D01*
X92640000Y-81800000D02*
X92640000Y-76480000D01*
X95130000Y-76540000D02*
X100430000Y-76540000D01*
X95130000Y-81740000D02*
X95130000Y-76540000D01*
X96780000Y-81740000D02*
X95130000Y-81740000D01*
X100430000Y-76540000D02*
X100430000Y-81740000D01*
X100430000Y-81740000D02*
X98780000Y-81740000D01*
X102920000Y-76480000D02*
X102920000Y-81800000D01*
X102920000Y-81800000D02*
X92640000Y-81800000D01*
X98780000Y-81740000D02*
G75*
G03*
X96780000Y-81740000I-1000000J0D01*
G01*
%TO.C,R11*%
X81662936Y-68505000D02*
X82117064Y-68505000D01*
X81662936Y-69975000D02*
X82117064Y-69975000D01*
%TO.C,R4*%
X78005000Y-79352936D02*
X78005000Y-79807064D01*
X76535000Y-79352936D02*
X76535000Y-79807064D01*
%TO.C,R8*%
X81042936Y-74425000D02*
X81497064Y-74425000D01*
X81042936Y-75895000D02*
X81497064Y-75895000D01*
%TO.C,U1*%
X98790000Y-94340000D02*
G75*
G03*
X96790000Y-94340000I-1000000J0D01*
G01*
X102930000Y-94400000D02*
X92650000Y-94400000D01*
X102930000Y-89080000D02*
X102930000Y-94400000D01*
X100440000Y-94340000D02*
X98790000Y-94340000D01*
X100440000Y-89140000D02*
X100440000Y-94340000D01*
X96790000Y-94340000D02*
X95140000Y-94340000D01*
X95140000Y-94340000D02*
X95140000Y-89140000D01*
X95140000Y-89140000D02*
X100440000Y-89140000D01*
X92650000Y-94400000D02*
X92650000Y-89080000D01*
X92650000Y-89080000D02*
X102930000Y-89080000D01*
%TO.C,R7*%
X77902936Y-71355000D02*
X78357064Y-71355000D01*
X77902936Y-72825000D02*
X78357064Y-72825000D01*
%TO.C,R5*%
X78112936Y-82545000D02*
X78567064Y-82545000D01*
X78112936Y-84015000D02*
X78567064Y-84015000D01*
%TD*%
M02*
