%TF.GenerationSoftware,KiCad,Pcbnew,7.0.8*%
%TF.CreationDate,2025-02-03T21:17:31+05:30*%
%TF.ProjectId,WemosD1Mini-8266,57656d6f-7344-4314-9d69-6e692d383236,rev?*%
%TF.SameCoordinates,Original*%
%TF.FileFunction,Soldermask,Bot*%
%TF.FilePolarity,Negative*%
%FSLAX46Y46*%
G04 Gerber Fmt 4.6, Leading zero omitted, Abs format (unit mm)*
G04 Created by KiCad (PCBNEW 7.0.8) date 2025-02-03 21:17:31*
%MOMM*%
%LPD*%
G01*
G04 APERTURE LIST*
G04 Aperture macros list*
%AMRoundRect*
0 Rectangle with rounded corners*
0 $1 Rounding radius*
0 $2 $3 $4 $5 $6 $7 $8 $9 X,Y pos of 4 corners*
0 Add a 4 corners polygon primitive as box body*
4,1,4,$2,$3,$4,$5,$6,$7,$8,$9,$2,$3,0*
0 Add four circle primitives for the rounded corners*
1,1,$1+$1,$2,$3*
1,1,$1+$1,$4,$5*
1,1,$1+$1,$6,$7*
1,1,$1+$1,$8,$9*
0 Add four rect primitives between the rounded corners*
20,1,$1+$1,$2,$3,$4,$5,0*
20,1,$1+$1,$4,$5,$6,$7,0*
20,1,$1+$1,$6,$7,$8,$9,0*
20,1,$1+$1,$8,$9,$2,$3,0*%
G04 Aperture macros list end*
%ADD10C,1.270000*%
%ADD11R,2.000000X2.000000*%
%ADD12O,2.000000X1.600000*%
%ADD13C,3.000000*%
%ADD14R,2.540000X2.540000*%
%ADD15C,2.540000*%
%ADD16C,2.000000*%
%ADD17RoundRect,0.250000X0.750000X-0.600000X0.750000X0.600000X-0.750000X0.600000X-0.750000X-0.600000X0*%
%ADD18O,2.000000X1.700000*%
%ADD19R,2.600000X2.600000*%
%ADD20C,2.600000*%
%ADD21RoundRect,0.250000X0.600000X0.750000X-0.600000X0.750000X-0.600000X-0.750000X0.600000X-0.750000X0*%
%ADD22O,1.700000X2.000000*%
%ADD23C,1.800000*%
%ADD24C,3.200000*%
%ADD25RoundRect,0.250000X0.600000X0.725000X-0.600000X0.725000X-0.600000X-0.725000X0.600000X-0.725000X0*%
%ADD26O,1.700000X1.950000*%
%ADD27RoundRect,0.250000X-0.350000X-0.450000X0.350000X-0.450000X0.350000X0.450000X-0.350000X0.450000X0*%
%ADD28RoundRect,0.237500X0.250000X0.237500X-0.250000X0.237500X-0.250000X-0.237500X0.250000X-0.237500X0*%
%ADD29RoundRect,0.162500X0.750000X0.162500X-0.750000X0.162500X-0.750000X-0.162500X0.750000X-0.162500X0*%
%ADD30R,3.100000X1.600000*%
%ADD31RoundRect,0.250000X-1.000000X-0.650000X1.000000X-0.650000X1.000000X0.650000X-1.000000X0.650000X0*%
%ADD32RoundRect,0.250000X0.650000X-0.412500X0.650000X0.412500X-0.650000X0.412500X-0.650000X-0.412500X0*%
%ADD33RoundRect,0.250000X0.350000X0.450000X-0.350000X0.450000X-0.350000X-0.450000X0.350000X-0.450000X0*%
%ADD34RoundRect,0.250000X-0.650000X0.412500X-0.650000X-0.412500X0.650000X-0.412500X0.650000X0.412500X0*%
%ADD35RoundRect,0.250000X-0.450000X0.350000X-0.450000X-0.350000X0.450000X-0.350000X0.450000X0.350000X0*%
G04 APERTURE END LIST*
D10*
%TO.C,F1*%
X113950000Y-136200000D03*
X119050000Y-137800000D03*
%TD*%
D11*
%TO.C,U5*%
X185110000Y-143210000D03*
D12*
X185110000Y-140670000D03*
X185110000Y-138130000D03*
X185110000Y-135590000D03*
X185110000Y-133050000D03*
X185110000Y-130510000D03*
X185110000Y-127970000D03*
X185110000Y-125430000D03*
X162250000Y-125430000D03*
X162250000Y-127970000D03*
X162250000Y-130510000D03*
X162250000Y-133050000D03*
X162250000Y-135590000D03*
X162250000Y-138130000D03*
X162250000Y-140670000D03*
X162250000Y-143210000D03*
%TD*%
D13*
%TO.C,RL3*%
X122580000Y-114220000D03*
X122580000Y-121220000D03*
D14*
X122580000Y-102720000D03*
D15*
X127280000Y-102720000D03*
%TD*%
D11*
%TO.C,PS1*%
X124000000Y-136500000D03*
D16*
X124000000Y-142500000D03*
X157600000Y-130500000D03*
X157600000Y-148500000D03*
%TD*%
D17*
%TO.C,J5*%
X182555000Y-113370000D03*
D18*
X182555000Y-110870000D03*
%TD*%
D19*
%TO.C,J8*%
X193130000Y-144700000D03*
D20*
X193130000Y-139620000D03*
X193130000Y-134540000D03*
X193130000Y-129460000D03*
X193130000Y-124380000D03*
X193130000Y-119300000D03*
X193130000Y-114220000D03*
X193130000Y-109140000D03*
%TD*%
D21*
%TO.C,J3*%
X160330000Y-104245000D03*
D22*
X157830000Y-104245000D03*
%TD*%
D23*
%TO.C,RV1*%
X117750000Y-141750000D03*
X114050000Y-149250000D03*
%TD*%
D21*
%TO.C,J2*%
X151630000Y-104245000D03*
D22*
X149130000Y-104245000D03*
%TD*%
D13*
%TO.C,RL1*%
X138780000Y-114220000D03*
X138780000Y-121220000D03*
D14*
X138780000Y-102720000D03*
D15*
X143480000Y-102720000D03*
%TD*%
D13*
%TO.C,RL2*%
X130680000Y-114220000D03*
X130680000Y-121220000D03*
D14*
X130680000Y-102720000D03*
D15*
X135380000Y-102720000D03*
%TD*%
D24*
%TO.C,H1*%
X170680000Y-137520000D03*
%TD*%
D25*
%TO.C,J6*%
X178750000Y-104250000D03*
D26*
X176250000Y-104250000D03*
X173750000Y-104250000D03*
X171250000Y-104250000D03*
%TD*%
D13*
%TO.C,RL4*%
X114480000Y-114230000D03*
X114480000Y-121230000D03*
D14*
X114480000Y-102730000D03*
D15*
X119180000Y-102730000D03*
%TD*%
D19*
%TO.C,J1*%
X105630000Y-102860000D03*
D20*
X105630000Y-107940000D03*
X105630000Y-113020000D03*
X105630000Y-118100000D03*
X105630000Y-123180000D03*
X105630000Y-128260000D03*
X105630000Y-133340000D03*
X105630000Y-138420000D03*
X105630000Y-143500000D03*
X105630000Y-148580000D03*
%TD*%
D25*
%TO.C,J4*%
X156130000Y-123270000D03*
D26*
X153630000Y-123270000D03*
X151130000Y-123270000D03*
X148630000Y-123270000D03*
%TD*%
D27*
%TO.C,R4*%
X110980000Y-133120000D03*
X112980000Y-133120000D03*
%TD*%
D28*
%TO.C,R3*%
X148392500Y-148870000D03*
X146567500Y-148870000D03*
%TD*%
D29*
%TO.C,U6*%
X155217500Y-110125000D03*
X155217500Y-111395000D03*
X155217500Y-112665000D03*
X155217500Y-113935000D03*
X155217500Y-115205000D03*
X155217500Y-116475000D03*
X155217500Y-117745000D03*
X155217500Y-119015000D03*
X149042500Y-119015000D03*
X149042500Y-117745000D03*
X149042500Y-116475000D03*
X149042500Y-115205000D03*
X149042500Y-113935000D03*
X149042500Y-112665000D03*
X149042500Y-111395000D03*
X149042500Y-110125000D03*
%TD*%
D28*
%TO.C,R9*%
X148392500Y-137020000D03*
X146567500Y-137020000D03*
%TD*%
%TO.C,R14*%
X148342500Y-131070000D03*
X146517500Y-131070000D03*
%TD*%
D27*
%TO.C,R8*%
X115530000Y-126320000D03*
X117530000Y-126320000D03*
%TD*%
%TO.C,R15*%
X160680000Y-115320000D03*
X162680000Y-115320000D03*
%TD*%
%TO.C,R17*%
X160680000Y-110670000D03*
X162680000Y-110670000D03*
%TD*%
D30*
%TO.C,U4*%
X132885000Y-131040000D03*
X132885000Y-128500000D03*
X141775000Y-128500000D03*
X141775000Y-131040000D03*
%TD*%
D27*
%TO.C,R5*%
X115580000Y-131370000D03*
X117580000Y-131370000D03*
%TD*%
D31*
%TO.C,D3*%
X122830000Y-126370000D03*
X126830000Y-126370000D03*
%TD*%
%TO.C,D1*%
X122930000Y-146570000D03*
X126930000Y-146570000D03*
%TD*%
%TO.C,D2*%
X122730000Y-131370000D03*
X126730000Y-131370000D03*
%TD*%
D30*
%TO.C,U3*%
X132885000Y-136890000D03*
X132885000Y-134350000D03*
X141775000Y-134350000D03*
X141775000Y-136890000D03*
%TD*%
D32*
%TO.C,C1*%
X181130000Y-123070000D03*
X181130000Y-119945000D03*
%TD*%
D30*
%TO.C,U2*%
X132885000Y-142840000D03*
X132885000Y-140300000D03*
X141775000Y-140300000D03*
X141775000Y-142840000D03*
%TD*%
%TO.C,U1*%
X132885000Y-148840000D03*
X132885000Y-146300000D03*
X141775000Y-146300000D03*
X141775000Y-148840000D03*
%TD*%
D33*
%TO.C,R19*%
X178250000Y-115500000D03*
X176250000Y-115500000D03*
%TD*%
D34*
%TO.C,C2*%
X166180000Y-125420000D03*
X166180000Y-128545000D03*
%TD*%
D27*
%TO.C,R7*%
X111030000Y-128320000D03*
X113030000Y-128320000D03*
%TD*%
D28*
%TO.C,R6*%
X148392500Y-142820000D03*
X146567500Y-142820000D03*
%TD*%
D27*
%TO.C,R2*%
X114230000Y-145270000D03*
X116230000Y-145270000D03*
%TD*%
%TO.C,R18*%
X160680000Y-108420000D03*
X162680000Y-108420000D03*
%TD*%
D35*
%TO.C,R1*%
X110500000Y-143250000D03*
X110500000Y-145250000D03*
%TD*%
D27*
%TO.C,R16*%
X160680000Y-112920000D03*
X162680000Y-112920000D03*
%TD*%
M02*
